<svg width="24" height="24" viewBox="0 0 24 24" fill="none" xmlns="http://www.w3.org/2000/svg">
<path d="M14 13V6.52941C14 4.58017 15.567 3 17.5 3C19.433 3 21 4.58017 21 6.52941C21 8.47865 20.308 10.2727 18.375 10.2727H18.3001C18.02 10.2727 17.88 10.2727 17.773 10.3272C17.6789 10.3752 17.6024 10.4517 17.5545 10.5457C17.5 10.6527 17.5 10.7927 17.5 11.0727V13M10 13V6.52941C10 4.58017 8.433 3 6.5 3C4.567 3 3 4.58017 3 6.52941C3 8.47865 3.692 10.2727 5.625 10.2727H5.69987C5.97998 10.2727 6.12004 10.2727 6.227 10.3272C6.32108 10.3752 6.39757 10.4517 6.4455 10.5457C6.5 10.6527 6.5 10.7927 6.5 11.0727V13M6 6V7M18 6V7M10.5 22H13.5C15.8297 22 16.9946 22 17.9134 21.6194C19.1386 21.1119 20.1119 20.1386 20.6194 18.9134C21 17.9946 21 16.8297 21 14.5C21 14.0341 21 13.8011 20.9239 13.6173C20.8224 13.3723 20.6277 13.1776 20.3827 13.0761C20.1989 13 19.9659 13 19.5 13H4.5C4.03406 13 3.80109 13 3.61732 13.0761C3.37229 13.1776 3.17761 13.3723 3.07612 13.6173C3 13.8011 3 14.0341 3 14.5C3 16.8297 3 17.9946 3.3806 18.9134C3.88807 20.1386 4.86144 21.1119 6.08658 21.6194C7.00544 22 8.17029 22 10.5 22Z" stroke="#98A2B3" stroke-width="1.5" stroke-linecap="round" stroke-linejoin="round"/>
</svg>
