<svg width="24" height="24" viewBox="0 0 24 24" fill="none" xmlns="http://www.w3.org/2000/svg">
<path d="M5 16.8174C4.87081 16.7783 4.75133 16.7307 4.63803 16.673C4.07354 16.3854 3.6146 15.9265 3.32698 15.362C3 14.7202 3 13.8802 3 12.2V8.8C3 7.11984 3 6.27976 3.32698 5.63803C3.6146 5.07354 4.07354 4.6146 4.63803 4.32698C5.27976 4 6.11984 4 7.8 4H16.2C17.8802 4 18.7202 4 19.362 4.32698C19.9265 4.6146 20.3854 5.07354 20.673 5.63803C21 6.27976 21 7.11984 21 8.8V12.2C21 13.8802 21 14.7202 20.673 15.362C20.3854 15.9265 19.9265 16.3854 19.362 16.673C19.2487 16.7307 19.1292 16.7783 19 16.8174M9.14074 20H14.8593C15.4237 20 15.706 20 15.8367 19.875C15.9501 19.7666 16.0103 19.6039 15.9986 19.4375C15.9851 19.2456 15.7855 19.0222 15.3863 18.5753L12.5271 15.3741C12.3426 15.1675 12.2503 15.0642 12.144 15.0255C12.0504 14.9915 11.9496 14.9915 11.856 15.0255C11.7497 15.0642 11.6574 15.1675 11.4729 15.3741L8.61365 18.5753C8.2145 19.0222 8.01492 19.2456 8.00144 19.4375C7.98974 19.6039 8.04992 19.7666 8.16332 19.875C8.29401 20 8.57626 20 9.14074 20Z" stroke="#98A2B3" stroke-width="1.5" stroke-linecap="round" stroke-linejoin="round"/>
</svg>
