<svg width="24" height="24" viewBox="0 0 24 24" fill="none" xmlns="http://www.w3.org/2000/svg">
<path d="M11.9997 12.5815V9.58155M11.9997 15.5815H12.0097M18.9997 20.5815L16.4094 18.0183M4.9997 20.5815L7.59001 18.0183M6.74234 3.99741C6.36727 3.62234 5.85856 3.41162 5.32812 3.41162C4.79769 3.41162 4.28898 3.62234 3.91391 3.99741C3.53884 4.37248 3.32813 4.88119 3.32812 5.41162C3.32812 5.94206 3.53884 6.45076 3.91391 6.82584M20.0858 6.82419C20.4609 6.44911 20.6716 5.94041 20.6716 5.40997C20.6716 4.87954 20.4609 4.37083 20.0858 3.99576C19.7107 3.62069 19.202 3.40997 18.6716 3.40997C18.1411 3.40997 17.6324 3.62069 17.2574 3.99576M18.9997 12.5815C18.9997 16.4475 15.8657 19.5815 11.9997 19.5815C8.1337 19.5815 4.9997 16.4475 4.9997 12.5815C4.9997 8.71555 8.1337 5.58155 11.9997 5.58155C15.8657 5.58155 18.9997 8.71555 18.9997 12.5815Z" stroke="#98A2B3" stroke-width="1.5" stroke-linecap="round" stroke-linejoin="round"/>
</svg>
