<svg width="24" height="24" viewBox="0 0 24 24" fill="none" xmlns="http://www.w3.org/2000/svg">
<path d="M4.00003 7H20M5.00003 4H19M6.89599 20H17.1041C18.1272 20 18.6387 20 19.0444 19.8084C19.4016 19.6396 19.7009 19.3687 19.9044 19.03C20.1355 18.6454 20.1864 18.1364 20.2882 17.1184L20.7361 12.6388C20.8276 11.7244 20.8733 11.2672 20.7233 10.9138C20.5915 10.6034 20.359 10.3465 20.0632 10.1844C19.7265 10 19.267 10 18.3481 10H5.652C4.73306 10 4.27359 10 3.93687 10.1844C3.6411 10.3465 3.40856 10.6034 3.27678 10.9138C3.12675 11.2672 3.17247 11.7244 3.26391 12.6388L3.71187 17.1184C3.81367 18.1364 3.86457 18.6454 4.09562 19.03C4.29913 19.3687 4.59841 19.6396 4.9557 19.8084C5.36136 20 5.8729 20 6.89599 20ZM15 15C15 16.1046 13.6569 17 12 17C10.3432 17 9.00003 16.1046 9.00003 15C9.00003 13.8954 10.3432 13 12 13C13.6569 13 15 13.8954 15 15Z" stroke="#98A2B3" stroke-width="1.5" stroke-linecap="round" stroke-linejoin="round"/>
</svg>
