<svg width="24" height="24" viewBox="0 0 24 24" fill="none" xmlns="http://www.w3.org/2000/svg">
<path d="M10.1797 8.25C9.76547 8.25 9.42969 8.58579 9.42969 9C9.42969 9.41421 9.76547 9.75 10.1797 9.75V8.25ZM14.2133 3.51183C14.4204 3.15311 14.2975 2.69442 13.9387 2.48732C13.58 2.28021 13.1213 2.40311 12.9142 2.76183L14.2133 3.51183ZM7.79708 11.625C7.58997 11.9837 7.71288 12.4424 8.0716 12.6495C8.43031 12.8566 8.88901 12.7337 9.09611 12.375L7.79708 11.625ZM9.53146 15.375C9.73856 15.7337 10.1973 15.8566 10.556 15.6495C10.9147 15.4424 11.0376 14.9837 10.8305 14.625L9.53146 15.375ZM5.75754 5.83837C5.55043 5.47965 5.09174 5.35675 4.73302 5.56385C4.3743 5.77096 4.25139 6.22965 4.4585 6.58837L5.75754 5.83837ZM16.0961 12.375C16.3032 12.0163 16.1803 11.5576 15.8216 11.3505C15.4629 11.1434 15.0042 11.2663 14.7971 11.625L16.0961 12.375ZM9.68924 20.472C9.48213 20.8307 9.60504 21.2894 9.96376 21.4965C10.3225 21.7037 10.7812 21.5807 10.9883 21.222L9.68924 20.472ZM18.1824 18.2345C18.3895 18.5932 18.8482 18.7161 19.2069 18.509C19.5656 18.3019 19.6885 17.8432 19.4814 17.4845L18.1824 18.2345ZM14.3664 8.625C14.1593 8.26628 13.7006 8.14337 13.3419 8.35048C12.9832 8.55759 12.8603 9.01628 13.0674 9.375L14.3664 8.625ZM3.49981 14.25C3.0856 14.25 2.74981 14.5858 2.74981 15C2.74981 15.4142 3.0856 15.75 3.49981 15.75V14.25ZM20.4844 8.25H10.1797V9.75H20.4844V8.25ZM12.9142 2.76183L7.79708 11.625L9.09611 12.375L14.2133 3.51183L12.9142 2.76183ZM10.8305 14.625L5.75754 5.83837L4.4585 6.58837L9.53146 15.375L10.8305 14.625ZM14.7971 11.625L9.68924 20.472L10.9883 21.222L16.0961 12.375L14.7971 11.625ZM19.4814 17.4845L14.3664 8.625L13.0674 9.375L18.1824 18.2345L19.4814 17.4845ZM13.6886 14.25H3.49981V15.75H13.6886V14.25ZM20.25 12C20.25 16.5563 16.5563 20.25 12 20.25V21.75C17.3848 21.75 21.75 17.3848 21.75 12H20.25ZM12 20.25C7.44365 20.25 3.75 16.5563 3.75 12H2.25C2.25 17.3848 6.61522 21.75 12 21.75V20.25ZM3.75 12C3.75 7.44365 7.44365 3.75 12 3.75V2.25C6.61522 2.25 2.25 6.61522 2.25 12H3.75ZM12 3.75C16.5563 3.75 20.25 7.44365 20.25 12H21.75C21.75 6.61522 17.3848 2.25 12 2.25V3.75Z" fill="#98A2B3"/>
</svg>
