<svg width="24" height="24" viewBox="0 0 24 24" fill="none" xmlns="http://www.w3.org/2000/svg">
<path d="M9 13.5001V9.00006M9 9.00006H13.5M9 9.00006L15 14.9999M7.2 20.0001H16.8C17.9201 20.0001 18.4802 20.0001 18.908 19.7821C19.2843 19.5903 19.5903 19.2844 19.782 18.908C20 18.4802 20 17.9202 20 16.8001V7.20006C20 6.07996 20 5.5199 19.782 5.09208C19.5903 4.71576 19.2843 4.40979 18.908 4.21805C18.4802 4.00006 17.9201 4.00006 16.8 4.00006H7.2C6.0799 4.00006 5.51984 4.00006 5.09202 4.21805C4.71569 4.40979 4.40973 4.71576 4.21799 5.09208C4 5.5199 4 6.07996 4 7.20006V16.8001C4 17.9202 4 18.4802 4.21799 18.908C4.40973 19.2844 4.71569 19.5903 5.09202 19.7821C5.51984 20.0001 6.07989 20.0001 7.2 20.0001Z" stroke="#98A2B3" stroke-width="1.5" stroke-linecap="round" stroke-linejoin="round"/>
</svg>
