<svg width="24" height="24" viewBox="0 0 24 24" fill="none" xmlns="http://www.w3.org/2000/svg">
<path d="M9 10.5V15M9 15H13.5M9 15L14.9999 8.99994M7.2 19.9999H16.8C17.9201 19.9999 18.4802 19.9999 18.908 19.782C19.2843 19.5902 19.5903 19.2842 19.782 18.9079C20 18.4801 20 17.92 20 16.7999V7.19994C20 6.07983 20 5.51978 19.782 5.09196C19.5903 4.71563 19.2843 4.40967 18.908 4.21793C18.4802 3.99994 17.9201 3.99994 16.8 3.99994H7.2C6.0799 3.99994 5.51984 3.99994 5.09202 4.21793C4.71569 4.40967 4.40973 4.71563 4.21799 5.09196C4 5.51978 4 6.07983 4 7.19994V16.7999C4 17.92 4 18.4801 4.21799 18.9079C4.40973 19.2842 4.71569 19.5902 5.09202 19.782C5.51984 19.9999 6.07989 19.9999 7.2 19.9999Z" stroke="#98A2B3" stroke-width="1.5" stroke-linecap="round" stroke-linejoin="round"/>
</svg>
