<svg width="24" height="24" viewBox="0 0 24 24" fill="none" xmlns="http://www.w3.org/2000/svg">
<path d="M3 6.00002V18M12 8.07307V15.927C12 16.9215 12 17.4188 11.7934 17.6881C11.6135 17.9226 11.339 18.0655 11.0437 18.0784C10.7046 18.0932 10.2972 17.8081 9.48246 17.2377L4.8088 13.9662C3.86389 13.3047 3.39144 12.974 3.22495 12.562C3.07927 12.2015 3.07927 11.7985 3.22495 11.438C3.39144 11.026 3.86389 10.6953 4.8088 10.0339L9.48246 6.7623C10.2972 6.19196 10.7046 5.90679 11.0437 5.92163C11.339 5.93455 11.6135 6.07745 11.7934 6.31195C12 6.58125 12 7.07852 12 8.07307ZM21 8.07307V15.927C21 16.9215 21 17.4188 20.7934 17.6881C20.6135 17.9226 20.339 18.0655 20.0437 18.0784C19.7046 18.0932 19.2972 17.8081 18.4825 17.2377L13.8088 13.9662C12.8639 13.3047 12.3914 12.974 12.2249 12.562C12.0793 12.2015 12.0793 11.7985 12.2249 11.438C12.3914 11.026 12.8639 10.6953 13.8088 10.0339L18.4825 6.7623C19.2972 6.19196 19.7046 5.90679 20.0437 5.92163C20.339 5.93455 20.6135 6.07745 20.7934 6.31195C21 6.58125 21 7.07852 21 8.07307Z" stroke="#98A2B3" stroke-width="1.5" stroke-linecap="round" stroke-linejoin="round"/>
</svg>
