<svg width="24" height="24" viewBox="0 0 24 24" fill="none" xmlns="http://www.w3.org/2000/svg">
<path d="M4.80883 10.0339C3.86392 10.6953 3.39147 11.026 3.22498 11.438C3.0793 11.7985 3.0793 12.2015 3.22498 12.562C3.39147 12.974 3.86392 13.3047 4.80883 13.9662L9.48249 17.2377C10.2973 17.8081 10.7046 18.0932 11.0437 18.0784C11.339 18.0655 11.6135 17.9226 11.7934 17.6881C12 17.4188 12 16.9215 12 15.927V8.07307C12 7.07852 12 6.58125 11.7934 6.31195C11.6135 6.07745 11.339 5.93455 11.0437 5.92163C10.7046 5.90679 10.2973 6.19196 9.48249 6.7623L4.80883 10.0339Z" stroke="#98A2B3" stroke-width="1.5" stroke-linecap="round" stroke-linejoin="round"/>
<path d="M13.8088 10.0339C12.8639 10.6953 12.3915 11.026 12.225 11.438C12.0793 11.7985 12.0793 12.2015 12.225 12.562C12.3915 12.974 12.8639 13.3047 13.8088 13.9662L18.4825 17.2377C19.2973 17.8081 19.7046 18.0932 20.0437 18.0784C20.339 18.0655 20.6135 17.9226 20.7934 17.6881C21 17.4188 21 16.9215 21 15.927V8.07307C21 7.07852 21 6.58125 20.7934 6.31195C20.6135 6.07745 20.339 5.93455 20.0437 5.92163C19.7046 5.90679 19.2973 6.19196 18.4825 6.7623L13.8088 10.0339Z" stroke="#98A2B3" stroke-width="1.5" stroke-linecap="round" stroke-linejoin="round"/>
</svg>
