<svg width="24" height="24" viewBox="0 0 24 24" fill="none" xmlns="http://www.w3.org/2000/svg">
<path d="M7.5 6.00081V18.0008M16.5 8.07386V15.9278C16.5 16.9223 16.5 17.4196 16.2934 17.6889C16.1135 17.9234 15.839 18.0663 15.5437 18.0792C15.2046 18.094 14.7972 17.8089 13.9825 17.2385L9.3088 13.967C8.36389 13.3055 7.89144 12.9748 7.72495 12.5628C7.57927 12.2023 7.57927 11.7993 7.72495 11.4388C7.89144 11.0268 8.36389 10.6961 9.3088 10.0347L13.9825 6.76309C14.7972 6.19276 15.2046 5.90759 15.5437 5.92243C15.839 5.93535 16.1135 6.07824 16.2934 6.31274C16.5 6.58204 16.5 7.07931 16.5 8.07386Z" stroke="#98A2B3" stroke-width="1.5" stroke-linecap="round" stroke-linejoin="round"/>
</svg>
