<svg width="24" height="24" viewBox="0 0 24 24" fill="none" xmlns="http://www.w3.org/2000/svg">
<path d="M7.5 10V14M11.5 10V14M15.5 10V14M21 13V11M7.8 18H15.2C16.8802 18 17.7202 18 18.362 17.673C18.9265 17.3854 19.3854 16.9265 19.673 16.362C20 15.7202 20 14.8802 20 13.2V10.8C20 9.11984 20 8.27976 19.673 7.63803C19.3854 7.07354 18.9265 6.6146 18.362 6.32698C17.7202 6 16.8802 6 15.2 6H7.8C6.11984 6 5.27976 6 4.63803 6.32698C4.07354 6.6146 3.6146 7.07354 3.32698 7.63803C3 8.27976 3 9.11984 3 10.8V13.2C3 14.8802 3 15.7202 3.32698 16.362C3.6146 16.9265 4.07354 17.3854 4.63803 17.673C5.27976 18 6.11984 18 7.8 18Z" stroke="#98A2B3" stroke-width="1.5" stroke-linecap="round" stroke-linejoin="round"/>
</svg>
