<svg width="24" height="24" viewBox="0 0 24 24" fill="none" xmlns="http://www.w3.org/2000/svg">
<path d="M7.69289 6C6.08384 6.00015 5.26598 6.00702 4.63803 6.32698C4.07354 6.6146 3.6146 7.07354 3.32698 7.63803C3 8.27976 3 9.11984 3 10.8V13.2C3 14.8802 3 15.7202 3.32698 16.362C3.6146 16.9265 4.07354 17.3854 4.63803 17.673C5.08763 17.9021 5.63459 17.9707 6.49959 17.9912M16.5004 6.00877C17.3654 6.02931 17.9124 6.09789 18.362 6.32698C18.9265 6.6146 19.3854 7.07354 19.673 7.63803C20 8.27976 20 9.11984 20 10.8V13.2C20 14.8802 20 15.7202 19.673 16.362C19.3854 16.9265 18.9265 17.3854 18.362 17.673C17.7341 17.9929 16.9164 17.9998 15.3077 18M12.5 6L8.5 12H14.5L10.5 18M21 13V11" stroke="#98A2B3" stroke-width="1.5" stroke-linecap="round" stroke-linejoin="round"/>
</svg>
