<svg width="24" height="24" viewBox="0 0 24 24" fill="none" xmlns="http://www.w3.org/2000/svg">
<path d="M11.9999 5C13.4321 5 14.8056 5.50571 15.8183 6.40589C16.831 7.30606 17.3999 8.52696 17.3999 9.8C17.3999 11.7691 17.845 13.2436 18.4222 14.3279C19.1596 15.7133 19.5283 16.406 19.5078 16.5642C19.4839 16.7489 19.4534 16.7997 19.3016 16.9075C19.1716 17 18.5244 17 17.2301 17H6.76969C5.47541 17 4.82827 17 4.69818 16.9075C4.54643 16.7997 4.51594 16.7489 4.49202 16.5642C4.47152 16.406 4.84023 15.7133 5.57765 14.3279C6.15483 13.2436 6.59991 11.7691 6.59991 9.8C6.59991 8.52696 7.16884 7.30606 8.18154 6.40589C9.19423 5.50571 10.5677 5 11.9999 5ZM11.9999 5V3M9.35392 20C10.0602 20.6233 10.9879 21.0016 12.0039 21.0016C13.02 21.0016 13.9477 20.6233 14.6539 20" stroke="#98A2B3" stroke-width="1.5" stroke-linecap="round" stroke-linejoin="round"/>
</svg>
