<svg width="24" height="24" viewBox="0 0 24 24" fill="none" xmlns="http://www.w3.org/2000/svg">
<path d="M5 6.2C5 5.07989 5 4.51984 5.21799 4.09202C5.40973 3.71569 5.71569 3.40973 6.09202 3.21799C6.51984 3 7.07989 3 8.2 3H15.8C16.9201 3 17.4802 3 17.908 3.21799C18.2843 3.40973 18.5903 3.71569 18.782 4.09202C19 4.51984 19 5.07989 19 6.2V17.8909C19 18.8955 19 19.3978 18.7916 19.6678C18.6102 19.9028 18.3338 20.0451 18.0371 20.0561C17.6963 20.0688 17.2875 19.7768 16.47 19.1929L12 16L7.52998 19.1929C6.71248 19.7768 6.30373 20.0688 5.96294 20.0561C5.66624 20.0451 5.38977 19.9028 5.20836 19.6678C5 19.3978 5 18.8955 5 17.8909V6.2Z" stroke="#98A2B3" stroke-width="1.5" stroke-linecap="round" stroke-linejoin="round"/>
</svg>
