<svg width="24" height="24" viewBox="0 0 24 24" fill="none" xmlns="http://www.w3.org/2000/svg">
<path d="M19 10V7.2C19 6.0799 19 5.51984 18.782 5.09202C18.5903 4.71569 18.2843 4.40973 17.908 4.21799C17.4802 4 16.9201 4 15.8 4H8.2C7.07989 4 6.51984 4 6.09202 4.21799C5.71569 4.40973 5.40973 4.71569 5.21799 5.09202C5 5.51984 5 6.0799 5 7.2V10M9 10V8M12 10V8M15 10V8M5.4 20H18.6C19.4401 20 19.8601 20 20.181 19.8365C20.4632 19.6927 20.6927 19.4632 20.8365 19.181C21 18.8601 21 18.4401 21 17.6V12.4C21 11.5599 21 11.1399 20.8365 10.819C20.6927 10.5368 20.4632 10.3073 20.181 10.1635C19.8601 10 19.4401 10 18.6 10H5.4C4.55992 10 4.13988 10 3.81901 10.1635C3.53677 10.3073 3.3073 10.5368 3.16349 10.819C3 11.1399 3 11.5599 3 12.4V17.6C3 18.4401 3 18.8601 3.16349 19.181C3.3073 19.4632 3.53677 19.6927 3.81901 19.8365C4.13988 20 4.55992 20 5.4 20ZM10 15C10 16.1046 9.10457 17 8 17C6.89543 17 6 16.1046 6 15C6 13.8954 6.89543 13 8 13C9.10457 13 10 13.8954 10 15ZM18 15C18 16.1046 17.1046 17 16 17C14.8954 17 14 16.1046 14 15C14 13.8954 14.8954 13 16 13C17.1046 13 18 13.8954 18 15Z" stroke="#98A2B3" stroke-width="1.5" stroke-linecap="round" stroke-linejoin="round"/>
</svg>
