<svg width="24" height="24" viewBox="0 0 24 24" fill="none" xmlns="http://www.w3.org/2000/svg">
<path d="M19 10V16.8C19 17.9201 19 18.4802 18.782 18.908C18.5903 19.2843 18.2843 19.5903 17.908 19.782C17.4802 20 16.9201 20 15.8 20H8.2C7.0799 20 6.51984 20 6.09202 19.782C5.71569 19.5903 5.40973 19.2843 5.21799 18.908C5 18.4802 5 17.9201 5 16.8V10M9 14H15M5.6 4H18.4C18.9601 4 19.2401 4 19.454 4.10899C19.6422 4.20487 19.7951 4.35785 19.891 4.54601C20 4.75992 20 5.03995 20 5.6V8.4C20 8.96005 20 9.24008 19.891 9.45399C19.7951 9.64215 19.6422 9.79513 19.454 9.89101C19.2401 10 18.9601 10 18.4 10H5.6C5.03995 10 4.75992 10 4.54601 9.89101C4.35785 9.79513 4.20487 9.64215 4.10899 9.45399C4 9.24008 4 8.96005 4 8.4V5.6C4 5.03995 4 4.75992 4.10899 4.54601C4.20487 4.35785 4.35785 4.20487 4.54601 4.10899C4.75992 4 5.03995 4 5.6 4Z" stroke="#98A2B3" stroke-width="1.5" stroke-linecap="round" stroke-linejoin="round"/>
</svg>
