<svg width="24" height="24" viewBox="0 0 24 24" fill="none" xmlns="http://www.w3.org/2000/svg">
<path d="M10 19C10.9319 19 11.3978 19 11.7654 18.8478C12.2554 18.6448 12.6448 18.2554 12.8478 17.7654C13 17.3978 13 16.9319 13 16V15.3255C13 14.8363 13 14.5917 13.0553 14.3615C13.1043 14.1575 13.1851 13.9624 13.2947 13.7834C13.4184 13.5816 13.5914 13.4086 13.9373 13.0627L15 12L13.9373 10.9373C13.5914 10.5914 13.4184 10.4184 13.2947 10.2166C13.1851 10.0376 13.1043 9.84254 13.0553 9.63846C13 9.40829 13 9.1637 13 8.67452V8C13 7.06812 13 6.60218 12.8478 6.23463C12.6448 5.74458 12.2554 5.35523 11.7654 5.15224C11.3978 5 10.9319 5 10 5" stroke="#98A2B3" stroke-width="1.5" stroke-linecap="round" stroke-linejoin="round"/>
</svg>
