<svg width="24" height="24" viewBox="0 0 24 24" fill="none" xmlns="http://www.w3.org/2000/svg">
<path d="M9 19C8.06812 19 7.60218 19 7.23463 18.8478C6.74458 18.6448 6.35523 18.2554 6.15224 17.7654C6 17.3978 6 16.9319 6 16V15.3255C6 14.8363 6 14.5917 5.94474 14.3615C5.89575 14.1575 5.81494 13.9624 5.70528 13.7834C5.5816 13.5816 5.40864 13.4086 5.06274 13.0627L4 12L5.06274 10.9373C5.40864 10.5914 5.5816 10.4184 5.70528 10.2166C5.81494 10.0376 5.89575 9.84254 5.94474 9.63846C6 9.40829 6 9.1637 6 8.67452V8C6 7.06812 6 6.60218 6.15224 6.23463C6.35523 5.74458 6.74458 5.35523 7.23463 5.15224C7.60218 5 8.06812 5 9 5M15 19C15.9319 19 16.3978 19 16.7654 18.8478C17.2554 18.6448 17.6448 18.2554 17.8478 17.7654C18 17.3978 18 16.9319 18 16V15.3255C18 14.8363 18 14.5917 18.0553 14.3615C18.1043 14.1575 18.1851 13.9624 18.2947 13.7834C18.4184 13.5816 18.5914 13.4086 18.9373 13.0627L20 12L18.9373 10.9373C18.5914 10.5914 18.4184 10.4184 18.2947 10.2166C18.1851 10.0376 18.1043 9.84254 18.0553 9.63846C18 9.40829 18 9.1637 18 8.67452V8C18 7.06812 18 6.60218 17.8478 6.23463C17.6448 5.74458 17.2554 5.35523 16.7654 5.15224C16.3978 5 15.9319 5 15 5" stroke="#98A2B3" stroke-width="1.5" stroke-linecap="round" stroke-linejoin="round"/>
</svg>
