<svg width="24" height="24" viewBox="0 0 24 24" fill="none" xmlns="http://www.w3.org/2000/svg">
<path d="M15 19C14.0681 19 13.6022 19 13.2346 18.8478C12.7446 18.6448 12.3552 18.2554 12.1522 17.7654C12 17.3978 12 16.9319 12 16V15.3255C12 14.8363 12 14.5917 11.9447 14.3615C11.8957 14.1575 11.8149 13.9624 11.7053 13.7834C11.5816 13.5816 11.4086 13.4086 11.0627 13.0627L10 12L11.0627 10.9373C11.4086 10.5914 11.5816 10.4184 11.7053 10.2166C11.8149 10.0376 11.8957 9.84254 11.9447 9.63846C12 9.40829 12 9.1637 12 8.67452V8C12 7.06812 12 6.60218 12.1522 6.23463C12.3552 5.74458 12.7446 5.35523 13.2346 5.15224C13.6022 5 14.0681 5 15 5" stroke="#98A2B3" stroke-width="1.5" stroke-linecap="round" stroke-linejoin="round"/>
</svg>
