<svg width="24" height="24" viewBox="0 0 24 24" fill="none" xmlns="http://www.w3.org/2000/svg">
<path d="M14 21V21.75C14.4142 21.75 14.75 21.4142 14.75 21H14ZM3 21H2.25C2.25 21.4142 2.58579 21.75 3 21.75V21ZM13.454 3.10899L13.1135 3.77725L13.454 3.10899ZM13.891 3.54601L13.2228 3.8865L13.891 3.54601ZM3.54601 3.10899L3.8865 3.77725L3.54601 3.10899ZM3.10899 3.54601L3.77725 3.8865L3.10899 3.54601ZM6 6.25C5.58579 6.25 5.25 6.58579 5.25 7C5.25 7.41421 5.58579 7.75 6 7.75V6.25ZM7 7.75C7.41421 7.75 7.75 7.41421 7.75 7C7.75 6.58579 7.41421 6.25 7 6.25V7.75ZM6 9.25C5.58579 9.25 5.25 9.58579 5.25 10C5.25 10.4142 5.58579 10.75 6 10.75V9.25ZM7 10.75C7.41421 10.75 7.75 10.4142 7.75 10C7.75 9.58579 7.41421 9.25 7 9.25V10.75ZM10 9.25C9.58579 9.25 9.25 9.58579 9.25 10C9.25 10.4142 9.58579 10.75 10 10.75V9.25ZM11 10.75C11.4142 10.75 11.75 10.4142 11.75 10C11.75 9.58579 11.4142 9.25 11 9.25V10.75ZM10 12.25C9.58579 12.25 9.25 12.5858 9.25 13C9.25 13.4142 9.58579 13.75 10 13.75V12.25ZM11 13.75C11.4142 13.75 11.75 13.4142 11.75 13C11.75 12.5858 11.4142 12.25 11 12.25V13.75ZM6 12.25C5.58579 12.25 5.25 12.5858 5.25 13C5.25 13.4142 5.58579 13.75 6 13.75V12.25ZM7 13.75C7.41421 13.75 7.75 13.4142 7.75 13C7.75 12.5858 7.41421 12.25 7 12.25V13.75ZM10 6.25C9.58579 6.25 9.25 6.58579 9.25 7C9.25 7.41421 9.58579 7.75 10 7.75V6.25ZM11 7.75C11.4142 7.75 11.75 7.41421 11.75 7C11.75 6.58579 11.4142 6.25 11 6.25V7.75ZM17.75 3C17.75 2.58579 17.4142 2.25 17 2.25C16.5858 2.25 16.25 2.58579 16.25 3H17.75ZM16.25 21C16.25 21.4142 16.5858 21.75 17 21.75C17.4142 21.75 17.75 21.4142 17.75 21H16.25ZM21 5H21.75C21.75 4.58579 21.4142 4.25 21 4.25V5ZM21 10V10.75C21.4142 10.75 21.75 10.4142 21.75 10H21ZM4.6 3.75H12.4V2.25H4.6V3.75ZM13.25 4.6V21H14.75V4.6H13.25ZM14 20.25H3V21.75H14V20.25ZM3.75 21V4.6H2.25V21H3.75ZM12.4 3.75C12.6924 3.75 12.8666 3.75058 12.9957 3.76113C13.1161 3.77097 13.1299 3.7856 13.1135 3.77725L13.7945 2.44074C13.5642 2.32339 13.331 2.28353 13.1179 2.26612C12.9135 2.24942 12.6677 2.25 12.4 2.25V3.75ZM14.75 4.6C14.75 4.33235 14.7506 4.08651 14.7339 3.88213C14.7165 3.669 14.6766 3.43582 14.5593 3.20552L13.2228 3.8865C13.2144 3.87011 13.229 3.8839 13.2389 4.00428C13.2494 4.1334 13.25 4.3076 13.25 4.6H14.75ZM13.1135 3.77725C13.1605 3.80122 13.1988 3.83946 13.2228 3.8865L14.5593 3.20552C14.3915 2.87623 14.1238 2.60852 13.7945 2.44074L13.1135 3.77725ZM4.6 2.25C4.33235 2.25 4.08651 2.24942 3.88213 2.26612C3.669 2.28353 3.43582 2.32339 3.20552 2.44074L3.8865 3.77725C3.87011 3.7856 3.8839 3.77097 4.00428 3.76113C4.1334 3.75058 4.3076 3.75 4.6 3.75V2.25ZM3.75 4.6C3.75 4.3076 3.75058 4.1334 3.76113 4.00428C3.77097 3.8839 3.7856 3.87011 3.77725 3.8865L2.44074 3.20552C2.32339 3.43582 2.28353 3.669 2.26612 3.88213C2.24942 4.08651 2.25 4.33235 2.25 4.6H3.75ZM3.20552 2.44074C2.87623 2.60852 2.60852 2.87623 2.44074 3.20552L3.77725 3.8865C3.80122 3.83946 3.83946 3.80122 3.8865 3.77725L3.20552 2.44074ZM6 7.75H7V6.25H6V7.75ZM6 10.75H7V9.25H6V10.75ZM10 10.75H11V9.25H10V10.75ZM10 13.75H11V12.25H10V13.75ZM6 13.75H7V12.25H6V13.75ZM10 7.75H11V6.25H10V7.75ZM9.75 18V21H11.25V18H9.75ZM7.25 21V18H5.75V21H7.25ZM8.5 16.75C9.19036 16.75 9.75 17.3096 9.75 18H11.25C11.25 16.4812 10.0188 15.25 8.5 15.25V16.75ZM8.5 15.25C6.98122 15.25 5.75 16.4812 5.75 18H7.25C7.25 17.3096 7.80964 16.75 8.5 16.75V15.25ZM16.25 3V5H17.75V3H16.25ZM16.25 5V10H17.75V5H16.25ZM16.25 10V21H17.75V10H16.25ZM17 5.75H21V4.25H17V5.75ZM20.25 5V10H21.75V5H20.25ZM21 9.25H17V10.75H21V9.25Z" fill="#98A2B3"/>
</svg>
