<svg width="24" height="24" viewBox="0 0 24 24" fill="none" xmlns="http://www.w3.org/2000/svg">
<path d="M3 21H2.25C2.25 21.4142 2.58579 21.75 3 21.75V21ZM21 21V21.75C21.4142 21.75 21.75 21.4142 21.75 21H21ZM6 6.25C5.58579 6.25 5.25 6.58579 5.25 7C5.25 7.41421 5.58579 7.75 6 7.75V6.25ZM7 7.75C7.41421 7.75 7.75 7.41421 7.75 7C7.75 6.58579 7.41421 6.25 7 6.25V7.75ZM11 6.25C10.5858 6.25 10.25 6.58579 10.25 7C10.25 7.41421 10.5858 7.75 11 7.75V6.25ZM12 7.75C12.4142 7.75 12.75 7.41421 12.75 7C12.75 6.58579 12.4142 6.25 12 6.25V7.75ZM6 9.25C5.58579 9.25 5.25 9.58579 5.25 10C5.25 10.4142 5.58579 10.75 6 10.75V9.25ZM7 10.75C7.41421 10.75 7.75 10.4142 7.75 10C7.75 9.58579 7.41421 9.25 7 9.25V10.75ZM11 9.25C10.5858 9.25 10.25 9.58579 10.25 10C10.25 10.4142 10.5858 10.75 11 10.75V9.25ZM12 10.75C12.4142 10.75 12.75 10.4142 12.75 10C12.75 9.58579 12.4142 9.25 12 9.25V10.75ZM6 12.25C5.58579 12.25 5.25 12.5858 5.25 13C5.25 13.4142 5.58579 13.75 6 13.75V12.25ZM7 13.75C7.41421 13.75 7.75 13.4142 7.75 13C7.75 12.5858 7.41421 12.25 7 12.25V13.75ZM11 12.25C10.5858 12.25 10.25 12.5858 10.25 13C10.25 13.4142 10.5858 13.75 11 13.75V12.25ZM12 13.75C12.4142 13.75 12.75 13.4142 12.75 13C12.75 12.5858 12.4142 12.25 12 12.25V13.75ZM11 21V21.75H11.75V21H11ZM7 21H6.25V21.75H7V21ZM18 10.25C17.5858 10.25 17.25 10.5858 17.25 11C17.25 11.4142 17.5858 11.75 18 11.75V10.25ZM18.01 11.75C18.4242 11.75 18.76 11.4142 18.76 11C18.76 10.5858 18.4242 10.25 18.01 10.25V11.75ZM18 13.25C17.5858 13.25 17.25 13.5858 17.25 14C17.25 14.4142 17.5858 14.75 18 14.75V13.25ZM18.01 14.75C18.4242 14.75 18.76 14.4142 18.76 14C18.76 13.5858 18.4242 13.25 18.01 13.25V14.75ZM18 16.25C17.5858 16.25 17.25 16.5858 17.25 17C17.25 17.4142 17.5858 17.75 18 17.75V16.25ZM18.01 17.75C18.4242 17.75 18.76 17.4142 18.76 17C18.76 16.5858 18.4242 16.25 18.01 16.25V17.75ZM20.891 7.54601L20.2228 7.8865L20.891 7.54601ZM20.454 7.10899L20.1135 7.77725L20.454 7.10899ZM14.454 3.10899L14.1135 3.77725L14.454 3.10899ZM14.891 3.54601L14.2228 3.8865L14.891 3.54601ZM3.10899 3.54601L3.77725 3.8865L3.10899 3.54601ZM3.54601 3.10899L3.8865 3.77725L3.54601 3.10899ZM2.25 4.6V21H3.75V4.6H2.25ZM4.6 3.75H13.4V2.25H4.6V3.75ZM14.25 4.6V7H15.75V4.6H14.25ZM14.25 7V21H15.75V7H14.25ZM3 21.75H15V20.25H3V21.75ZM15 21.75H21V20.25H15V21.75ZM20.25 8.6V21H21.75V8.6H20.25ZM15 7.75H19.4V6.25H15V7.75ZM6 7.75H7V6.25H6V7.75ZM11 7.75H12V6.25H11V7.75ZM6 10.75H7V9.25H6V10.75ZM11 10.75H12V9.25H11V10.75ZM6 13.75H7V12.25H6V13.75ZM11 13.75H12V12.25H11V13.75ZM10.25 18V21H11.75V18H10.25ZM11 20.25H7V21.75H11V20.25ZM7.75 21V18H6.25V21H7.75ZM9 16.75C9.69036 16.75 10.25 17.3096 10.25 18H11.75C11.75 16.4812 10.5188 15.25 9 15.25V16.75ZM9 15.25C7.48122 15.25 6.25 16.4812 6.25 18H7.75C7.75 17.3096 8.30964 16.75 9 16.75V15.25ZM18 11.75H18.01V10.25H18V11.75ZM18 14.75H18.01V13.25H18V14.75ZM18 17.75H18.01V16.25H18V17.75ZM21.75 8.6C21.75 8.33235 21.7506 8.08651 21.7339 7.88213C21.7165 7.66899 21.6766 7.43582 21.5593 7.20552L20.2228 7.8865C20.2144 7.87011 20.229 7.8839 20.2389 8.00428C20.2494 8.1334 20.25 8.3076 20.25 8.6H21.75ZM19.4 7.75C19.6924 7.75 19.8666 7.75058 19.9957 7.76113C20.1161 7.77097 20.1299 7.7856 20.1135 7.77725L20.7945 6.44074C20.5642 6.32339 20.331 6.28353 20.1179 6.26611C19.9135 6.24942 19.6677 6.25 19.4 6.25V7.75ZM21.5593 7.20552C21.3915 6.87623 21.1238 6.60852 20.7945 6.44074L20.1135 7.77725C20.1605 7.80122 20.1988 7.83946 20.2228 7.8865L21.5593 7.20552ZM13.4 3.75C13.6924 3.75 13.8666 3.75058 13.9957 3.76113C14.1161 3.77097 14.1299 3.7856 14.1135 3.77725L14.7945 2.44074C14.5642 2.32339 14.331 2.28353 14.1179 2.26612C13.9135 2.24942 13.6677 2.25 13.4 2.25V3.75ZM15.75 4.6C15.75 4.33235 15.7506 4.08651 15.7339 3.88213C15.7165 3.669 15.6766 3.43582 15.5593 3.20552L14.2228 3.8865C14.2144 3.87011 14.229 3.8839 14.2389 4.00428C14.2494 4.1334 14.25 4.3076 14.25 4.6H15.75ZM14.1135 3.77725C14.1605 3.80122 14.1988 3.83946 14.2228 3.8865L15.5593 3.20552C15.3915 2.87623 15.1238 2.60852 14.7945 2.44074L14.1135 3.77725ZM3.75 4.6C3.75 4.3076 3.75058 4.1334 3.76113 4.00428C3.77097 3.8839 3.7856 3.87011 3.77725 3.8865L2.44074 3.20552C2.32339 3.43582 2.28353 3.669 2.26612 3.88213C2.24942 4.08651 2.25 4.33235 2.25 4.6H3.75ZM4.6 2.25C4.33235 2.25 4.08651 2.24942 3.88213 2.26612C3.669 2.28353 3.43582 2.32339 3.20552 2.44074L3.8865 3.77725C3.87011 3.7856 3.8839 3.77097 4.00428 3.76113C4.1334 3.75058 4.3076 3.75 4.6 3.75V2.25ZM3.77725 3.8865C3.80122 3.83946 3.83946 3.80122 3.8865 3.77725L3.20552 2.44074C2.87623 2.60852 2.60852 2.87623 2.44074 3.20552L3.77725 3.8865Z" fill="#98A2B3"/>
</svg>
