<svg width="24" height="24" viewBox="0 0 24 24" fill="none" xmlns="http://www.w3.org/2000/svg">
<path d="M21 20V18.2C21 17.0799 21 16.5198 20.782 16.092C20.6356 15.8046 20.4225 15.5583 20.1624 15.3725M21 20V21M21 20H9M9 21V20M9 20V18.2C9 17.0799 9 16.5198 9.21799 16.092C9.3798 15.7744 9.62296 15.507 9.92111 15.316M20.1624 15.3725C20.0819 15.315 19.9969 15.2633 19.908 15.218C19.4802 15 18.9201 15 17.8 15H12.2C11.0799 15 10.5198 15 10.092 15.218C10.0333 15.2479 9.97625 15.2806 9.92111 15.316M20.1624 15.3725L19.4558 13.3675C19.1836 12.5509 18.4193 12 17.5585 12H12.4415C11.5807 12 10.8164 12.5509 10.5442 13.3675L9.92111 15.316M12 17.5H12.01M18 17.5H18.01M5 21H3V4.6C3 4.03995 3 3.75992 3.10899 3.54601C3.20487 3.35785 3.35785 3.20487 3.54601 3.10899C3.75992 3 4.03995 3 4.6 3H13.4C13.9601 3 14.2401 3 14.454 3.10899C14.6422 3.20487 14.7951 3.35785 14.891 3.54601C15 3.75992 15 4.03995 15 4.6V8M6 7H7M6 10H7M6 13H7M11 7H12" stroke="#98A2B3" stroke-width="1.5" stroke-linecap="round" stroke-linejoin="round"/>
</svg>
