<svg width="24" height="24" viewBox="0 0 24 24" fill="none" xmlns="http://www.w3.org/2000/svg">
<path d="M7 21H11V18C11 16.8954 10.1046 16 9 16C7.89543 16 7 16.8954 7 18V21ZM7 21H3V4.6C3 4.03995 3 3.75992 3.10899 3.54601C3.20487 3.35785 3.35785 3.20487 3.54601 3.10899C3.75992 3 4.03995 3 4.6 3H13.4C13.9601 3 14.2401 3 14.454 3.10899C14.6422 3.20487 14.7951 3.35785 14.891 3.54601C15 3.75992 15 4.03995 15 4.6V11M6 7H7M6 10H7M11 10H12M11 13H12M6 13H7M11 7H12M19.5 17.0039V15.5C19.5 14.6716 18.8284 14 18 14C17.1716 14 16.5 14.6716 16.5 15.5V17.0039M16.6 21H19.4C19.9601 21 20.2401 21 20.454 20.891C20.6422 20.7951 20.7951 20.6422 20.891 20.454C21 20.2401 21 19.9601 21 19.4V18.6C21 18.0399 21 17.7599 20.891 17.546C20.7951 17.3578 20.6422 17.2049 20.454 17.109C20.2401 17 19.9601 17 19.4 17H16.6C16.0399 17 15.7599 17 15.546 17.109C15.3578 17.2049 15.2049 17.3578 15.109 17.546C15 17.7599 15 18.0399 15 18.6V19.4C15 19.9601 15 20.2401 15.109 20.454C15.2049 20.6422 15.3578 20.7951 15.546 20.891C15.7599 21 16.0399 21 16.6 21Z" stroke="#98A2B3" stroke-width="1.5" stroke-linecap="round" stroke-linejoin="round"/>
</svg>
