<svg width="24" height="24" viewBox="0 0 24 24" fill="none" xmlns="http://www.w3.org/2000/svg">
<path d="M18 21V21.75C18.4142 21.75 18.75 21.4142 18.75 21H18ZM6 21H5.25C5.25 21.4142 5.58579 21.75 6 21.75V21ZM17.454 3.10899L17.1135 3.77725L17.454 3.10899ZM17.891 3.54601L17.2228 3.8865L17.891 3.54601ZM6.54601 3.10899L6.8865 3.77725L6.54601 3.10899ZM6.10899 3.54601L6.77725 3.8865L6.10899 3.54601ZM9 6.25C8.58579 6.25 8.25 6.58579 8.25 7C8.25 7.41421 8.58579 7.75 9 7.75V6.25ZM10 7.75C10.4142 7.75 10.75 7.41421 10.75 7C10.75 6.58579 10.4142 6.25 10 6.25V7.75ZM9 9.25C8.58579 9.25 8.25 9.58579 8.25 10C8.25 10.4142 8.58579 10.75 9 10.75V9.25ZM10 10.75C10.4142 10.75 10.75 10.4142 10.75 10C10.75 9.58579 10.4142 9.25 10 9.25V10.75ZM14 9.25C13.5858 9.25 13.25 9.58579 13.25 10C13.25 10.4142 13.5858 10.75 14 10.75V9.25ZM15 10.75C15.4142 10.75 15.75 10.4142 15.75 10C15.75 9.58579 15.4142 9.25 15 9.25V10.75ZM14 12.25C13.5858 12.25 13.25 12.5858 13.25 13C13.25 13.4142 13.5858 13.75 14 13.75V12.25ZM15 13.75C15.4142 13.75 15.75 13.4142 15.75 13C15.75 12.5858 15.4142 12.25 15 12.25V13.75ZM9 12.25C8.58579 12.25 8.25 12.5858 8.25 13C8.25 13.4142 8.58579 13.75 9 13.75V12.25ZM10 13.75C10.4142 13.75 10.75 13.4142 10.75 13C10.75 12.5858 10.4142 12.25 10 12.25V13.75ZM14 6.25C13.5858 6.25 13.25 6.58579 13.25 7C13.25 7.41421 13.5858 7.75 14 7.75V6.25ZM15 7.75C15.4142 7.75 15.75 7.41421 15.75 7C15.75 6.58579 15.4142 6.25 15 6.25V7.75ZM7.6 3.75H16.4V2.25H7.6V3.75ZM17.25 4.6V21H18.75V4.6H17.25ZM18 20.25H6V21.75H18V20.25ZM6.75 21V4.6H5.25V21H6.75ZM16.4 3.75C16.6924 3.75 16.8666 3.75058 16.9957 3.76113C17.1161 3.77097 17.1299 3.7856 17.1135 3.77725L17.7945 2.44074C17.5642 2.32339 17.331 2.28353 17.1179 2.26612C16.9135 2.24942 16.6677 2.25 16.4 2.25V3.75ZM18.75 4.6C18.75 4.33235 18.7506 4.08651 18.7339 3.88213C18.7165 3.669 18.6766 3.43582 18.5593 3.20552L17.2228 3.8865C17.2144 3.87011 17.229 3.8839 17.2389 4.00428C17.2494 4.1334 17.25 4.3076 17.25 4.6H18.75ZM17.1135 3.77725C17.1605 3.80122 17.1988 3.83946 17.2228 3.8865L18.5593 3.20552C18.3915 2.87623 18.1238 2.60852 17.7945 2.44074L17.1135 3.77725ZM7.6 2.25C7.33235 2.25 7.08651 2.24942 6.88213 2.26612C6.669 2.28353 6.43582 2.32339 6.20552 2.44074L6.8865 3.77725C6.87011 3.7856 6.8839 3.77097 7.00428 3.76113C7.1334 3.75058 7.3076 3.75 7.6 3.75V2.25ZM6.75 4.6C6.75 4.3076 6.75058 4.1334 6.76113 4.00428C6.77097 3.8839 6.7856 3.87011 6.77725 3.8865L5.44074 3.20552C5.32339 3.43582 5.28353 3.669 5.26612 3.88213C5.24942 4.08651 5.25 4.33235 5.25 4.6H6.75ZM6.20552 2.44074C5.87623 2.60852 5.60852 2.87623 5.44074 3.20552L6.77725 3.8865C6.80122 3.83946 6.83946 3.80122 6.8865 3.77725L6.20552 2.44074ZM9 7.75H10V6.25H9V7.75ZM9 10.75H10V9.25H9V10.75ZM14 10.75H15V9.25H14V10.75ZM14 13.75H15V12.25H14V13.75ZM9 13.75H10V12.25H9V13.75ZM14 7.75H15V6.25H14V7.75ZM13.25 18V21H14.75V18H13.25ZM10.75 21V18H9.25V21H10.75ZM12 16.75C12.6904 16.75 13.25 17.3096 13.25 18H14.75C14.75 16.4812 13.5188 15.25 12 15.25V16.75ZM12 15.25C10.4812 15.25 9.25 16.4812 9.25 18H10.75C10.75 17.3096 11.3096 16.75 12 16.75V15.25Z" fill="#98A2B3"/>
</svg>
