<svg width="24" height="24" viewBox="0 0 24 24" fill="none" xmlns="http://www.w3.org/2000/svg">
<path d="M3 8.25C2.58579 8.25 2.25 8.58579 2.25 9C2.25 9.41421 2.58579 9.75 3 9.75V8.25ZM21 9.75C21.4142 9.75 21.75 9.41421 21.75 9C21.75 8.58579 21.4142 8.25 21 8.25V9.75ZM4.09202 20.782L4.43251 20.1138L4.09202 20.782ZM3.21799 19.908L3.88624 19.5675L3.21799 19.908ZM20.782 19.908L20.1138 19.5675L20.782 19.908ZM19.908 20.782L19.5675 20.1138L19.908 20.782ZM19.908 5.21799L19.5675 5.88624L19.908 5.21799ZM20.782 6.09202L20.1138 6.43251L20.782 6.09202ZM4.09202 5.21799L4.43251 5.88624L4.09202 5.21799ZM3.21799 6.09202L3.88624 6.43251L3.21799 6.09202ZM7.75 3C7.75 2.58579 7.41421 2.25 7 2.25C6.58579 2.25 6.25 2.58579 6.25 3H7.75ZM6.25 5C6.25 5.41421 6.58579 5.75 7 5.75C7.41421 5.75 7.75 5.41421 7.75 5H6.25ZM17.75 3C17.75 2.58579 17.4142 2.25 17 2.25C16.5858 2.25 16.25 2.58579 16.25 3H17.75ZM16.25 5C16.25 5.41421 16.5858 5.75 17 5.75C17.4142 5.75 17.75 5.41421 17.75 5H16.25ZM6 11.25C5.58579 11.25 5.25 11.5858 5.25 12C5.25 12.4142 5.58579 12.75 6 12.75V11.25ZM8 12.75C8.41421 12.75 8.75 12.4142 8.75 12C8.75 11.5858 8.41421 11.25 8 11.25V12.75ZM11 11.25C10.5858 11.25 10.25 11.5858 10.25 12C10.25 12.4142 10.5858 12.75 11 12.75V11.25ZM13 12.75C13.4142 12.75 13.75 12.4142 13.75 12C13.75 11.5858 13.4142 11.25 13 11.25V12.75ZM16 11.25C15.5858 11.25 15.25 11.5858 15.25 12C15.25 12.4142 15.5858 12.75 16 12.75V11.25ZM18 12.75C18.4142 12.75 18.75 12.4142 18.75 12C18.75 11.5858 18.4142 11.25 18 11.25V12.75ZM6 14.25C5.58579 14.25 5.25 14.5858 5.25 15C5.25 15.4142 5.58579 15.75 6 15.75V14.25ZM8 15.75C8.41421 15.75 8.75 15.4142 8.75 15C8.75 14.5858 8.41421 14.25 8 14.25V15.75ZM11 14.25C10.5858 14.25 10.25 14.5858 10.25 15C10.25 15.4142 10.5858 15.75 11 15.75V14.25ZM13 15.75C13.4142 15.75 13.75 15.4142 13.75 15C13.75 14.5858 13.4142 14.25 13 14.25V15.75ZM16 14.25C15.5858 14.25 15.25 14.5858 15.25 15C15.25 15.4142 15.5858 15.75 16 15.75V14.25ZM18 15.75C18.4142 15.75 18.75 15.4142 18.75 15C18.75 14.5858 18.4142 14.25 18 14.25V15.75ZM6 17.25C5.58579 17.25 5.25 17.5858 5.25 18C5.25 18.4142 5.58579 18.75 6 18.75V17.25ZM8 18.75C8.41421 18.75 8.75 18.4142 8.75 18C8.75 17.5858 8.41421 17.25 8 17.25V18.75ZM11 17.25C10.5858 17.25 10.25 17.5858 10.25 18C10.25 18.4142 10.5858 18.75 11 18.75V17.25ZM13 18.75C13.4142 18.75 13.75 18.4142 13.75 18C13.75 17.5858 13.4142 17.25 13 17.25V18.75ZM16 17.25C15.5858 17.25 15.25 17.5858 15.25 18C15.25 18.4142 15.5858 18.75 16 18.75V17.25ZM18 18.75C18.4142 18.75 18.75 18.4142 18.75 18C18.75 17.5858 18.4142 17.25 18 17.25V18.75ZM3 9.75H21V8.25H3V9.75ZM6.2 5.75H17.8V4.25H6.2V5.75ZM20.25 8.2V17.8H21.75V8.2H20.25ZM17.8 20.25H6.2V21.75H17.8V20.25ZM3.75 17.8V8.2H2.25V17.8H3.75ZM6.2 20.25C5.62757 20.25 5.24336 20.2494 4.94748 20.2252C4.66035 20.2018 4.52307 20.1599 4.43251 20.1138L3.75153 21.4503C4.08879 21.6221 4.44544 21.6892 4.82533 21.7203C5.19646 21.7506 5.65232 21.75 6.2 21.75V20.25ZM2.25 17.8C2.25 18.3477 2.24942 18.8035 2.27974 19.1747C2.31078 19.5546 2.37789 19.9112 2.54973 20.2485L3.88624 19.5675C3.8401 19.4769 3.79822 19.3396 3.77476 19.0525C3.75058 18.7566 3.75 18.3724 3.75 17.8H2.25ZM4.43251 20.1138C4.19731 19.9939 4.00608 19.8027 3.88624 19.5675L2.54973 20.2485C2.81338 20.7659 3.23408 21.1866 3.75153 21.4503L4.43251 20.1138ZM20.25 17.8C20.25 18.3724 20.2494 18.7566 20.2252 19.0525C20.2018 19.3396 20.1599 19.4769 20.1138 19.5675L21.4503 20.2485C21.6221 19.9112 21.6892 19.5546 21.7203 19.1747C21.7506 18.8035 21.75 18.3477 21.75 17.8H20.25ZM17.8 21.75C18.3477 21.75 18.8035 21.7506 19.1747 21.7203C19.5546 21.6892 19.9112 21.6221 20.2485 21.4503L19.5675 20.1138C19.4769 20.1599 19.3396 20.2018 19.0525 20.2252C18.7566 20.2494 18.3724 20.25 17.8 20.25V21.75ZM20.1138 19.5675C19.9939 19.8027 19.8027 19.9939 19.5675 20.1138L20.2485 21.4503C20.7659 21.1866 21.1866 20.7659 21.4503 20.2485L20.1138 19.5675ZM17.8 5.75C18.3724 5.75 18.7566 5.75058 19.0525 5.77476C19.3396 5.79822 19.4769 5.8401 19.5675 5.88624L20.2485 4.54973C19.9112 4.37789 19.5546 4.31078 19.1747 4.27974C18.8035 4.24942 18.3477 4.25 17.8 4.25V5.75ZM21.75 8.2C21.75 7.65232 21.7506 7.19646 21.7203 6.82533C21.6892 6.44545 21.6221 6.08879 21.4503 5.75153L20.1138 6.43251C20.1599 6.52307 20.2018 6.66035 20.2252 6.94748C20.2494 7.24336 20.25 7.62757 20.25 8.2H21.75ZM19.5675 5.88624C19.8027 6.00608 19.9939 6.19731 20.1138 6.43251L21.4503 5.75153C21.1866 5.23408 20.7659 4.81338 20.2485 4.54973L19.5675 5.88624ZM6.2 4.25C5.65232 4.25 5.19646 4.24942 4.82533 4.27974C4.44545 4.31078 4.08879 4.37789 3.75153 4.54973L4.43251 5.88624C4.52307 5.8401 4.66035 5.79822 4.94748 5.77476C5.24336 5.75058 5.62757 5.75 6.2 5.75V4.25ZM3.75 8.2C3.75 7.62757 3.75058 7.24336 3.77476 6.94748C3.79822 6.66035 3.8401 6.52307 3.88624 6.43251L2.54973 5.75153C2.37789 6.08879 2.31078 6.44545 2.27974 6.82533C2.24942 7.19646 2.25 7.65232 2.25 8.2H3.75ZM3.75153 4.54973C3.23408 4.81338 2.81338 5.23408 2.54973 5.75153L3.88624 6.43251C4.00608 6.19731 4.19731 6.00608 4.43251 5.88624L3.75153 4.54973ZM6.25 3V5H7.75V3H6.25ZM16.25 3V5H17.75V3H16.25ZM6 12.75H8V11.25H6V12.75ZM11 12.75H13V11.25H11V12.75ZM16 12.75H18V11.25H16V12.75ZM6 15.75H8V14.25H6V15.75ZM11 15.75H13V14.25H11V15.75ZM16 15.75H18V14.25H16V15.75ZM6 18.75H8V17.25H6V18.75ZM11 18.75H13V17.25H11V18.75ZM16 18.75H18V17.25H16V18.75Z" fill="#98A2B3"/>
</svg>
