<svg width="24" height="24" viewBox="0 0 24 24" fill="none" xmlns="http://www.w3.org/2000/svg">
<path d="M6 8H21M10 3V4M17 3V4M3 6V13.8C3 16.3202 3 17.5804 3.49047 18.543C3.9219 19.3897 4.61031 20.0781 5.45704 20.5095C6.41965 21 7.67976 21 10.2 21H18M9.2 18H17.8C18.9201 18 19.4802 18 19.908 17.782C20.2843 17.5903 20.5903 17.2843 20.782 16.908C21 16.4802 21 15.9201 21 14.8V7.2C21 6.07989 21 5.51984 20.782 5.09202C20.5903 4.71569 20.2843 4.40973 19.908 4.21799C19.4802 4 18.9201 4 17.8 4H9.2C8.0799 4 7.51984 4 7.09202 4.21799C6.71569 4.40973 6.40973 4.71569 6.21799 5.09202C6 5.51984 6 6.07989 6 7.2V14.8C6 15.9201 6 16.4802 6.21799 16.908C6.40973 17.2843 6.71569 17.5903 7.09202 17.782C7.51984 18 8.0799 18 9.2 18Z" stroke="#98A2B3" stroke-width="1.5" stroke-linecap="round" stroke-linejoin="round"/>
</svg>
