<svg width="24" height="24" viewBox="0 0 24 24" fill="none" xmlns="http://www.w3.org/2000/svg">
<path d="M17.5758 5.50772L18.227 5.13562V5.13562L17.5758 5.50772ZM20.473 10.5777L21.1242 10.2056V10.2056L20.473 10.5777ZM18 17.5H18.75C18.75 17.0858 18.4142 16.75 18 16.75V17.5ZM6 17.5V16.75C5.58579 16.75 5.25 17.0858 5.25 17.5H6ZM3.52703 10.5777L4.17821 10.9498L3.52703 10.5777ZM6.42416 5.50772L5.77298 5.13562L6.42416 5.50772ZM3.48014 7.42383C3.16193 7.15866 2.68901 7.20165 2.42383 7.51986C2.15866 7.83807 2.20165 8.31099 2.51986 8.57617L3.48014 7.42383ZM5.72187 10.2682L5.24173 10.8444L5.72187 10.2682ZM18.2781 10.2682L18.7583 10.8444L18.2781 10.2682ZM21.4801 8.57617C21.7983 8.31099 21.8413 7.83807 21.5762 7.51986C21.311 7.20165 20.8381 7.15866 20.5199 7.42383L21.4801 8.57617ZM6.5 13.25C6.08579 13.25 5.75 13.5858 5.75 14C5.75 14.4142 6.08579 14.75 6.5 14.75V13.25ZM6.51 14.75C6.92421 14.75 7.26 14.4142 7.26 14C7.26 13.5858 6.92421 13.25 6.51 13.25V14.75ZM17.5 13.25C17.0858 13.25 16.75 13.5858 16.75 14C16.75 14.4142 17.0858 14.75 17.5 14.75V13.25ZM17.51 14.75C17.9242 14.75 18.26 14.4142 18.26 14C18.26 13.5858 17.9242 13.25 17.51 13.25V14.75ZM8.16065 5.25H15.8394V3.75H8.16065V5.25ZM16.9247 5.87983L19.8218 10.9498L21.1242 10.2056L18.227 5.13562L16.9247 5.87983ZM20.25 12.5623V18.5H21.75V12.5623H20.25ZM20 18.75H19V20.25H20V18.75ZM18.75 18.5V17.5H17.25V18.5H18.75ZM18 16.75H6V18.25H18V16.75ZM5.25 17.5V18.5H6.75V17.5H5.25ZM5 18.75H4V20.25H5V18.75ZM3.75 18.5V12.5623H2.25V18.5H3.75ZM4.17821 10.9498L7.07534 5.87983L5.77298 5.13562L2.87585 10.2056L4.17821 10.9498ZM3.75 12.5623C3.75 11.9967 3.8976 11.4409 4.17821 10.9498L2.87585 10.2056C2.46572 10.9233 2.25 11.7356 2.25 12.5623H3.75ZM4 18.75C3.86193 18.75 3.75 18.6381 3.75 18.5H2.25C2.25 19.4665 3.0335 20.25 4 20.25V18.75ZM5.25 18.5C5.25 18.6381 5.13807 18.75 5 18.75V20.25C5.9665 20.25 6.75 19.4665 6.75 18.5H5.25ZM19 18.75C18.8619 18.75 18.75 18.6381 18.75 18.5H17.25C17.25 19.4665 18.0335 20.25 19 20.25V18.75ZM20.25 18.5C20.25 18.6381 20.1381 18.75 20 18.75V20.25C20.9665 20.25 21.75 19.4665 21.75 18.5H20.25ZM19.8218 10.9498C20.1024 11.4409 20.25 11.9967 20.25 12.5623H21.75C21.75 11.7356 21.5343 10.9233 21.1242 10.2056L19.8218 10.9498ZM15.8394 5.25C16.2879 5.25 16.7021 5.49036 16.9247 5.87983L18.227 5.13562C17.7374 4.27879 16.8262 3.75 15.8394 3.75V5.25ZM8.16065 3.75C7.17379 3.75 6.26259 4.27879 5.77298 5.13562L7.07534 5.87983C7.29789 5.49036 7.71207 5.25 8.16065 5.25V3.75ZM2.51986 8.57617L5.24173 10.8444L6.202 9.69206L3.48014 7.42383L2.51986 8.57617ZM6.36205 11.25H17.6379V9.75H6.36205V11.25ZM18.7583 10.8444L21.4801 8.57617L20.5199 7.42383L17.798 9.69206L18.7583 10.8444ZM17.6379 11.25C18.0473 11.25 18.4438 11.1065 18.7583 10.8444L17.798 9.69206C17.7531 9.7295 17.6964 9.75 17.6379 9.75V11.25ZM5.24173 10.8444C5.55623 11.1065 5.95266 11.25 6.36205 11.25V9.75C6.30357 9.75 6.24693 9.7295 6.202 9.69206L5.24173 10.8444ZM6.5 14.75H6.51V13.25H6.5V14.75ZM6.25 14C6.25 13.8619 6.36193 13.75 6.5 13.75V15.25C7.19035 15.25 7.75 14.6904 7.75 14H6.25ZM6.5 13.75C6.63807 13.75 6.75 13.8619 6.75 14H5.25C5.25 14.6904 5.80964 15.25 6.5 15.25V13.75ZM6.75 14C6.75 14.1381 6.63807 14.25 6.5 14.25V12.75C5.80964 12.75 5.25 13.3096 5.25 14H6.75ZM6.5 14.25C6.36193 14.25 6.25 14.1381 6.25 14H7.75C7.75 13.3096 7.19035 12.75 6.5 12.75V14.25ZM17.5 14.75H17.51V13.25H17.5V14.75ZM17.25 14C17.25 13.8619 17.3619 13.75 17.5 13.75V15.25C18.1904 15.25 18.75 14.6904 18.75 14H17.25ZM17.5 13.75C17.6381 13.75 17.75 13.8619 17.75 14H16.25C16.25 14.6904 16.8096 15.25 17.5 15.25V13.75ZM17.75 14C17.75 14.1381 17.6381 14.25 17.5 14.25V12.75C16.8096 12.75 16.25 13.3096 16.25 14H17.75ZM17.5 14.25C17.3619 14.25 17.25 14.1381 17.25 14H18.75C18.75 13.3096 18.1904 12.75 17.5 12.75V14.25Z" fill="#98A2B3"/>
</svg>
