<svg width="24" height="24" viewBox="0 0 24 24" fill="none" xmlns="http://www.w3.org/2000/svg">
<path d="M7.9313 15H16.0686C16.6744 15 16.9773 15 17.1175 14.8802C17.2393 14.7762 17.3038 14.6203 17.2913 14.4608C17.2768 14.2769 17.0626 14.0627 16.6342 13.6343L12.5656 9.56567C12.3676 9.36766 12.2686 9.26866 12.1544 9.23156C12.054 9.19894 11.9458 9.19894 11.8454 9.23156C11.7313 9.26866 11.6323 9.36766 11.4342 9.56567L7.36561 13.6343C6.93724 14.0627 6.72305 14.2769 6.70858 14.4608C6.69602 14.6203 6.76061 14.7762 6.88231 14.8802C7.02257 15 7.32548 15 7.9313 15Z" stroke="#98A2B3" stroke-width="1.5" stroke-linecap="round" stroke-linejoin="round"/>
</svg>
