<svg width="24" height="24" viewBox="0 0 24 24" fill="none" xmlns="http://www.w3.org/2000/svg">
<path d="M14.9999 16.0686V7.93136C14.9999 7.32554 14.9999 7.02264 14.8801 6.88237C14.7762 6.76067 14.6203 6.69608 14.4607 6.70864C14.2768 6.72311 14.0626 6.9373 13.6342 7.36567L9.56561 11.4343C9.3676 11.6323 9.2686 11.7313 9.2315 11.8455C9.19887 11.9459 9.19887 12.0541 9.2315 12.1545C9.2686 12.2687 9.3676 12.3677 9.56561 12.5657L13.6342 16.6343C14.0626 17.0627 14.2768 17.2769 14.4607 17.2913C14.6203 17.3039 14.7762 17.2393 14.8801 17.1176C14.9999 16.9773 14.9999 16.6744 14.9999 16.0686Z" stroke="#98A2B3" stroke-width="1.5" stroke-linecap="round" stroke-linejoin="round"/>
</svg>
