<svg width="24" height="24" viewBox="0 0 24 24" fill="none" xmlns="http://www.w3.org/2000/svg">
<path d="M9 7.93136V16.0686C9 16.6744 9 16.9773 9.1198 17.1176C9.22374 17.2393 9.37967 17.3039 9.53923 17.2913C9.72312 17.2769 9.93731 17.0627 10.3657 16.6343L14.4343 12.5657C14.6323 12.3677 14.7313 12.2687 14.7684 12.1545C14.8011 12.0541 14.8011 11.9459 14.7684 11.8455C14.7313 11.7313 14.6323 11.6323 14.4343 11.4343L10.3657 7.36567C9.93731 6.9373 9.72312 6.72311 9.53923 6.70864C9.37967 6.69608 9.22374 6.76067 9.1198 6.88237C9 7.02264 9 7.32554 9 7.93136Z" stroke="#98A2B3" stroke-width="1.5" stroke-linecap="round" stroke-linejoin="round"/>
</svg>
