<svg width="24" height="24" viewBox="0 0 24 24" fill="none" xmlns="http://www.w3.org/2000/svg">
<path d="M3.22998 15.6022V19.6022M3.22998 17.6022H6.1093C6.51306 17.6022 6.71494 17.6022 6.888 17.5357C7.04087 17.477 7.17699 17.3817 7.2844 17.2581C7.40599 17.1181 7.47499 16.9284 7.61297 16.549L9.22998 12.1022M16.23 14.1022L17.9666 14.9705C18.4139 15.1941 18.6376 15.306 18.8579 15.3125C19.052 15.3183 19.2436 15.2674 19.4093 15.1661C19.5974 15.0511 19.7361 14.843 20.0135 14.4269L20.2246 14.1102C20.5721 13.589 20.7458 13.3285 20.7664 13.0694C20.7845 12.8419 20.7243 12.615 20.5957 12.4265C20.4492 12.2118 20.1691 12.0717 19.6089 11.7916L19.23 11.6022M4.08986 7.62809L5.96096 4.42049C6.23135 3.95697 6.36654 3.7252 6.56039 3.59663C6.73101 3.48347 6.93225 3.4254 7.13692 3.43028C7.36946 3.43581 7.60735 3.55993 8.08311 3.80815L15.9784 7.92742C16.7258 8.31737 17.0995 8.51235 17.245 8.78855C17.372 9.02981 17.395 9.31248 17.3087 9.57113C17.2099 9.86724 16.8727 10.1201 16.1983 10.626L13.0211 13.0089C12.7339 13.2242 12.5903 13.3319 12.4308 13.3833C12.2897 13.4287 12.1402 13.4422 11.9933 13.4227C11.8271 13.4007 11.6666 13.3205 11.3455 13.1599L4.75637 9.86536C4.22551 9.59993 3.96008 9.46722 3.81533 9.26299C3.68811 9.0835 3.62364 8.86708 3.63189 8.64724C3.64128 8.39709 3.7908 8.14076 4.08986 7.62809Z" stroke="#98A2B3" stroke-width="1.5" stroke-linecap="round" stroke-linejoin="round"/>
</svg>
