<svg width="24" height="24" viewBox="0 0 24 24" fill="none" xmlns="http://www.w3.org/2000/svg">
<path d="M13.2748 8.96177C13.6935 8.84238 14 8.45699 14 8C14 7.44772 13.5523 7 13 7C12.4477 7 12 7.44772 12 8C12 8.27614 12.1119 8.52614 12.2929 8.70711M13.2748 8.96177C13.1875 8.98667 13.0953 9 13 9C12.7239 9 12.4739 8.88807 12.2929 8.70711M13.2748 8.96177L14.7252 14.0382M12.2929 8.70711L8.70711 12.2929M14.7252 14.0382C14.8125 14.0133 14.9047 14 15 14C15.5523 14 16 14.4477 16 15C16 15.5523 15.5523 16 15 16C14.4477 16 14 15.5523 14 15C14 14.9047 14.0133 14.8125 14.0382 14.7252M14.7252 14.0382C14.3938 14.1327 14.1327 14.3938 14.0382 14.7252M14.0382 14.7252L8.96177 13.2748M8.96177 13.2748C8.98667 13.1875 9 13.0953 9 13C9 12.7239 8.88807 12.4739 8.70711 12.2929M8.96177 13.2748C8.84238 13.6935 8.45699 14 8 14C7.44772 14 7 13.5523 7 13C7 12.4477 7.44772 12 8 12C8.27614 12 8.52614 12.1119 8.70711 12.2929M20.1178 10.4312L17.4178 5.63116C17.0837 5.03731 16.9167 4.74038 16.6804 4.52426C16.4714 4.33305 16.2241 4.18843 15.955 4.09998C15.6507 4 15.3101 4 14.6287 4H9.37174C8.69038 4 8.3497 4 8.0455 4.09998C7.77636 4.18843 7.52908 4.33305 7.32004 4.52426C7.08376 4.74038 6.91674 5.03731 6.5827 5.63116L3.8827 10.4312C3.5608 11.0034 3.39985 11.2896 3.33678 11.593C3.28097 11.8614 3.28097 12.1386 3.33678 12.407C3.39985 12.7104 3.5608 12.9966 3.8827 13.5688L6.5827 18.3688C6.91674 18.9627 7.08376 19.2596 7.32004 19.4757C7.52908 19.667 7.77636 19.8116 8.0455 19.9C8.3497 20 8.69038 20 9.37174 20H14.6287C15.3101 20 15.6507 20 15.955 19.9C16.2241 19.8116 16.4714 19.667 16.6804 19.4757C16.9167 19.2596 17.0837 18.9627 17.4178 18.3688L20.1178 13.5688C20.4397 12.9966 20.6006 12.7104 20.6637 12.407C20.7195 12.1386 20.7195 11.8614 20.6637 11.593C20.6006 11.2896 20.4397 11.0034 20.1178 10.4312Z" stroke="#98A2B3" stroke-width="1.5" stroke-linecap="round" stroke-linejoin="round"/>
</svg>
