<svg width="24" height="24" viewBox="0 0 24 24" fill="none" xmlns="http://www.w3.org/2000/svg">
<path d="M6.27836 19.4259C6.23743 19.8381 6.5384 20.2054 6.95059 20.2463C7.36277 20.2873 7.73009 19.9863 7.77102 19.5741L6.27836 19.4259ZM16.229 19.5741C16.2699 19.9863 16.6372 20.2873 17.0494 20.2463C17.4616 20.2054 17.7626 19.8381 17.7216 19.4259L16.229 19.5741ZM20.25 12C20.25 16.5563 16.5563 20.25 12 20.25V21.75C17.3848 21.75 21.75 17.3848 21.75 12H20.25ZM12 20.25C7.44365 20.25 3.75 16.5563 3.75 12H2.25C2.25 17.3848 6.61522 21.75 12 21.75V20.25ZM3.75 12C3.75 7.44365 7.44365 3.75 12 3.75V2.25C6.61522 2.25 2.25 6.61522 2.25 12H3.75ZM12 3.75C16.5563 3.75 20.25 7.44365 20.25 12H21.75C21.75 6.61522 17.3848 2.25 12 2.25V3.75ZM13.25 10C13.25 10.6904 12.6904 11.25 12 11.25V12.75C13.5188 12.75 14.75 11.5188 14.75 10H13.25ZM12 11.25C11.3096 11.25 10.75 10.6904 10.75 10H9.25C9.25 11.5188 10.4812 12.75 12 12.75V11.25ZM10.75 10C10.75 9.30964 11.3096 8.75 12 8.75V7.25C10.4812 7.25 9.25 8.48122 9.25 10H10.75ZM12 8.75C12.6904 8.75 13.25 9.30964 13.25 10H14.75C14.75 8.48122 13.5188 7.25 12 7.25V8.75ZM7.77102 19.5741C7.98417 17.4272 9.79668 15.75 12 15.75V14.25C9.01797 14.25 6.56693 16.5194 6.27836 19.4259L7.77102 19.5741ZM12 15.75C14.2033 15.75 16.0158 17.4272 16.229 19.5741L17.7216 19.4259C17.4331 16.5194 14.982 14.25 12 14.25V15.75Z" fill="#98A2B3"/>
</svg>
