<svg width="24" height="24" viewBox="0 0 24 24" fill="none" xmlns="http://www.w3.org/2000/svg">
<path d="M8.75 3C8.75 2.58579 8.41421 2.25 8 2.25C7.58579 2.25 7.25 2.58579 7.25 3H8.75ZM7.25 6.18257C7.25 6.59679 7.58579 6.93257 8 6.93257C8.41421 6.93257 8.75 6.59679 8.75 6.18257H7.25ZM3 7.25C2.58579 7.25 2.25 7.58579 2.25 8C2.25 8.41421 2.58579 8.75 3 8.75V7.25ZM6.18257 8.75C6.59679 8.75 6.93257 8.41421 6.93257 8C6.93257 7.58579 6.59679 7.25 6.18257 7.25V8.75ZM3 11.25C2.58579 11.25 2.25 11.5858 2.25 12C2.25 12.4142 2.58579 12.75 3 12.75V11.25ZM6 12.75C6.41421 12.75 6.75 12.4142 6.75 12C6.75 11.5858 6.41421 11.25 6 11.25V12.75ZM3 15.25C2.58579 15.25 2.25 15.5858 2.25 16C2.25 16.4142 2.58579 16.75 3 16.75V15.25ZM6.18257 16.75C6.59679 16.75 6.93257 16.4142 6.93257 16C6.93257 15.5858 6.59679 15.25 6.18257 15.25V16.75ZM17.8174 7.25C17.4032 7.25 17.0674 7.58579 17.0674 8C17.0674 8.41421 17.4032 8.75 17.8174 8.75V7.25ZM21 8.75C21.4142 8.75 21.75 8.41421 21.75 8C21.75 7.58579 21.4142 7.25 21 7.25V8.75ZM18 11.25C17.5858 11.25 17.25 11.5858 17.25 12C17.25 12.4142 17.5858 12.75 18 12.75V11.25ZM21 12.75C21.4142 12.75 21.75 12.4142 21.75 12C21.75 11.5858 21.4142 11.25 21 11.25V12.75ZM17.8174 15.25C17.4032 15.25 17.0674 15.5858 17.0674 16C17.0674 16.4142 17.4032 16.75 17.8174 16.75V15.25ZM21 16.75C21.4142 16.75 21.75 16.4142 21.75 16C21.75 15.5858 21.4142 15.25 21 15.25V16.75ZM8.75 17.8174C8.75 17.4032 8.41421 17.0674 8 17.0674C7.58579 17.0674 7.25 17.4032 7.25 17.8174H8.75ZM7.25 21C7.25 21.4142 7.58579 21.75 8 21.75C8.41421 21.75 8.75 21.4142 8.75 21H7.25ZM12.75 3C12.75 2.58579 12.4142 2.25 12 2.25C11.5858 2.25 11.25 2.58579 11.25 3H12.75ZM11.25 6C11.25 6.41421 11.5858 6.75 12 6.75C12.4142 6.75 12.75 6.41421 12.75 6H11.25ZM12.75 18C12.75 17.5858 12.4142 17.25 12 17.25C11.5858 17.25 11.25 17.5858 11.25 18H12.75ZM11.25 21C11.25 21.4142 11.5858 21.75 12 21.75C12.4142 21.75 12.75 21.4142 12.75 21H11.25ZM16.75 3C16.75 2.58579 16.4142 2.25 16 2.25C15.5858 2.25 15.25 2.58579 15.25 3L16.75 3ZM15.25 6.18257C15.25 6.59679 15.5858 6.93257 16 6.93257C16.4142 6.93257 16.75 6.59679 16.75 6.18257L15.25 6.18257ZM16.75 17.8174C16.75 17.4032 16.4142 17.0674 16 17.0674C15.5858 17.0674 15.25 17.4032 15.25 17.8174H16.75ZM15.25 21C15.25 21.4142 15.5858 21.75 16 21.75C16.4142 21.75 16.75 21.4142 16.75 21H15.25ZM7.63803 17.673L7.29754 18.3413L7.63803 17.673ZM6.32698 16.362L5.65873 16.7025L6.32698 16.362ZM17.673 16.362L18.3413 16.7025L17.673 16.362ZM16.362 17.673L16.7025 18.3413L16.362 17.673ZM16.362 6.32698L16.7025 5.65873L16.362 6.32698ZM17.673 7.63803L18.3413 7.29754L17.673 7.63803ZM7.63803 6.32698L7.29754 5.65873L7.63803 6.32698ZM6.32698 7.63803L5.65873 7.29754L6.32698 7.63803ZM10 13.25C9.58579 13.25 9.25 13.5858 9.25 14C9.25 14.4142 9.58579 14.75 10 14.75V13.25ZM10.01 14.75C10.4242 14.75 10.76 14.4142 10.76 14C10.76 13.5858 10.4242 13.25 10.01 13.25V14.75ZM14 13.25C13.5858 13.25 13.25 13.5858 13.25 14C13.25 14.4142 13.5858 14.75 14 14.75V13.25ZM14.01 14.75C14.4242 14.75 14.76 14.4142 14.76 14C14.76 13.5858 14.4242 13.25 14.01 13.25V14.75ZM14 9.25C13.5858 9.25 13.25 9.58579 13.25 10C13.25 10.4142 13.5858 10.75 14 10.75V9.25ZM14.01 10.75C14.4242 10.75 14.76 10.4142 14.76 10C14.76 9.58579 14.4242 9.25 14.01 9.25V10.75ZM10 9.25C9.58579 9.25 9.25 9.58579 9.25 10C9.25 10.4142 9.58579 10.75 10 10.75V9.25ZM10.01 10.75C10.4242 10.75 10.76 10.4142 10.76 10C10.76 9.58579 10.4242 9.25 10.01 9.25V10.75ZM7.25 3V6.18257H8.75V3H7.25ZM3 8.75H6.18257V7.25H3V8.75ZM3 12.75H6V11.25H3V12.75ZM3 16.75H6.18257V15.25H3V16.75ZM17.8174 8.75H21V7.25H17.8174V8.75ZM18 12.75H21V11.25H18V12.75ZM17.8174 16.75H21V15.25H17.8174V16.75ZM7.25 17.8174L7.25 21H8.75L8.75 17.8174H7.25ZM11.25 3V6H12.75V3H11.25ZM11.25 18V21H12.75V18H11.25ZM15.25 3L15.25 6.18257L16.75 6.18257L16.75 3L15.25 3ZM15.25 17.8174V21H16.75V17.8174H15.25ZM10.8 6.75H13.2V5.25H10.8V6.75ZM17.25 10.8V13.2H18.75V10.8H17.25ZM13.2 17.25H10.8V18.75H13.2V17.25ZM6.75 13.2V10.8H5.25V13.2H6.75ZM10.8 17.25C9.94755 17.25 9.35331 17.2494 8.89068 17.2116C8.4368 17.1745 8.17604 17.1054 7.97852 17.0048L7.29754 18.3413C7.74175 18.5676 8.22189 18.662 8.76853 18.7066C9.30641 18.7506 9.9723 18.75 10.8 18.75V17.25ZM5.25 13.2C5.25 14.0277 5.24942 14.6936 5.29336 15.2315C5.33803 15.7781 5.43238 16.2582 5.65873 16.7025L6.99524 16.0215C6.8946 15.824 6.82546 15.5632 6.78838 15.1093C6.75058 14.6467 6.75 14.0525 6.75 13.2H5.25ZM7.97852 17.0048C7.55516 16.789 7.21095 16.4448 6.99524 16.0215L5.65873 16.7025C6.01825 17.4081 6.59193 17.9817 7.29754 18.3413L7.97852 17.0048ZM17.25 13.2C17.25 14.0525 17.2494 14.6467 17.2116 15.1093C17.1745 15.5632 17.1054 15.824 17.0048 16.0215L18.3413 16.7025C18.5676 16.2582 18.662 15.7781 18.7066 15.2315C18.7506 14.6936 18.75 14.0277 18.75 13.2H17.25ZM13.2 18.75C14.0277 18.75 14.6936 18.7506 15.2315 18.7066C15.7781 18.662 16.2582 18.5676 16.7025 18.3413L16.0215 17.0048C15.824 17.1054 15.5632 17.1745 15.1093 17.2116C14.6467 17.2494 14.0525 17.25 13.2 17.25V18.75ZM17.0048 16.0215C16.789 16.4448 16.4448 16.789 16.0215 17.0048L16.7025 18.3413C17.4081 17.9817 17.9817 17.4081 18.3413 16.7025L17.0048 16.0215ZM13.2 6.75C14.0525 6.75 14.6467 6.75058 15.1093 6.78838C15.5632 6.82546 15.824 6.8946 16.0215 6.99524L16.7025 5.65873C16.2582 5.43238 15.7781 5.33803 15.2315 5.29336C14.6936 5.24942 14.0277 5.25 13.2 5.25V6.75ZM18.75 10.8C18.75 9.9723 18.7506 9.30641 18.7066 8.76853C18.662 8.2219 18.5676 7.74175 18.3413 7.29754L17.0048 7.97852C17.1054 8.17604 17.1745 8.4368 17.2116 8.89068C17.2494 9.35331 17.25 9.94755 17.25 10.8H18.75ZM16.0215 6.99524C16.4448 7.21095 16.789 7.55516 17.0048 7.97852L18.3413 7.29754C17.9817 6.59193 17.4081 6.01825 16.7025 5.65873L16.0215 6.99524ZM10.8 5.25C9.9723 5.25 9.30641 5.24942 8.76853 5.29336C8.2219 5.33803 7.74175 5.43238 7.29754 5.65873L7.97852 6.99524C8.17604 6.8946 8.4368 6.82546 8.89068 6.78838C9.35331 6.75058 9.94755 6.75 10.8 6.75V5.25ZM6.75 10.8C6.75 9.94755 6.75058 9.35331 6.78838 8.89068C6.82546 8.4368 6.8946 8.17604 6.99524 7.97852L5.65873 7.29754C5.43238 7.74175 5.33803 8.2219 5.29336 8.76853C5.24942 9.30641 5.25 9.9723 5.25 10.8H6.75ZM7.29754 5.65873C6.59193 6.01825 6.01825 6.59193 5.65873 7.29754L6.99524 7.97852C7.21095 7.55516 7.55516 7.21095 7.97852 6.99524L7.29754 5.65873ZM10 14.75H10.01V13.25H10V14.75ZM14 14.75H14.01V13.25H14V14.75ZM14 10.75H14.01V9.25H14V10.75ZM10 10.75H10.01V9.25H10V10.75Z" fill="#98A2B3"/>
</svg>
