<svg width="24" height="24" viewBox="0 0 24 24" fill="none" xmlns="http://www.w3.org/2000/svg">
<path d="M7.45455 2V3.09091M3.09091 7.45455H2M4.35315 4.35315L3.58176 3.58176M10.556 4.35315L11.3274 3.58176M4.35315 10.5582L3.58176 11.3296M9.44359 7.66552C9.45086 7.59618 9.45459 7.52579 9.45459 7.45453C9.45459 7.10886 9.3669 6.78367 9.21254 6.5C8.87367 5.87721 8.21349 5.45453 7.45459 5.45453C6.35002 5.45453 5.45459 6.34996 5.45459 7.45453C5.45459 8.07708 5.73903 8.63319 6.18504 9C6.28271 9.08032 6.38813 9.15157 6.5 9.21245M9.8 21C7.14903 21 5 18.9466 5 16.4137C5 14.3144 6.6 12.375 9 12C9.75283 10.274 11.5346 9 13.6127 9C16.2747 9 18.4504 10.9907 18.6 13.5C20.0127 14.0956 21 15.5574 21 17.1402C21 19.2719 19.2091 21 17 21L9.8 21Z" stroke="#98A2B3" stroke-width="1.5" stroke-linecap="round" stroke-linejoin="round"/>
</svg>
