<svg width="24" height="24" viewBox="0 0 24 24" fill="none" xmlns="http://www.w3.org/2000/svg">
<path d="M6.5 8C7.88071 8 9 6.88071 9 5.5C9 4.11929 7.88071 3 6.5 3C5.11929 3 4 4.11929 4 5.5C4 6.88071 5.11929 8 6.5 8ZM6.5 8V15M6.5 8C6.5 10.2091 8.29086 12 10.5 12H15M15 12C15 13.3807 16.1193 14.5 17.5 14.5C18.8807 14.5 20 13.3807 20 12C20 10.6193 18.8807 9.5 17.5 9.5C16.1193 9.5 15 10.6193 15 12ZM9 18.5C9 19.8807 7.88071 21 6.5 21C5.11929 21 4 19.8807 4 18.5C4 17.1193 5.11929 16 6.5 16C7.88071 16 9 17.1193 9 18.5Z" stroke="#98A2B3" stroke-width="1.5" stroke-linecap="round" stroke-linejoin="round"/>
</svg>
