<svg width="24" height="24" viewBox="0 0 24 24" fill="none" xmlns="http://www.w3.org/2000/svg">
<path d="M12.5 18H17.8C18.9201 18 19.4802 18 19.908 17.782C20.2843 17.5903 20.5903 17.2843 20.782 16.908C21 16.4802 21 15.9201 21 14.8V7.2C21 6.0799 21 5.51984 20.782 5.09202C20.5903 4.71569 20.2843 4.40973 19.908 4.21799C19.4802 4 18.9201 4 17.8 4H6.2C5.0799 4 4.51984 4 4.09202 4.21799C3.71569 4.40973 3.40973 4.71569 3.21799 5.09202C3 5.51984 3 6.0799 3 7.2V14M3 8H20M9 18.0008L3 18M9 18.0008L7 16M9 18.0008L7 20" stroke="#98A2B3" stroke-width="1.5" stroke-linecap="round" stroke-linejoin="round"/>
</svg>
