<svg width="24" height="24" viewBox="0 0 24 24" fill="none" xmlns="http://www.w3.org/2000/svg">
<path d="M12 10.2308L3.08495 7.0234M12 10.2308L20.9178 7.034M12 10.2308V20.8791M5.13498 18.577L10.935 20.6241C11.3297 20.7634 11.527 20.8331 11.7294 20.8607C11.909 20.8852 12.091 20.8852 12.2706 20.8607C12.473 20.8331 12.6703 20.7634 13.065 20.6241L18.865 18.577C19.6337 18.3057 20.018 18.1701 20.3018 17.9269C20.5523 17.712 20.7459 17.4385 20.8651 17.1307C21 16.7822 21 16.3746 21 15.5595V8.44052C21 7.62536 21 7.21779 20.8651 6.86929C20.7459 6.56149 20.5523 6.28798 20.3018 6.07314C20.018 5.8299 19.6337 5.69425 18.865 5.42295L13.065 3.37589C12.6703 3.23659 12.473 3.16694 12.2706 3.1393C12.091 3.11478 11.909 3.11478 11.7294 3.1393C11.527 3.16694 11.3297 3.23659 10.935 3.37589L5.13498 5.42295C4.36629 5.69425 3.98195 5.8299 3.69824 6.07314C3.44766 6.28798 3.25414 6.56149 3.13495 6.86929C3 7.21779 3 7.62536 3 8.44052V15.5595C3 16.3746 3 16.7822 3.13495 17.1307C3.25414 17.4385 3.44766 17.712 3.69824 17.9269C3.98195 18.1701 4.36629 18.3057 5.13498 18.577Z" stroke="#98A2B3" stroke-width="1.5" stroke-linecap="round" stroke-linejoin="round"/>
</svg>
