<svg width="24" height="24" viewBox="0 0 24 24" fill="none" xmlns="http://www.w3.org/2000/svg">
<path d="M11.9999 9.5L16.9999 14.5M16.9999 9.5L11.9999 14.5M4.50774 13.9546L7.43917 17.7546C7.79169 18.2115 7.96794 18.44 8.18926 18.6047C8.38531 18.7505 8.60641 18.8592 8.84163 18.9253C9.10718 19 9.39574 19 9.97287 19H17.7999C18.92 19 19.4801 19 19.9079 18.782C20.2842 18.5903 20.5902 18.2843 20.7819 17.908C20.9999 17.4802 20.9999 16.9201 20.9999 15.8V8.2C20.9999 7.0799 20.9999 6.51984 20.7819 6.09202C20.5902 5.71569 20.2842 5.40973 19.9079 5.21799C19.4801 5 18.92 5 17.7999 5H9.97288C9.39574 5 9.10718 5 8.84163 5.07467C8.60641 5.14081 8.38531 5.2495 8.18926 5.39534C7.96794 5.55998 7.79169 5.78846 7.43917 6.24543L4.50774 10.0454C3.96814 10.7449 3.69834 11.0947 3.59456 11.4804C3.50298 11.8207 3.50298 12.1793 3.59456 12.5196C3.69834 12.9053 3.96814 13.2551 4.50774 13.9546Z" stroke="#98A2B3" stroke-width="1.5" stroke-linecap="round" stroke-linejoin="round"/>
</svg>
