<svg width="24" height="24" viewBox="0 0 24 24" fill="none" xmlns="http://www.w3.org/2000/svg">
<path d="M11.109 15.546C11 15.7599 11 16.0399 11 16.6V18.4C11 18.9601 11 19.2401 11.109 19.454C11.2049 19.6422 11.3578 19.7951 11.546 19.891C11.7599 20 12.0399 20 12.6 20H14.4C14.9601 20 15.2401 20 15.454 19.891C15.6422 19.7951 15.7951 19.6422 15.891 19.454C16 19.2401 16 18.9601 16 18.4V16.6C16 16.0399 16 15.7599 15.891 15.546C15.7951 15.3578 15.6422 15.2049 15.454 15.109C15.2401 15 14.9601 15 14.4 15H12.6C12.0399 15 11.7599 15 11.546 15.109C11.3578 15.2049 11.2049 15.3578 11.109 15.546ZM11.109 15.546L7.7386 9.67415M8 7.5H16M4.6 10H6.4C6.96005 10 7.24008 10 7.45399 9.89101C7.64215 9.79513 7.79513 9.64215 7.89101 9.45399C8 9.24008 8 8.96005 8 8.4V6.6C8 6.03995 8 5.75992 7.89101 5.54601C7.79513 5.35785 7.64215 5.20487 7.45399 5.10899C7.24008 5 6.96005 5 6.4 5H4.6C4.03995 5 3.75992 5 3.54601 5.10899C3.35785 5.20487 3.20487 5.35785 3.10899 5.54601C3 5.75992 3 6.03995 3 6.6V8.4C3 8.96005 3 9.24008 3.10899 9.45399C3.20487 9.64215 3.35785 9.79513 3.54601 9.89101C3.75992 10 4.03995 10 4.6 10ZM17.6 10H19.4C19.9601 10 20.2401 10 20.454 9.89101C20.6422 9.79513 20.7951 9.64215 20.891 9.45399C21 9.24008 21 8.96005 21 8.4V6.6C21 6.03995 21 5.75992 20.891 5.54601C20.7951 5.35785 20.6422 5.20487 20.454 5.10899C20.2401 5 19.9601 5 19.4 5H17.6C17.0399 5 16.7599 5 16.546 5.10899C16.3578 5.20487 16.2049 5.35785 16.109 5.54601C16 5.75992 16 6.03995 16 6.6V8.4C16 8.96005 16 9.24008 16.109 9.45399C16.2049 9.64215 16.3578 9.79513 16.546 9.89101C16.7599 10 17.0399 10 17.6 10Z" stroke="#98A2B3" stroke-width="1.5" stroke-linecap="round" stroke-linejoin="round"/>
</svg>
