<svg width="24" height="24" viewBox="0 0 24 24" fill="none" xmlns="http://www.w3.org/2000/svg">
<path d="M15.0001 12H9.00008V14M15.0001 12L13.0001 10M15.0001 12L13.0001 14M14.2628 19.7373L19.7373 14.2628C20.5294 13.4707 20.9254 13.0747 21.0738 12.618C21.2043 12.2164 21.2043 11.7837 21.0738 11.382C20.9254 10.9253 20.5294 10.5293 19.7373 9.73727L14.2628 4.26268C13.4707 3.47065 13.0747 3.07463 12.618 2.92626C12.2164 2.79574 11.7837 2.79574 11.382 2.92626C10.9253 3.07463 10.5293 3.47065 9.73727 4.26268L4.26268 9.73727C3.47065 10.5293 3.07463 10.9253 2.92626 11.382C2.79574 11.7837 2.79574 12.2164 2.92626 12.618C3.07463 13.0747 3.47065 13.4707 4.26268 14.2628L9.73727 19.7373C10.5293 20.5294 10.9253 20.9254 11.382 21.0738C11.7837 21.2043 12.2164 21.2043 12.618 21.0738C13.0747 20.9254 13.4707 20.5294 14.2628 19.7373Z" stroke="#98A2B3" stroke-width="1.5" stroke-linecap="round" stroke-linejoin="round"/>
</svg>
