<svg width="24" height="24" viewBox="0 0 24 24" fill="none" xmlns="http://www.w3.org/2000/svg">
<path d="M5 7H3M5 11H3M20 15H3M15 19H3M21 7H19M21 11H19M12 11C11.0681 11 10.6022 11 10.2346 10.8478C9.74458 10.6448 9.35523 10.2554 9.15224 9.76537C9 9.39782 9 8.93188 9 8C9 7.06812 9 6.60218 9.15224 6.23463C9.35523 5.74458 9.74458 5.35523 10.2346 5.15224C10.6022 5 11.0681 5 12 5C12.9319 5 13.3978 5 13.7654 5.15224C14.2554 5.35523 14.6448 5.74458 14.8478 6.23463C15 6.60218 15 7.06812 15 8C15 8.93188 15 9.39782 14.8478 9.76537C14.6448 10.2554 14.2554 10.6448 13.7654 10.8478C13.3978 11 12.9319 11 12 11Z" stroke="#98A2B3" stroke-width="1.5" stroke-linecap="round" stroke-linejoin="round"/>
</svg>
