<svg width="24" height="24" viewBox="0 0 24 24" fill="none" xmlns="http://www.w3.org/2000/svg">
<path d="M3 15H21M3 19H13M21 7H13M21 11H13M6 11C5.06812 11 4.60218 11 4.23463 10.8478C3.74458 10.6448 3.35523 10.2554 3.15224 9.76537C3 9.39782 3 8.93188 3 8C3 7.06812 3 6.60218 3.15224 6.23463C3.35523 5.74458 3.74458 5.35523 4.23463 5.15224C4.60218 5 5.06812 5 6 5C6.93188 5 7.39782 5 7.76537 5.15224C8.25542 5.35523 8.64477 5.74458 8.84776 6.23463C9 6.60218 9 7.06812 9 8C9 8.93188 9 9.39782 8.84776 9.76537C8.64477 10.2554 8.25542 10.6448 7.76537 10.8478C7.39782 11 6.93188 11 6 11Z" stroke="#98A2B3" stroke-width="1.5" stroke-linecap="round" stroke-linejoin="round"/>
</svg>
