<svg width="24" height="24" viewBox="0 0 24 24" fill="none" xmlns="http://www.w3.org/2000/svg">
<path d="M3 15H21M3 19H15M3 7H11M3 11H11M18 11C18.9319 11 19.3978 11 19.7654 10.8478C20.2554 10.6448 20.6448 10.2554 20.8478 9.76537C21 9.39782 21 8.93188 21 8C21 7.06812 21 6.60218 20.8478 6.23463C20.6448 5.74458 20.2554 5.35523 19.7654 5.15224C19.3978 5 18.9319 5 18 5C17.0681 5 16.6022 5 16.2346 5.15224C15.7446 5.35523 15.3552 5.74458 15.1522 6.23463C15 6.60218 15 7.06812 15 8C15 8.93188 15 9.39782 15.1522 9.76537C15.3552 10.2554 15.7446 10.6448 16.2346 10.8478C16.6022 11 17.0681 11 18 11Z" stroke="#98A2B3" stroke-width="1.5" stroke-linecap="round" stroke-linejoin="round"/>
</svg>
