<svg width="24" height="24" viewBox="0 0 24 24" fill="none" xmlns="http://www.w3.org/2000/svg">
<path d="M15.327 17.4211C15.4867 17.8591 16.0052 18.6193 16.8987 19.3326M16.8987 19.3326C17.8418 20.0855 19.2027 20.786 21 21M16.8987 19.3326C18.247 18.2496 19.1724 16.8825 19.1724 16M16.8987 19.3326C15.7916 20.2218 14.3993 20.9195 13 21M21 15H13M17 13V15M6.04457 15C5.82482 16.1485 6.30826 18.3472 10 17.9534M12 6.03343C13.5314 5.86862 16.4629 6.2312 15.9379 9M3 11L5 3.88889C5 3.88889 5.25 3 6 3C6.75 3 7 4 7 4L9 11M3.84375 8H8.14286" stroke="#98A2B3" stroke-width="1.5" stroke-linecap="round" stroke-linejoin="round"/>
</svg>
