<svg width="24" height="24" viewBox="0 0 24 24" fill="none" xmlns="http://www.w3.org/2000/svg">
<path d="M6.00002 14L14 14L10.4059 17.5941C9.88703 18.113 9.6276 18.3724 9.32485 18.5579C9.05644 18.7224 8.7638 18.8436 8.4577 18.9171C8.11243 19 7.74555 19 7.01178 19H6L3 21L5 18V16.9882C5 16.2544 5 15.8876 5.08289 15.5423C5.15638 15.2362 5.27759 14.9436 5.44208 14.6751C5.6276 14.3724 5.88703 14.113 6.40589 13.5941L10 10M12.5 7.5L16 4C17.1046 2.89543 18.8954 2.89543 20 4C21.1046 5.10457 21.1046 6.89543 20 8L16.5 11.5M11 6L18 13" stroke="#98A2B3" stroke-width="1.5" stroke-linecap="round" stroke-linejoin="round"/>
</svg>
