<svg width="24" height="24" viewBox="0 0 24 24" fill="none" xmlns="http://www.w3.org/2000/svg">
<path d="M19 9V17.8C19 18.9201 19 19.4802 18.782 19.908C18.5903 20.2843 18.2843 20.5903 17.908 20.782C17.4802 21 16.9201 21 15.8 21H8.2C7.07989 21 6.51984 21 6.09202 20.782C5.71569 20.5903 5.40973 20.2843 5.21799 19.908C5 19.4802 5 18.9201 5 17.8V6.2C5 5.07989 5 4.51984 5.21799 4.09202C5.40973 3.71569 5.71569 3.40973 6.09202 3.21799C6.51984 3 7.0799 3 8.2 3H13M19 9L13 3M19 9H16.2C15.0799 9 14.5198 9 14.092 8.78201C13.7157 8.59027 13.4097 8.28431 13.218 7.90798C13 7.48016 13 6.9201 13 5.8V3M11.9976 12.2119C11.2978 11.4328 10.1309 11.2232 9.25414 11.9367C8.37738 12.6501 8.25394 13.843 8.94247 14.6868C9.33119 15.1632 10.2548 15.9983 10.9854 16.6353C11.3319 16.9374 11.5051 17.0885 11.7147 17.1503C11.8934 17.203 12.1018 17.203 12.2805 17.1503C12.4901 17.0885 12.6633 16.9374 13.0098 16.6353C13.7404 15.9983 14.664 15.1632 15.0527 14.6868C15.7413 13.843 15.6329 12.6426 14.7411 11.9367C13.8492 11.2307 12.6974 11.4328 11.9976 12.2119Z" stroke="#98A2B3" stroke-width="1.5" stroke-linejoin="round"/>
</svg>
