<svg width="24" height="24" viewBox="0 0 24 24" fill="none" xmlns="http://www.w3.org/2000/svg">
<path d="M21 9V11.2C21 12.8802 21 13.7202 20.673 14.362C20.3854 14.9265 19.9265 15.3854 19.362 15.673C18.7202 16 17.8802 16 16.2 16H11.8C10.1198 16 9.27976 16 8.63803 15.673C8.07354 15.3854 7.6146 14.9265 7.32698 14.362C7 13.7202 7 12.8802 7 11.2V8.8C7 7.11984 7 6.27976 7.32698 5.63803C7.6146 5.07354 8.07354 4.6146 8.63803 4.32698C9.27976 4 10.1198 4 11.8 4H15.75L21 9ZM21 9H18.2C17.0799 9 16.5198 9 16.092 8.78201C15.7157 8.59027 15.4097 8.28431 15.218 7.90798C15 7.48016 15 6.9201 15 5.8V4M17 20H9C5.68629 20 3 17.3137 3 14V8" stroke="#98A2B3" stroke-width="1.5" stroke-linecap="round" stroke-linejoin="round"/>
</svg>
