<svg width="24" height="24" viewBox="0 0 24 24" fill="none" xmlns="http://www.w3.org/2000/svg">
<path d="M19 9V17.8C19 18.9201 19 19.4802 18.782 19.908C18.5903 20.2843 18.2843 20.5903 17.908 20.782C17.4802 21 16.9201 21 15.8 21H8.2C7.07989 21 6.51984 21 6.09202 20.782C5.71569 20.5903 5.40973 20.2843 5.21799 19.908C5 19.4802 5 18.9201 5 17.8V6.2C5 5.07989 5 4.51984 5.21799 4.09202C5.40973 3.71569 5.71569 3.40973 6.09202 3.21799C6.51984 3 7.0799 3 8.2 3H13M19 9L13 3M19 9H16.2C15.0799 9 14.5198 9 14.092 8.78201C13.7157 8.59027 13.4097 8.28431 13.218 7.90798C13 7.48016 13 6.9201 13 5.8V3M14 15.0039V14C14 12.8954 13.1046 12 12 12C10.8954 12 10 12.8954 10 14V15.0039M10.5 18H13.5C13.9659 18 14.1989 18 14.3827 17.9239C14.6277 17.8224 14.8224 17.6277 14.9239 17.3827C15 17.1989 15 16.9659 15 16.5C15 16.0341 15 15.8011 14.9239 15.6173C14.8224 15.3723 14.6277 15.1776 14.3827 15.0761C14.1989 15 13.9659 15 13.5 15H10.5C10.0341 15 9.80109 15 9.61732 15.0761C9.37229 15.1776 9.17761 15.3723 9.07612 15.6173C9 15.8011 9 16.0341 9 16.5C9 16.9659 9 17.1989 9.07612 17.3827C9.17761 17.6277 9.37229 17.8224 9.61732 17.9239C9.80109 18 10.0341 18 10.5 18Z" stroke="#98A2B3" stroke-width="1.5" stroke-linejoin="round"/>
</svg>
