<svg width="24" height="24" viewBox="0 0 24 24" fill="none" xmlns="http://www.w3.org/2000/svg">
<path d="M9 17H10M9 13H12M9 9H10M19 9L13 3M19 9H16.2C15.0799 9 14.5198 9 14.092 8.78201C13.7157 8.59027 13.4097 8.28431 13.218 7.90798C13 7.48016 13 6.9201 13 5.8V3M19 9V11M13 3H8.2C7.0799 3 6.51984 3 6.09202 3.21799C5.71569 3.40973 5.40973 3.71569 5.21799 4.09202C5 4.51984 5 5.07989 5 6.2V17.8C5 18.9201 5 19.4802 5.21799 19.908C5.40973 20.2843 5.71569 20.5903 6.09202 20.782C6.51984 21 7.07989 21 8.2 21H12M17.4976 15.7119C16.7978 14.9328 15.6309 14.7232 14.7541 15.4367C13.8774 16.1501 13.7539 17.343 14.4425 18.1868C14.8312 18.6632 15.7548 19.4983 16.4854 20.1353C16.8319 20.4374 17.0051 20.5885 17.2147 20.6503C17.3934 20.703 17.6018 20.703 17.7805 20.6503C17.9901 20.5885 18.1633 20.4374 18.5098 20.1353C19.2404 19.4983 20.164 18.6632 20.5527 18.1868C21.2413 17.343 21.1329 16.1426 20.2411 15.4367C19.3492 14.7307 18.1974 14.9328 17.4976 15.7119Z" stroke="#98A2B3" stroke-width="1.5" stroke-linecap="round" stroke-linejoin="round"/>
</svg>
