<svg width="24" height="24" viewBox="0 0 24 24" fill="none" xmlns="http://www.w3.org/2000/svg">
<path d="M19 9H19.75C19.75 8.80109 19.671 8.61032 19.5303 8.46967L19 9ZM13 3L13.5303 2.46967C13.3897 2.32902 13.1989 2.25 13 2.25V3ZM13.218 7.90798L13.8862 7.56749V7.56749L13.218 7.90798ZM14.092 8.78201L14.4325 8.11376L14.092 8.78201ZM6.09202 20.782L6.43251 20.1138L6.09202 20.782ZM5.21799 19.908L5.88624 19.5675L5.21799 19.908ZM18.782 19.908L18.1138 19.5675L18.782 19.908ZM17.908 20.782L17.5675 20.1138L17.908 20.782ZM5.21799 4.09202L5.88624 4.43251L5.21799 4.09202ZM6.09202 3.21799L6.43251 3.88624L6.09202 3.21799ZM18.25 9V17.8H19.75V9H18.25ZM15.8 20.25H8.2V21.75H15.8V20.25ZM5.75 17.8V6.2H4.25V17.8H5.75ZM8.2 3.75H13V2.25H8.2V3.75ZM12.4697 3.53033L18.4697 9.53033L19.5303 8.46967L13.5303 2.46967L12.4697 3.53033ZM12.25 3V5.8H13.75V3H12.25ZM16.2 9.75H19V8.25H16.2V9.75ZM12.25 5.8C12.25 6.34768 12.2494 6.80354 12.2797 7.17467C12.3108 7.55455 12.3779 7.91121 12.5497 8.24847L13.8862 7.56749C13.8401 7.47693 13.7982 7.33965 13.7748 7.05252C13.7506 6.75664 13.75 6.37243 13.75 5.8H12.25ZM16.2 8.25C15.6276 8.25 15.2434 8.24942 14.9475 8.22524C14.6604 8.20178 14.5231 8.1599 14.4325 8.11376L13.7515 9.45027C14.0888 9.62211 14.4454 9.68922 14.8253 9.72026C15.1965 9.75058 15.6523 9.75 16.2 9.75V8.25ZM12.5497 8.24847C12.8134 8.76592 13.2341 9.18662 13.7515 9.45027L14.4325 8.11376C14.1973 7.99392 14.0061 7.80269 13.8862 7.56749L12.5497 8.24847ZM8.2 20.25C7.62757 20.25 7.24336 20.2494 6.94748 20.2252C6.66035 20.2018 6.52307 20.1599 6.43251 20.1138L5.75153 21.4503C6.08879 21.6221 6.44544 21.6892 6.82533 21.7203C7.19646 21.7506 7.65232 21.75 8.2 21.75V20.25ZM4.25 17.8C4.25 18.3477 4.24942 18.8035 4.27974 19.1747C4.31078 19.5546 4.37789 19.9112 4.54973 20.2485L5.88624 19.5675C5.8401 19.4769 5.79822 19.3396 5.77476 19.0525C5.75058 18.7566 5.75 18.3724 5.75 17.8H4.25ZM6.43251 20.1138C6.19731 19.9939 6.00608 19.8027 5.88624 19.5675L4.54973 20.2485C4.81338 20.7659 5.23408 21.1866 5.75153 21.4503L6.43251 20.1138ZM18.25 17.8C18.25 18.3724 18.2494 18.7566 18.2252 19.0525C18.2018 19.3396 18.1599 19.4769 18.1138 19.5675L19.4503 20.2485C19.6221 19.9112 19.6892 19.5546 19.7203 19.1747C19.7506 18.8035 19.75 18.3477 19.75 17.8H18.25ZM15.8 21.75C16.3477 21.75 16.8035 21.7506 17.1747 21.7203C17.5546 21.6892 17.9112 21.6221 18.2485 21.4503L17.5675 20.1138C17.4769 20.1599 17.3396 20.2018 17.0525 20.2252C16.7566 20.2494 16.3724 20.25 15.8 20.25V21.75ZM18.1138 19.5675C17.9939 19.8027 17.8027 19.9939 17.5675 20.1138L18.2485 21.4503C18.7659 21.1866 19.1866 20.7659 19.4503 20.2485L18.1138 19.5675ZM5.75 6.2C5.75 5.62757 5.75058 5.24336 5.77476 4.94748C5.79822 4.66035 5.8401 4.52307 5.88624 4.43251L4.54973 3.75153C4.37789 4.08879 4.31078 4.44545 4.27974 4.82533C4.24942 5.19646 4.25 5.65232 4.25 6.2H5.75ZM8.2 2.25C7.65232 2.25 7.19646 2.24942 6.82533 2.27974C6.44545 2.31078 6.08879 2.37789 5.75153 2.54973L6.43251 3.88624C6.52307 3.8401 6.66035 3.79822 6.94748 3.77476C7.24336 3.75058 7.62757 3.75 8.2 3.75V2.25ZM5.88624 4.43251C6.00608 4.19731 6.19731 4.00608 6.43251 3.88624L5.75153 2.54973C5.23408 2.81338 4.81338 3.23408 4.54973 3.75153L5.88624 4.43251ZM14.25 14.5C14.25 15.7426 13.2426 16.75 12 16.75V18.25C14.0711 18.25 15.75 16.5711 15.75 14.5H14.25ZM12 16.75C10.7574 16.75 9.75 15.7426 9.75 14.5H8.25C8.25 16.5711 9.92893 18.25 12 18.25V16.75ZM9.75 14.5C9.75 13.2574 10.7574 12.25 12 12.25V10.75C9.92893 10.75 8.25 12.4289 8.25 14.5H9.75ZM12 12.25C13.2426 12.25 14.25 13.2574 14.25 14.5H15.75C15.75 12.4289 14.0711 10.75 12 10.75V12.25ZM10.3941 17.1354L14.6315 12.8878L13.5696 11.8284L9.33218 16.076L10.3941 17.1354Z" fill="#98A2B3"/>
</svg>
