<svg width="24" height="24" viewBox="0 0 24 24" fill="none" xmlns="http://www.w3.org/2000/svg">
<path d="M19 9V17.8C19 18.9201 19 19.4802 18.782 19.908C18.5903 20.2843 18.2843 20.5903 17.908 20.782C17.4802 21 16.9201 21 15.8 21H8.2C7.07989 21 6.51984 21 6.09202 20.782C5.71569 20.5903 5.40973 20.2843 5.21799 19.908C5 19.4802 5 18.9201 5 17.8V6.2C5 5.07989 5 4.51984 5.21799 4.09202C5.40973 3.71569 5.71569 3.40973 6.09202 3.21799C6.51984 3 7.0799 3 8.2 3H13M19 9L13 3M19 9H16.2C15.0799 9 14.5198 9 14.092 8.78201C13.7157 8.59027 13.4097 8.28431 13.218 7.90798C13 7.48016 13 6.9201 13 5.8V3M9 16.9982L10.4 16.7182C10.5765 16.6829 10.6648 16.6652 10.7471 16.6329C10.8202 16.6042 10.8897 16.5671 10.954 16.5222C11.0266 16.4716 11.0902 16.4079 11.2176 16.2806L14.25 13.2482C14.6642 12.8339 14.6642 12.1624 14.25 11.7482C13.8358 11.3339 13.1642 11.3339 12.75 11.7482L9.71755 14.7806C9.59023 14.9079 9.52657 14.9716 9.47598 15.0441C9.43108 15.1085 9.39391 15.1779 9.36525 15.251C9.33296 15.3333 9.31531 15.4216 9.27999 15.5982L9 16.9982Z" stroke="#98A2B3" stroke-width="1.5" stroke-linejoin="round"/>
</svg>
