<svg width="24" height="24" viewBox="0 0 24 24" fill="none" xmlns="http://www.w3.org/2000/svg">
<path d="M19 9L13 3M19 9H16.2C15.0799 9 14.5198 9 14.092 8.78201C13.7157 8.59027 13.4097 8.28431 13.218 7.90798C13 7.48016 13 6.9201 13 5.8V3M19 9V10M13 3H8.2C7.0799 3 6.51984 3 6.09202 3.21799C5.71569 3.40973 5.40973 3.71569 5.21799 4.09202C5 4.51984 5 5.07989 5 6.2V17.8C5 18.9201 5 19.4802 5.21799 19.908C5.40973 20.2843 5.71569 20.5903 6.09202 20.782C6.51984 21 7.07989 21 8.2 21H10M14 21.0002L16.025 20.5952C16.2015 20.5598 16.2898 20.5422 16.3721 20.5099C16.4452 20.4812 16.5147 20.4441 16.579 20.3992C16.6516 20.3486 16.7152 20.2849 16.8426 20.1576L21 16.0002C21.5523 15.4479 21.5523 14.5524 21 14.0002C20.4477 13.4479 19.5523 13.4479 19 14.0002L14.8426 18.1576C14.7152 18.2849 14.6516 18.3486 14.601 18.4211C14.5561 18.4855 14.5189 18.5549 14.4903 18.628C14.458 18.7103 14.4403 18.7986 14.405 18.9752L14 21.0002Z" stroke="#98A2B3" stroke-width="1.5" stroke-linecap="round" stroke-linejoin="round"/>
</svg>
