<svg width="24" height="24" viewBox="0 0 24 24" fill="none" xmlns="http://www.w3.org/2000/svg">
<path d="M19 9L13 3M19 9H16.2C15.0799 9 14.5198 9 14.092 8.78201C13.7157 8.59027 13.4097 8.28431 13.218 7.90798C13 7.48016 13 6.9201 13 5.8V3M19 9V10M13 3H8.2C7.0799 3 6.51984 3 6.09202 3.21799C5.71569 3.40973 5.40973 3.71569 5.21799 4.09202C5 4.51984 5 5.07989 5 6.2V17.8C5 18.9201 5 19.4802 5.21799 19.908C5.40973 20.2843 5.71569 20.5903 6.09202 20.782C6.51984 21 7.07989 21 8.2 21H13M19.0001 15C17.0026 15 17.0017 15.4894 17.0001 16.3325C16.9988 17 17.0001 17.5 19.0001 17.5C21.0001 17.5 21.0001 18 21.0001 18.6667C21.0001 19.389 21.0001 20 19.0001 20M19.0001 15L21.0001 15M19.0001 15L19.0001 14M19.0001 20H17.0001M19.0001 20L19.0001 21" stroke="#98A2B3" stroke-width="1.5" stroke-linecap="round" stroke-linejoin="round"/>
</svg>
