<svg width="24" height="24" viewBox="0 0 24 24" fill="none" xmlns="http://www.w3.org/2000/svg">
<path d="M15 3H12.8C11.1198 3 10.2798 3 9.63803 3.32698C9.07354 3.6146 8.6146 4.07354 8.32698 4.63803C8 5.27976 8 6.11984 8 7.8V12.2C8 13.8802 8 14.7202 8.32698 15.362C8.6146 15.9265 9.07354 16.3854 9.63803 16.673C10.2798 17 11.1198 17 12.8 17H15.2C16.8802 17 17.7202 17 18.362 16.673C18.9265 16.3854 19.3854 15.9265 19.673 15.362C20 14.7202 20 13.8802 20 12.2V8.25L15 3ZM15 3V5.8C15 6.9201 15 7.48016 15.218 7.90798C15.4097 8.28431 15.7157 8.59027 16.092 8.78201C16.5198 9 17.0799 9 18.2 9H20M8 6H7C5.34315 6 4 7.34315 4 9V18C4 19.6569 5.34315 21 7 21H14C15.6569 21 17 19.6569 17 18V17" stroke="#98A2B3" stroke-width="1.5" stroke-linecap="round" stroke-linejoin="round"/>
</svg>
