<svg width="24" height="24" viewBox="0 0 24 24" fill="none" xmlns="http://www.w3.org/2000/svg">
<path d="M19 9V17.8C19 18.9201 19 19.4802 18.782 19.908C18.5903 20.2843 18.2843 20.5903 17.908 20.782C17.4802 21 16.9201 21 15.8 21H8.2C7.07989 21 6.51984 21 6.09202 20.782C5.71569 20.5903 5.40973 20.2843 5.21799 19.908C5 19.4802 5 18.9201 5 17.8V6.2C5 5.07989 5 4.51984 5.21799 4.09202C5.40973 3.71569 5.71569 3.40973 6.09202 3.21799C6.51984 3 7.0799 3 8.2 3H13M19 9L13 3M19 9H16.2C15.0799 9 14.5198 9 14.092 8.78201C13.7157 8.59027 13.4097 8.28431 13.218 7.90798C13 7.48016 13 6.92011 13 5.8V3M15 12.21C14.9318 12.2141 14.7357 12.21 14.6667 12.21C13.6422 12.21 12.7077 11.7524 12 11C11.2923 11.7524 10.3578 12.2099 9.33333 12.2099C9.26426 12.2099 9.06837 12.2141 9.00016 12.21C9.00016 12.21 9 12.9855 9 13.3979C9 15.6121 10.2748 17.4725 12 18C13.7252 17.4725 15 15.6121 15 13.3979C15 12.9855 15 12.21 15 12.21Z" stroke="#98A2B3" stroke-width="1.5" stroke-linecap="round" stroke-linejoin="round"/>
</svg>
