<svg width="24" height="24" viewBox="0 0 24 24" fill="none" xmlns="http://www.w3.org/2000/svg">
<path d="M19 9L13 3M19 9H16.2C15.0799 9 14.5198 9 14.092 8.78201C13.7157 8.59027 13.4097 8.28431 13.218 7.90798C13 7.48016 13 6.9201 13 5.8V3M19 9V10M13 3H8.2C7.0799 3 6.51984 3 6.09202 3.21799C5.71569 3.40973 5.40973 3.71569 5.21799 4.09202C5 4.51984 5 5.07989 5 6.2V17.8C5 18.9201 5 19.4802 5.21799 19.908C5.40973 20.2843 5.71569 20.5903 6.09202 20.782C6.51984 21 7.07989 21 8.2 21H14M16 15.5022C16.1762 15.0014 16.524 14.579 16.9817 14.31C17.4395 14.0409 17.9777 13.9426 18.501 14.0324C19.0243 14.1221 19.499 14.3942 19.8409 14.8004C20.1829 15.2066 20.37 15.7207 20.3692 16.2517C20.3692 17.7506 18.1209 18.5 18.1209 18.5M18 21H18.01M9 17H12M9 13H13M9 9H10" stroke="#98A2B3" stroke-width="1.5" stroke-linecap="round" stroke-linejoin="round"/>
</svg>
