<svg width="24" height="24" viewBox="0 0 24 24" fill="none" xmlns="http://www.w3.org/2000/svg">
<path d="M6.8916 17.7897C6.90732 17.7633 6.92343 17.7369 6.93992 17.7107C8.1426 15.7988 8.83882 13.5379 8.83882 11.1034C8.83882 9.14189 10.429 7.55176 12.3905 7.55176C14.352 7.55176 15.9421 9.14189 15.9421 11.1034C15.9421 12.0065 15.8807 12.8957 15.7616 13.7672M13.8816 19.8437C14.4247 18.7596 14.87 17.6179 15.2059 16.4309M18.6146 17.4359C19.1874 15.4236 19.494 13.2993 19.494 11.1033C19.494 7.18026 16.3137 4 12.3907 4C11.0968 4 9.88379 4.34591 8.83899 4.9503M4.39941 14.9783C4.96826 13.8073 5.28733 12.4926 5.28733 11.1033C5.28733 9.8095 5.63324 8.59646 6.23763 7.55166M12.3905 11.1035C12.3905 14.2265 11.4948 17.1403 9.94629 19.6019" stroke="#98A2B3" stroke-width="1.5" stroke-linecap="round" stroke-linejoin="round"/>
</svg>
