<svg width="24" height="24" viewBox="0 0 24 24" fill="none" xmlns="http://www.w3.org/2000/svg">
<path d="M16.5 6.00081V18.0008M7.5 8.07386V15.9278C7.5 16.9223 7.5 17.4196 7.70662 17.6889C7.88655 17.9234 8.16099 18.0663 8.45628 18.0792C8.79539 18.094 9.20277 17.8089 10.0175 17.2385L14.6912 13.967C15.6361 13.3055 16.1086 12.9748 16.2751 12.5628C16.4207 12.2023 16.4207 11.7993 16.2751 11.4388C16.1086 11.0268 15.6361 10.6961 14.6912 10.0347L10.0175 6.76309C9.20277 6.19276 8.79539 5.90759 8.45628 5.92243C8.16099 5.93535 7.88655 6.07824 7.70662 6.31274C7.5 6.58204 7.5 7.07931 7.5 8.07386Z" stroke="#98A2B3" stroke-width="1.5" stroke-linecap="round" stroke-linejoin="round"/>
</svg>
