<svg width="24" height="24" viewBox="0 0 24 24" fill="none" xmlns="http://www.w3.org/2000/svg">
<path d="M2.83754 5.90438C1.27196 5.90949 0 7.2193 0 8.8288V19.1779C0 20.7906 1.2773 22.1033 2.84666 22.1033H12.9207C14.4903 22.1033 15.7676 20.7906 15.7676 19.1779V8.82927C15.7676 7.21978 14.495 5.90996 12.93 5.90514V3.75921C17.145 3.99946 18.8619 9.24108 23.0987 10.0466C24.0042 10.2187 24.3905 8.79634 23.4804 8.62308C19.0448 7.78006 17.5883 2.44788 12.93 2.27632V0H8.86822V0.738083C8.86822 1.29619 8.42649 1.74973 7.88391 1.74973C7.34133 1.74973 6.8996 1.29619 6.8996 0.738083V0H2.83781V5.90447H2.83754V5.90438ZM14.3304 8.82927V19.179C14.3304 19.9775 13.6981 20.6272 12.9207 20.6272H2.84619C2.06884 20.6272 1.43627 19.9776 1.43627 19.179V8.82927C1.43627 8.03072 2.06884 7.38054 2.84619 7.38054H12.9207C13.6981 7.38007 14.3304 8.03072 14.3304 8.82927ZM4.27436 1.47607H5.57127C5.87835 2.48876 6.79828 3.2258 7.88363 3.2258C8.96889 3.2258 9.88929 2.48866 10.1959 1.47607H11.4928V5.68551H4.27436V1.47607Z" fill="#98A2B3"/>
<path d="M2.56012 22.5239C2.16306 22.5239 1.8418 22.8545 1.8418 23.2619C1.8418 23.669 2.16306 24 2.56012 24H13.2015C13.599 24 13.9199 23.669 13.9199 23.2619C13.9199 22.8545 13.5991 22.5239 13.2015 22.5239H2.56012Z" fill="#98A2B3"/>
</svg>
