<svg width="24" height="24" viewBox="0 0 24 24" fill="none" xmlns="http://www.w3.org/2000/svg">
<path d="M17 14V20M14 17H20M16.4 10H17.6C18.4401 10 18.8601 10 19.181 9.83651C19.4632 9.6927 19.6927 9.46323 19.8365 9.18099C20 8.86012 20 8.44008 20 7.6V6.4C20 5.55992 20 5.13988 19.8365 4.81901C19.6927 4.53677 19.4632 4.3073 19.181 4.16349C18.8601 4 18.4401 4 17.6 4H16.4C15.5599 4 15.1399 4 14.819 4.16349C14.5368 4.3073 14.3073 4.53677 14.1635 4.81901C14 5.13988 14 5.55992 14 6.4V7.6C14 8.44008 14 8.86012 14.1635 9.18099C14.3073 9.46323 14.5368 9.6927 14.819 9.83651C15.1399 10 15.5599 10 16.4 10ZM6.4 10H7.6C8.44008 10 8.86012 10 9.18099 9.83651C9.46323 9.6927 9.6927 9.46323 9.83651 9.18099C10 8.86012 10 8.44008 10 7.6V6.4C10 5.55992 10 5.13988 9.83651 4.81901C9.6927 4.53677 9.46323 4.3073 9.18099 4.16349C8.86012 4 8.44008 4 7.6 4H6.4C5.55992 4 5.13988 4 4.81901 4.16349C4.53677 4.3073 4.3073 4.53677 4.16349 4.81901C4 5.13988 4 5.55992 4 6.4V7.6C4 8.44008 4 8.86012 4.16349 9.18099C4.3073 9.46323 4.53677 9.6927 4.81901 9.83651C5.13988 10 5.55992 10 6.4 10ZM6.4 20H7.6C8.44008 20 8.86012 20 9.18099 19.8365C9.46323 19.6927 9.6927 19.4632 9.83651 19.181C10 18.8601 10 18.4401 10 17.6V16.4C10 15.5599 10 15.1399 9.83651 14.819C9.6927 14.5368 9.46323 14.3073 9.18099 14.1635C8.86012 14 8.44008 14 7.6 14H6.4C5.55992 14 5.13988 14 4.81901 14.1635C4.53677 14.3073 4.3073 14.5368 4.16349 14.819C4 15.1399 4 15.5599 4 16.4V17.6C4 18.4401 4 18.8601 4.16349 19.181C4.3073 19.4632 4.53677 19.6927 4.81901 19.8365C5.13988 20 5.55992 20 6.4 20Z" stroke="#98A2B3" stroke-width="1.5" stroke-linecap="round" stroke-linejoin="round"/>
</svg>
