<svg width="24" height="24" viewBox="0 0 24 24" fill="none" xmlns="http://www.w3.org/2000/svg">
<path d="M8 3L5 21M4 9H16M3 15H12M20 17.0039V16C20 14.8954 19.1046 14 18 14C16.8954 14 16 14.8954 16 16V17.0039M14 3L11 21M16.6 21H19.4C19.9601 21 20.2401 21 20.454 20.891C20.6422 20.7951 20.7951 20.6422 20.891 20.454C21 20.2401 21 19.9601 21 19.4V18.6C21 18.0399 21 17.7599 20.891 17.546C20.7951 17.3578 20.6422 17.2049 20.454 17.109C20.2401 17 19.9601 17 19.4 17H16.6C16.0399 17 15.7599 17 15.546 17.109C15.3578 17.2049 15.2049 17.3578 15.109 17.546C15 17.7599 15 18.0399 15 18.6V19.4C15 19.9601 15 20.2401 15.109 20.454C15.2049 20.6422 15.3578 20.7951 15.546 20.891C15.7599 21 16.0399 21 16.6 21Z" stroke="#98A2B3" stroke-width="1.5" stroke-linecap="round" stroke-linejoin="round"/>
</svg>
