<svg width="24" height="24" viewBox="0 0 24 24" fill="none" xmlns="http://www.w3.org/2000/svg">
<path d="M3.6433 14.6898C3.18873 13.6139 2.99978 13.2414 2.99978 12C2.99978 9.13012 4.34304 6.57397 6.43515 4.92598M20.2946 14.7203C20.7492 13.6444 20.9998 13.2414 20.9998 12C20.9998 9.12904 19.6555 6.57205 17.562 4.92413M8.00118 7C9.04447 6.36467 10.7009 6 12.0012 6C13.2762 6 14.9716 6.38739 16.0012 7M7.99978 7L6.43515 4.92598M15.9998 7L17.562 4.92413M17.562 4.92413C16.0311 3.71896 14.0994 3 11.9998 3C9.8991 3 7.96651 3.7197 6.43515 4.92598M8.09965 21.0957C6.59803 21.7959 4.81309 21.1463 4.11287 19.6446L3.26763 17.832C2.56742 16.3304 3.21708 14.5455 4.7187 13.8452C5.71978 13.3784 6.90974 13.8115 7.37655 14.8126L9.06703 18.4379C9.53384 19.4389 9.10073 20.6289 8.09965 21.0957ZM15.8143 21.0957C14.8132 20.6289 14.3801 19.4389 14.8469 18.4378L16.5374 14.8126C17.0042 13.8115 18.1941 13.3784 19.1952 13.8452C20.6968 14.5455 21.3465 16.3304 20.6463 17.832L19.801 19.6446C19.1008 21.1463 17.3159 21.7959 15.8143 21.0957Z" stroke="#98A2B3" stroke-width="1.5" stroke-linecap="round" stroke-linejoin="round"/>
</svg>
