<svg width="24" height="24" viewBox="0 0 24 24" fill="none" xmlns="http://www.w3.org/2000/svg">
<path d="M2.25 17C2.25 17.4142 2.58579 17.75 3 17.75C3.41421 17.75 3.75 17.4142 3.75 17H2.25ZM20.25 17C20.25 17.4142 20.5858 17.75 21 17.75C21.4142 17.75 21.75 17.4142 21.75 17H20.25ZM3.75 12C3.75 7.44365 7.44365 3.75 12 3.75V2.25C6.61522 2.25 2.25 6.61522 2.25 12H3.75ZM12 3.75C16.5563 3.75 20.25 7.44365 20.25 12H21.75C21.75 6.61522 17.3848 2.25 12 2.25V3.75ZM2.25 12V17H3.75V12H2.25ZM20.25 12V17H21.75V12H20.25ZM9.25 14.7143V19.2857H10.75V14.7143H9.25ZM6.75 18.7143V15.2857H5.25V18.7143H6.75ZM8.28571 20.25C7.43756 20.25 6.75 19.5624 6.75 18.7143H5.25C5.25 20.3909 6.60914 21.75 8.28571 21.75V20.25ZM9.25 19.2857C9.25 19.8183 8.81827 20.25 8.28571 20.25V21.75C9.6467 21.75 10.75 20.6467 10.75 19.2857H9.25ZM8.28571 13.75C8.81827 13.75 9.25 14.1817 9.25 14.7143H10.75C10.75 13.3533 9.6467 12.25 8.28571 12.25V13.75ZM8.28571 12.25C6.60914 12.25 5.25 13.6091 5.25 15.2857H6.75C6.75 14.4376 7.43756 13.75 8.28571 13.75V12.25ZM13.25 14.7143V19.2857H14.75V14.7143H13.25ZM18.75 18.7143V15.2857H17.25V18.7143H18.75ZM15.7143 21.75C17.3909 21.75 18.75 20.3909 18.75 18.7143H17.25C17.25 19.5624 16.5624 20.25 15.7143 20.25V21.75ZM13.25 19.2857C13.25 20.6467 14.3533 21.75 15.7143 21.75V20.25C15.1817 20.25 14.75 19.8183 14.75 19.2857H13.25ZM15.7143 12.25C14.3533 12.25 13.25 13.3533 13.25 14.7143H14.75C14.75 14.1817 15.1817 13.75 15.7143 13.75V12.25ZM15.7143 13.75C16.5624 13.75 17.25 14.4376 17.25 15.2857H18.75C18.75 13.6091 17.3909 12.25 15.7143 12.25V13.75Z" fill="#98A2B3"/>
</svg>
