<svg width="24" height="24" viewBox="0 0 24 24" fill="none" xmlns="http://www.w3.org/2000/svg">
<path d="M12 5.99998L14 7.99998L10 9.99998L13 13M12 5.99998C10.2006 3.90297 7.19377 3.25503 4.93923 5.17527C2.68468 7.09551 2.36727 10.3061 4.13778 12.5771C5.60984 14.4654 10.0648 18.4478 11.5249 19.7368C11.6882 19.881 11.7699 19.9531 11.8652 19.9814C11.9483 20.0062 12.0393 20.0062 12.1225 19.9814C12.2178 19.9531 12.2994 19.881 12.4628 19.7368C13.9229 18.4478 18.3778 14.4654 19.8499 12.5771C21.6204 10.3061 21.3417 7.07531 19.0484 5.17527C16.7551 3.27523 13.7994 3.90297 12 5.99998Z" stroke="#98A2B3" stroke-width="1.5" stroke-linecap="round" stroke-linejoin="round"/>
</svg>
