<svg width="24" height="24" viewBox="0 0 24 24" fill="none" xmlns="http://www.w3.org/2000/svg">
<path d="M14.499 8.5H14.489M18.3843 16.534L17.0892 15.3728C16.3492 14.7094 15.9793 14.3777 15.56 14.2484C15.1906 14.1346 14.7962 14.1302 14.4243 14.2358C14.0023 14.3557 13.625 14.679 12.8705 15.3258L12.2476 15.8597M5.01465 15.4879L6.3705 14.3258C7.12504 13.679 7.50231 13.3557 7.92431 13.2358C8.29615 13.1302 8.69063 13.1346 9.06003 13.2484C9.47925 13.3777 9.84923 13.7094 10.5892 14.3728L12.2476 15.8597M12.2476 15.8597L16.3397 19.5284M13.999 8.5C13.999 8.77614 14.2229 9 14.499 9C14.7752 9 14.999 8.77614 14.999 8.5C14.999 8.22386 14.7752 8 14.499 8C14.2229 8 13.999 8.22386 13.999 8.5ZM9.34574 19.7955H14.6507C15.3238 19.7955 15.6603 19.7955 15.9615 19.6976C16.2281 19.611 16.4735 19.4693 16.6818 19.2818C16.9172 19.0698 17.0854 18.7784 17.422 18.1955L20.0745 13.6013C20.411 13.0184 20.5793 12.7269 20.6451 12.4171C20.7034 12.1429 20.7034 11.8596 20.6451 11.5854C20.5793 11.2756 20.411 10.9841 20.0745 10.4013L17.422 5.80703C17.0854 5.22414 16.9172 4.9327 16.6818 4.72074C16.4735 4.5332 16.2281 4.39153 15.9615 4.30492C15.6603 4.20703 15.3238 4.20703 14.6507 4.20703H9.34574C8.67268 4.20703 8.33615 4.20703 8.03488 4.30492C7.76832 4.39153 7.52294 4.5332 7.31466 4.72074C7.07925 4.9327 6.91099 5.22414 6.57446 5.80703L3.92198 10.4013C3.58545 10.9841 3.41718 11.2756 3.35132 11.5854C3.29305 11.8596 3.29305 12.1429 3.35132 12.4171C3.41718 12.7269 3.58545 13.0184 3.92198 13.6013L6.57446 18.1955C6.91099 18.7784 7.07925 19.0698 7.31466 19.2818C7.52294 19.4693 7.76832 19.611 8.03488 19.6976C8.33615 19.7955 8.67268 19.7955 9.34574 19.7955Z" stroke="#98A2B3" stroke-width="1.5" stroke-linecap="round" stroke-linejoin="round"/>
</svg>
