<svg width="24" height="24" viewBox="0 0 24 24" fill="none" xmlns="http://www.w3.org/2000/svg">
<path d="M3.46148 12.7998C3.29321 12.5084 3.20908 12.3626 3.17615 12.2077C3.14701 12.0706 3.14701 11.929 3.17615 11.7919C3.20908 11.637 3.29321 11.4912 3.46148 11.1998L7.03772 5.00557C7.20598 4.71412 7.29011 4.5684 7.40782 4.46242C7.51196 4.36865 7.63465 4.29782 7.76793 4.25451C7.91856 4.20557 8.08683 4.20557 8.42336 4.20557H15.5758C15.9124 4.20557 16.0806 4.20557 16.2313 4.25451C16.3645 4.29782 16.4872 4.36865 16.5914 4.46242C16.7091 4.5684 16.7932 4.71412 16.9615 5.00557L20.5377 11.1998C20.706 11.4912 20.7901 11.637 20.823 11.7919C20.8522 11.929 20.8522 12.0706 20.823 12.2077C20.7901 12.3626 20.706 12.5084 20.5377 12.7998L16.9615 18.994C16.7932 19.2855 16.7091 19.4312 16.5914 19.5372C16.4872 19.6309 16.3645 19.7018 16.2313 19.7451C16.0806 19.794 15.9124 19.794 15.5758 19.794H8.42336C8.08683 19.794 7.91856 19.794 7.76793 19.7451C7.63465 19.7018 7.51196 19.6309 7.40782 19.5372C7.29011 19.4312 7.20598 19.2855 7.03772 18.994L3.46148 12.7998Z" stroke="#98A2B3" stroke-width="1.5" stroke-linejoin="round"/>
</svg>
