<svg width="24" height="24" viewBox="0 0 24 24" fill="none" xmlns="http://www.w3.org/2000/svg">
<path d="M12.8003 20.5381C12.5088 20.7064 12.3631 20.7905 12.2082 20.8235C12.0711 20.8526 11.9294 20.8526 11.7924 20.8235C11.6374 20.7905 11.4917 20.7064 11.2003 20.5381L5.00605 16.9619C4.71461 16.7936 4.56889 16.7095 4.46291 16.5918C4.36914 16.4877 4.2983 16.365 4.255 16.2317C4.20605 16.0811 4.20605 15.9128 4.20605 15.5763V8.42378C4.20605 8.08725 4.20605 7.91899 4.255 7.76836C4.2983 7.63508 4.36914 7.51239 4.46291 7.40824C4.56889 7.29054 4.71461 7.20641 5.00605 7.03814L11.2003 3.4619C11.4917 3.29364 11.6374 3.20951 11.7924 3.17658C11.9294 3.14744 12.0711 3.14744 12.2082 3.17658C12.3631 3.20951 12.5088 3.29364 12.8003 3.4619L18.9945 7.03814C19.286 7.20641 19.4317 7.29054 19.5377 7.40824C19.6314 7.51239 19.7023 7.63508 19.7456 7.76836C19.7945 7.91899 19.7945 8.08725 19.7945 8.42378V15.5763C19.7945 15.9128 19.7945 16.0811 19.7456 16.2317C19.7023 16.365 19.6314 16.4877 19.5377 16.5918C19.4317 16.7095 19.286 16.7936 18.9945 16.9619L12.8003 20.5381Z" stroke="#98A2B3" stroke-width="1.5" stroke-linejoin="round"/>
</svg>
