<svg width="24" height="24" viewBox="0 0 24 24" fill="none" xmlns="http://www.w3.org/2000/svg">
<path d="M3 20.25C2.58579 20.25 2.25 20.5858 2.25 21C2.25 21.4142 2.58579 21.75 3 21.75V20.25ZM21 21.75C21.4142 21.75 21.75 21.4142 21.75 21C21.75 20.5858 21.4142 20.25 21 20.25V21.75ZM3 2.25C2.58579 2.25 2.25 2.58579 2.25 3C2.25 3.41421 2.58579 3.75 3 3.75V2.25ZM21 3.75C21.4142 3.75 21.75 3.41421 21.75 3C21.75 2.58579 21.4142 2.25 21 2.25V3.75ZM8 16L7.4 15.55C7.22955 15.7773 7.20214 16.0813 7.32918 16.3354C7.45622 16.5895 7.71592 16.75 8 16.75L8 16ZM16 16L16 16.75C16.2841 16.75 16.5438 16.5895 16.6708 16.3354C16.7979 16.0813 16.7704 15.7772 16.6 15.55L16 16ZM10 16H10.75C10.75 15.5858 10.4142 15.25 10 15.25L10 16ZM14 16L14 15.25C13.5858 15.25 13.25 15.5858 13.25 16H14ZM9 5.75C8.58579 5.75 8.25 6.08579 8.25 6.5C8.25 6.91421 8.58579 7.25 9 7.25V5.75ZM10 7.25C10.4142 7.25 10.75 6.91421 10.75 6.5C10.75 6.08579 10.4142 5.75 10 5.75V7.25ZM14 5.75C13.5858 5.75 13.25 6.08579 13.25 6.5C13.25 6.91421 13.5858 7.25 14 7.25V5.75ZM15 7.25C15.4142 7.25 15.75 6.91421 15.75 6.5C15.75 6.08579 15.4142 5.75 15 5.75V7.25ZM9 9.75C8.58579 9.75 8.25 10.0858 8.25 10.5C8.25 10.9142 8.58579 11.25 9 11.25V9.75ZM10 11.25C10.4142 11.25 10.75 10.9142 10.75 10.5C10.75 10.0858 10.4142 9.75 10 9.75V11.25ZM14 9.75C13.5858 9.75 13.25 10.0858 13.25 10.5C13.25 10.9142 13.5858 11.25 14 11.25V9.75ZM15 11.25C15.4142 11.25 15.75 10.9142 15.75 10.5C15.75 10.0858 15.4142 9.75 15 9.75V11.25ZM3 21.75H5V20.25H3V21.75ZM5 21.75H10V20.25H5V21.75ZM10 21.75H14V20.25H10V21.75ZM14 21.75H19V20.25H14V21.75ZM19 21.75H21V20.25H19V21.75ZM3 3.75H5V2.25H3V3.75ZM5 3.75H19V2.25H5V3.75ZM19 3.75H21V2.25H19V3.75ZM8.6 16.45C10.3 14.1833 13.7 14.1833 15.4 16.45L16.6 15.55C14.3 12.4833 9.7 12.4833 7.4 15.55L8.6 16.45ZM4.25 3V21H5.75V3H4.25ZM18.25 3V21H19.75V3H18.25ZM8 16.75L10 16.75L10 15.25L8 15.25L8 16.75ZM9.25 16V21H10.75V16H9.25ZM16 15.25L14 15.25L14 16.75L16 16.75L16 15.25ZM13.25 16V21H14.75V16H13.25ZM9 7.25H10V5.75H9V7.25ZM14 7.25H15V5.75H14V7.25ZM9 11.25H10V9.75H9V11.25ZM14 11.25H15V9.75H14V11.25Z" fill="#98A2B3"/>
</svg>
