<svg width="24" height="24" viewBox="0 0 24 24" fill="none" xmlns="http://www.w3.org/2000/svg">
<path d="M20 21H18.9879M18.9879 21H5.00623M18.9879 21C18.9879 21 19.2278 18.2574 17.589 16.5C15.9762 14.7704 12.1184 12.0863 11.9971 12.002M5.00623 21H4M5.00623 21C5.00623 21 4.76635 18.2574 6.4051 16.5C8.01799 14.7704 11.8757 12.0863 11.9971 12.002M20 3H18.9879M18.9879 3H5.00623M18.9879 3C18.9879 3 19.2278 5.74264 17.589 7.5C15.9762 9.22963 12.1184 11.9137 11.9971 11.998M5.00623 3H4M5.00623 3C5.00623 3 4.76635 5.74264 6.4051 7.5C8.01799 9.22963 11.8757 11.9137 11.9971 11.998M11.9971 12.002C11.9951 12.0007 11.9941 12 11.9941 12C11.9941 12 11.9951 11.9993 11.9971 11.998M11.9971 12.002C11.999 12.0007 12 12 12 12C12 12 11.999 11.9993 11.9971 11.998M15 6H9" stroke="#98A2B3" stroke-width="1.5" stroke-linecap="round" stroke-linejoin="round"/>
</svg>
