<svg width="24" height="24" viewBox="0 0 24 24" fill="none" xmlns="http://www.w3.org/2000/svg">
<path d="M20 3H4M20 21H4M18.9879 3C18.9879 3 19.2278 5.74264 17.589 7.5C15.9503 9.25736 11.9941 12 11.9941 12C11.9941 12 15.9503 14.7426 17.589 16.5C19.2278 18.2574 18.9879 21 18.9879 21M5.00623 3C5.00623 3 4.76635 5.74264 6.4051 7.5C8.04385 9.25736 12 12 12 12C12 12 8.04385 14.7426 6.4051 16.5C4.76635 18.2574 5.00623 21 5.00623 21" stroke="#98A2B3" stroke-width="1.5" stroke-linecap="round" stroke-linejoin="round"/>
</svg>
