<svg width="24" height="24" viewBox="0 0 24 24" fill="none" xmlns="http://www.w3.org/2000/svg">
<path d="M19.75 9.77811C19.75 9.36389 19.4142 9.02811 19 9.02811C18.5858 9.02811 18.25 9.36389 18.25 9.77811H19.75ZM5.75 9.77745C5.75 9.36323 5.41421 9.02745 5 9.02745C4.58579 9.02745 4.25 9.36323 4.25 9.77745H5.75ZM6.63803 20.673L6.97852 20.0048H6.97852L6.63803 20.673ZM5.32698 19.362L4.65873 19.7025H4.65873L5.32698 19.362ZM18.673 19.362L18.0048 19.0215V19.0215L18.673 19.362ZM17.362 20.673L17.0215 20.0048H17.0215L17.362 20.673ZM15.5668 5.96397L15.0093 6.46574L15.0093 6.46574L15.5668 5.96397ZM20.4426 12.5018C20.7197 12.8096 21.1939 12.8346 21.5018 12.5574C21.8096 12.2803 21.8346 11.8061 21.5574 11.4982L20.4426 12.5018ZM2.44249 11.4983C2.16542 11.8062 2.19041 12.2804 2.49832 12.5575C2.80622 12.8346 3.28044 12.8096 3.55751 12.5017L2.44249 11.4983ZM8.43114 5.9645L8.98865 6.46618L8.43114 5.9645ZM12.9856 3.65143L12.739 4.35971L12.739 4.35971L12.9856 3.65143ZM11.0119 3.65157L11.2587 4.35982L11.0119 3.65157ZM7.13202 20.8537L6.95132 21.5816L7.13202 20.8537ZM13.25 12C13.25 12.6904 12.6904 13.25 12 13.25V14.75C13.5188 14.75 14.75 13.5188 14.75 12H13.25ZM12 13.25C11.3096 13.25 10.75 12.6904 10.75 12H9.25C9.25 13.5188 10.4812 14.75 12 14.75V13.25ZM10.75 12C10.75 11.3096 11.3096 10.75 12 10.75V9.25C10.4812 9.25 9.25 10.4812 9.25 12H10.75ZM12 10.75C12.6904 10.75 13.25 11.3096 13.25 12H14.75C14.75 10.4812 13.5188 9.25 12 9.25V10.75ZM18.25 9.77811V16.2H19.75V9.77811H18.25ZM14.2 20.25H9.8V21.75H14.2V20.25ZM5.75 16.2V9.77745H4.25V16.2H5.75ZM4.25 16.2C4.25 17.0277 4.24942 17.6936 4.29336 18.2315C4.33803 18.7781 4.43238 19.2582 4.65873 19.7025L5.99524 19.0215C5.8946 18.824 5.82546 18.5632 5.78838 18.1093C5.75058 17.6467 5.75 17.0525 5.75 16.2H4.25ZM6.97852 20.0048C6.55516 19.7891 6.21095 19.4448 5.99523 19.0215L4.65873 19.7025C5.01825 20.4081 5.59193 20.9817 6.29754 21.3413L6.97852 20.0048ZM18.25 16.2C18.25 17.0525 18.2494 17.6467 18.2116 18.1093C18.1745 18.5632 18.1054 18.824 18.0048 19.0215L19.3413 19.7025C19.5676 19.2582 19.662 18.7781 19.7066 18.2315C19.7506 17.6936 19.75 17.0277 19.75 16.2H18.25ZM18.0048 19.0215C17.7891 19.4448 17.4448 19.7891 17.0215 20.0048L17.7025 21.3413C18.4081 20.9817 18.9817 20.4081 19.3413 19.7025L18.0048 19.0215ZM15.0093 6.46574L20.4426 12.5018L21.5574 11.4982L16.1242 5.46221L15.0093 6.46574ZM3.55751 12.5017L8.98865 6.46618L7.87364 5.46282L2.44249 11.4983L3.55751 12.5017ZM16.1242 5.46221C15.5151 4.7855 15.0272 4.24251 14.5986 3.84078C14.1644 3.43369 13.7381 3.1193 13.2323 2.94315L12.739 4.35971C12.9608 4.43695 13.2072 4.59246 13.5727 4.9351C13.9439 5.28309 14.3828 5.76968 15.0093 6.46574L16.1242 5.46221ZM8.98865 6.46618C9.61509 5.77004 10.0539 5.28338 10.425 4.93533C10.7905 4.59263 11.0369 4.4371 11.2587 4.35982L10.7652 2.94333C10.2594 3.11955 9.83315 3.43401 9.39897 3.84116C8.97049 4.24296 8.48267 4.78602 7.87364 5.46282L8.98865 6.46618ZM13.2323 2.94315C12.4334 2.66494 11.564 2.66501 10.7652 2.94333L11.2587 4.35982C11.738 4.19282 12.2597 4.19278 12.739 4.35971L13.2323 2.94315ZM7.8622 21.025C8.30262 19.1474 9.98903 17.75 12 17.75V16.25C9.27699 16.25 6.99772 18.1421 6.40184 20.6824L7.8622 21.025ZM9.8 20.25C8.46995 20.25 7.79055 20.2444 7.31272 20.1258L6.95132 21.5816C7.65211 21.7556 8.55996 21.75 9.8 21.75V20.25ZM7.31272 20.1258C7.17966 20.0928 7.07238 20.0526 6.97852 20.0048L6.29754 21.3413C6.5055 21.4472 6.72198 21.5247 6.95132 21.5816L7.31272 20.1258ZM12 17.75C14.011 17.75 15.6974 19.1474 16.1378 21.025L17.5982 20.6824C17.0023 18.1421 14.723 16.25 12 16.25V17.75ZM14.2 21.75C15.44 21.75 16.3479 21.7556 17.0487 21.5816L16.6873 20.1258C16.2094 20.2444 15.5301 20.25 14.2 20.25V21.75ZM17.0487 21.5816C17.278 21.5247 17.4945 21.4472 17.7025 21.3413L17.0215 20.0048C16.9276 20.0526 16.8203 20.0928 16.6873 20.1258L17.0487 21.5816Z" fill="#98A2B3"/>
</svg>
