<svg width="24" height="24" viewBox="0 0 24 24" fill="none" xmlns="http://www.w3.org/2000/svg">
<path d="M11 21H9.8C8.11984 21 7.27976 21 6.63803 20.673C6.07354 20.3854 5.6146 19.9265 5.32698 19.362C5 18.7203 5 17.8802 5 16.2V9.77746M21 12L15.5668 5.96399C14.3311 4.59122 13.7133 3.90484 12.9856 3.65144C12.3466 3.42888 11.651 3.42893 11.0119 3.65159C10.2843 3.90509 9.66661 4.59157 8.43114 5.96452L3 12M19.9749 19.9586C18.608 21.3472 16.392 21.3472 15.0251 19.9586C14.3417 19.2644 14 18.3544 14 17.4445C14 16.5345 14.3417 15.6246 15.0251 14.9303C15.0251 14.9303 15.3125 15.6667 16.1875 16.1111C16.1875 15.2222 16.4063 13.8889 17.4938 13C18.375 13.8889 19.2899 14.2344 19.9749 14.9303C20.6583 15.6246 21 16.5345 21 17.4445C21 18.3544 20.6583 19.2644 19.9749 19.9586Z" stroke="#98A2B3" stroke-width="1.5" stroke-linecap="round" stroke-linejoin="round"/>
</svg>
