<svg width="24" height="24" viewBox="0 0 24 24" fill="none" xmlns="http://www.w3.org/2000/svg">
<path d="M19 9.77809V16.2C19 17.8801 19 18.7202 18.673 19.362C18.3854 19.9264 17.9265 20.3854 17.362 20.673C16.7202 21 15.8802 21 14.2 21H9.8C8.11984 21 7.27976 21 6.63803 20.673C6.07354 20.3854 5.6146 19.9264 5.32698 19.362C5 18.7202 5 17.8801 5 16.2V9.77743M21 12L15.5668 5.96396C14.3311 4.59119 13.7133 3.90481 12.9856 3.65141C12.3466 3.42885 11.651 3.4289 11.0119 3.65156C10.2843 3.90506 9.66661 4.59154 8.43114 5.96449L3 12M12 12V16M14 14H10" stroke="#98A2B3" stroke-width="1.5" stroke-linecap="round" stroke-linejoin="round"/>
</svg>
