<svg width="24" height="24" viewBox="0 0 24 24" fill="none" xmlns="http://www.w3.org/2000/svg">
<path d="M11 21H9.8C8.11984 21 7.27976 21 6.63803 20.673C6.07354 20.3854 5.6146 19.9265 5.32698 19.362C5 18.7203 5 17.8802 5 16.2V9.77746M21 12L15.5668 5.96399C14.3311 4.59122 13.7133 3.90484 12.9856 3.65144C12.3466 3.42888 11.651 3.42893 11.0119 3.65159C10.2843 3.90509 9.66661 4.59157 8.43114 5.96452L3 12M20 17.0039V16C20 14.8954 19.1046 14 18 14C16.8954 14 16 14.8954 16 16V17.0039M16.6 21H19.4C19.9601 21 20.2401 21 20.454 20.891C20.6422 20.7952 20.7951 20.6422 20.891 20.454C21 20.2401 21 19.9601 21 19.4V18.6C21 18.04 21 17.7599 20.891 17.546C20.7951 17.3579 20.6422 17.2049 20.454 17.109C20.2401 17 19.9601 17 19.4 17H16.6C16.0399 17 15.7599 17 15.546 17.109C15.3578 17.2049 15.2049 17.3579 15.109 17.546C15 17.7599 15 18.04 15 18.6V19.4C15 19.9601 15 20.2401 15.109 20.454C15.2049 20.6422 15.3578 20.7952 15.546 20.891C15.7599 21 16.0399 21 16.6 21Z" stroke="#98A2B3" stroke-width="1.5" stroke-linecap="round" stroke-linejoin="round"/>
</svg>
