<svg width="24" height="24" viewBox="0 0 24 24" fill="none" xmlns="http://www.w3.org/2000/svg">
<path d="M15 11.1667C15 11.1667 14.6941 11.1667 14.625 11.1667C13.6006 11.1667 12.7077 10.7524 12 10C11.2923 10.7524 10.3995 11.1667 9.37504 11.1667C9.30596 11.1667 9.00004 11.1667 9.00004 11.1667C9.00004 11.1667 9 11.9444 9 12.3979C9 14.6121 10.2748 16.4725 12 17C13.7252 16.4725 15 14.6121 15 12.3979C15 11.9444 15 11.1667 15 11.1667Z" stroke="#98A2B3" stroke-width="1.5" stroke-linecap="round" stroke-linejoin="round"/>
<path d="M3 12.1301V14.6C3 16.8402 3 17.9603 3.43597 18.816C3.81947 19.5686 4.43139 20.1805 5.18404 20.564C6.03969 21 7.15979 21 9.4 21H14.6C16.8402 21 17.9603 21 18.816 20.564C19.5686 20.1805 20.1805 19.5686 20.564 18.816C21 17.9603 21 16.8402 21 14.6V12.1301C21 10.9814 21 10.4071 20.8519 9.87813C20.7208 9.4096 20.5053 8.96892 20.2159 8.57774C19.8893 8.13614 19.436 7.78352 18.5292 7.07828L15.9292 5.05606C14.5239 3.96305 13.8213 3.41654 13.0454 3.20646C12.3608 3.0211 11.6392 3.0211 10.9546 3.20646C10.1787 3.41654 9.47608 3.96304 8.07078 5.05606L5.47078 7.07828C4.56404 7.78352 4.11067 8.13614 3.78405 8.57774C3.49473 8.96892 3.2792 9.4096 3.14805 9.87813C3 10.4071 3 10.9814 3 12.1301Z" stroke="#98A2B3" stroke-width="1.5" stroke-linecap="round" stroke-linejoin="round"/>
</svg>
