<svg width="24" height="24" viewBox="0 0 24 24" fill="none" xmlns="http://www.w3.org/2000/svg">
<path d="M13.4118 15L10.5413 10.9335C10.0842 10.2858 9.85563 9.96204 9.57451 9.85289C9.32868 9.75744 9.0551 9.76296 8.81332 9.86825C8.53683 9.98865 8.32151 10.3214 7.89088 10.9869L4.25664 16.6035C4.16123 16.7509 4.11353 16.8247 4.07975 16.9041C4.04977 16.9746 4.02798 17.0483 4.01483 17.1238C4.00002 17.2088 4 17.2967 3.99995 17.4723L3.99927 20H20.0001L20.0001 17.4604C20.0001 17.2891 20.0001 17.2035 19.986 17.1204C19.9735 17.0467 19.9527 16.9746 19.9241 16.9055C19.8919 16.8276 19.8464 16.7551 19.7554 16.61L18.7892 15.0702C17.9355 13.7095 17.5086 13.0291 16.9538 12.7811C16.4688 12.5642 15.9174 12.5492 15.4213 12.7395C14.8539 12.957 14.3907 13.6132 13.4643 14.9256L13.4118 15ZM13.4118 15L16.9538 20M20.0001 6C20.0001 7.10457 19.1046 8 18.0001 8C16.8955 8 16.0001 7.10457 16.0001 6C16.0001 4.89543 16.8955 4 18.0001 4C19.1046 4 20.0001 4.89543 20.0001 6Z" stroke="#98A2B3" stroke-width="1.5" stroke-linecap="round" stroke-linejoin="round"/>
</svg>
