<svg width="24" height="24" viewBox="0 0 24 24" fill="none" xmlns="http://www.w3.org/2000/svg">
<path d="M14.2646 15.9375L12.5966 14.2833C11.7916 13.4851 11.3892 13.086 10.9273 12.9401C10.5211 12.8118 10.0845 12.8165 9.68121 12.9536C9.22261 13.1095 8.82888 13.5172 8.04141 14.3326L4.04483 18.2801M14.2646 15.9375L14.606 15.5989C15.4119 14.7997 15.8149 14.4002 16.2772 14.2543C16.6838 14.126 17.1208 14.1311 17.5243 14.2686C17.9832 14.4251 18.3768 14.8338 19.1641 15.6514L20.0007 16.4934M14.2646 15.9375L18.2757 19.9565M20.9999 5.99998H14.9999M11.0007 3.99939L7.20073 3.99999C6.08063 3.99999 5.52057 3.99999 5.09275 4.21797C4.71643 4.40972 4.41047 4.71568 4.21872 5.092C4.00073 5.51983 4.00073 6.07988 4.00073 7.19998V16.8C4.00073 17.4575 4.00073 17.922 4.04483 18.2801M20.0007 9.99939V16.4934M4.04483 18.2801C4.07585 18.532 4.1287 18.7313 4.21872 18.908C4.41047 19.2843 4.71643 19.5903 5.09275 19.782C5.52057 20 6.08063 20 7.20073 20H16.8007C17.9208 20 18.4809 20 18.9087 19.782C19.285 19.5903 19.591 19.2843 19.7827 18.908C20.0007 18.4801 20.0007 17.9201 20.0007 16.8V16.4934" stroke="#98A2B3" stroke-width="1.5" stroke-linecap="round" stroke-linejoin="round"/>
</svg>
