<svg width="24" height="24" viewBox="0 0 24 24" fill="none" xmlns="http://www.w3.org/2000/svg">
<path d="M14.2721 15.6809C14.3721 16.0829 14.7789 16.3278 15.1809 16.2279C15.5829 16.1279 15.8278 15.7211 15.7279 15.3191L14.2721 15.6809ZM8.27215 15.3191C8.17223 15.7211 8.4171 16.1279 8.81909 16.2279C9.22107 16.3278 9.62794 16.0829 9.72785 15.6809L8.27215 15.3191ZM12 8.75C11.5858 8.75 11.25 9.08579 11.25 9.5C11.25 9.91421 11.5858 10.25 12 10.25V8.75ZM12.01 10.25C12.4242 10.25 12.76 9.91421 12.76 9.5C12.76 9.08579 12.4242 8.75 12.01 8.75V10.25ZM4.09202 19.782L4.43251 19.1138L4.09202 19.782ZM3.21799 18.908L3.88624 18.5675L3.21799 18.908ZM20.782 18.908L20.1138 18.5675L20.782 18.908ZM19.908 19.782L19.5675 19.1138L19.908 19.782ZM19.908 4.21799L19.5675 4.88624L19.908 4.21799ZM20.782 5.09202L20.1138 5.43251L20.782 5.09202ZM4.09202 4.21799L4.43251 4.88624L4.09202 4.21799ZM3.21799 5.09202L3.88624 5.43251L3.21799 5.09202ZM12.25 9.5C12.25 9.63807 12.1381 9.75 12 9.75V11.25C12.9665 11.25 13.75 10.4665 13.75 9.5H12.25ZM12 9.75C11.8619 9.75 11.75 9.63807 11.75 9.5H10.25C10.25 10.4665 11.0335 11.25 12 11.25V9.75ZM11.75 9.5C11.75 9.36193 11.8619 9.25 12 9.25V7.75C11.0335 7.75 10.25 8.5335 10.25 9.5H11.75ZM12 9.25C12.1381 9.25 12.25 9.36193 12.25 9.5H13.75C13.75 8.5335 12.9665 7.75 12 7.75V9.25ZM12 14.25C13.229 14.25 14.092 14.9563 14.2721 15.6809L15.7279 15.3191C15.3407 13.7615 13.733 12.75 12 12.75V14.25ZM9.72785 15.6809C9.90797 14.9563 10.771 14.25 12 14.25V12.75C10.267 12.75 8.6593 13.7615 8.27215 15.3191L9.72785 15.6809ZM12 10.25H12.01V8.75H12V10.25ZM6.2 4.75H17.8V3.25H6.2V4.75ZM20.25 7.2V16.8H21.75V7.2H20.25ZM17.8 19.25H6.2V20.75H17.8V19.25ZM3.75 16.8V7.2H2.25V16.8H3.75ZM6.2 19.25C5.62757 19.25 5.24336 19.2494 4.94748 19.2252C4.66035 19.2018 4.52307 19.1599 4.43251 19.1138L3.75153 20.4503C4.08879 20.6221 4.44544 20.6892 4.82533 20.7203C5.19646 20.7506 5.65232 20.75 6.2 20.75V19.25ZM2.25 16.8C2.25 17.3477 2.24942 17.8035 2.27974 18.1747C2.31078 18.5546 2.37789 18.9112 2.54973 19.2485L3.88624 18.5675C3.8401 18.4769 3.79822 18.3396 3.77476 18.0525C3.75058 17.7566 3.75 17.3724 3.75 16.8H2.25ZM4.43251 19.1138C4.19731 18.9939 4.00608 18.8027 3.88624 18.5675L2.54973 19.2485C2.81338 19.7659 3.23408 20.1866 3.75153 20.4503L4.43251 19.1138ZM20.25 16.8C20.25 17.3724 20.2494 17.7566 20.2252 18.0525C20.2018 18.3396 20.1599 18.4769 20.1138 18.5675L21.4503 19.2485C21.6221 18.9112 21.6892 18.5546 21.7203 18.1747C21.7506 17.8035 21.75 17.3477 21.75 16.8H20.25ZM17.8 20.75C18.3477 20.75 18.8035 20.7506 19.1747 20.7203C19.5546 20.6892 19.9112 20.6221 20.2485 20.4503L19.5675 19.1138C19.4769 19.1599 19.3396 19.2018 19.0525 19.2252C18.7566 19.2494 18.3724 19.25 17.8 19.25V20.75ZM20.1138 18.5675C19.9939 18.8027 19.8027 18.9939 19.5675 19.1138L20.2485 20.4503C20.7659 20.1866 21.1866 19.7659 21.4503 19.2485L20.1138 18.5675ZM17.8 4.75C18.3724 4.75 18.7566 4.75058 19.0525 4.77476C19.3396 4.79822 19.4769 4.8401 19.5675 4.88624L20.2485 3.54973C19.9112 3.37789 19.5546 3.31078 19.1747 3.27974C18.8035 3.24942 18.3477 3.25 17.8 3.25V4.75ZM21.75 7.2C21.75 6.65232 21.7506 6.19646 21.7203 5.82533C21.6892 5.44545 21.6221 5.08879 21.4503 4.75153L20.1138 5.43251C20.1599 5.52307 20.2018 5.66035 20.2252 5.94748C20.2494 6.24336 20.25 6.62757 20.25 7.2H21.75ZM19.5675 4.88624C19.8027 5.00608 19.9939 5.19731 20.1138 5.43251L21.4503 4.75153C21.1866 4.23408 20.7659 3.81338 20.2485 3.54973L19.5675 4.88624ZM6.2 3.25C5.65232 3.25 5.19646 3.24942 4.82533 3.27974C4.44545 3.31078 4.08879 3.37789 3.75153 3.54973L4.43251 4.88624C4.52307 4.8401 4.66035 4.79822 4.94748 4.77476C5.24336 4.75058 5.62757 4.75 6.2 4.75V3.25ZM3.75 7.2C3.75 6.62757 3.75058 6.24336 3.77476 5.94748C3.79822 5.66035 3.8401 5.52307 3.88624 5.43251L2.54973 4.75153C2.37789 5.08879 2.31078 5.44545 2.27974 5.82533C2.24942 6.19646 2.25 6.65232 2.25 7.2H3.75ZM3.75153 3.54973C3.23408 3.81338 2.81338 4.23408 2.54973 4.75153L3.88624 5.43251C4.00608 5.19731 4.19731 5.00608 4.43251 4.88624L3.75153 3.54973Z" fill="#98A2B3"/>
</svg>
