<svg width="24" height="24" viewBox="0 0 24 24" fill="none" xmlns="http://www.w3.org/2000/svg">
<path d="M4.00049 14H6.675C7.16419 14 7.40878 14 7.63895 14.0553C7.84302 14.1043 8.03811 14.1851 8.21706 14.2947C8.41889 14.4184 8.59185 14.5914 8.93775 14.9373L9.06323 15.0627C9.40913 15.4086 9.58209 15.5816 9.78392 15.7053C9.96286 15.8149 10.158 15.8957 10.362 15.9447C10.5922 16 10.8368 16 11.326 16H12.675C13.1642 16 13.4088 16 13.639 15.9447C13.843 15.8957 14.0381 15.8149 14.2171 15.7053C14.4189 15.5816 14.5918 15.4086 14.9377 15.0627L15.0632 14.9373C15.4091 14.5914 15.5821 14.4184 15.7839 14.2947C15.9629 14.1851 16.158 14.1043 16.362 14.0553C16.5922 14 16.8368 14 17.326 14H20.0005M12.0001 7L13.0582 8.54377L14.8533 9.07295L13.712 10.5562L13.7635 12.4271L12.0001 11.8L10.2368 12.4271L10.2882 10.5562L9.14697 9.07295L10.9421 8.54377L12.0001 7ZM7.20049 4H16.8005C17.9206 4 18.4806 4 18.9085 4.21799C19.2848 4.40973 19.5908 4.71569 19.7825 5.09202C20.0005 5.51984 20.0005 6.07989 20.0005 7.2V16.8C20.0005 17.9201 20.0005 18.4802 19.7825 18.908C19.5908 19.2843 19.2848 19.5903 18.9085 19.782C18.4806 20 17.9206 20 16.8005 20H7.20049C6.08038 20 5.52033 20 5.09251 19.782C4.71618 19.5903 4.41022 19.2843 4.21848 18.908C4.00049 18.4802 4.00049 17.9201 4.00049 16.8V7.2C4.00049 6.0799 4.00049 5.51984 4.21848 5.09202C4.41022 4.71569 4.71618 4.40973 5.09251 4.21799C5.52033 4 6.08038 4 7.20049 4Z" stroke="#98A2B3" stroke-width="1.5" stroke-linecap="round" stroke-linejoin="round"/>
</svg>
