<svg width="24" height="24" viewBox="0 0 24 24" fill="none" xmlns="http://www.w3.org/2000/svg">
<path d="M9.36569 9.63431L9.89602 10.1646L9.36569 9.63431ZM12.6343 6.36569L12.104 5.83536V5.83536L12.6343 6.36569ZM15.3657 9.63431L14.8354 9.10398L14.8354 9.10398L15.3657 9.63431ZM18.6343 6.36569L18.104 5.83536V5.83536L18.6343 6.36569ZM19.8802 5.88238L20.4505 5.3953V5.3953L19.8802 5.88238ZM19.4608 5.70865L19.4019 4.96096L19.4019 4.96096L19.4608 5.70865ZM14.1198 10.1176L14.6901 9.63053V9.63053L14.1198 10.1176ZM14.5392 10.2914L14.5981 11.039L14.5392 10.2914ZM13.4608 5.70865L13.4019 4.96096L13.4019 4.96096L13.4608 5.70865ZM13.8802 5.88238L14.4505 5.3953V5.3953L13.8802 5.88238ZM8.1198 10.1176L8.6901 9.63053L8.6901 9.63053L8.1198 10.1176ZM8.53923 10.2914L8.48039 9.54366L8.53923 10.2914ZM7.727 4.0545L7.3865 4.72275L7.3865 4.72275L7.727 4.0545ZM7.9455 4.273L7.27725 4.6135V4.6135L7.9455 4.273ZM4.54601 19.891L4.8865 19.2228L4.8865 19.2228L4.54601 19.891ZM4.10899 19.454L3.44074 19.7945L3.44074 19.7945L4.10899 19.454ZM19.454 19.891L19.1135 19.2228V19.2228L19.454 19.891ZM19.891 19.454L19.2228 19.1135H19.2228L19.891 19.454ZM4.0545 4.273L3.38624 3.93251V3.93251L4.0545 4.273ZM4.273 4.0545L3.93251 3.38624H3.93251L4.273 4.0545ZM7 15.25C6.58579 15.25 6.25 15.5858 6.25 16C6.25 16.4142 6.58579 16.75 7 16.75V15.25ZM8 16.75C8.41421 16.75 8.75 16.4142 8.75 16C8.75 15.5858 8.41421 15.25 8 15.25V16.75ZM11.5 15.25C11.0858 15.25 10.75 15.5858 10.75 16C10.75 16.4142 11.0858 16.75 11.5 16.75V15.25ZM12.5 16.75C12.9142 16.75 13.25 16.4142 13.25 16C13.25 15.5858 12.9142 15.25 12.5 15.25V16.75ZM16 15.25C15.5858 15.25 15.25 15.5858 15.25 16C15.25 16.4142 15.5858 16.75 16 16.75V15.25ZM17 16.75C17.4142 16.75 17.75 16.4142 17.75 16C17.75 15.5858 17.4142 15.25 17 15.25V16.75ZM18.4 19.25H5.6V20.75H18.4V19.25ZM4.75 18.4V4.8H3.25V18.4H4.75ZM4.8 4.75H7.2V3.25H4.8V4.75ZM7.25 4.8V9.06863H8.75V4.8H7.25ZM9.89602 10.1646L13.1646 6.89602L12.104 5.83536L8.83536 9.10398L9.89602 10.1646ZM13.25 6.93137V9.06863H14.75V6.93137H13.25ZM19.25 6.93137V18.4H20.75V6.93137H19.25ZM15.896 10.1646L19.1646 6.89602L18.104 5.83536L14.8354 9.10398L15.896 10.1646ZM20.75 6.93137C20.75 6.6433 20.7507 6.37618 20.7321 6.16609C20.7157 5.98068 20.6749 5.65804 20.4505 5.3953L19.3099 6.36947C19.2517 6.30135 19.2329 6.24191 19.2296 6.23084C19.2272 6.22245 19.2326 6.23839 19.238 6.2985C19.2493 6.42638 19.25 6.61362 19.25 6.93137H20.75ZM19.1646 6.89602C19.3893 6.67133 19.5222 6.53944 19.6207 6.45702C19.6669 6.41829 19.6821 6.41087 19.6744 6.41507C19.6643 6.42061 19.6089 6.44931 19.5196 6.45634L19.4019 4.96096C19.0575 4.98807 18.8005 5.18739 18.6578 5.30688C18.4961 5.44227 18.3077 5.63166 18.104 5.83536L19.1646 6.89602ZM20.4505 5.3953C20.1906 5.09103 19.8008 4.92957 19.4019 4.96096L19.5196 6.45634C19.4398 6.46261 19.3619 6.43032 19.3099 6.36947L20.4505 5.3953ZM13.25 9.06863C13.25 9.3567 13.2493 9.62382 13.2679 9.83391C13.2843 10.0193 13.3251 10.342 13.5495 10.6047L14.6901 9.63053C14.7483 9.69865 14.7671 9.75809 14.7704 9.76916C14.7728 9.77755 14.7674 9.76161 14.762 9.7015C14.7507 9.57362 14.75 9.38638 14.75 9.06863H13.25ZM14.8354 9.10398C14.6107 9.32867 14.4778 9.46056 14.3793 9.54298C14.3331 9.58171 14.3179 9.58913 14.3256 9.58493C14.3357 9.57939 14.3911 9.55069 14.4804 9.54366L14.5981 11.039C14.9425 11.0119 15.1995 10.8126 15.3422 10.6931C15.5039 10.5577 15.6923 10.3683 15.896 10.1646L14.8354 9.10398ZM13.5495 10.6047C13.8094 10.909 14.1992 11.0704 14.5981 11.039L14.4804 9.54366C14.5602 9.53738 14.6381 9.56968 14.6901 9.63053L13.5495 10.6047ZM13.1646 6.89602C13.3893 6.67133 13.5222 6.53944 13.6207 6.45702C13.6669 6.41829 13.6821 6.41087 13.6744 6.41507C13.6643 6.42061 13.6089 6.44931 13.5196 6.45634L13.4019 4.96096C13.0575 4.98807 12.8005 5.18739 12.6578 5.30688C12.4961 5.44227 12.3077 5.63166 12.104 5.83536L13.1646 6.89602ZM14.75 6.93137C14.75 6.6433 14.7507 6.37618 14.7321 6.16609C14.7157 5.98068 14.6749 5.65804 14.4505 5.3953L13.3099 6.36947C13.2517 6.30135 13.2329 6.24191 13.2296 6.23084C13.2272 6.22245 13.2326 6.23839 13.238 6.2985C13.2493 6.42638 13.25 6.61362 13.25 6.93137H14.75ZM13.5196 6.45634C13.4398 6.46261 13.3619 6.43032 13.3099 6.36947L14.4505 5.3953C14.1906 5.09103 13.8008 4.92957 13.4019 4.96096L13.5196 6.45634ZM7.25 9.06863C7.25 9.3567 7.24929 9.62382 7.2679 9.83391C7.28433 10.0193 7.32509 10.342 7.54949 10.6047L8.6901 9.63053C8.74828 9.69865 8.76713 9.75809 8.77037 9.76916C8.77283 9.77755 8.76737 9.76161 8.76205 9.7015C8.75071 9.57362 8.75 9.38638 8.75 9.06863H7.25ZM8.83536 9.10398C8.61067 9.32867 8.47777 9.46056 8.37933 9.54298C8.33306 9.58171 8.31793 9.58913 8.3256 9.58493C8.33572 9.57939 8.39108 9.55069 8.48039 9.54366L8.59807 11.039C8.94254 11.0119 9.1995 10.8126 9.34222 10.6931C9.50394 10.5577 9.69232 10.3683 9.89602 10.1646L8.83536 9.10398ZM7.54949 10.6047C7.80936 10.909 8.19918 11.0704 8.59807 11.039L8.48039 9.54366C8.56016 9.53738 8.63813 9.56968 8.6901 9.63053L7.54949 10.6047ZM7.2 4.75C7.27172 4.75 7.32658 4.75002 7.37365 4.75076C7.42075 4.7515 7.44928 4.75285 7.46733 4.75432C7.50432 4.75734 7.45638 4.75835 7.3865 4.72275L8.06749 3.38624C7.89066 3.29614 7.71923 3.2699 7.58947 3.2593C7.46847 3.24942 7.32764 3.25 7.2 3.25V4.75ZM8.75 4.8C8.75 4.67236 8.75058 4.53153 8.7407 4.41053C8.7301 4.28077 8.70386 4.10934 8.61376 3.93251L7.27725 4.6135C7.24165 4.54362 7.24266 4.49568 7.24568 4.53267C7.24715 4.55072 7.2485 4.57925 7.24924 4.62635C7.24998 4.67343 7.25 4.72828 7.25 4.8H8.75ZM7.3865 4.72275C7.33946 4.69878 7.30122 4.66054 7.27725 4.6135L8.61376 3.93251C8.49392 3.69731 8.30269 3.50608 8.06749 3.38624L7.3865 4.72275ZM5.6 19.25C5.3076 19.25 5.1334 19.2494 5.00428 19.2389C4.8839 19.229 4.87011 19.2144 4.8865 19.2228L4.20552 20.5593C4.43582 20.6766 4.669 20.7165 4.88213 20.7339C5.08651 20.7506 5.33235 20.75 5.6 20.75V19.25ZM3.25 18.4C3.25 18.6677 3.24942 18.9135 3.26612 19.1179C3.28353 19.331 3.32339 19.5642 3.44074 19.7945L4.77725 19.1135C4.7856 19.1299 4.77097 19.1161 4.76113 18.9957C4.75058 18.8666 4.75 18.6924 4.75 18.4H3.25ZM4.8865 19.2228C4.83946 19.1988 4.80122 19.1605 4.77725 19.1135L3.44074 19.7945C3.60852 20.1238 3.87623 20.3915 4.20552 20.5593L4.8865 19.2228ZM18.4 20.75C18.6677 20.75 18.9135 20.7506 19.1179 20.7339C19.331 20.7165 19.5642 20.6766 19.7945 20.5593L19.1135 19.2228C19.1299 19.2144 19.1161 19.229 18.9957 19.2389C18.8666 19.2494 18.6924 19.25 18.4 19.25V20.75ZM19.25 18.4C19.25 18.6924 19.2494 18.8666 19.2389 18.9957C19.229 19.1161 19.2144 19.1299 19.2228 19.1135L20.5593 19.7945C20.6766 19.5642 20.7165 19.331 20.7339 19.1179C20.7506 18.9135 20.75 18.6677 20.75 18.4H19.25ZM19.7945 20.5593C20.1238 20.3915 20.3915 20.1238 20.5593 19.7945L19.2228 19.1135C19.1988 19.1605 19.1605 19.1988 19.1135 19.2228L19.7945 20.5593ZM4.75 4.8C4.75 4.72828 4.75002 4.67343 4.75076 4.62635C4.7515 4.57925 4.75285 4.55072 4.75432 4.53267C4.75734 4.49568 4.75835 4.54362 4.72275 4.6135L3.38624 3.93251C3.29614 4.10934 3.2699 4.28077 3.2593 4.41053C3.24942 4.53153 3.25 4.67236 3.25 4.8H4.75ZM4.8 3.25C4.67236 3.25 4.53153 3.24942 4.41053 3.2593C4.28077 3.2699 4.10934 3.29614 3.93251 3.38624L4.6135 4.72275C4.54362 4.75835 4.49568 4.75734 4.53267 4.75432C4.55072 4.75285 4.57925 4.7515 4.62635 4.75076C4.67343 4.75002 4.72828 4.75 4.8 4.75V3.25ZM4.72275 4.6135C4.69878 4.66054 4.66054 4.69878 4.6135 4.72275L3.93251 3.38624C3.69731 3.50608 3.50608 3.69731 3.38624 3.93251L4.72275 4.6135ZM7 16.75H8V15.25H7V16.75ZM11.5 16.75H12.5V15.25H11.5V16.75ZM16 16.75H17V15.25H16V16.75Z" fill="#98A2B3"/>
</svg>
