<svg width="24" height="24" viewBox="0 0 24 24" fill="none" xmlns="http://www.w3.org/2000/svg">
<path d="M18.1962 8.80407C18.9732 9.22811 19.5003 10.0525 19.5003 11C19.5003 12.3807 18.381 13.5 17.0003 13.5C16.0528 13.5 15.2284 12.9729 14.8044 12.1959M18.1962 8.80407L21.0003 6L16.0003 6L14.0003 4C12.8957 2.89543 11.1049 2.89543 10.0003 4C8.89573 5.10457 8.89573 6.89543 10.0003 8L12.0003 10L12.0003 15L14.8044 12.1959M18.1962 8.80407L14.8044 12.1959M9 20.9997L7 11.9997L10.5 8.4997M3 20.9997L15 20.9997" stroke="#98A2B3" stroke-width="1.5" stroke-linecap="round" stroke-linejoin="round"/>
</svg>
