<svg width="24" height="24" viewBox="0 0 24 24" fill="none" xmlns="http://www.w3.org/2000/svg">
<path d="M20 16V9.2C20 8.0799 20 7.51984 19.782 7.09202C19.5903 6.71569 19.2843 6.40973 18.908 6.21799C18.4802 6 17.9201 6 16.8 6H14M4 16V14M8 9.73611C7.46924 10.2111 6.76835 10.5 6 10.5C4.34315 10.5 3 9.15685 3 7.5C3 5.84315 4.34315 4.5 6 4.5C7.30622 4.5 8.41746 5.33481 8.82929 6.5M9.5 4V7H6.5M21 16V16.8C21 17.9201 21 18.4802 20.782 18.908C20.5903 19.2843 20.2843 19.5903 19.908 19.782C19.4802 20 18.9201 20 17.8 20H6.2C5.0799 20 4.51984 20 4.09202 19.782C3.71569 19.5903 3.40973 19.2843 3.21799 18.908C3 18.4802 3 17.9201 3 16.8V16H8.33726C8.58185 16 8.70414 16 8.81923 16.0276C8.92127 16.0521 9.01881 16.0925 9.10828 16.1474C9.2092 16.2092 9.29568 16.2957 9.46863 16.4686L9.53137 16.5314C9.70432 16.7043 9.7908 16.7908 9.89172 16.8526C9.98119 16.9075 10.0787 16.9479 10.1808 16.9724C10.2959 17 10.4182 17 10.6627 17H13.3373C13.5818 17 13.7041 17 13.8192 16.9724C13.9213 16.9479 14.0188 16.9075 14.1083 16.8526C14.2092 16.7908 14.2957 16.7043 14.4686 16.5314L14.5314 16.4686C14.7043 16.2957 14.7908 16.2092 14.8917 16.1474C14.9812 16.0925 15.0787 16.0521 15.1808 16.0276C15.2959 16 15.4182 16 15.6627 16H21Z" stroke="#98A2B3" stroke-width="1.5" stroke-linecap="round" stroke-linejoin="round"/>
</svg>
