<svg width="24" height="24" viewBox="0 0 24 24" fill="none" xmlns="http://www.w3.org/2000/svg">
<path d="M8 7.00386V6C8 4.89543 7.10457 4 6 4C4.89543 4 4 4.89543 4 6V7.00386M20 16V9.2C20 8.0799 20 7.51984 19.782 7.09202C19.5903 6.71569 19.2843 6.40973 18.908 6.21799C18.4802 6 17.9201 6 16.8 6H13M4 16V14M4.5 10H7.5C7.96594 10 8.19891 10 8.38268 9.92388C8.62771 9.82239 8.82239 9.62771 8.92388 9.38268C9 9.19891 9 8.96594 9 8.5C9 8.03406 9 7.80109 8.92388 7.61732C8.82239 7.37229 8.62771 7.17761 8.38268 7.07612C8.19891 7 7.96594 7 7.5 7H4.5C4.03406 7 3.80109 7 3.61732 7.07612C3.37229 7.17761 3.17761 7.37229 3.07612 7.61732C3 7.80109 3 8.03406 3 8.5C3 8.96594 3 9.19891 3.07612 9.38268C3.17761 9.62771 3.37229 9.82239 3.61732 9.92388C3.80109 10 4.03406 10 4.5 10ZM3 16H21V16.8C21 17.9201 21 18.4802 20.782 18.908C20.5903 19.2843 20.2843 19.5903 19.908 19.782C19.4802 20 18.9201 20 17.8 20H6.2C5.07989 20 4.51984 20 4.09202 19.782C3.71569 19.5903 3.40973 19.2843 3.21799 18.908C3 18.4802 3 17.9201 3 16.8V16Z" stroke="#98A2B3" stroke-width="1.5" stroke-linecap="round" stroke-linejoin="round"/>
</svg>
