<svg width="24" height="24" viewBox="0 0 24 24" fill="none" xmlns="http://www.w3.org/2000/svg">
<path d="M5 3V9M5 3L3 5M5 3L7 5M20 15V8.2C20 7.0799 20 6.51984 19.782 6.09202C19.5903 5.71569 19.2843 5.40973 18.908 5.21799C18.4802 5 17.9201 5 16.8 5H11M4 15V13M21 15V15.8C21 16.9201 21 17.4802 20.782 17.908C20.5903 18.2843 20.2843 18.5903 19.908 18.782C19.4802 19 18.9201 19 17.8 19H6.2C5.0799 19 4.51984 19 4.09202 18.782C3.71569 18.5903 3.40973 18.2843 3.21799 17.908C3 17.4802 3 16.9201 3 15.8V15H8.33726C8.58185 15 8.70414 15 8.81923 15.0276C8.92127 15.0521 9.01881 15.0925 9.10828 15.1474C9.2092 15.2092 9.29568 15.2957 9.46863 15.4686L9.53137 15.5314C9.70432 15.7043 9.7908 15.7908 9.89172 15.8526C9.98119 15.9075 10.0787 15.9479 10.1808 15.9724C10.2959 16 10.4182 16 10.6627 16H13.3373C13.5818 16 13.7041 16 13.8192 15.9724C13.9213 15.9479 14.0188 15.9075 14.1083 15.8526C14.2092 15.7908 14.2957 15.7043 14.4686 15.5314L14.5314 15.4686C14.7043 15.2957 14.7908 15.2092 14.8917 15.1474C14.9812 15.0925 15.0787 15.0521 15.1808 15.0276C15.2959 15 15.4182 15 15.6627 15H21Z" stroke="#98A2B3" stroke-width="1.5" stroke-linecap="round" stroke-linejoin="round"/>
</svg>
