<svg width="24" height="24" viewBox="0 0 24 24" fill="none" xmlns="http://www.w3.org/2000/svg">
<path d="M20 15V8.2C20 7.0799 20 6.51984 19.782 6.09202C19.5903 5.71569 19.2843 5.40973 18.908 5.21799C18.4802 5 17.9201 5 16.8 5H7.2C6.07989 5 5.51984 5 5.09202 5.21799C4.71569 5.40973 4.40973 5.71569 4.21799 6.09202C4 6.51984 4 7.0799 4 8.2V15M5.66667 19H18.3333C18.9533 19 19.2633 19 19.5176 18.9319C20.2078 18.7469 20.7469 18.2078 20.9319 17.5176C21 17.2633 21 16.9533 21 16.3333C21 16.0233 21 15.8683 20.9659 15.7412C20.8735 15.3961 20.6039 15.1265 20.2588 15.0341C20.1317 15 19.9767 15 19.6667 15H4.33333C4.02334 15 3.86835 15 3.74118 15.0341C3.39609 15.1265 3.12654 15.3961 3.03407 15.7412C3 15.8683 3 16.0233 3 16.3333C3 16.9533 3 17.2633 3.06815 17.5176C3.25308 18.2078 3.79218 18.7469 4.48236 18.9319C4.73669 19 5.04669 19 5.66667 19Z" stroke="#98A2B3" stroke-width="1.5" stroke-linecap="round" stroke-linejoin="round"/>
</svg>
