<svg width="24" height="24" viewBox="0 0 24 24" fill="none" xmlns="http://www.w3.org/2000/svg">
<path d="M20 16V9.2C20 8.0799 20 7.51984 19.782 7.09202C19.5903 6.71569 19.2843 6.40973 18.908 6.21799C18.4802 6 17.9201 6 16.8 6H13M4 16V14.5M8.87263 5.20378C8.80442 5.20789 8.73575 5.20997 8.66667 5.20997C7.64218 5.20997 6.70766 4.75244 5.99998 4C5.2923 4.75241 4.3578 5.20993 3.33333 5.20993C3.26426 5.20993 3.19559 5.20785 3.12738 5.20373C3.04423 5.58531 3 5.98548 3 6.39793C3 8.61207 4.27477 10.4725 6 11C7.72523 10.4725 9 8.61207 9 6.39793C9 5.9855 8.95577 5.58534 8.87263 5.20378ZM3 16H21V16.8C21 17.9201 21 18.4802 20.782 18.908C20.5903 19.2843 20.2843 19.5903 19.908 19.782C19.4802 20 18.9201 20 17.8 20H6.2C5.07989 20 4.51984 20 4.09202 19.782C3.71569 19.5903 3.40973 19.2843 3.21799 18.908C3 18.4802 3 17.9201 3 16.8V16Z" stroke="#98A2B3" stroke-width="1.5" stroke-linecap="round" stroke-linejoin="round"/>
</svg>
