<svg width="24" height="24" viewBox="0 0 24 24" fill="none" xmlns="http://www.w3.org/2000/svg">
<path d="M20 16V9.2C20 8.0799 20 7.51984 19.782 7.09202C19.5903 6.71569 19.2843 6.40973 18.908 6.21799C18.4802 6 17.9201 6 16.8 6H13.5M4 16V14M8 9.73611C7.46924 10.2111 6.76835 10.5 6 10.5C4.34315 10.5 3 9.15685 3 7.5C3 5.84315 4.34315 4.5 6 4.5C7.30622 4.5 8.41746 5.33481 8.82929 6.5M9.5 4V7H6.5M3 16H21V16.8C21 17.9201 21 18.4802 20.782 18.908C20.5903 19.2843 20.2843 19.5903 19.908 19.782C19.4802 20 18.9201 20 17.8 20H6.2C5.07989 20 4.51984 20 4.09202 19.782C3.71569 19.5903 3.40973 19.2843 3.21799 18.908C3 18.4802 3 17.9201 3 16.8V16Z" stroke="#98A2B3" stroke-width="1.5" stroke-linecap="round" stroke-linejoin="round"/>
</svg>
