<svg width="24" height="24" viewBox="0 0 24 24" fill="none" xmlns="http://www.w3.org/2000/svg">
<path d="M21 4.50003C20.5 4.37601 19.6851 4.37145 19 4.37601M19 4.37601C18.7709 4.37754 18.9094 4.3678 18.6 4.37601C17.7926 4.4012 17.0016 4.73678 17 5.68753C16.9982 6.70037 18 7.00003 19 7.00003C20 7.00003 21 7.23123 21 8.31253C21 9.12512 20.1925 9.48118 19.1861 9.59908C18.3861 9.59908 18 9.62503 17 9.50003M19 4.37601L19 3M19 9.5995V11M20 14H7.19999C6.07988 14 5.51983 14 5.09201 13.782C4.71568 13.5903 4.40972 13.2843 4.21797 12.908C3.99999 12.4802 3.99999 11.9201 3.99999 10.8V7.2C3.99999 6.0799 3.99999 5.51984 4.21797 5.09202C4.40972 4.71569 4.71568 4.40973 5.09201 4.21799C5.51983 4 6.07988 4 7.19999 4H13M9.99999 17H14M5.27039 20H18.7296C19.494 20 19.8762 20 20.1241 19.8397C20.341 19.6993 20.4952 19.4805 20.5544 19.2291C20.622 18.9417 20.4935 18.5817 20.2364 17.8619L19.9948 17.1856C19.5851 16.0383 19.3802 15.4647 19.0154 15.0414C18.6932 14.6675 18.2836 14.3789 17.8232 14.2012C17.3018 14 16.6927 14 15.4745 14H8.5255C7.30728 14 6.69817 14 6.17682 14.2012C5.71634 14.3789 5.30682 14.6675 4.98457 15.0414C4.61973 15.4647 4.41487 16.0383 4.00513 17.1856L3.76361 17.8619C3.50651 18.5817 3.37795 18.9417 3.44558 19.2291C3.50476 19.4805 3.65896 19.6993 3.87587 19.8397C4.12376 20 4.50597 20 5.27039 20Z" stroke="#98A2B3" stroke-width="1.5" stroke-linecap="round" stroke-linejoin="round"/>
</svg>
