<svg width="24" height="24" viewBox="0 0 24 24" fill="none" xmlns="http://www.w3.org/2000/svg">
<path d="M15.4862 9C15.561 9.48431 15.5049 10.1232 15.3242 10.8479M15.3242 10.8479C14.5499 13.9538 11.4874 18.6369 6.63251 19.4919C5.57565 19.4919 5.41952 19.6104 4.54266 19.0227C3.28198 17.7351 3.41266 14.3283 14.0208 11.0015C14.4272 10.9198 14.8698 10.8667 15.3242 10.8479ZM15.3242 10.8479C19.1424 10.6902 23.7962 12.9551 14.8758 21M7.53125 6C8.26809 6 9.60818 5.87935 11.0778 5.69731M11.0778 5.69731C12.6 5.50878 14.2612 5.25439 15.5352 5M11.0778 5.69731C11.2507 4.75581 11.4246 3.88524 11.5312 3M11.0778 5.69731C10.5434 8.60897 10.0199 12.1991 11.5312 19" stroke="#98A2B3" stroke-width="1.5" stroke-linecap="round" stroke-linejoin="round"/>
</svg>
