<svg width="24" height="24" viewBox="0 0 24 24" fill="none" xmlns="http://www.w3.org/2000/svg">
<path d="M9.16512 17.6505C8.92537 17.8743 8.73982 18.0241 8.5502 18.1336C7.622 18.6695 6.4784 18.6695 5.5502 18.1336C5.20816 17.9361 4.87936 17.6073 4.22177 16.9497C3.56418 16.2922 3.23539 15.9634 3.03791 15.6213C2.50201 14.6931 2.50201 13.5495 3.03791 12.6213C3.23539 12.2793 3.56418 11.9505 4.22177 11.2929L7.0502 8.46446C7.70779 7.80687 8.03658 7.47808 8.37863 7.2806C9.30683 6.7447 10.4504 6.7447 11.3786 7.2806C11.7207 7.47808 12.0495 7.80687 12.7071 8.46446C13.3646 9.12205 13.6934 9.45085 13.8909 9.79289C14.4268 10.7211 14.4268 11.8647 13.8909 12.7929C13.7814 12.9825 13.6316 13.1681 13.4078 13.4078M10.5921 10.5922C10.3683 10.8319 10.2185 11.0175 10.109 11.2071C9.57308 12.1353 9.57308 13.2789 10.109 14.2071C10.3065 14.5491 10.6353 14.8779 11.2928 15.5355C11.9504 16.1931 12.2792 16.5219 12.6213 16.7194C13.5495 17.2553 14.6931 17.2553 15.6213 16.7194C15.9633 16.5219 16.2921 16.1931 16.9497 15.5355L19.7781 12.7071C20.4357 12.0495 20.7645 11.7207 20.962 11.3787C21.4979 10.4505 21.4979 9.30688 20.962 8.37868C20.7645 8.03663 20.4357 7.70784 19.7781 7.05025C19.1205 6.39266 18.7917 6.06386 18.4497 5.86639C17.5215 5.33049 16.3779 5.33049 15.4497 5.86639C15.2601 5.97586 15.0745 6.1257 14.8348 6.34954" stroke="#98A2B3" stroke-width="1.5" stroke-linecap="round"/>
</svg>
