<svg width="24" height="24" viewBox="0 0 24 24" fill="none" xmlns="http://www.w3.org/2000/svg">
<path d="M14 6.25C13.5858 6.25 13.25 6.58579 13.25 7C13.25 7.41421 13.5858 7.75 14 7.75V6.25ZM10 17.75C10.4142 17.75 10.75 17.4142 10.75 17C10.75 16.5858 10.4142 16.25 10 16.25V17.75ZM14 16.25C13.5858 16.25 13.25 16.5858 13.25 17C13.25 17.4142 13.5858 17.75 14 17.75V16.25ZM8 11.25C7.58579 11.25 7.25 11.5858 7.25 12C7.25 12.4142 7.58579 12.75 8 12.75V11.25ZM3.53033 2.46967C3.23744 2.17678 2.76256 2.17678 2.46967 2.46967C2.17678 2.76256 2.17678 3.23744 2.46967 3.53033L3.53033 2.46967ZM20.4697 21.5303C20.7626 21.8232 21.2374 21.8232 21.5303 21.5303C21.8232 21.2374 21.8232 20.7626 21.5303 20.4697L20.4697 21.5303ZM19.6245 14.2207C19.4077 14.5736 19.5181 15.0355 19.8711 15.2523C20.224 15.4691 20.6859 15.3587 20.9027 15.0057L19.6245 14.2207ZM12 12.75C12.4142 12.75 12.75 12.4142 12.75 12C12.75 11.5858 12.4142 11.25 12 11.25V12.75ZM7.08376 7.08376L7.61409 6.55343V6.55343L7.08376 7.08376ZM8 16.25C5.65279 16.25 3.75 14.3472 3.75 12H2.25C2.25 15.1756 4.82436 17.75 8 17.75V16.25ZM16 7.75C18.3472 7.75 20.25 9.65279 20.25 12H21.75C21.75 8.82436 19.1756 6.25 16 6.25V7.75ZM14 7.75H16V6.25H14V7.75ZM10 16.25H8V17.75H10V16.25ZM16 16.25H14V17.75H16V16.25ZM20.25 12C20.25 12.8153 20.0211 13.5749 19.6245 14.2207L20.9027 15.0057C21.4402 14.1306 21.75 13.1003 21.75 12H20.25ZM8 12.75H12V11.25H8V12.75ZM2.46967 3.53033L6.55343 7.61409L7.61409 6.55343L3.53033 2.46967L2.46967 3.53033ZM6.94719 6.3463C4.27432 6.8413 2.25 9.18346 2.25 12H3.75C3.75 9.91962 5.24552 8.18695 7.22034 7.82122L6.94719 6.3463ZM6.55343 7.61409L16.3859 17.4466L17.4466 16.3859L7.61409 6.55343L6.55343 7.61409ZM16.3859 17.4466L20.4697 21.5303L21.5303 20.4697L17.4466 16.3859L16.3859 17.4466ZM16.7797 16.1788C16.5275 16.2255 16.2669 16.25 16 16.25V17.75C16.359 17.75 16.7109 17.717 17.0528 17.6537L16.7797 16.1788Z" fill="#98A2B3"/>
</svg>
