<svg width="24" height="24" viewBox="0 0 24 24" fill="none" xmlns="http://www.w3.org/2000/svg">
<path d="M5.82789 11.9033C4.63719 11.4402 4.04185 11.2087 3.86803 10.8751C3.71736 10.5859 3.71716 10.2414 3.86749 9.95201C4.04091 9.6182 4.63598 9.38597 5.82613 8.92153L17.6016 4.32621C18.676 3.90695 19.2132 3.69732 19.5564 3.81199C19.8545 3.91157 20.0885 4.14551 20.188 4.44361C20.3027 4.78686 20.0931 5.32404 19.6738 6.3984L15.0785 18.1739C14.6141 19.364 14.3818 19.9591 14.048 20.1325C13.7586 20.2829 13.4141 20.2827 13.1249 20.132C12.7913 19.9582 12.5598 19.3628 12.0968 18.1721L10.5966 14.3147C10.5027 14.073 10.4557 13.9521 10.3831 13.8504C10.3187 13.7602 10.2399 13.6813 10.1497 13.617C10.0479 13.5444 9.92705 13.4974 9.68535 13.4034L5.82789 11.9033Z" stroke="#98A2B3" stroke-width="1.5" stroke-linecap="round" stroke-linejoin="round"/>
</svg>
