<svg width="24" height="24" viewBox="0 0 24 24" fill="none" xmlns="http://www.w3.org/2000/svg">
<path d="M10 21C6.5 17.4 3 14.1764 3 10.2C3 6.22355 6.13401 3 10 3C13.866 3 17 6.22355 17 10.2M19.5 17.0039V16C19.5 14.8954 18.6046 14 17.5 14C16.3954 14 15.5 14.8954 15.5 16V17.0039M15.6 21H19.4C19.9601 21 20.2401 21 20.454 20.891C20.6422 20.7951 20.7951 20.6422 20.891 20.454C21 20.2401 21 19.9601 21 19.4V18.6C21 18.0399 21 17.7599 20.891 17.546C20.7951 17.3578 20.6422 17.2049 20.454 17.109C20.2401 17 19.9601 17 19.4 17H15.6C15.0399 17 14.7599 17 14.546 17.109C14.3578 17.2049 14.2049 17.3578 14.109 17.546C14 17.7599 14 18.0399 14 18.6V19.4C14 19.9601 14 20.2401 14.109 20.454C14.2049 20.6422 14.3578 20.7951 14.546 20.891C14.7599 21 15.0399 21 15.6 21ZM13 10C13 11.6569 11.6569 13 10 13C8.34315 13 7 11.6569 7 10C7 8.34315 8.34315 7 10 7C11.6569 7 13 8.34315 13 10Z" stroke="#98A2B3" stroke-width="1.5" stroke-linecap="round" stroke-linejoin="round"/>
</svg>
