<svg width="24" height="24" viewBox="0 0 24 24" fill="none" xmlns="http://www.w3.org/2000/svg">
<path d="M10.5378 6.28973L5.81119 16.9246C5.25401 18.1783 4.97542 18.8051 5.09578 19.1713C5.19999 19.4884 5.45551 19.7325 5.77697 19.8222C6.14823 19.9258 6.76176 19.6191 7.98883 19.0056L11.2844 17.3578C11.5467 17.2266 11.6779 17.161 11.8155 17.1352C11.9374 17.1123 12.0624 17.1123 12.1843 17.1352C12.3219 17.161 12.4531 17.2266 12.7155 17.3578L16.011 19.0055C17.2381 19.6191 17.8516 19.9258 18.2229 19.8222C18.5443 19.7325 18.7998 19.4884 18.9041 19.1713C19.0244 18.8051 18.7458 18.1783 18.1886 16.9246L13.462 6.28973C12.999 5.24783 12.7674 4.72689 12.4448 4.56663C12.1645 4.42742 11.8353 4.42742 11.555 4.56663C11.2324 4.72689 11.0009 5.24783 10.5378 6.28973Z" stroke="#98A2B3" stroke-width="1.5" stroke-linecap="round" stroke-linejoin="round"/>
</svg>
