<svg width="24" height="24" viewBox="0 0 24 24" fill="none" xmlns="http://www.w3.org/2000/svg">
<path d="M3.88871 18.1313L9 12M20.1132 18.1294L15 12M3.02878 8.00001L10.255 12.8225C10.8953 13.2481 11.2155 13.461 11.5614 13.5437C11.8671 13.6167 12.1858 13.6167 12.4915 13.5437C12.8374 13.461 13.1575 13.2481 13.7979 12.8225L20.9712 8.00001M7.8 19H16.2C17.8802 19 18.7202 19 19.362 18.673C19.9265 18.3854 20.3854 17.9265 20.673 17.362C21 16.7203 21 15.8802 21 14.2V9.80002C21 8.11986 21 7.27978 20.673 6.63804C20.3854 6.07356 19.9265 5.61462 19.362 5.327C18.7202 5.00002 17.8802 5.00002 16.2 5.00002H7.8C6.11984 5.00002 5.27976 5.00002 4.63803 5.327C4.07354 5.61462 3.6146 6.07356 3.32698 6.63804C3 7.27978 3 8.11986 3 9.80002V14.2C3 15.8802 3 16.7203 3.32698 17.362C3.6146 17.9265 4.07354 18.3854 4.63803 18.673C5.27976 19 6.11984 19 7.8 19Z" stroke="#98A2B3" stroke-width="1.5" stroke-linecap="round" stroke-linejoin="round"/>
</svg>
