<svg width="24" height="24" viewBox="0 0 24 24" fill="none" xmlns="http://www.w3.org/2000/svg">
<path d="M20 10V7.2C20 6.0799 20 5.51984 19.782 5.09202C19.5903 4.71569 19.2843 4.40973 18.908 4.21799C18.4802 4 17.9201 4 16.8 4H6.2C5.0799 4 4.51984 4 4.09202 4.21799C3.71569 4.40973 3.40973 4.71569 3.21799 5.09202C3 5.51984 3 6.0799 3 7.2V13.8C3 14.9201 3 15.4802 3.21799 15.908C3.40973 16.2843 3.71569 16.5903 4.09202 16.782C4.51984 17 5.0799 17 6.2 17H10M3.27 4.99L9.50097 10.4008C10.2144 10.9715 10.5711 11.2569 10.9667 11.3663C11.3157 11.4629 11.6843 11.4629 12.0333 11.3663C12.4289 11.2569 12.7856 10.9715 13.499 10.4008L19.731 4.99816M17.9973 14.8306C17.1975 13.9216 15.8639 13.6771 14.8619 14.5094C13.8599 15.3418 13.7188 16.7335 14.5057 17.7179C14.9736 18.3033 16.1197 19.3531 16.9719 20.1079C17.3237 20.4195 17.4996 20.5753 17.7114 20.6385C17.8925 20.6926 18.102 20.6926 18.2832 20.6385C18.4949 20.5753 18.6708 20.4195 19.0226 20.1079C19.8748 19.3531 21.0209 18.3033 21.4888 17.7179C22.2757 16.7335 22.1519 15.3331 21.1326 14.5094C20.1134 13.6858 18.797 13.9216 17.9973 14.8306Z" stroke="#98A2B3" stroke-width="1.5" stroke-linecap="round" stroke-linejoin="round"/>
</svg>
