<svg width="24" height="24" viewBox="0 0 24 24" fill="none" xmlns="http://www.w3.org/2000/svg">
<path d="M16.031 19.9807L20.9709 15.0212M20 10V7.2C20 6.0799 20 5.51984 19.782 5.09202C19.5903 4.71569 19.2843 4.40973 18.908 4.21799C18.4802 4 17.9201 4 16.8 4H6.2C5.0799 4 4.51984 4 4.09202 4.21799C3.71569 4.40973 3.40973 4.71569 3.21799 5.09202C3 5.51984 3 6.0799 3 7.2V13.8C3 14.9201 3 15.4802 3.21799 15.908C3.40973 16.2843 3.71569 16.5903 4.09202 16.782C4.51984 17 5.0799 17 6.2 17H11M3.27 4.99L9.50097 10.4008C10.2144 10.9715 10.5711 11.2569 10.9667 11.3663C11.3157 11.4629 11.6843 11.4629 12.0333 11.3663C12.4289 11.2569 12.7856 10.9715 13.499 10.4008L19.7382 5.01074M22 17.5C22 19.433 20.433 21 18.5 21C16.567 21 15 19.433 15 17.5C15 15.567 16.567 14 18.5 14C20.433 14 22 15.567 22 17.5Z" stroke="#98A2B3" stroke-width="1.5" stroke-linecap="round" stroke-linejoin="round"/>
</svg>
