<svg width="24" height="24" viewBox="0 0 24 24" fill="none" xmlns="http://www.w3.org/2000/svg">
<path d="M13 6H7.8C6.11984 6 5.27976 6 4.63803 6.32698C4.07354 6.6146 3.6146 7.07354 3.32698 7.63803C3 8.27976 3 9.11984 3 10.8V15.2C3 16.8802 3 17.7202 3.32698 18.362C3.6146 18.9265 4.07354 19.3854 4.63803 19.673C5.27976 20 6.11984 20 7.8 20H17C17.93 20 18.395 20 18.7765 19.8978C19.8117 19.6204 20.6204 18.8117 20.8978 17.7765C21 17.395 21 16.93 21 16V13M3.49 7.36L11.2002 13.4668C11.6845 13.7897 12.3155 13.7897 12.7998 13.4668L13.5996 12.9336M22 6.5C22 7.88071 20.8807 9 19.5 9C18.1193 9 17 7.88071 17 6.5C17 5.11929 18.1193 4 19.5 4C20.8807 4 22 5.11929 22 6.5Z" stroke="#98A2B3" stroke-width="1.5" stroke-linecap="round" stroke-linejoin="round"/>
</svg>
