<svg width="24" height="24" viewBox="0 0 24 24" fill="none" xmlns="http://www.w3.org/2000/svg">
<path d="M20 9V8.8C20 7.11984 20 6.27976 19.673 5.63803C19.3854 5.07354 18.9265 4.6146 18.362 4.32698C17.7202 4 16.8802 4 15.2 4H7.8C6.11984 4 5.27976 4 4.63803 4.32698C4.07354 4.6146 3.6146 5.07354 3.32698 5.63803C3 6.27976 3 7.11984 3 8.8V12.2C3 13.8802 3 14.7202 3.32698 15.362C3.6146 15.9265 4.07354 16.3854 4.63803 16.673C5.27976 17 6.11984 17 7.8 17H10M3.35947 5.58L9.50097 10.4008C10.2144 10.9715 10.5711 11.2569 10.9667 11.3663C11.3157 11.4629 11.6843 11.4629 12.0333 11.3663C12.4289 11.2569 12.7856 10.9715 13.499 10.4008L19.64 5.58M19.5 16.0039V15C19.5 13.8954 18.6046 13 17.5 13C16.3954 13 15.5 13.8954 15.5 15V16.0039M15.6 20H19.4C19.9601 20 20.2401 20 20.454 19.891C20.6422 19.7951 20.7951 19.6422 20.891 19.454C21 19.2401 21 18.9601 21 18.4V17.6C21 17.0399 21 16.7599 20.891 16.546C20.7951 16.3578 20.6422 16.2049 20.454 16.109C20.2401 16 19.9601 16 19.4 16H15.6C15.0399 16 14.7599 16 14.546 16.109C14.3578 16.2049 14.2049 16.3578 14.109 16.546C14 16.7599 14 17.0399 14 17.6V18.4C14 18.9601 14 19.2401 14.109 19.454C14.2049 19.6422 14.3578 19.7951 14.546 19.891C14.7599 20 15.0399 20 15.6 20Z" stroke="#98A2B3" stroke-width="1.5" stroke-linecap="round" stroke-linejoin="round"/>
</svg>
