<svg width="24" height="24" viewBox="0 0 24 24" fill="none" xmlns="http://www.w3.org/2000/svg">
<path d="M6 12V10H18V12M20.9728 10.0178L13.775 14.8166C13.1335 15.2443 12.8128 15.4582 12.4661 15.5412C12.1597 15.6147 11.8403 15.6147 11.5339 15.5412C11.1872 15.4582 10.8665 15.2443 10.225 14.8166L3.02716 10.0178M20.9728 10.0178C21 10.34 21 10.7404 21 11.3057V15.2C21 16.8802 21 17.7202 20.673 18.362C20.3854 18.9265 19.9265 19.3854 19.362 19.673C18.7202 20 17.8802 20 16.2 20H7.8C6.11984 20 5.27976 20 4.63803 19.673C4.07354 19.3854 3.6146 18.9265 3.32698 18.362C3 17.7202 3 16.8802 3 15.2V11.3057C3 10.7404 3 10.34 3.02716 10.0178M20.9728 10.0178C20.9535 9.78774 20.9202 9.59749 20.8633 9.41544C20.7424 9.02851 20.5442 8.67012 20.2809 8.3619C19.9834 8.01366 19.5732 7.75606 18.7528 7.24084L14.5528 4.60319C13.6269 4.02175 13.164 3.73102 12.6673 3.61769C12.2281 3.51749 11.7719 3.51749 11.3327 3.61769C10.836 3.73102 10.3731 4.02175 9.4472 4.60319L5.2472 7.24084C4.42682 7.75606 4.01662 8.01366 3.7191 8.3619C3.45577 8.67012 3.25764 9.02851 3.13667 9.41544C3.07975 9.59749 3.04654 9.78774 3.02716 10.0178" stroke="#98A2B3" stroke-width="1.5" stroke-linecap="round" stroke-linejoin="round"/>
</svg>
