<svg width="24" height="24" viewBox="0 0 24 24" fill="none" xmlns="http://www.w3.org/2000/svg">
<path d="M20 15V9.8C20 8.11984 20 7.27976 19.673 6.63803C19.3854 6.07354 18.9265 5.6146 18.362 5.32698C17.7202 5 16.8802 5 15.2 5H7.8C6.11984 5 5.27976 5 4.63803 5.32698C4.07354 5.6146 3.6146 6.07354 3.32698 6.63803C3 7.27976 3 8.11984 3 9.8V13.2C3 14.8802 3 15.7202 3.32698 16.362C3.6146 16.9265 4.07354 17.3854 4.63803 17.673C5.27976 18 6.11984 18 7.8 18H12M3.39577 6.51L9.50097 11.4008C10.2144 11.9715 10.5711 12.2569 10.9667 12.3663C11.3157 12.4629 11.6843 12.4629 12.0333 12.3663C12.4289 12.2569 12.7856 11.9715 13.499 11.4008L19.6529 6.59921M16 19H21" stroke="#98A2B3" stroke-width="1.5" stroke-linecap="round" stroke-linejoin="round"/>
</svg>
