<svg width="24" height="24" viewBox="0 0 24 24" fill="none" xmlns="http://www.w3.org/2000/svg">
<path d="M15 18L17 20L21 16M20 12V8.8C20 7.11984 20 6.27976 19.673 5.63803C19.3854 5.07354 18.9265 4.6146 18.362 4.32698C17.7202 4 16.8802 4 15.2 4H7.8C6.11984 4 5.27976 4 4.63803 4.32698C4.07354 4.6146 3.6146 5.07354 3.32698 5.63803C3 6.27976 3 7.11984 3 8.8V12.2C3 13.8802 3 14.7202 3.32698 15.362C3.6146 15.9265 4.07354 16.3854 4.63803 16.673C5.27976 17 6.11984 17 7.8 17H11M3.36 5.58L9.50097 10.4008C10.2144 10.9715 10.5711 11.2569 10.9667 11.3663C11.3157 11.4629 11.6843 11.4629 12.0333 11.3663C12.4289 11.2569 12.7856 10.9715 13.499 10.4008L19.64 5.58" stroke="#98A2B3" stroke-width="1.5" stroke-linecap="round" stroke-linejoin="round"/>
</svg>
