<svg width="24" height="24" viewBox="0 0 24 24" fill="none" xmlns="http://www.w3.org/2000/svg">
<path d="M4 19L9 14M20 19L15 14M3.02868 10.0001L10.225 14.8166C10.8665 15.2443 11.1872 15.4582 11.5339 15.5412C11.8403 15.6147 12.1597 15.6147 12.4661 15.5412C12.8128 15.4582 13.1335 15.2443 13.775 14.8166L20.9713 10.0001M9.4472 4.60319L5.2472 7.24084C4.42682 7.75606 4.01662 8.01366 3.7191 8.3619C3.45577 8.67012 3.25764 9.02851 3.13667 9.41544C3 9.8526 3 10.337 3 11.3057V15.2C3 16.8802 3 17.7202 3.32698 18.362C3.6146 18.9265 4.07354 19.3854 4.63803 19.673C5.27976 20 6.11984 20 7.8 20H16.2C17.8802 20 18.7202 20 19.362 19.673C19.9265 19.3854 20.3854 18.9265 20.673 18.362C21 17.7202 21 16.8802 21 15.2V11.3057C21 10.337 21 9.8526 20.8633 9.41544C20.7424 9.02851 20.5442 8.67012 20.2809 8.3619C19.9834 8.01366 19.5732 7.75606 18.7528 7.24084L14.5528 4.60319C13.6269 4.02175 13.164 3.73102 12.6673 3.61769C12.2281 3.51749 11.7719 3.51749 11.3327 3.61769C10.836 3.73102 10.3731 4.02175 9.4472 4.60319Z" stroke="#98A2B3" stroke-width="1.5" stroke-linecap="round" stroke-linejoin="round"/>
</svg>
