<svg width="24" height="24" viewBox="0 0 24 24" fill="none" xmlns="http://www.w3.org/2000/svg">
<path d="M12 7V12M12 12L10 10M12 12L14 10M20.9728 10.0182L13.775 14.8171C13.1335 15.2447 12.8128 15.4586 12.4661 15.5417C12.1597 15.6151 11.8403 15.6151 11.5339 15.5417C11.1872 15.4586 10.8665 15.2447 10.225 14.8171L3.02716 10.0182M20.9728 10.0182C21 10.3405 21 10.7408 21 11.3061V15.2004C21 16.8806 21 17.7207 20.673 18.3624C20.3854 18.9269 19.9265 19.3858 19.362 19.6734C18.7202 20.0004 17.8802 20.0004 16.2 20.0004H7.8C6.11984 20.0004 5.27976 20.0004 4.63803 19.6734C4.07354 19.3858 3.6146 18.9269 3.32698 18.3624C3 17.7207 3 16.8806 3 15.2004V11.3062C3 10.7408 3 10.3405 3.02716 10.0182M20.9728 10.0182C20.9535 9.78817 20.9202 9.59792 20.8633 9.41586C20.7424 9.02894 20.5442 8.67055 20.2809 8.36233C19.9834 8.01409 19.5732 7.75648 18.7528 7.24127L14.5528 4.60362C13.6269 4.02217 13.164 3.73145 12.6673 3.61812C12.2281 3.51792 11.7719 3.51792 11.3327 3.61812C10.836 3.73145 10.3731 4.02217 9.4472 4.60362L5.2472 7.24127C4.42682 7.75648 4.01662 8.01409 3.7191 8.36233C3.45577 8.67055 3.25764 9.02894 3.13667 9.41586C3.07975 9.59792 3.04654 9.78817 3.02716 10.0182" stroke="#98A2B3" stroke-width="1.5" stroke-linecap="round" stroke-linejoin="round"/>
</svg>
