<svg width="24" height="24" viewBox="0 0 24 24" fill="none" xmlns="http://www.w3.org/2000/svg">
<path d="M15.5002 10.5C14.5002 8.5 12.8001 7.5 11.4413 7.5C9.54082 7.5 8.00016 9.067 8.00016 11C8.00016 12.933 9.54082 14.5 11.4413 14.5C12.2118 14.5 12.9271 14.2424 13.5051 13.8074M16.0002 7.5V10.5H13.0002M21.4902 20L18.1659 18.3378C17.9139 18.2118 17.7879 18.1488 17.6559 18.1044C17.5386 18.065 17.4179 18.0365 17.2954 18.0193C17.1574 18 17.0165 18 16.7348 18H8.29023C6.61007 18 5.76999 18 5.12826 17.673C4.56377 17.3854 4.10483 16.9265 3.81721 16.362C3.49023 15.7202 3.49023 14.8802 3.49023 13.2V8.8C3.49023 7.11984 3.49023 6.27976 3.81721 5.63803C4.10483 5.07354 4.56377 4.6146 5.12826 4.32698C5.76999 4 6.61007 4 8.29023 4H16.6902C18.3704 4 19.2105 4 19.8522 4.32698C20.4167 4.6146 20.8756 5.07354 21.1632 5.63803C21.4902 6.27976 21.4902 7.11984 21.4902 8.8V20Z" stroke="#98A2B3" stroke-width="1.5" stroke-linecap="round" stroke-linejoin="round"/>
</svg>
