<svg width="24" height="24" viewBox="0 0 24 24" fill="none" xmlns="http://www.w3.org/2000/svg">
<path d="M9.8125 8.80224C9.9887 8.30136 10.3365 7.87901 10.7942 7.60998C11.252 7.34095 11.7902 7.2426 12.3135 7.33237C12.8368 7.42213 13.3115 7.69421 13.6534 8.10041C13.9954 8.50661 14.1825 9.02072 14.1817 9.55168C14.1817 11.0506 11.9334 11.8 11.9334 11.8M11.9609 14.8H11.9709M21 20L17.6757 18.3378C17.4237 18.2118 17.2977 18.1488 17.1656 18.1044C17.0484 18.065 16.9277 18.0365 16.8052 18.0193C16.6672 18 16.5263 18 16.2446 18H7.8C6.11984 18 5.27976 18 4.63803 17.673C4.07354 17.3854 3.6146 16.9265 3.32698 16.362C3 15.7202 3 14.8802 3 13.2V8.8C3 7.11984 3 6.27976 3.32698 5.63803C3.6146 5.07354 4.07354 4.6146 4.63803 4.32698C5.27976 4 6.11984 4 7.8 4H16.2C17.8802 4 18.7202 4 19.362 4.32698C19.9265 4.6146 20.3854 5.07354 20.673 5.63803C21 6.27976 21 7.11984 21 8.8V20Z" stroke="#98A2B3" stroke-width="1.5" stroke-linecap="round" stroke-linejoin="round"/>
</svg>
