<svg width="24" height="24" viewBox="0 0 24 24" fill="none" xmlns="http://www.w3.org/2000/svg">
<path d="M14 11.5V10.5C14 9.39543 13.1046 8.5 12 8.5C10.8954 8.5 10 9.39543 10 10.5V11.5M21.0039 12C21.0039 16.9706 16.9745 21 12.0039 21C9.9675 21 3.00463 21 3.00463 21C3.00463 21 4.56382 17.2561 3.93982 16.0008C3.34076 14.7956 3.00391 13.4372 3.00391 12C3.00391 7.02944 7.03334 3 12.0039 3C16.9745 3 21.0039 7.02944 21.0039 12ZM10.1 15.5H13.9C14.4601 15.5 14.7401 15.5 14.954 15.391C15.1422 15.2951 15.2951 15.1422 15.391 14.954C15.5 14.7401 15.5 14.4601 15.5 13.9V13.1C15.5 12.5399 15.5 12.2599 15.391 12.046C15.2951 11.8578 15.1422 11.7049 14.954 11.609C14.7401 11.5 14.4601 11.5 13.9 11.5H10.1C9.53995 11.5 9.25992 11.5 9.04601 11.609C8.85785 11.7049 8.70487 11.8578 8.60899 12.046C8.5 12.2599 8.5 12.5399 8.5 13.1V13.9C8.5 14.4601 8.5 14.7401 8.60899 14.954C8.70487 15.1422 8.85785 15.2951 9.04601 15.391C9.25992 15.5 9.53995 15.5 10.1 15.5Z" stroke="#98A2B3" stroke-width="1.5" stroke-linecap="round" stroke-linejoin="round"/>
</svg>
