<svg width="24" height="24" viewBox="0 0 24 24" fill="none" xmlns="http://www.w3.org/2000/svg">
<path d="M3 8.8C3 7.11984 3 6.27976 3.32698 5.63803C3.6146 5.07354 4.07354 4.6146 4.63803 4.32698C5.27976 4 6.11984 4 7.8 4H16.2C17.8802 4 18.7202 4 19.362 4.32698C19.9265 4.6146 20.3854 5.07354 20.673 5.63803C21 6.27976 21 7.11984 21 8.8V20L17.6757 18.3378C17.4237 18.2118 17.2977 18.1488 17.1656 18.1044C17.0484 18.065 16.9277 18.0365 16.8052 18.0193C16.6672 18 16.5263 18 16.2446 18H7.8C6.11984 18 5.27976 18 4.63803 17.673C4.07354 17.3854 3.6146 16.9265 3.32698 16.362C3 15.7202 3 14.8802 3 13.2V8.8Z" stroke="#98A2B3" stroke-width="1.5" stroke-linecap="round" stroke-linejoin="round"/>
<path d="M8.40499 12.675C8.44031 12.4985 8.45796 12.4102 8.49025 12.3279C8.51891 12.2548 8.55608 12.1853 8.60098 12.121C8.65157 12.0484 8.71523 11.9848 8.84255 11.8574L13 7.7C13.5523 7.14772 14.4477 7.14772 15 7.7C15.5523 8.25228 15.5523 9.14772 15 9.7L10.8426 13.8574C10.7152 13.9848 10.6516 14.0484 10.579 14.099C10.5147 14.1439 10.4452 14.1811 10.3721 14.2097C10.2898 14.242 10.2015 14.2597 10.025 14.295L8 14.7L8.40499 12.675Z" stroke="#98A2B3" stroke-width="1.5" stroke-linecap="round" stroke-linejoin="round"/>
</svg>
