<svg width="24" height="24" viewBox="0 0 24 24" fill="none" xmlns="http://www.w3.org/2000/svg">
<path d="M14 10.5V9.5C14 8.39543 13.1046 7.5 12 7.5C10.8954 7.5 10 8.39543 10 9.5V10.5M10.1 14.5H13.9C14.4601 14.5 14.7401 14.5 14.954 14.391C15.1422 14.2951 15.2951 14.1422 15.391 13.954C15.5 13.7401 15.5 13.4601 15.5 12.9V12.1C15.5 11.5399 15.5 11.2599 15.391 11.046C15.2951 10.8578 15.1422 10.7049 14.954 10.609C14.7401 10.5 14.4601 10.5 13.9 10.5H10.1C9.53995 10.5 9.25992 10.5 9.04601 10.609C8.85785 10.7049 8.70487 10.8578 8.60899 11.046C8.5 11.2599 8.5 11.5399 8.5 12.1V12.9C8.5 13.4601 8.5 13.7401 8.60899 13.954C8.70487 14.1422 8.85785 14.2951 9.04601 14.391C9.25992 14.5 9.53995 14.5 10.1 14.5ZM21 20L17.6757 18.3378C17.4237 18.2118 17.2977 18.1488 17.1656 18.1044C17.0484 18.065 16.9277 18.0365 16.8052 18.0193C16.6672 18 16.5263 18 16.2446 18H7.8C6.11984 18 5.27976 18 4.63803 17.673C4.07354 17.3854 3.6146 16.9265 3.32698 16.362C3 15.7202 3 14.8802 3 13.2V8.8C3 7.11984 3 6.27976 3.32698 5.63803C3.6146 5.07354 4.07354 4.6146 4.63803 4.32698C5.27976 4 6.11984 4 7.8 4H16.2C17.8802 4 18.7202 4 19.362 4.32698C19.9265 4.6146 20.3854 5.07354 20.673 5.63803C21 6.27976 21 7.11984 21 8.8V20Z" stroke="#98A2B3" stroke-width="1.5" stroke-linecap="round" stroke-linejoin="round"/>
</svg>
