<svg width="24" height="24" viewBox="0 0 24 24" fill="none" xmlns="http://www.w3.org/2000/svg">
<path d="M13.9768 13.969L15.9961 16M21 12C21 16.9706 16.9706 21 12 21C9.96359 21 3.00072 21 3.00072 21C3.00072 21 4.55992 17.2561 3.93591 16.0008C3.33685 14.7956 3 13.4372 3 12C3 7.02944 7.02943 3 12 3C16.9706 3 21 7.02944 21 12ZM14.9961 11.5C14.9961 13.433 13.4291 15 11.4961 15C9.5631 15 7.99609 13.433 7.99609 11.5C7.99609 9.567 9.5631 8 11.4961 8C13.4291 8 14.9961 9.567 14.9961 11.5Z" stroke="#98A2B3" stroke-width="1.5" stroke-linecap="round" stroke-linejoin="round"/>
</svg>
