<svg width="24" height="24" viewBox="0 0 24 24" fill="none" xmlns="http://www.w3.org/2000/svg">
<path fill-rule="evenodd" clip-rule="evenodd" d="M11.9973 8.53059C11.1975 7.6216 9.8639 7.37708 8.86188 8.20945C7.85986 9.04182 7.71879 10.4335 8.50568 11.4179C8.97361 12.0033 10.1197 13.0531 10.9719 13.8079C11.3237 14.1195 11.4996 14.2753 11.7114 14.3385C11.8925 14.3926 12.102 14.3926 12.2832 14.3385C12.4949 14.2753 12.6708 14.1195 13.0226 13.8079C13.8748 13.0531 15.0209 12.0033 15.4888 11.4179C16.2757 10.4335 16.1519 9.03306 15.1326 8.20945C14.1134 7.38584 12.797 7.6216 11.9973 8.53059Z" stroke="#98A2B3" stroke-width="1.5" stroke-linecap="round" stroke-linejoin="round"/>
<path d="M3 8.8C3 7.11984 3 6.27976 3.32698 5.63803C3.6146 5.07354 4.07354 4.6146 4.63803 4.32698C5.27976 4 6.11984 4 7.8 4H16.2C17.8802 4 18.7202 4 19.362 4.32698C19.9265 4.6146 20.3854 5.07354 20.673 5.63803C21 6.27976 21 7.11984 21 8.8V20L17.6757 18.3378C17.4237 18.2118 17.2977 18.1488 17.1656 18.1044C17.0484 18.065 16.9277 18.0365 16.8052 18.0193C16.6672 18 16.5263 18 16.2446 18H7.8C6.11984 18 5.27976 18 4.63803 17.673C4.07354 17.3854 3.6146 16.9265 3.32698 16.362C3 15.7202 3 14.8802 3 13.2V8.8Z" stroke="#98A2B3" stroke-width="1.5" stroke-linecap="round" stroke-linejoin="round"/>
</svg>
