<svg width="24" height="24" viewBox="0 0 24 24" fill="none" xmlns="http://www.w3.org/2000/svg">
<path d="M5.12027 17.8508L16 8L21 12.5M5.12027 17.8508C5.71078 18 6.50639 18 7.8 18H16.2446C16.5263 18 16.6672 18 16.8052 18.0193C16.9277 18.0365 17.0484 18.065 17.1656 18.1044C17.2977 18.1488 17.4237 18.2118 17.6757 18.3378L21 20V8.8C21 7.11984 21 6.27976 20.673 5.63803C20.3854 5.07354 19.9265 4.6146 19.362 4.32698C18.7202 4 17.8802 4 16.2 4H7.8C6.11984 4 5.27976 4 4.63803 4.32698C4.07354 4.6146 3.6146 5.07354 3.32698 5.63803C3 6.27976 3 7.11984 3 8.8V13.2M5.12027 17.8508C4.94381 17.8062 4.78567 17.7482 4.63803 17.673C4.07354 17.3854 3.6146 16.9265 3.32698 16.362C3 15.7202 3 14.8802 3 13.2M3 13.2L6.63259 10L10.4737 13" stroke="#98A2B3" stroke-width="1.5" stroke-linecap="round" stroke-linejoin="round"/>
</svg>
