<svg width="24" height="24" viewBox="0 0 24 24" fill="none" xmlns="http://www.w3.org/2000/svg">
<path d="M3 13V13.2C3 14.8802 3 15.7202 3.32698 16.362C3.6146 16.9265 4.07354 17.3854 4.63803 17.673C5.27976 18 6.11984 18 7.8 18H16.2446C16.5263 18 16.6672 18 16.8052 18.0193C16.9277 18.0365 17.0484 18.065 17.1656 18.1044C17.2977 18.1488 17.4237 18.2118 17.6757 18.3378L21 20V8.8C21 7.11984 21 6.27976 20.673 5.63803C20.3854 5.07354 19.9265 4.6146 19.362 4.32698C18.7202 4 17.8802 4 16.2 4H13M8.12132 3.87868C9.29289 5.05025 9.29289 6.94975 8.12132 8.12132C6.94975 9.29289 5.05025 9.29289 3.87868 8.12132C2.70711 6.94975 2.70711 5.05025 3.87868 3.87868C5.05025 2.70711 6.94975 2.70711 8.12132 3.87868Z" stroke="#98A2B3" stroke-width="1.5" stroke-linecap="round" stroke-linejoin="round"/>
</svg>
