<svg width="24" height="24" viewBox="0 0 24 24" fill="none" xmlns="http://www.w3.org/2000/svg">
<path d="M18 15.5H18.01M14 15.5H14.01M6 15.5H8M5 19V21M6 3V12M12 3V12M18 3L18.01 12M19 19V21M5.2 19H18.8C19.9201 19 20.4802 19 20.908 18.782C21.2843 18.5903 21.5903 18.2843 21.782 17.908C22 17.4802 22 16.9201 22 15.8V13.6C22 13.0399 22 12.7599 21.891 12.546C21.7951 12.3578 21.6422 12.2049 21.454 12.109C21.2401 12 20.9601 12 20.4 12H3.6C3.03995 12 2.75992 12 2.54601 12.109C2.35785 12.2049 2.20487 12.3578 2.10899 12.546C2 12.7599 2 13.0399 2 13.6V15.8C2 16.9201 2 17.4802 2.21799 17.908C2.40973 18.2843 2.71569 18.5903 3.09202 18.782C3.51984 19 4.0799 19 5.2 19Z" stroke="#98A2B3" stroke-width="1.5" stroke-linecap="round" stroke-linejoin="round"/>
</svg>
