<svg width="24" height="24" viewBox="0 0 24 24" fill="none" xmlns="http://www.w3.org/2000/svg">
<path d="M12 17H16.2C17.8802 17 18.7202 17 19.362 16.673C19.9265 16.3854 20.3854 15.9265 20.673 15.362C21 14.7202 21 13.8802 21 12.2V7.8C21 6.11984 21 5.27976 20.673 4.63803C20.3854 4.07354 19.9265 3.6146 19.362 3.32698C18.7202 3 17.8802 3 16.2 3H11.5M12 17H7.8C6.11984 17 5.27976 17 4.63803 16.673C4.07354 16.3854 3.6146 15.9265 3.32698 15.362C3.09786 14.9123 3.02929 14.3652 3.00877 13.5M12 17V21M12 21H8M12 21H16M9 7.01752C9 8.6647 7.65685 10 6 10C4.34315 10 3 8.6647 3 7.01752C3 6.26112 3.68166 5.42759 4.14844 4.90182C4.69815 4.28265 5.99121 3 5.99121 3C5.99121 3 7.34873 4.28265 7.89844 4.90182C8.36521 5.42759 9 6.26112 9 7.01752Z" stroke="#98A2B3" stroke-width="1.5" stroke-linecap="round" stroke-linejoin="round"/>
</svg>
