<svg width="24" height="24" viewBox="0 0 24 24" fill="none" xmlns="http://www.w3.org/2000/svg">
<path d="M12 3V9M6.01481 9H18M18 12C18 10.7457 18 9.66336 18 8.5C18 8.02282 17.985 7.61085 17.9221 7.30853C17.8782 7.09713 17.7473 6.72953 17.6479 6.53787C17.5057 6.26378 17.4112 6.14788 17.2223 5.91607C15.9346 4.336 14.015 3 12.0025 3C9.98936 3 8.06572 4.33686 6.77714 5.91759C6.58889 6.14852 6.49476 6.26399 6.35253 6.53798C6.25317 6.72937 6.12215 7.09727 6.07817 7.30838C6.01521 7.6106 6.01514 7.84876 6.01499 8.32507C6.01459 9.62783 6.01459 10.6701 6.01459 12C6.01459 13.7486 5.87752 15.588 6.44354 17C7.24525 19 9.54017 21 12.0025 21C14.4648 21 16.6084 19.3677 17.5575 17C18.1235 15.588 18 13.7486 18 12Z" stroke="#98A2B3" stroke-width="1.5" stroke-linecap="round" stroke-linejoin="round"/>
</svg>
