<svg width="24" height="24" viewBox="0 0 24 24" fill="none" xmlns="http://www.w3.org/2000/svg">
<path d="M12 3V9M18 12C18 10.7467 18 9.49199 18 8.32942C18 7.83517 18 7.58804 17.9445 7.30365C17.9031 7.09128 17.7962 6.7696 17.7022 6.57471C17.5764 6.31372 17.4719 6.17392 17.2629 5.89431C16.0889 4.32375 14.4455 3 12.0027 3C9.55901 3 7.91196 4.32464 6.73701 5.89588C6.52867 6.1745 6.42449 6.31381 6.2986 6.57472C6.20471 6.76933 6.09755 7.09139 6.05614 7.30346C6.00062 7.58778 6.00055 7.83448 6.0004 8.32786C6 9.62932 6 10.6711 6 12C6 16 7.19163 21 12.0027 21C16.8195 21 18 16 18 12Z" stroke="#98A2B3" stroke-width="1.5" stroke-linecap="round" stroke-linejoin="round"/>
</svg>
