<svg width="24" height="24" viewBox="0 0 24 24" fill="none" xmlns="http://www.w3.org/2000/svg">
<path d="M12.5 8.89006V18.5M12.5 8.89006V5.57661C12.5 5.36926 12.5 5.26559 12.5347 5.17738C12.5653 5.09948 12.615 5.03052 12.6792 4.97682C12.752 4.91601 12.8503 4.88323 13.047 4.81766L17.447 3.35099C17.8025 3.23249 17.9803 3.17324 18.1218 3.20877C18.2456 3.23987 18.3529 3.31718 18.4216 3.42484C18.5 3.54783 18.5 3.7352 18.5 4.10994V7.42339C18.5 7.63074 18.5 7.73441 18.4653 7.82262C18.4347 7.90052 18.385 7.96948 18.3208 8.02318C18.248 8.08399 18.1497 8.11677 17.953 8.18234L13.553 9.64901C13.1975 9.76751 13.0197 9.82676 12.8782 9.79123C12.7544 9.76013 12.6471 9.68282 12.5784 9.57516C12.5 9.45217 12.5 9.2648 12.5 8.89006ZM12.5 18.5C12.5 19.8807 10.933 21 9 21C7.067 21 5.5 19.8807 5.5 18.5C5.5 17.1193 7.067 16 9 16C10.933 16 12.5 17.1193 12.5 18.5Z" stroke="#98A2B3" stroke-width="1.5" stroke-linecap="round" stroke-linejoin="round"/>
</svg>
