<svg width="24" height="24" viewBox="0 0 24 24" fill="none" xmlns="http://www.w3.org/2000/svg">
<path d="M8 7H4M8 12H4M8 17H4M12 2.99997V21M9.2 21H16.8C17.9201 21 18.4802 21 18.908 20.782C19.2843 20.5903 19.5903 20.2843 19.782 19.908C20 19.4802 20 18.9201 20 17.8V6.2C20 5.0799 20 4.51984 19.782 4.09202C19.5903 3.7157 19.2843 3.40974 18.908 3.21799C18.4802 3 17.9201 3 16.8 3H9.2C8.07989 3 7.51984 3 7.09202 3.21799C6.71569 3.40974 6.40973 3.7157 6.21799 4.09202C6 4.51984 6 5.0799 6 6.2V17.8C6 18.9201 6 19.4802 6.21799 19.908C6.40973 20.2843 6.71569 20.5903 7.09202 20.782C7.51984 21 8.07989 21 9.2 21Z" stroke="#98A2B3" stroke-width="1.5" stroke-linecap="round" stroke-linejoin="round"/>
</svg>
