<svg width="24" height="24" viewBox="0 0 24 24" fill="none" xmlns="http://www.w3.org/2000/svg">
<path d="M19.8351 14H17.2C16.0799 14 15.5198 14 15.092 14.218C14.7157 14.4097 14.4097 14.7157 14.218 15.092C14 15.5198 14 16.0799 14 17.2V19.9288M20 12.7277V7.2C20 6.0799 20 5.51984 19.782 5.09202C19.5903 4.71569 19.2843 4.40973 18.908 4.21799C18.4802 4 17.9201 4 16.8 4H7.2C6.0799 4 5.51984 4 5.09202 4.21799C4.71569 4.40973 4.40973 4.71569 4.21799 5.09202C4 5.51984 4 6.0799 4 7.2V16.8C4 17.9201 4 18.4802 4.21799 18.908C4.40973 19.2843 4.71569 19.5903 5.09202 19.782C5.51984 20 6.0799 20 7.2 20H12.954C13.4624 20 13.7166 20 13.9548 19.9407C14.1659 19.8881 14.367 19.8014 14.5501 19.684C14.7568 19.5517 14.9313 19.3668 15.2804 18.9972L19.1264 14.9249C19.4492 14.5832 19.6106 14.4123 19.7258 14.2155C19.828 14.041 19.9032 13.8521 19.9487 13.6551C20 13.4329 20 13.1978 20 12.7277Z" stroke="#98A2B3" stroke-width="1.5" stroke-linecap="round" stroke-linejoin="round"/>
</svg>
