<svg width="24" height="24" viewBox="0 0 24 24" fill="none" xmlns="http://www.w3.org/2000/svg">
<path d="M8.09159 4.16327C8.26454 3.99032 8.35102 3.90384 8.45193 3.842C8.54141 3.78717 8.63895 3.74677 8.74099 3.72227C8.85607 3.69464 8.97837 3.69464 9.22296 3.69464L14.7858 3.69464C15.0304 3.69464 15.1527 3.69464 15.2678 3.72227C15.3698 3.74677 15.4673 3.78717 15.5568 3.842C15.6577 3.90384 15.7442 3.99032 15.9171 4.16327L19.8507 8.09678C20.0236 8.26973 20.1101 8.3562 20.1719 8.45712C20.2268 8.54659 20.2672 8.64414 20.2917 8.74617C20.3193 8.86126 20.3193 8.98356 20.3193 9.22815V14.791C20.3193 15.0356 20.3193 15.1579 20.2917 15.2729C20.2672 15.375 20.2268 15.4725 20.1719 15.562C20.1101 15.6629 20.0236 15.7494 19.8507 15.9223L15.9171 19.8558C15.7442 20.0288 15.6577 20.1153 15.5568 20.1771C15.4673 20.2319 15.3698 20.2723 15.2678 20.2968C15.1527 20.3245 15.0304 20.3245 14.7858 20.3245H9.22296C8.97837 20.3245 8.85607 20.3245 8.74099 20.2968C8.63895 20.2723 8.54141 20.2319 8.45193 20.1771C8.35102 20.1153 8.26454 20.0288 8.09159 19.8558L4.15808 15.9223C3.98513 15.7494 3.89865 15.6629 3.83681 15.562C3.78198 15.4725 3.74158 15.375 3.71708 15.2729C3.68945 15.1579 3.68945 15.0356 3.68945 14.791L3.68945 9.22815C3.68945 8.98356 3.68945 8.86126 3.71708 8.74617C3.74158 8.64414 3.78198 8.54659 3.83681 8.45712C3.89865 8.3562 3.98513 8.26973 4.15808 8.09678L8.09159 4.16327Z" stroke="#98A2B3" stroke-width="1.5" stroke-linejoin="round"/>
</svg>
