<svg width="24" height="24" viewBox="0 0 24 24" fill="none" xmlns="http://www.w3.org/2000/svg">
<path d="M11.7935 10.7935L20.4603 3.45686C20.7653 3.19864 21.2173 3.21738 21.5 3.49997C21.7826 3.78257 21.8013 4.23466 21.5431 4.53971L14.2065 13.2065M11.7935 10.7935L9.58785 12.6606C8.7162 13.3984 8.66122 14.7236 9.46875 15.5312C10.2763 16.3387 11.6015 16.2837 12.3393 15.4121L14.2065 13.2065M11.7935 10.7935L14.2065 13.2065M10.3398 17.75C10.3398 19.5449 8.88477 21 7.08984 21H2.5L2.7103 20.8948C3.74629 20.3769 4.26276 19.1914 3.93667 18.08C3.87245 17.8611 3.83395 17.6335 3.85777 17.4066C4.02929 15.7731 5.41089 14.5 7.08984 14.5C8.88477 14.5 10.3398 15.9551 10.3398 17.75Z" stroke="#98A2B3" stroke-width="1.5" stroke-linecap="round" stroke-linejoin="round"/>
</svg>
