<svg width="24" height="24" viewBox="0 0 24 24" fill="none" xmlns="http://www.w3.org/2000/svg">
<path d="M11.5 10.5L14.5 13.5M21.4999 6.49994L12.4688 15.5311C11.6403 16.3596 10.2972 16.3596 9.46875 15.5311C8.64032 14.7027 8.64032 13.3596 9.46875 12.5311L18.4999 3.49994C19.3283 2.67153 20.6714 2.67151 21.4999 3.49988C22.3284 4.3283 22.3284 5.67149 21.4999 6.49994ZM10.3398 17.75C10.3398 19.5449 8.88477 21 7.08984 21H2.5L2.7103 20.8948C3.74629 20.3769 4.26276 19.1914 3.93667 18.08C3.87245 17.8611 3.83395 17.6335 3.85777 17.4066C4.02929 15.7731 5.41089 14.5 7.08984 14.5C8.88477 14.5 10.3398 15.9551 10.3398 17.75Z" stroke="#98A2B3" stroke-width="1.5" stroke-linecap="round" stroke-linejoin="round"/>
</svg>
