<svg width="24" height="24" viewBox="0 0 24 24" fill="none" xmlns="http://www.w3.org/2000/svg">
<path d="M3 3L8.41431 8.41431M21 21L13.1153 13.1153M13.7886 7.75404L14.1251 7.41759M15.5 15.5L12.6107 18.3761C10.6546 20.3234 7.49137 20.3198 5.53967 18.3681C3.58483 16.4132 3.58482 13.2438 5.53967 11.2889L8.41431 8.41431M11.4158 5.41279L12.3766 4.45201C13.6753 3.15336 15.7808 3.15336 17.0795 4.45201C18.3825 5.75503 18.3775 7.86919 17.0683 9.166L16.1146 10.1107M19.7271 11.2436L18.5 12.4793M8.41431 8.41431L10.7713 10.7713M10.7713 10.7713L7.89838 13.6443C7.2504 14.2923 7.2504 15.3428 7.89838 15.9908C8.55044 16.6429 9.60908 16.6382 10.2553 15.9803L13.1153 13.1153M10.7713 10.7713L13.1153 13.1153" stroke="#98A2B3" stroke-width="1.5" stroke-linecap="round" stroke-linejoin="round"/>
</svg>
