<svg width="24" height="24" viewBox="0 0 24 24" fill="none" xmlns="http://www.w3.org/2000/svg">
<path d="M5.53896 14.4533L9.52298 18.4687M13.5083 9.47003C13.937 9.47616 15.9439 9.00478 16.4581 8.01202C16.9724 7.01927 16.7843 5.67449 17.0009 5.01947C17.2469 4.27561 17.927 3.53255 19.5221 3.55534M7.58038 4.385L7.59037 4.38514M20.5362 7.57034L20.5462 7.57048M20.4218 15.5694L20.4318 15.5695M10.5372 7.4272C11.5534 6.29875 11.5697 5.15601 11.5942 3.44189M19.553 10.9874C18.1274 10.974 17.0958 11.6982 15.8195 12.7371M3.53516 20.4647L7.07069 9.85807L14.1418 16.9291L3.53516 20.4647Z" stroke="#98A2B3" stroke-width="1.5" stroke-linecap="round" stroke-linejoin="round"/>
</svg>
