<svg width="24" height="24" viewBox="0 0 24 24" fill="none" xmlns="http://www.w3.org/2000/svg">
<path d="M14.0643 12.9537C14.0603 13.3824 14.5419 15.3869 15.5372 15.8961C16.5326 16.4053 17.8764 16.2104 18.5325 16.4237C19.2776 16.6659 20.0241 17.3422 20.0094 18.9374M19.1192 7.00006L19.1191 7.01006M15.9996 19.9719L15.9995 19.9819M8.00007 19.8981L7.99998 19.9081M16.092 9.97223C17.2256 10.9827 18.3684 10.9933 20.0827 11.0091M12.5776 19.006C12.5838 17.5804 11.8544 16.5524 10.809 15.2815M14.728 6.24271C13.6028 5.11749 12.0767 4.48535 10.4854 4.48535C8.89405 4.48535 7.36793 5.11749 6.24271 6.24271C5.11749 7.36793 4.48535 8.89405 4.48535 10.4854C4.48535 12.0766 5.11749 13.6028 6.24271 14.728L14.728 6.24271Z" stroke="#98A2B3" stroke-width="1.5" stroke-linecap="round" stroke-linejoin="round"/>
</svg>
