<svg width="24" height="24" viewBox="0 0 24 24" fill="none" xmlns="http://www.w3.org/2000/svg">
<path d="M8 9H6.2C5.0799 9 4.51984 9 4.09202 9.21799C3.71569 9.40973 3.40973 9.71569 3.21799 10.092C3 10.5198 3 11.0799 3 12.2V17.8C3 18.9201 3 19.4802 3.21799 19.908C3.40973 20.2843 3.71569 20.5903 4.09202 20.782C4.51984 21 5.07989 21 6.2 21H17.787C18.9071 21 19.4671 21 19.895 20.782C20.2713 20.5903 20.5772 20.2843 20.769 19.908C20.987 19.4802 20.987 18.9201 20.987 17.8V12M6 15H6.01M10 14.9999H10.01M11.5189 12.8945L12.8337 12.6347C13.5432 12.4945 13.8979 12.4244 14.2287 12.2952C14.5223 12.1806 14.8013 12.0317 15.06 11.8516C15.3514 11.6486 15.607 11.393 16.1184 10.8816L21.2668 5.73315C21.9541 5.0459 21.9541 3.93164 21.2668 3.24438C20.5796 2.55713 19.4653 2.55713 18.7781 3.24438L13.5416 8.48082C13.0625 8.95998 12.8229 9.19957 12.6294 9.47115C12.4576 9.71226 12.3131 9.97168 12.1986 10.2447C12.0696 10.5522 11.9921 10.882 11.837 11.5417L11.5189 12.8945Z" stroke="#98A2B3" stroke-width="1.5" stroke-linecap="round" stroke-linejoin="round"/>
</svg>
