<svg width="24" height="24" viewBox="0 0 24 24" fill="none" xmlns="http://www.w3.org/2000/svg">
<path d="M11.8901 9.11007L6.52581 3.74579C6.12979 3.34977 5.93178 3.15176 5.70346 3.07757C5.50261 3.01231 5.28626 3.01231 5.08542 3.07757C4.85709 3.15176 4.65908 3.34977 4.26307 3.74578L3.69738 4.31147C3.30136 4.70749 3.10336 4.90549 3.02917 5.13382C2.96391 5.33467 2.96391 5.55101 3.02917 5.75186C3.10336 5.98018 3.30137 6.1782 3.69738 6.57421L9.06167 11.9385M14.7185 11.9385L20.0826 17.3025C20.4786 17.6986 20.6766 17.8966 20.7508 18.1249C20.816 18.3257 20.816 18.5421 20.7508 18.7429C20.6766 18.9713 20.4786 19.1693 20.0826 19.5653L19.5169 20.131C19.1209 20.527 18.9229 20.725 18.6945 20.7992C18.4937 20.8644 18.2773 20.8644 18.0765 20.7992C17.8482 20.725 17.6502 20.527 17.2541 20.131L11.8901 14.7669M8 6.99962L8.88922 6.10919M17 15.9998L17.8942 15.1142M15.4995 5.50196L18.3279 8.33038M2.99976 21.0017L3.04721 20.6696C3.21512 19.4942 3.29907 18.9065 3.49004 18.3578C3.6595 17.871 3.891 17.408 4.17882 16.9803C4.50317 16.4983 4.92295 16.0785 5.7625 15.239L17.4105 3.59098C18.1915 2.80993 19.4579 2.80992 20.2389 3.59097C21.02 4.37202 21.02 5.63835 20.2389 6.4194L8.3772 18.2811C7.61555 19.0428 7.23473 19.4236 6.80095 19.7264C6.41593 19.9953 6.00068 20.218 5.56373 20.3899C5.07146 20.5837 4.54351 20.6902 3.48768 20.9033L2.99976 21.0017Z" stroke="#98A2B3" stroke-width="1.5" stroke-linecap="round" stroke-linejoin="round"/>
</svg>
