<svg width="24" height="24" viewBox="0 0 24 24" fill="none" xmlns="http://www.w3.org/2000/svg">
<path d="M14.8686 4.13134L14.3383 3.60101V3.60101L14.8686 4.13134ZM7.81459 7.48152L8.02063 8.20266L7.81459 7.48152ZM5.57564 9.83884L6.30644 10.0075L5.57564 9.83884ZM3 21L2.26921 20.8313C2.21106 21.0833 2.28682 21.3474 2.46967 21.5303C2.65252 21.7132 2.91667 21.7889 3.16864 21.7308L3 21ZM14.1611 18.4243L13.9925 17.6935L13.9925 17.6935L14.1611 18.4243ZM16.5185 16.1854L15.7973 15.9793V15.9793L16.5185 16.1854ZM19.8686 9.13134L20.399 9.66167V9.66167L19.8686 9.13134ZM19.8686 6.8686L19.3383 7.39893L19.8686 6.8686ZM17.1314 4.13134L17.6617 3.60101V3.60101L17.1314 4.13134ZM20.5368 8.30899L19.8235 8.07723L20.5368 8.30899ZM20.5368 7.69095L19.8235 7.92272L20.5368 7.69095ZM15.4404 18.0251L15.8302 18.6659L15.4404 18.0251ZM16.0539 17.4424L16.6737 17.8647L16.6737 17.8647L16.0539 17.4424ZM6.55756 7.94607L6.97981 8.56591L6.97981 8.56591L6.55756 7.94607ZM5.97487 8.55957L6.61563 8.94935L6.61563 8.94935L5.97487 8.55957ZM15.691 3.46313L15.4592 2.74984L15.691 3.46313ZM16.309 3.46313L16.5408 2.74984L16.5408 2.74984L16.309 3.46313ZM8.96968 16.0908C9.26257 15.7979 9.26256 15.3231 8.96966 15.0302C8.67677 14.7373 8.20189 14.7373 7.909 15.0302L8.96968 16.0908ZM10.25 14.5C10.25 14.9142 9.91421 15.25 9.5 15.25V16.75C10.7426 16.75 11.75 15.7426 11.75 14.5H10.25ZM9.5 15.25C9.08579 15.25 8.75 14.9142 8.75 14.5H7.25C7.25 15.7426 8.25736 16.75 9.5 16.75V15.25ZM8.75 14.5C8.75 14.0858 9.08579 13.75 9.5 13.75V12.25C8.25736 12.25 7.25 13.2573 7.25 14.5H8.75ZM9.5 13.75C9.91421 13.75 10.25 14.0858 10.25 14.5H11.75C11.75 13.2573 10.7426 12.25 9.5 12.25V13.75ZM14.3383 3.60101L12.4697 5.46964L13.5303 6.5303L15.399 4.66167L14.3383 3.60101ZM12.794 5.27883L7.60855 6.76037L8.02063 8.20266L13.206 6.72111L12.794 5.27883ZM4.84485 9.6702L2.26921 20.8313L3.73079 21.1686L6.30644 10.0075L4.84485 9.6702ZM3.16864 21.7308L14.3298 19.1551L13.9925 17.6935L2.83136 20.2692L3.16864 21.7308ZM17.2396 16.3914L18.7211 11.206L17.2789 10.7939L15.7973 15.9793L17.2396 16.3914ZM18.5303 11.5303L20.399 9.66167L19.3383 8.60101L17.4697 10.4696L18.5303 11.5303ZM20.399 6.33827L17.6617 3.60101L16.601 4.66167L19.3383 7.39893L20.399 6.33827ZM20.399 9.66167C20.5882 9.47241 20.7625 9.29899 20.8952 9.14266C21.0336 8.97964 21.1703 8.78658 21.2501 8.54075L19.8235 8.07723C19.8292 8.05973 19.8298 8.07983 19.7517 8.1719C19.6678 8.27067 19.5451 8.39425 19.3383 8.60101L20.399 9.66167ZM19.3383 7.39893C19.5451 7.60569 19.6678 7.72928 19.7517 7.82804C19.8298 7.92011 19.8292 7.94022 19.8235 7.92272L21.2501 7.45919C21.1703 7.21336 21.0336 7.0203 20.8952 6.85728C20.7625 6.70095 20.5882 6.52753 20.399 6.33827L19.3383 7.39893ZM21.2501 8.54075C21.3643 8.18927 21.3643 7.81067 21.2501 7.45919L19.8235 7.92272C19.8399 7.97293 19.8399 8.02701 19.8235 8.07723L21.2501 8.54075ZM14.3298 19.1551C14.9485 19.0123 15.4268 18.9112 15.8302 18.6659L15.0506 17.3843C14.903 17.4741 14.7121 17.5275 13.9925 17.6935L14.3298 19.1551ZM15.7973 15.9793C15.5944 16.6894 15.5313 16.8774 15.4341 17.0202L16.6737 17.8647C16.9396 17.4745 17.0651 17.002 17.2396 16.3914L15.7973 15.9793ZM15.8302 18.6659C16.1653 18.462 16.4529 18.1888 16.6737 17.8647L15.4341 17.0202C15.3337 17.1675 15.2029 17.2917 15.0506 17.3843L15.8302 18.6659ZM7.60855 6.76037C6.99795 6.93483 6.52552 7.06041 6.13532 7.32623L6.97981 8.56591C7.12261 8.46864 7.31053 8.40555 8.02063 8.20266L7.60855 6.76037ZM6.30644 10.0075C6.4725 9.28788 6.52583 9.09697 6.61563 8.94935L5.33411 8.16979C5.08874 8.57316 4.98764 9.05143 4.84485 9.6702L6.30644 10.0075ZM6.13532 7.32622C5.81114 7.54706 5.53796 7.83468 5.33411 8.16979L6.61563 8.94935C6.70829 8.79703 6.83246 8.66629 6.97981 8.56591L6.13532 7.32622ZM15.399 4.66167C15.6057 4.45492 15.7293 4.33215 15.8281 4.2483C15.9201 4.17014 15.9402 4.17073 15.9227 4.17642L15.4592 2.74984C15.2134 2.82971 15.0203 2.9664 14.8573 3.1048C14.701 3.23751 14.5276 3.41176 14.3383 3.60101L15.399 4.66167ZM17.6617 3.60101C17.4724 3.41175 17.299 3.2375 17.1427 3.10479C16.9797 2.9664 16.7866 2.82971 16.5408 2.74984L16.0773 4.17642C16.0598 4.17073 16.0799 4.17014 16.1719 4.2483C16.2707 4.33215 16.3943 4.45491 16.601 4.66167L17.6617 3.60101ZM15.9227 4.17642C15.973 4.16011 16.027 4.16011 16.0773 4.17642L16.5408 2.74984C16.1893 2.63563 15.8107 2.63563 15.4592 2.74984L15.9227 4.17642ZM12.4697 6.5303L17.4697 11.5303L18.5303 10.4696L13.5303 5.46964L12.4697 6.5303ZM7.909 15.0302L2.46966 20.4696L3.53034 21.5303L8.96968 16.0908L7.909 15.0302Z" fill="#98A2B3"/>
</svg>
