<svg width="24" height="24" viewBox="0 0 24 24" fill="none" xmlns="http://www.w3.org/2000/svg">
<path d="M12 21.75C12.4142 21.75 12.75 21.4142 12.75 21C12.75 20.5858 12.4142 20.25 12 20.25V21.75ZM12.459 3.76253C12.8726 3.78518 13.2262 3.46825 13.2489 3.05466C13.2715 2.64107 12.9546 2.28742 12.541 2.26478L12.459 3.76253ZM11.7627 9.23726L11.2324 8.70693L11.7627 9.23726ZM17.411 3.58902L17.9413 4.11935L17.411 3.58902ZM9 15L8.25754 14.8939C8.22308 15.1351 8.30792 15.378 8.48505 15.5453C8.66218 15.7126 8.90952 15.7834 9.14834 15.7352L9 15ZM9.04745 14.6678L8.30499 14.5618V14.5618L9.04745 14.6678ZM9.48793 14.9016L9.33959 14.1664L9.48793 14.9016ZM12.8012 13.7247L12.3719 13.1098L12.8012 13.7247ZM11.564 14.3882L11.8387 15.0861L11.564 14.3882ZM10.1791 10.9786L9.55684 10.5598H9.55684L10.1791 10.9786ZM9.49029 12.3561L8.78197 12.1096V12.1096L9.49029 12.3561ZM16.5303 4.46967C16.2374 4.17678 15.7626 4.17678 15.4697 4.46967C15.1768 4.76256 15.1768 5.23744 15.4697 5.53033L16.5303 4.46967ZM18.2981 8.35876C18.591 8.65165 19.0659 8.65165 19.3588 8.35876C19.6517 8.06586 19.6517 7.59099 19.3588 7.2981L18.2981 8.35876ZM16 16.25C15.5858 16.25 15.25 16.5858 15.25 17C15.25 17.4142 15.5858 17.75 16 17.75V16.25ZM21.635 10.8508C21.5526 10.4449 21.1567 10.1826 20.7508 10.265C20.3448 10.3474 20.0826 10.7433 20.165 11.1492L21.635 10.8508ZM12 20.25C7.44365 20.25 3.75 16.5563 3.75 12H2.25C2.25 17.3848 6.61522 21.75 12 21.75V20.25ZM3.75 12C3.75 7.44365 7.44365 3.75 12 3.75V2.25C6.61522 2.25 2.25 6.61522 2.25 12H3.75ZM12 3.75C12.1541 3.75 12.3071 3.75422 12.459 3.76253L12.541 2.26478C12.3618 2.25497 12.1815 2.25 12 2.25V3.75ZM12.2931 9.76759L17.9413 4.11935L16.8807 3.05869L11.2324 8.70693L12.2931 9.76759ZM19.7091 5.88712L13.8471 11.7491L14.9078 12.8097L20.7697 6.94778L19.7091 5.88712ZM9.74246 15.1061L9.78991 14.7739L8.30499 14.5618L8.25754 14.8939L9.74246 15.1061ZM9.33959 14.1664L8.85166 14.2648L9.14834 15.7352L9.63627 15.6367L9.33959 14.1664ZM13.8471 11.7491C13.0673 12.5289 12.7389 12.8535 12.3719 13.1098L13.2305 14.3397C13.731 13.9903 14.1643 13.5532 14.9078 12.8097L13.8471 11.7491ZM9.63627 15.6367C10.6669 15.4288 11.2707 15.3097 11.8387 15.0861L11.2893 13.6903C10.8727 13.8543 10.4207 13.9482 9.33959 14.1664L9.63627 15.6367ZM12.3719 13.1098C12.035 13.345 11.6716 13.5399 11.2893 13.6903L11.8387 15.0861C12.3302 14.8926 12.7974 14.6421 13.2305 14.3397L12.3719 13.1098ZM11.2324 8.70693C10.413 9.52633 9.93109 10.0037 9.55684 10.5598L10.8013 11.3973C11.0757 10.9895 11.4334 10.6273 12.2931 9.76759L11.2324 8.70693ZM9.78991 14.7739C9.96185 13.5703 10.037 13.0669 10.1986 12.6026L8.78197 12.1096C8.56162 12.7426 8.46887 13.4146 8.30499 14.5618L9.78991 14.7739ZM9.55684 10.5598C9.23304 11.041 8.97261 11.5618 8.78197 12.1096L10.1986 12.6026C10.3469 12.1766 10.5494 11.7715 10.8013 11.3973L9.55684 10.5598ZM19.7091 4.11935C20.1972 4.6075 20.1972 5.39896 19.7091 5.88712L20.7697 6.94778C21.8437 5.87383 21.8437 4.13263 20.7697 3.05869L19.7091 4.11935ZM20.7697 3.05869C19.6958 1.98475 17.9546 1.98475 16.8807 3.05869L17.9413 4.11935C18.4295 3.63119 19.2209 3.63119 19.7091 4.11935L20.7697 3.05869ZM15.4697 5.53033L18.2981 8.35876L19.3588 7.2981L16.5303 4.46967L15.4697 5.53033ZM20.25 12C20.25 14.3472 18.3472 16.25 16 16.25V17.75C19.1756 17.75 21.75 15.1756 21.75 12H20.25ZM20.165 11.1492C20.2206 11.4235 20.25 11.7079 20.25 12H21.75C21.75 11.6071 21.7105 11.2227 21.635 10.8508L20.165 11.1492Z" fill="#98A2B3"/>
</svg>
