<svg width="24" height="24" viewBox="0 0 24 24" fill="none" xmlns="http://www.w3.org/2000/svg">
<path d="M9.65685 17L7 17L7 14M6.1026 14.8974L17.411 3.58902C18.192 2.80797 19.4584 2.80797 20.2394 3.58902C21.0205 4.37007 21.0205 5.6364 20.2394 6.41745L8.76424 17.8926C8.22819 18.4287 7.96016 18.6967 7.66345 18.9271C7.39989 19.1318 7.11972 19.3142 6.82584 19.4723C6.495 19.6503 6.14139 19.7868 5.43419 20.0599L3.00024 20.9998L3.78336 18.6501C4.05063 17.8483 4.18427 17.4473 4.37014 17.0729C4.53521 16.7404 4.73078 16.424 4.95434 16.1276C5.20606 15.7939 5.50491 15.4951 6.1026 14.8974Z" stroke="#98A2B3" stroke-width="1.5" stroke-linecap="round" stroke-linejoin="round"/>
</svg>
