<svg width="24" height="24" viewBox="0 0 24 24" fill="none" xmlns="http://www.w3.org/2000/svg">
<path d="M10.1192 4.09444C10.7952 3.6033 11.1332 3.35773 11.5027 3.26285C11.829 3.17907 12.1712 3.17907 12.4975 3.26285C12.867 3.35773 13.205 3.6033 13.881 4.09444L19.6298 8.27114C20.3058 8.76229 20.6437 9.00786 20.8482 9.32998C21.0287 9.61442 21.1344 9.93984 21.1556 10.2761C21.1795 10.6568 21.0504 11.0542 20.7922 11.8489L18.5964 18.6069C18.3382 19.4016 18.2091 19.7989 17.9659 20.0929C17.7512 20.3525 17.4743 20.5536 17.1611 20.6776C16.8064 20.818 16.3886 20.818 15.553 20.818H8.44718C7.6116 20.818 7.19381 20.818 6.83908 20.6776C6.52586 20.5536 6.24904 20.3525 6.0343 20.0929C5.79111 19.7989 5.66201 19.4016 5.4038 18.6069L3.20798 11.8489C2.94977 11.0542 2.82066 10.6568 2.84462 10.2761C2.86577 9.93984 2.97151 9.61442 3.15202 9.32998C3.35645 9.00786 3.69445 8.76229 4.37045 8.27114L10.1192 4.09444Z" stroke="#98A2B3" stroke-width="1.5" stroke-linejoin="round"/>
</svg>
