<svg width="24" height="24" viewBox="0 0 24 24" fill="none" xmlns="http://www.w3.org/2000/svg">
<path d="M5.14674 12.7819L8.15505 9.08664C8.46304 8.69065 8.61704 8.49264 8.69774 8.27058C8.76915 8.07409 8.7987 7.86484 8.78448 7.65625C8.76842 7.42053 8.67526 7.18763 8.48895 6.72184L7.77825 4.9451C7.50253 4.25579 7.36466 3.91113 7.12684 3.68522C6.91727 3.48615 6.65465 3.35188 6.37058 3.29854C6.04819 3.238 5.68807 3.32804 4.96782 3.5081L3.00049 4C3.00049 14 10.0002 21 20.0005 21L20.4921 19.0324C20.6722 18.3121 20.7622 17.952 20.7017 17.6296C20.6483 17.3456 20.5141 17.0829 20.315 16.8734C20.0891 16.6355 19.7444 16.4977 19.0551 16.222L17.4696 15.5877C16.9382 15.3752 16.6725 15.2689 16.4076 15.2608C16.1734 15.2536 15.9409 15.3013 15.7285 15.4001C15.4882 15.512 15.2859 15.7143 14.8812 16.119L11.7933 19.1561M15.8088 7.70534L20.1272 4.34668M21.0002 6C21.0002 7.65685 19.6571 9 18.0002 9C16.3434 9 15.0002 7.65685 15.0002 6C15.0002 4.34315 16.3434 3 18.0002 3C19.6571 3 21.0002 4.34315 21.0002 6Z" stroke="#98A2B3" stroke-width="1.5" stroke-linecap="round" stroke-linejoin="round"/>
</svg>
