<svg width="24" height="24" viewBox="0 0 24 24" fill="none" xmlns="http://www.w3.org/2000/svg">
<path d="M5.11645 12.7268L8.15505 9.08666C8.46304 8.69067 8.61704 8.49267 8.69774 8.27061C8.76915 8.07411 8.7987 7.86486 8.78448 7.65628C8.76842 7.42055 8.67526 7.18766 8.48895 6.72187L7.77825 4.94513C7.50253 4.25581 7.36466 3.91116 7.12684 3.68525C6.91727 3.48618 6.65465 3.3519 6.37058 3.29856C6.04819 3.23803 5.68807 3.32806 4.96782 3.50812L3.00049 4.00002C3.00049 14 10.0002 21 20.0005 21L20.4921 19.0324C20.6722 18.3122 20.7622 17.952 20.7017 17.6297C20.6483 17.3456 20.5141 17.083 20.315 16.8734C20.0891 16.6356 19.7444 16.4977 19.0551 16.222L17.4696 15.5878C16.9382 15.3752 16.6725 15.2689 16.4076 15.2608C16.1734 15.2536 15.9409 15.3013 15.7285 15.4002C15.4882 15.512 15.2859 15.7144 14.8812 16.1191L11.7948 19.1569" stroke="#98A2B3" stroke-width="1.5" stroke-linecap="round" stroke-linejoin="round"/>
</svg>
