<svg width="24" height="24" viewBox="0 0 24 24" fill="none" xmlns="http://www.w3.org/2000/svg">
<path d="M5.13997 12.7696C3.76143 10.2681 3.00049 7.29713 3.00049 4L4.96782 3.5081C5.68807 3.32804 6.04819 3.238 6.37058 3.29854C6.65465 3.35188 6.91727 3.48615 7.12684 3.68522C7.36466 3.91113 7.50253 4.25579 7.77825 4.9451L8.48895 6.72184C8.67526 7.18763 8.76842 7.42053 8.78448 7.65625C8.7987 7.86484 8.76915 8.07409 8.69774 8.27058C8.61704 8.49264 8.46304 8.69065 8.15505 9.08664L5.13997 12.7696ZM5.13997 12.7696C6.6611 15.5299 8.93422 17.7184 11.7667 19.1428M11.7667 19.1428C14.1528 20.3425 16.9357 21 20.0005 21L20.4921 19.0324C20.6722 18.3121 20.7622 17.952 20.7017 17.6296C20.6483 17.3456 20.5141 17.0829 20.315 16.8734C20.0891 16.6355 19.7444 16.4977 19.0551 16.222L17.4696 15.5877C16.9382 15.3752 16.6725 15.2689 16.4076 15.2608C16.1734 15.2536 15.9409 15.3013 15.7285 15.4001C15.4882 15.512 15.2859 15.7143 14.8812 16.119L11.7667 19.1428ZM21.0002 7V3M21.0002 3H17.0002M21.0002 3L15.0002 9" stroke="#98A2B3" stroke-width="1.5" stroke-linecap="round" stroke-linejoin="round"/>
</svg>
