<svg width="24" height="24" viewBox="0 0 24 24" fill="none" xmlns="http://www.w3.org/2000/svg">
<path d="M5.14105 12.7716L8.15505 9.08664C8.46304 8.69065 8.61704 8.49264 8.69774 8.27058C8.76915 8.07409 8.7987 7.86484 8.78448 7.65625C8.76842 7.42053 8.67526 7.18763 8.48895 6.72184L7.77825 4.9451C7.50253 4.25579 7.36466 3.91113 7.12684 3.68522C6.91727 3.48615 6.65465 3.35188 6.37058 3.29854C6.04819 3.238 5.68807 3.32804 4.96782 3.5081L3.00049 4C3.00049 14 10.0002 21 20.0005 21L20.4921 19.0324C20.6722 18.3121 20.7622 17.952 20.7017 17.6296C20.6483 17.3456 20.5141 17.0829 20.315 16.8734C20.0891 16.6355 19.7444 16.4977 19.0551 16.222L17.4696 15.5877C16.9382 15.3752 16.6725 15.2689 16.4076 15.2608C16.1734 15.2536 15.9409 15.3013 15.7285 15.4001C15.4882 15.512 15.2859 15.7143 14.8812 16.119L11.7917 19.1553M19.5002 6.00386V5C19.5002 3.89543 18.6048 3 17.5002 3C16.3956 3 15.5002 3.89543 15.5002 5V6.00386M15.6002 10H19.4002C19.9603 10 20.2403 10 20.4542 9.89101C20.6424 9.79513 20.7953 9.64215 20.8912 9.45399C21.0002 9.24008 21.0002 8.96005 21.0002 8.4V7.6C21.0002 7.03995 21.0002 6.75992 20.8912 6.54601C20.7953 6.35785 20.6424 6.20487 20.4542 6.10899C20.2403 6 19.9603 6 19.4002 6H15.6002C15.0402 6 14.7601 6 14.5462 6.10899C14.3581 6.20487 14.2051 6.35785 14.1092 6.54601C14.0002 6.75992 14.0002 7.03995 14.0002 7.6V8.4C14.0002 8.96005 14.0002 9.24008 14.1092 9.45399C14.2051 9.64215 14.3581 9.79513 14.5462 9.89101C14.7601 10 15.0402 10 15.6002 10Z" stroke="#98A2B3" stroke-width="1.5" stroke-linecap="round" stroke-linejoin="round"/>
</svg>
