<svg width="24" height="24" viewBox="0 0 24 24" fill="none" xmlns="http://www.w3.org/2000/svg">
<path d="M19.9999 4L16.2144 7.31238C14.7211 8.61894 13.9745 9.27223 13.1343 9.52071C12.3939 9.73967 11.606 9.73967 10.8656 9.52071C10.0253 9.27223 9.27873 8.61894 7.7855 7.31237L3.99993 4M3.99993 4H7.99993M3.99993 4V8M15.2396 14.5536L15.7121 18.0107C15.778 18.508 15.811 18.7567 15.9125 18.97C16.0023 19.1588 16.1307 19.3267 16.2892 19.463C16.4684 19.617 16.6997 19.7141 17.1622 19.9083L17.8625 20.2023C18.5471 20.4897 18.8893 20.6334 19.2172 20.6226C19.5061 20.613 19.786 20.5202 20.0234 20.3553C20.2928 20.1681 20.4814 19.8484 20.8587 19.209L21.4401 18.2234C15.8435 12.7089 8.06592 12.7662 2.55127 18.363L3.14748 19.34C3.53414 19.9738 3.72747 20.2907 3.9996 20.4738C4.23939 20.6352 4.5207 20.7239 4.80969 20.7292C5.13765 20.7352 5.47776 20.5864 6.15796 20.2889L6.66518 20.0671C7.18955 19.8378 7.45174 19.7231 7.64347 19.5401C7.81293 19.3784 7.94215 19.1792 8.02079 18.9586C8.10977 18.7089 8.10766 18.4228 8.10343 17.8505L8.06757 14.8008" stroke="#98A2B3" stroke-width="1.5" stroke-linecap="round" stroke-linejoin="round"/>
</svg>
