<svg width="24" height="24" viewBox="0 0 24 24" fill="none" xmlns="http://www.w3.org/2000/svg">
<path d="M19.9999 3L16.2143 6.31238C14.7211 7.61894 13.9745 8.27223 13.1343 8.52071C12.3939 8.73967 11.6059 8.73967 10.8656 8.52071C10.0253 8.27223 9.2787 7.61894 7.78548 6.31237L3.99991 3M3.99991 3H7.99991M3.99991 3V7M3.3915 16.571C8.17112 11.8351 15.885 11.8704 20.621 16.6501C20.7654 16.7958 20.9054 16.9442 21.0409 17.0952C21.3238 17.4105 21.4653 17.5681 21.5284 17.7917C21.5797 17.9738 21.5728 18.2118 21.5108 18.3906C21.4348 18.6101 21.2649 18.7784 20.925 19.1151L19.7293 20.2999C19.4425 20.5841 19.2991 20.7262 19.1294 20.8008C18.9795 20.8667 18.8157 20.8948 18.6524 20.8826C18.4675 20.8688 18.285 20.7826 17.9199 20.6102L15.9668 19.6878C15.542 19.4872 15.3296 19.3869 15.1919 19.2285C15.0704 19.0889 14.9901 18.9183 14.9599 18.7357C14.9256 18.5286 14.9836 18.301 15.0996 17.8458L15.3397 16.9037C13.2032 16.0897 10.8137 16.0772 8.67024 16.8732L8.90171 17.8174C9.01356 18.2737 9.06948 18.5018 9.03328 18.7085C9.00136 18.8908 8.91948 19.0607 8.79676 19.1992C8.65758 19.3563 8.44428 19.4546 8.01768 19.6513L6.0562 20.5558C5.68956 20.7248 5.5062 20.8094 5.32122 20.8215C5.15781 20.8322 4.99428 20.8026 4.84499 20.7353C4.67597 20.6592 4.53388 20.5158 4.24969 20.2289L3.06488 19.0332C2.72818 18.6934 2.55982 18.5235 2.48579 18.3034C2.42547 18.124 2.42068 17.886 2.47374 17.7043C2.53885 17.4813 2.68175 17.325 2.96756 17.0124C3.10446 16.8626 3.24578 16.7154 3.3915 16.571Z" stroke="#98A2B3" stroke-width="1.5" stroke-linecap="round" stroke-linejoin="round"/>
</svg>
