<svg width="24" height="24" viewBox="0 0 24 24" fill="none" xmlns="http://www.w3.org/2000/svg">
<path d="M20.673 19.362L20.0048 19.0215V19.0215L20.673 19.362ZM19.362 20.673L19.0215 20.0048H19.0215L19.362 20.673ZM21 14.75C21.4142 14.75 21.75 14.4142 21.75 14C21.75 13.5858 21.4142 13.25 21 13.25V14.75ZM7.75 14C7.75 13.5858 7.41421 13.25 7 13.25C6.58579 13.25 6.25 13.5858 6.25 14H7.75ZM6.25 17C6.25 17.4142 6.58579 17.75 7 17.75C7.41421 17.75 7.75 17.4142 7.75 17H6.25ZM10.75 14C10.75 13.5858 10.4142 13.25 10 13.25C9.58579 13.25 9.25 13.5858 9.25 14H10.75ZM9.25 17C9.25 17.4142 9.58579 17.75 10 17.75C10.4142 17.75 10.75 17.4142 10.75 17H9.25ZM13.75 14C13.75 13.5858 13.4142 13.25 13 13.25C12.5858 13.25 12.25 13.5858 12.25 14H13.75ZM12.25 17C12.25 17.4142 12.5858 17.75 13 17.75C13.4142 17.75 13.75 17.4142 13.75 17H12.25ZM17.75 14C17.75 13.5858 17.4142 13.25 17 13.25C16.5858 13.25 16.25 13.5858 16.25 14H17.75ZM16.25 17C16.25 17.4142 16.5858 17.75 17 17.75C17.4142 17.75 17.75 17.4142 17.75 17H16.25ZM3.32698 19.362L3.99524 19.0215H3.99524L3.32698 19.362ZM4.63803 20.673L4.97852 20.0048H4.97852L4.63803 20.673ZM21.75 16.2V13H20.25V16.2H21.75ZM18 9.25H16.2353V10.75H18V9.25ZM9.23529 2.25H9V3.75H9.23529V2.25ZM2.25 9V14H3.75V9H2.25ZM15.75 8.76471C15.75 5.16673 12.8333 2.25 9.23529 2.25V3.75C12.0048 3.75 14.25 5.99516 14.25 8.76471H15.75ZM16.2353 9.25C15.9673 9.25 15.75 9.03273 15.75 8.76471H14.25C14.25 9.86115 15.1388 10.75 16.2353 10.75V9.25ZM21.75 13C21.75 10.9289 20.0711 9.25 18 9.25V10.75C19.2426 10.75 20.25 11.7574 20.25 13H21.75ZM20.25 16.2C20.25 17.0525 20.2494 17.6467 20.2116 18.1093C20.1745 18.5632 20.1054 18.824 20.0048 19.0215L21.3413 19.7025C21.5676 19.2582 21.662 18.7781 21.7066 18.2315C21.7506 17.6936 21.75 17.0277 21.75 16.2H20.25ZM16.2 21.75C17.0277 21.75 17.6936 21.7506 18.2315 21.7066C18.7781 21.662 19.2582 21.5676 19.7025 21.3413L19.0215 20.0048C18.824 20.1054 18.5632 20.1745 18.1093 20.2116C17.6467 20.2494 17.0525 20.25 16.2 20.25V21.75ZM20.0048 19.0215C19.789 19.4448 19.4448 19.789 19.0215 20.0048L19.7025 21.3413C20.4081 20.9817 20.9817 20.4081 21.3413 19.7025L20.0048 19.0215ZM9 2.25C5.27208 2.25 2.25 5.27208 2.25 9H3.75C3.75 6.10051 6.10051 3.75 9 3.75V2.25ZM3 14.75H21V13.25H3V14.75ZM6.25 14V17H7.75V14H6.25ZM9.25 14V17H10.75V14H9.25ZM12.25 14V17H13.75V14H12.25ZM16.25 14V17H17.75V14H16.25ZM2.25 14V16.2H3.75V14H2.25ZM2.25 16.2C2.25 17.0277 2.24942 17.6936 2.29336 18.2315C2.33803 18.7781 2.43238 19.2582 2.65873 19.7025L3.99524 19.0215C3.8946 18.824 3.82546 18.5632 3.78838 18.1093C3.75058 17.6467 3.75 17.0525 3.75 16.2H2.25ZM7.8 20.25C6.94755 20.25 6.35331 20.2494 5.89068 20.2116C5.4368 20.1745 5.17604 20.1054 4.97852 20.0048L4.29754 21.3413C4.74175 21.5676 5.22189 21.662 5.76853 21.7066C6.30641 21.7506 6.9723 21.75 7.8 21.75V20.25ZM2.65873 19.7025C3.01825 20.4081 3.59193 20.9817 4.29754 21.3413L4.97852 20.0048C4.55516 19.789 4.21095 19.4448 3.99524 19.0215L2.65873 19.7025ZM7.8 21.75H16.2V20.25H7.8V21.75Z" fill="#98A2B3"/>
</svg>
