<svg width="24" height="24" viewBox="0 0 24 24" fill="none" xmlns="http://www.w3.org/2000/svg">
<path d="M15 5.99999V18M21 5.99999V18M3 7.92659V16.0734C3 17.0029 3 17.4677 3.18822 17.6972C3.35177 17.8966 3.59873 18.0087 3.85651 18.0004C4.15318 17.991 4.50296 17.6849 5.20249 17.0728L9.8578 12.9994C10.2522 12.6543 10.4493 12.4818 10.5218 12.2774C10.5855 12.0979 10.5855 11.902 10.5218 11.7226C10.4493 11.5182 10.2522 11.3456 9.8578 11.0006L5.20249 6.92717C4.50295 6.31507 4.15318 6.00902 3.85651 5.99954C3.59873 5.9913 3.35177 6.10336 3.18822 6.30278C3 6.53229 3 6.99706 3 7.92659Z" stroke="#98A2B3" stroke-width="1.5" stroke-linecap="round" stroke-linejoin="round"/>
</svg>
