<svg width="24" height="24" viewBox="0 0 24 24" fill="none" xmlns="http://www.w3.org/2000/svg">
<path d="M16.0417 9.21095C17.6632 10.123 18.4739 10.5791 18.744 11.1783C18.9794 11.7008 18.9794 12.2992 18.744 12.8216C18.4739 13.4209 17.6632 13.8769 16.0417 14.789L9.76884 18.3175C8.2012 19.1993 7.41738 19.6402 6.77534 19.5676C6.21522 19.5043 5.70782 19.2076 5.37802 18.7504C5 18.2264 5 17.3271 5 15.5285V8.4715C5 6.67287 5 5.77356 5.37802 5.24956C5.70782 4.79241 6.21522 4.49566 6.77534 4.43234C7.41738 4.35976 8.2012 4.80066 9.76884 5.68246L16.0417 9.21095Z" stroke="#98A2B3" stroke-width="1.5" stroke-linecap="round" stroke-linejoin="round"/>
</svg>
