<svg width="24" height="24" viewBox="0 0 24 24" fill="none" xmlns="http://www.w3.org/2000/svg">
<path d="M6.09202 20.782L6.43251 20.1138L6.09202 20.782ZM5.21799 19.908L5.88624 19.5675L5.21799 19.908ZM18.782 19.908L18.1138 19.5675L18.782 19.908ZM17.908 20.782L17.5675 20.1138L17.908 20.782ZM17.908 3.21799L17.5675 3.88624L17.908 3.21799ZM18.782 4.09202L18.1138 4.43251L18.782 4.09202ZM6.09202 3.21799L6.43251 3.88624L6.09202 3.21799ZM5.21799 4.09202L5.88624 4.43251L5.21799 4.09202ZM13.25 11C13.25 11.6904 12.6904 12.25 12 12.25V13.75C13.5188 13.75 14.75 12.5188 14.75 11H13.25ZM12 12.25C11.3096 12.25 10.75 11.6904 10.75 11H9.25C9.25 12.5188 10.4812 13.75 12 13.75V12.25ZM10.75 11C10.75 10.3096 11.3096 9.75 12 9.75V8.25C10.4812 8.25 9.25 9.48122 9.25 11H10.75ZM12 9.75C12.6904 9.75 13.25 10.3096 13.25 11H14.75C14.75 9.48122 13.5188 8.25 12 8.25V9.75ZM8.2 3.75H15.8V2.25H8.2V3.75ZM18.25 6.2V17.8H19.75V6.2H18.25ZM15.8 20.25H8.2V21.75H15.8V20.25ZM5.75 17.8V6.2H4.25V17.8H5.75ZM8.2 20.25C7.62757 20.25 7.24336 20.2494 6.94748 20.2252C6.66035 20.2018 6.52307 20.1599 6.43251 20.1138L5.75153 21.4503C6.08879 21.6221 6.44544 21.6892 6.82533 21.7203C7.19646 21.7506 7.65232 21.75 8.2 21.75V20.25ZM4.25 17.8C4.25 18.3477 4.24942 18.8035 4.27974 19.1747C4.31078 19.5546 4.37789 19.9112 4.54973 20.2485L5.88624 19.5675C5.8401 19.4769 5.79822 19.3396 5.77476 19.0525C5.75058 18.7566 5.75 18.3724 5.75 17.8H4.25ZM6.43251 20.1138C6.19731 19.9939 6.00608 19.8027 5.88624 19.5675L4.54973 20.2485C4.81338 20.7659 5.23408 21.1866 5.75153 21.4503L6.43251 20.1138ZM18.25 17.8C18.25 18.3724 18.2494 18.7566 18.2252 19.0525C18.2018 19.3396 18.1599 19.4769 18.1138 19.5675L19.4503 20.2485C19.6221 19.9112 19.6892 19.5546 19.7203 19.1747C19.7506 18.8035 19.75 18.3477 19.75 17.8H18.25ZM15.8 21.75C16.3477 21.75 16.8035 21.7506 17.1747 21.7203C17.5546 21.6892 17.9112 21.6221 18.2485 21.4503L17.5675 20.1138C17.4769 20.1599 17.3396 20.2018 17.0525 20.2252C16.7566 20.2494 16.3724 20.25 15.8 20.25V21.75ZM18.1138 19.5675C17.9939 19.8027 17.8027 19.9939 17.5675 20.1138L18.2485 21.4503C18.7659 21.1866 19.1866 20.7659 19.4503 20.2485L18.1138 19.5675ZM15.8 3.75C16.3724 3.75 16.7566 3.75058 17.0525 3.77476C17.3396 3.79822 17.4769 3.8401 17.5675 3.88624L18.2485 2.54973C17.9112 2.37789 17.5546 2.31078 17.1747 2.27974C16.8035 2.24942 16.3477 2.25 15.8 2.25V3.75ZM19.75 6.2C19.75 5.65232 19.7506 5.19646 19.7203 4.82533C19.6892 4.44545 19.6221 4.08879 19.4503 3.75153L18.1138 4.43251C18.1599 4.52307 18.2018 4.66035 18.2252 4.94748C18.2494 5.24336 18.25 5.62757 18.25 6.2H19.75ZM17.5675 3.88624C17.8027 4.00608 17.9939 4.19731 18.1138 4.43251L19.4503 3.75153C19.1866 3.23408 18.7659 2.81338 18.2485 2.54973L17.5675 3.88624ZM8.2 2.25C7.65232 2.25 7.19646 2.24942 6.82533 2.27974C6.44545 2.31078 6.08879 2.37789 5.75153 2.54973L6.43251 3.88624C6.52307 3.8401 6.66035 3.79822 6.94748 3.77476C7.24336 3.75058 7.62757 3.75 8.2 3.75V2.25ZM5.75 6.2C5.75 5.62757 5.75058 5.24336 5.77476 4.94748C5.79822 4.66035 5.8401 4.52307 5.88624 4.43251L4.54973 3.75153C4.37789 4.08879 4.31078 4.44545 4.27974 4.82533C4.24942 5.19646 4.25 5.65232 4.25 6.2H5.75ZM5.75153 2.54973C5.23408 2.81338 4.81338 3.23408 4.54973 3.75153L5.88624 4.43251C6.00608 4.19731 6.19731 4.00608 6.43251 3.88624L5.75153 2.54973ZM7.75 21C7.75 18.6528 9.65279 16.75 12 16.75V15.25C8.82436 15.25 6.25 17.8244 6.25 21H7.75ZM12 16.75C14.3472 16.75 16.25 18.6528 16.25 21H17.75C17.75 17.8244 15.1756 15.25 12 15.25V16.75Z" fill="#98A2B3"/>
</svg>
