<svg width="24" height="24" viewBox="0 0 24 24" fill="none" xmlns="http://www.w3.org/2000/svg">
<path d="M17.1439 2.80293C20.0524 4.55176 22 7.7353 22 11.3762H16C16 9.91987 15.2181 8.64976 14.0547 7.95023L17.1439 2.80147M2 11.3762C4.34369 11.3794 5.6574 11.3807 8 11.3762C8 9.92059 8.77755 8.64655 9.93996 7.94679L6.85455 2.80318C3.94706 4.55223 2 7.73602 2 11.3762ZM13 11.3762C13 11.9285 12.5523 12.3762 12 12.3762C11.4477 12.3762 11 11.9285 11 11.3762C11 10.824 11.4477 10.3762 12 10.3762C12.5523 10.3762 13 10.824 13 11.3762ZM17.1452 19.9528C15.642 20.8565 13.8817 21.3762 12 21.3762C10.1186 21.3762 8.35853 20.8566 6.85547 19.9531L9.94056 14.8109C10.5418 15.1722 11.2466 15.3762 11.9991 15.3762C12.7529 15.3762 13.4579 15.1677 14.0597 14.8053L17.1452 19.9528Z" stroke="#98A2B3" stroke-width="1.5" stroke-linecap="round" stroke-linejoin="round"/>
</svg>
