<svg width="24" height="24" viewBox="0 0 24 24" fill="none" xmlns="http://www.w3.org/2000/svg">
<path d="M17 13H21V19C21 20.1046 20.1046 21 19 21M17 13V19C17 20.1046 17.8954 21 19 21M17 13V5.75709C17 4.85169 17 4.399 16.8098 4.13647C16.6439 3.90747 16.3888 3.75942 16.1076 3.72899C15.7853 3.6941 15.3923 3.9187 14.6062 4.3679L14.2938 4.54638C14.0045 4.71172 13.8598 4.79439 13.7062 4.82676C13.5702 4.85541 13.4298 4.85541 13.2938 4.82676C13.1402 4.79439 12.9955 4.71172 12.7062 4.54638L10.7938 3.45361C10.5045 3.28827 10.3598 3.2056 10.2062 3.17323C10.0702 3.14459 9.92978 3.14459 9.79383 3.17323C9.64019 3.2056 9.49552 3.28827 9.20618 3.45361L7.29382 4.54638C7.00448 4.71172 6.85981 4.79439 6.70617 4.82676C6.57022 4.85541 6.42978 4.85541 6.29383 4.82676C6.14019 4.79439 5.99552 4.71172 5.70618 4.54638L5.39382 4.3679C4.60772 3.9187 4.21467 3.6941 3.89237 3.72899C3.61123 3.75942 3.35611 3.90747 3.1902 4.13647C3 4.399 3 4.85169 3 5.75709V16.2C3 17.8802 3 18.7202 3.32698 19.362C3.6146 19.9265 4.07354 20.3854 4.63803 20.673C5.27976 21 6.11984 21 7.8 21H19M12 10.5C11.5 10.376 10.6851 10.3714 10 10.376C9.77091 10.3775 9.90941 10.3678 9.6 10.376C8.79258 10.4012 8.00165 10.7368 8 11.6875C7.99825 12.7004 9 13 10 13C11 13 12 13.2312 12 14.3125C12 15.1251 11.1925 15.4812 10.1861 15.5991C9.3861 15.5991 9 15.625 8 15.5M10 16V17M10 9V10" stroke="#98A2B3" stroke-width="1.5" stroke-linecap="round" stroke-linejoin="round"/>
</svg>
