<svg width="24" height="24" viewBox="0 0 24 24" fill="none" xmlns="http://www.w3.org/2000/svg">
<path d="M12 2.25C11.5858 2.25 11.25 2.58579 11.25 3C11.25 3.41421 11.5858 3.75 12 3.75V2.25ZM20.25 12C20.25 12.4142 20.5858 12.75 21 12.75C21.4142 12.75 21.75 12.4142 21.75 12H20.25ZM5.05025 9.05029L5.58058 8.51996C5.28769 8.22707 4.81282 8.22707 4.51992 8.51996L5.05025 9.05029ZM14.9512 18.9512L15.4815 19.4815C15.6222 19.3408 15.7012 19.1501 15.7012 18.9512C15.7012 18.7523 15.6222 18.5615 15.4815 18.4208L14.9512 18.9512ZM12 6.25C11.5858 6.25 11.25 6.58579 11.25 7C11.25 7.41421 11.5858 7.75 12 7.75V6.25ZM16.25 12C16.25 12.4142 16.5858 12.75 17 12.75C17.4142 12.75 17.75 12.4142 17.75 12H16.25ZM9.46967 13.4697C9.17678 13.7626 9.17678 14.2374 9.46967 14.5303C9.76256 14.8232 10.2374 14.8232 10.5303 14.5303L9.46967 13.4697ZM12.5303 12.5303C12.8232 12.2374 12.8232 11.7626 12.5303 11.4697C12.2374 11.1768 11.7626 11.1768 11.4697 11.4697L12.5303 12.5303ZM12 3.75C16.5563 3.75 20.25 7.44365 20.25 12H21.75C21.75 6.61522 17.3848 2.25 12 2.25V3.75ZM10 20.25C6.54822 20.25 3.75 17.4518 3.75 14H2.25C2.25 18.2802 5.71979 21.75 10 21.75V20.25ZM3.75 14C3.75 12.2739 4.44873 10.7125 5.58058 9.58062L4.51992 8.51996C3.11827 9.92162 2.25 11.8601 2.25 14H3.75ZM14.4208 18.4208C13.2894 19.5523 11.7266 20.25 10 20.25V21.75C12.1394 21.75 14.0795 20.8835 15.4815 19.4815L14.4208 18.4208ZM15.4815 18.4208L5.58058 8.51996L4.51992 9.58062L14.4208 19.4815L15.4815 18.4208ZM12 7.75C14.3472 7.75 16.25 9.65279 16.25 12H17.75C17.75 8.82436 15.1756 6.25 12 6.25V7.75ZM10.5303 14.5303L12.5303 12.5303L11.4697 11.4697L9.46967 13.4697L10.5303 14.5303Z" fill="#98A2B3"/>
</svg>
