<svg width="24" height="24" viewBox="0 0 24 24" fill="none" xmlns="http://www.w3.org/2000/svg">
<path d="M6 11.5H7M6 15.5H7M17 15.5H18M17 11.5H18M11.5 11.5H12.5M10 21V17C10 15.8954 10.8954 15 12 15C13.1046 15 14 15.8954 14 17V21M17 7.50001L18.5761 7.89404C19.4428 8.1107 19.8761 8.21904 20.1988 8.46063C20.4834 8.67379 20.7061 8.95901 20.8439 9.28688C21 9.65849 21 10.1052 21 10.9985V17.8C21 18.9201 21 19.4802 20.782 19.908C20.5903 20.2843 20.2843 20.5903 19.908 20.782C19.4802 21 18.9201 21 17.8 21H6.2C5.0799 21 4.51984 21 4.09202 20.782C3.71569 20.5903 3.40973 20.2843 3.21799 19.908C3 19.4802 3 18.9201 3 17.8V10.9985C3 10.1052 3 9.65849 3.15613 9.28688C3.29388 8.95901 3.51657 8.67379 3.80124 8.46063C4.12389 8.21904 4.55722 8.1107 5.42388 7.89404L7 7.50001L9.85931 4.92663C10.6159 4.24566 10.9943 3.90518 11.4221 3.77604C11.799 3.6623 12.201 3.6623 12.5779 3.77604C13.0057 3.90518 13.3841 4.24566 14.1407 4.92663L17 7.50001Z" stroke="#98A2B3" stroke-width="1.5" stroke-linecap="round" stroke-linejoin="round"/>
</svg>
