<svg width="24" height="24" viewBox="0 0 24 24" fill="none" xmlns="http://www.w3.org/2000/svg">
<path d="M15.0003 19H17.8003C18.9204 19 19.4805 19 19.9083 18.782C20.2846 18.5903 20.5906 18.2843 20.7824 17.908C21.0003 17.4802 21.0003 16.9201 21.0003 15.8V8.2C21.0003 7.0799 21.0003 6.51984 20.7824 6.09202C20.5906 5.71569 20.2846 5.40973 19.9083 5.21799C19.4805 5 18.9204 5 17.8003 5H6.20034C5.08024 5 4.52018 5 4.09236 5.21799C3.71604 5.40973 3.41008 5.71569 3.21833 6.09202C3.09731 6.32953 3.04348 6.60779 3.01953 7M3 15.1001C3.96089 15.2961 4.84294 15.7703 5.53638 16.4637C6.22982 17.1572 6.70403 18.0392 6.9 19.0001M3 19H3.01M3 11.0498C5.03079 11.2757 6.92428 12.1859 8.36911 13.6307C9.81395 15.0755 10.7241 16.969 10.95 18.9998" stroke="#98A2B3" stroke-width="1.5" stroke-linecap="round"/>
</svg>
