<svg width="24" height="24" viewBox="0 0 24 24" fill="none" xmlns="http://www.w3.org/2000/svg">
<path d="M3.63063 8.36947L8.32394 3.67616C9.24967 2.75043 10.7642 2.76403 11.7067 3.70653C12.6492 4.64903 12.6628 6.16352 11.737 7.08925L3.69136 15.1349C2.76563 16.0607 2.77923 17.5751 3.72172 18.5176C4.66422 19.4601 6.17872 19.4737 7.10445 18.548L15.1501 10.5023C16.0758 9.57661 17.5903 9.59021 18.5328 10.5327C19.4753 11.4752 19.4897 12.9889 18.564 13.9146L15.5461 16.9326C13.7672 18.7114 16.2311 21.5866 18.2159 20.8363C18.7683 20.6275 21 18.9985 21 18.9985" stroke="#98A2B3" stroke-width="1.5" stroke-linecap="round" stroke-linejoin="round"/>
</svg>
