<svg width="24" height="24" viewBox="0 0 24 24" fill="none" xmlns="http://www.w3.org/2000/svg">
<path d="M10.8685 4.13137C11.2645 3.73536 11.4625 3.53735 11.6908 3.46316C11.8917 3.3979 12.108 3.3979 12.3089 3.46316C12.5372 3.53735 12.7352 3.73536 13.1312 4.13137L14.2312 5.23137C14.4042 5.40432 14.4906 5.4908 14.5916 5.55264C14.681 5.60747 14.7786 5.64787 14.8806 5.67237C14.9957 5.7 15.118 5.7 15.3626 5.7H16.6998C17.2599 5.7 17.5399 5.7 17.7538 5.809C17.942 5.90487 18.095 6.05785 18.1909 6.24601C18.2998 6.45992 18.2998 6.73995 18.2998 7.3V8.63726C18.2998 8.88185 18.2998 9.00415 18.3275 9.11923C18.352 9.22127 18.3924 9.31881 18.4472 9.40829C18.5091 9.5092 18.5955 9.59568 18.7685 9.76863L19.8685 10.8686C20.2645 11.2646 20.4625 11.4627 20.5367 11.691C20.6019 11.8918 20.6019 12.1082 20.5367 12.309C20.4625 12.5373 20.2645 12.7354 19.8685 13.1314L18.7685 14.2314C18.5955 14.4043 18.5091 14.4908 18.4472 14.5917C18.3924 14.6812 18.352 14.7787 18.3275 14.8808C18.2998 14.9959 18.2998 15.1182 18.2998 15.3627V16.7C18.2998 17.2601 18.2998 17.5401 18.1909 17.754C18.095 17.9422 17.942 18.0951 17.7538 18.191C17.5399 18.3 17.2599 18.3 16.6998 18.3H15.3626C15.118 18.3 14.9957 18.3 14.8806 18.3276C14.7786 18.3521 14.681 18.3925 14.5916 18.4474C14.4906 18.5092 14.4042 18.5957 14.2312 18.7686L13.1312 19.8686C12.7352 20.2646 12.5372 20.4627 12.3089 20.5368C12.108 20.6021 11.8917 20.6021 11.6908 20.5368C11.4625 20.4627 11.2645 20.2646 10.8685 19.8686L9.76848 18.7686C9.59553 18.5957 9.50905 18.5092 9.40813 18.4474C9.31866 18.3925 9.22112 18.3521 9.11908 18.3276C9.00399 18.3 8.8817 18.3 8.63711 18.3H7.29985C6.7398 18.3 6.45977 18.3 6.24586 18.191C6.0577 18.0951 5.90472 17.9422 5.80884 17.754C5.69985 17.5401 5.69985 17.2601 5.69985 16.7V15.3627C5.69985 15.1182 5.69985 14.9959 5.67222 14.8808C5.64772 14.7787 5.60732 14.6812 5.55249 14.5917C5.49065 14.4908 5.40417 14.4043 5.23122 14.2314L4.13122 13.1314C3.7352 12.7354 3.53719 12.5373 3.46301 12.309C3.39775 12.1082 3.39775 11.8918 3.46301 11.691C3.53719 11.4627 3.7352 11.2646 4.13122 10.8686L5.23122 9.76863C5.40417 9.59568 5.49065 9.5092 5.55249 9.40829C5.60732 9.31881 5.64772 9.22127 5.67222 9.11923C5.69985 9.00415 5.69985 8.88185 5.69985 8.63726V7.3C5.69985 6.73995 5.69985 6.45992 5.80884 6.24601C5.90472 6.05785 6.0577 5.90487 6.24586 5.809C6.45977 5.7 6.7398 5.7 7.29985 5.7H8.63711C8.8817 5.7 9.00399 5.7 9.11908 5.67237C9.22112 5.64787 9.31866 5.60747 9.40813 5.55264C9.50905 5.4908 9.59553 5.40432 9.76848 5.23137L10.8685 4.13137Z" stroke="#98A2B3" stroke-width="1.5" stroke-linecap="round" stroke-linejoin="round"/>
</svg>
