<svg width="24" height="24" viewBox="0 0 24 24" fill="none" xmlns="http://www.w3.org/2000/svg">
<path d="M11.9998 7.99997V13M11.9998 16H12.0098M18.7685 14.2313L19.8685 13.1313C20.2645 12.7353 20.4625 12.5373 20.5367 12.309C20.6019 12.1081 20.6019 11.8918 20.5367 11.691C20.4625 11.4626 20.2645 11.2646 19.8685 10.8686L18.7685 9.7686C18.5955 9.59565 18.5091 9.50917 18.4472 9.40826C18.3924 9.31878 18.352 9.22124 18.3275 9.1192C18.2998 9.00412 18.2998 8.88182 18.2998 8.63723V7.29997C18.2998 6.73992 18.2998 6.45989 18.1909 6.24598C18.095 6.05782 17.942 5.90484 17.7538 5.80896C17.5399 5.69997 17.2599 5.69997 16.6998 5.69997H15.3626C15.118 5.69997 14.9957 5.69997 14.8806 5.67234C14.7786 5.64784 14.681 5.60744 14.5916 5.55261C14.4906 5.49077 14.4042 5.40429 14.2312 5.23134L13.1312 4.13134C12.7352 3.73532 12.5372 3.53732 12.3089 3.46313C12.108 3.39787 11.8917 3.39787 11.6908 3.46313C11.4625 3.53732 11.2645 3.73533 10.8685 4.13134L9.76848 5.23134C9.59553 5.40429 9.50905 5.49077 9.40813 5.55261C9.31866 5.60744 9.22112 5.64784 9.11908 5.67234C9.00399 5.69997 8.8817 5.69997 8.63711 5.69997H7.29985C6.7398 5.69997 6.45977 5.69997 6.24586 5.80896C6.0577 5.90484 5.90472 6.05782 5.80884 6.24598C5.69985 6.45989 5.69985 6.73992 5.69985 7.29997V8.63723C5.69985 8.88182 5.69985 9.00412 5.67222 9.1192C5.64772 9.22124 5.60732 9.31878 5.55249 9.40826C5.49065 9.50917 5.40417 9.59565 5.23122 9.7686L4.13122 10.8686C3.7352 11.2646 3.53719 11.4626 3.46301 11.691C3.39775 11.8918 3.39775 12.1081 3.46301 12.309C3.53719 12.5373 3.7352 12.7353 4.13122 13.1313L5.23122 14.2313C5.40417 14.4043 5.49065 14.4908 5.55249 14.5917C5.60732 14.6812 5.64772 14.7787 5.67222 14.8807C5.69985 14.9958 5.69985 15.1181 5.69985 15.3627V16.7C5.69985 17.26 5.69985 17.54 5.80884 17.754C5.90472 17.9421 6.0577 18.0951 6.24586 18.191C6.45977 18.3 6.7398 18.3 7.29985 18.3H8.63711C8.8817 18.3 9.00399 18.3 9.11908 18.3276C9.22112 18.3521 9.31866 18.3925 9.40813 18.4473C9.50905 18.5092 9.59553 18.5956 9.76848 18.7686L10.8685 19.8686C11.2645 20.2646 11.4625 20.4626 11.6908 20.5368C11.8917 20.6021 12.108 20.6021 12.3089 20.5368C12.5372 20.4626 12.7352 20.2646 13.1312 19.8686L14.2312 18.7686C14.4042 18.5956 14.4906 18.5092 14.5916 18.4473C14.681 18.3925 14.7786 18.3521 14.8806 18.3276C14.9957 18.3 15.118 18.3 15.3626 18.3H16.6998C17.2599 18.3 17.5399 18.3 17.7538 18.191C17.942 18.0951 18.095 17.9421 18.1909 17.754C18.2998 17.54 18.2998 17.26 18.2998 16.7V15.3627C18.2998 15.1181 18.2998 14.9958 18.3275 14.8807C18.352 14.7787 18.3924 14.6812 18.4472 14.5917C18.5091 14.4908 18.5955 14.4043 18.7685 14.2313Z" stroke="#98A2B3" stroke-width="1.5" stroke-linecap="round" stroke-linejoin="round"/>
</svg>
