<svg width="24" height="24" viewBox="0 0 24 24" fill="none" xmlns="http://www.w3.org/2000/svg">
<path d="M11.9999 18.5816V12.5M12.7972 18.754L15.8099 19.7625C17.4506 20.3118 18.2709 20.5864 18.7768 20.3894C19.2161 20.2182 19.5494 19.8505 19.6766 19.3965C19.8232 18.8738 19.4694 18.0843 18.7619 16.5053L14.2193 6.36711C13.5275 4.82301 13.1815 4.05096 12.6996 3.81173C12.281 3.60389 11.7893 3.6031 11.37 3.8096C10.8873 4.04728 10.5389 4.81821 9.8421 6.36008L5.25584 16.5082C4.54276 18.0861 4.18622 18.875 4.3312 19.3983C4.45711 19.8528 4.78943 20.2216 5.2284 20.394C5.73386 20.5926 6.55554 20.3198 8.1989 19.7744L11.2792 18.752C11.561 18.6585 11.7018 18.6118 11.8459 18.5933C11.9737 18.5769 12.1031 18.5771 12.2309 18.5938C12.3749 18.6126 12.5157 18.6597 12.7972 18.754Z" stroke="#98A2B3" stroke-width="1.5" stroke-linecap="round" stroke-linejoin="round"/>
</svg>
