<svg width="24" height="24" viewBox="0 0 24 24" fill="none" xmlns="http://www.w3.org/2000/svg">
<path d="M3.23584 12H13.9442M20.9998 16H18.4998M19.9998 12H18.4998M19.4998 8H18.4998M14.0382 11.5104L14.9298 8.55143C15.2673 7.43124 15.436 6.87115 15.2924 6.53669C15.1678 6.24631 14.9132 6.03194 14.6059 5.95852C14.2519 5.87396 13.7286 6.13556 12.6822 6.65877L4.86194 10.5689C3.94072 11.0295 3.48012 11.2598 3.33231 11.5715C3.20368 11.8427 3.20368 12.1573 3.33231 12.4285C3.48012 12.7402 3.94073 12.9705 4.86194 13.4311L12.693 17.3466C13.7365 17.8683 14.2582 18.1292 14.6119 18.045C14.919 17.9719 15.1735 17.758 15.2985 17.4682C15.4425 17.1343 15.2755 16.5754 14.9416 15.4576L14.0372 12.4299C13.9861 12.2589 13.9605 12.1734 13.9505 12.0864C13.9415 12.0091 13.9416 11.931 13.9507 11.8537C13.961 11.7667 13.9868 11.6812 14.0382 11.5104Z" stroke="#98A2B3" stroke-width="1.5" stroke-linecap="round" stroke-linejoin="round"/>
</svg>
