<svg width="24" height="24" viewBox="0 0 24 24" fill="none" xmlns="http://www.w3.org/2000/svg">
<path d="M11.4998 12H5.41823M5.24585 12.7972L4.24109 15.7985C3.69079 17.4424 3.41564 18.2643 3.6131 18.7704C3.78458 19.21 4.15287 19.5432 4.60731 19.67C5.13062 19.8161 5.92102 19.4604 7.50182 18.749L17.6362 14.1886C19.1792 13.4942 19.9507 13.1471 20.1891 12.6648C20.3963 12.2458 20.3963 11.7541 20.1891 11.3351C19.9507 10.8529 19.1792 10.5057 17.6362 9.81134L7.48434 5.24302C5.90831 4.53381 5.12029 4.17921 4.5975 4.32467C4.14348 4.451 3.77523 4.78336 3.60316 5.22209C3.40503 5.72727 3.67724 6.5474 4.22166 8.18767L5.2478 11.2793C5.34131 11.561 5.38806 11.7019 5.40651 11.8459C5.42289 11.9738 5.42273 12.1032 5.40602 12.231C5.38719 12.375 5.34008 12.5157 5.24585 12.7972Z" stroke="#98A2B3" stroke-width="1.5" stroke-linecap="round" stroke-linejoin="round"/>
</svg>
