<svg width="24" height="24" viewBox="0 0 24 24" fill="none" xmlns="http://www.w3.org/2000/svg">
<path d="M15.2458 13V15M15.2458 18H15.2558M8 8V12M20 7.2C20 6.0799 20 5.51984 19.782 5.09202C19.5903 4.71569 19.2843 4.40973 18.908 4.21799C18.4802 4 17.9201 4 16.8 4H7.2C6.0799 4 5.51984 4 5.09202 4.21799C4.71569 4.40973 4.40973 4.71569 4.21799 5.09202C4 5.51984 4 6.0799 4 7.2V16.8C4 17.9201 4 18.4802 4.21799 18.908C4.40973 19.2843 4.71569 19.5903 5.09202 19.782C5.21397 19.8441 5.34666 19.8886 5.5 19.9203M13.4236 21H17.0682C18.7826 21 19.6399 21 20.1561 20.6389C20.6069 20.3236 20.908 19.8366 20.9884 19.2924C21.0805 18.6691 20.6971 17.9024 19.9304 16.3689L18.1081 12.7244C17.1869 10.8819 16.7263 9.96072 16.103 9.66511C15.5606 9.40785 14.9313 9.40785 14.3889 9.66511C13.7656 9.96072 13.305 10.8819 12.3837 12.7244L10.5615 16.3689C9.79474 17.9024 9.41138 18.6691 9.50346 19.2924C9.58387 19.8366 9.88489 20.3236 10.3357 20.6389C10.852 21 11.7092 21 13.4236 21Z" stroke="#98A2B3" stroke-width="1.5" stroke-linecap="round" stroke-linejoin="round"/>
</svg>
