<svg width="24" height="24" viewBox="0 0 24 24" fill="none" xmlns="http://www.w3.org/2000/svg">
<path d="M23.5686 21.4558C22.13 20.733 20.4403 20.7771 19.0434 21.5466V17.5153C21.0367 15.601 22.1737 12.9461 22.1737 10.1745C22.1737 4.56426 17.6098 0 12 0C6.39015 0 1.82617 4.56426 1.82617 10.1745C1.82617 12.9461 2.96317 15.601 4.95657 17.5153V21.5465C3.55951 20.777 1.86986 20.733 0.43141 21.4558C0.0452077 21.6499 -0.110558 22.1203 0.0834576 22.5066C0.277473 22.8928 0.747675 23.0486 1.13411 22.8545C2.21552 22.3112 3.50823 22.4083 4.50784 23.108C6.20659 24.2973 8.40216 24.2973 10.101 23.108C11.2546 22.3005 12.7454 22.3005 13.899 23.108C14.7485 23.7027 15.7219 24 16.6956 24C17.6691 24 18.6428 23.7027 19.4922 23.108C20.4919 22.4082 21.7846 22.3112 22.8659 22.8545C23.2522 23.0486 23.7225 22.8927 23.9165 22.5066C24.1106 22.1203 23.9548 21.6499 23.5686 21.4558ZM17.4781 22.3353C16.8197 22.4983 16.1268 22.4531 15.4877 22.199C15.74 22.0691 15.9129 21.8066 15.9129 21.5033V18.0011C15.9129 17.5689 15.5625 17.2184 15.1304 17.2184C14.6982 17.2184 14.3478 17.5689 14.3478 18.0011V21.5033C14.3478 21.5181 14.3492 21.5327 14.35 21.5473C13.8524 21.2713 13.3229 21.0885 12.7826 20.999V19.5664C12.7826 19.1342 12.4322 18.7838 12 18.7838C11.5678 18.7838 11.2174 19.1342 11.2174 19.5664V20.999C10.5121 21.1159 9.82454 21.3909 9.20344 21.8257C8.39668 22.3905 7.42524 22.5598 6.51934 22.3346C6.52032 22.3185 6.52178 22.3024 6.52178 22.286V10.9571C7.41174 10.9571 7.20141 10.9571 8.08698 10.9571V13.3051C8.08698 13.7373 8.43737 14.0877 8.86955 14.0877C9.30174 14.0877 9.65213 13.7373 9.65213 13.3051V10.9571H14.3477V14.8704C14.3477 15.3026 14.6981 15.653 15.1303 15.653C15.5625 15.653 15.9129 15.3026 15.9129 14.8704V10.9571H17.4781V22.3353ZM6.57746 9.39183C6.95837 6.74035 9.24493 4.69589 11.9999 4.69589C14.7549 4.69589 17.041 6.74035 17.4219 9.39183C16.8746 9.39183 7.11704 9.39183 6.57746 9.39183ZM12 3.13058C8.11623 3.13058 4.95657 6.29046 4.95657 10.1745V15.1217C3.94811 13.6844 3.39137 11.958 3.39137 10.1745C3.39137 5.42738 7.25316 1.56527 12 1.56527C16.7467 1.56527 20.6085 5.42734 20.6085 10.1745C20.6085 11.958 20.0518 13.6844 19.0433 15.1217V10.1745C19.0433 6.29051 15.8836 3.13058 12 3.13058Z" fill="#98A2B3"/>
</svg>
