<svg width="24" height="24" viewBox="0 0 24 24" fill="none" xmlns="http://www.w3.org/2000/svg">
<path d="M14.9995 14V17.6C14.9995 18.4401 14.9995 18.8601 14.836 19.181C14.6922 19.4632 14.4628 19.6927 14.1805 19.8365C13.8596 20 13.4396 20 12.5995 20H7.39953C6.55945 20 6.13941 20 5.81854 19.8365C5.5363 19.6927 5.30683 19.4632 5.16302 19.181C4.99953 18.8601 4.99953 18.4401 4.99953 17.6V10M18.9995 10V20M4.99953 16H14.9995M5.5573 4.88446L3.57841 8.84223C3.38673 9.22559 3.29089 9.41727 3.31391 9.57308C3.33401 9.70914 3.40927 9.8309 3.52197 9.90973C3.65104 10 3.86534 10 4.29395 10H19.7051C20.1337 10 20.348 10 20.4771 9.90973C20.5898 9.8309 20.665 9.70914 20.6851 9.57308C20.7082 9.41727 20.6123 9.22559 20.4206 8.84223L18.4418 4.88446C18.2812 4.5634 18.201 4.40287 18.0812 4.28558C17.9753 4.18187 17.8477 4.10299 17.7076 4.05465C17.5491 4 17.3696 4 17.0107 4H6.98838C6.62942 4 6.44994 4 6.29149 4.05465C6.15136 4.10299 6.02374 4.18187 5.91784 4.28558C5.79809 4.40287 5.71783 4.5634 5.5573 4.88446Z" stroke="#98A2B3" stroke-width="1.5" stroke-linecap="round" stroke-linejoin="round"/>
</svg>
