<svg width="24" height="24" viewBox="0 0 24 24" fill="none" xmlns="http://www.w3.org/2000/svg">
<path d="M3 6.31375C4 3.89944 6.50004 2.62337 8 6.31371C8.35705 7.19216 8.55475 8.07061 8.61584 8.93155M8.61584 8.93155C8.89698 12.8932 6.2859 16.4842 3 18V13.3807C3 12.6053 3 12.2176 3.12436 11.8816C3.23425 11.5847 3.41306 11.3181 3.64607 11.1038C3.90975 10.8613 4.26849 10.7142 4.98596 10.42L8.61584 8.93155ZM8.61584 8.93155L12 7.5439L11.5 11.2343H14M10 15H12M19.5 16.0039V15C19.5 13.8954 18.6046 13 17.5 13C16.3954 13 15.5 13.8954 15.5 15V16.0039M15.6 20H19.4C19.9601 20 20.2401 20 20.454 19.891C20.6422 19.7951 20.7951 19.6422 20.891 19.454C21 19.2401 21 18.9601 21 18.4V17.6C21 17.0399 21 16.7599 20.891 16.546C20.7951 16.3578 20.6422 16.2049 20.454 16.109C20.2401 16 19.9601 16 19.4 16H15.6C15.0399 16 14.7599 16 14.546 16.109C14.3578 16.2049 14.2049 16.3578 14.109 16.546C14 16.7599 14 17.0399 14 17.6V18.4C14 18.9601 14 19.2401 14.109 19.454C14.2049 19.6422 14.3578 19.7951 14.546 19.891C14.7599 20 15.0399 20 15.6 20Z" stroke="#98A2B3" stroke-width="1.5" stroke-linecap="round" stroke-linejoin="round"/>
</svg>
