<svg width="24" height="24" viewBox="0 0 24 24" fill="none" xmlns="http://www.w3.org/2000/svg">
<path d="M7.9313 8.99999H16.0686C16.6744 8.99999 16.9773 8.99999 17.1175 8.88019C17.2393 8.77624 17.3038 8.62032 17.2913 8.46076C17.2768 8.27687 17.0626 8.06268 16.6342 7.6343L12.5656 3.56567C12.3676 3.36766 12.2686 3.26866 12.1544 3.23156C12.054 3.19894 11.9458 3.19894 11.8454 3.23156C11.7313 3.26866 11.6323 3.36766 11.4342 3.56567L7.36561 7.6343C6.93724 8.06267 6.72305 8.27687 6.70858 8.46076C6.69602 8.62032 6.76061 8.77624 6.88231 8.88019C7.02257 8.99999 7.32548 8.99999 7.9313 8.99999Z" stroke="#98A2B3" stroke-width="1.5" stroke-linecap="round" stroke-linejoin="round"/>
</svg>
