<svg width="24" height="24" viewBox="0 0 24 24" fill="none" xmlns="http://www.w3.org/2000/svg">
<path d="M16.0686 15H7.9313C7.32548 15 7.02257 15 6.88231 15.1198C6.76061 15.2237 6.69602 15.3797 6.70858 15.5392C6.72305 15.7231 6.93724 15.9373 7.36561 16.3657L11.4342 20.4343C11.6323 20.6323 11.7313 20.7313 11.8454 20.7684C11.9458 20.801 12.054 20.801 12.1544 20.7684C12.2686 20.7313 12.3676 20.6323 12.5656 20.4343L16.6342 16.3657C17.0626 15.9373 17.2768 15.7231 17.2913 15.5392C17.3038 15.3797 17.2392 15.2237 17.1175 15.1198C16.9773 15 16.6744 15 16.0686 15Z" stroke="#98A2B3" stroke-width="1.5" stroke-linecap="round" stroke-linejoin="round"/>
<path d="M7.9313 8.99999H16.0686C16.6744 8.99999 16.9773 8.99999 17.1175 8.88019C17.2393 8.77624 17.3038 8.62032 17.2913 8.46076C17.2768 8.27687 17.0626 8.06268 16.6342 7.6343L12.5656 3.56567C12.3676 3.36766 12.2686 3.26866 12.1544 3.23156C12.054 3.19894 11.9458 3.19894 11.8454 3.23156C11.7313 3.26866 11.6323 3.36766 11.4342 3.56567L7.36561 7.6343C6.93724 8.06267 6.72305 8.27687 6.70858 8.46076C6.69602 8.62032 6.76061 8.77624 6.88231 8.88019C7.02257 8.99999 7.32548 8.99999 7.9313 8.99999Z" stroke="#98A2B3" stroke-width="1.5" stroke-linecap="round" stroke-linejoin="round"/>
</svg>
