<svg width="24" height="24" viewBox="0 0 24 24" fill="none" xmlns="http://www.w3.org/2000/svg">
<path d="M15.2747 12.3523C15.9352 11.1532 16.2998 9.72915 16.2998 8.14884L14.9909 7.82158C14.642 7.73435 14.2823 7.91828 14.1487 8.25222L13.5761 9.68369C13.4812 9.92091 13.5193 10.1907 13.6762 10.3924L15.2747 12.3523ZM15.2747 12.3523C14.5386 13.6887 13.4349 14.7457 12.0588 15.4283M12.0588 15.4283C10.9231 15.9916 9.60189 16.3 8.14849 16.3L7.82138 14.9911C7.73415 14.6422 7.91808 14.2825 8.25202 14.1489L9.6262 13.5993C9.89333 13.4924 10.1984 13.555 10.4019 13.7585L12.0588 15.4283ZM7.19902 3.99922H16.799C17.9191 3.99922 18.4792 3.99922 18.907 4.21721C19.2833 4.40896 19.5893 4.71492 19.781 5.09124C19.999 5.51906 19.999 6.07912 19.999 7.19922V16.7992C19.999 17.9193 19.999 18.4794 19.781 18.9072C19.5893 19.2835 19.2833 19.5895 18.907 19.7812C18.4792 19.9992 17.9191 19.9992 16.799 19.9992H7.19902C6.07892 19.9992 5.51887 19.9992 5.09104 19.7812C4.71472 19.5895 4.40876 19.2835 4.21701 18.9072C3.99902 18.4794 3.99902 17.9193 3.99902 16.7992V7.19922C3.99902 6.07912 3.99902 5.51906 4.21701 5.09124C4.40876 4.71492 4.71472 4.40896 5.09104 4.21721C5.51887 3.99922 6.07892 3.99922 7.19902 3.99922Z" stroke="#98A2B3" stroke-width="1.5" stroke-linecap="round" stroke-linejoin="round"/>
</svg>
