<svg width="24" height="24" viewBox="0 0 24 24" fill="none" xmlns="http://www.w3.org/2000/svg">
<path d="M8 16C8.92856 13.5239 10.7156 8.71564 11.0016 7.9462C11.0143 7.91195 11.0206 7.89482 11.0342 7.8646C11.0421 7.84706 11.0645 7.80251 11.0739 7.78573C11.0901 7.75682 11.0933 7.7518 11.0999 7.74176C11.5608 7.03295 12.4399 7.03318 12.9006 7.74245C12.907 7.75243 12.9103 7.75741 12.9264 7.78613C12.9357 7.80279 12.958 7.84704 12.9658 7.86445C12.9793 7.89446 12.986 7.91255 12.9995 7.94874L14.882 13H9.12079M19.5 18H16.5M19.5 18C19.9659 18 20.1989 18 20.3827 18.0761C20.6277 18.1776 20.8224 18.3723 20.9239 18.6173C21 18.8011 21 19.0341 21 19.5C21 19.966 21 20.1989 20.9239 20.3827C20.8224 20.6277 20.6277 20.8224 20.3827 20.9239C20.1989 21 19.9659 21 19.5 21H16.5C16.0341 21 15.8011 21 15.6173 20.9239C15.3723 20.8224 15.1776 20.6277 15.0761 20.3827C15 20.1989 15 19.966 15 19.5C15 19.0341 15 18.8011 15.0761 18.6173C15.1776 18.3723 15.3723 18.1776 15.6173 18.0761C15.8011 18 16.0341 18 16.5 18M19.5 18V16.5C19.5 15.6716 18.8284 15 18 15C17.1716 15 16.5 15.6716 16.5 16.5V18M20 10.9994V7.19939C20 6.07928 20 5.51923 19.782 5.09141C19.5903 4.71508 19.2843 4.40912 18.908 4.21738C18.4802 3.99939 17.9201 3.99939 16.8 3.99939H7.2C6.0799 3.99939 5.51984 3.99939 5.09202 4.21738C4.71569 4.40912 4.40973 4.71508 4.21799 5.09141C4 5.51923 4 6.07928 4 7.19939V16.7994C4 17.9195 4 18.4795 4.21799 18.9074C4.40973 19.2837 4.71569 19.5897 5.09202 19.7814C5.51984 19.9994 6.0799 19.9994 7.2 19.9994H11" stroke="#98A2B3" stroke-width="1.5" stroke-linecap="round" stroke-linejoin="round"/>
</svg>
