<svg width="24" height="24" viewBox="0 0 24 24" fill="none" xmlns="http://www.w3.org/2000/svg">
<path d="M12.0002 3.19373V17.373M8.73418 8.66941L4.21201 9.20559C3.66374 9.2706 3.38961 9.3031 3.26591 9.43076C3.15841 9.54172 3.10823 9.69614 3.12999 9.8491C3.15502 10.0251 3.35769 10.2125 3.76304 10.5874L7.1064 13.6792C7.22635 13.7901 7.28633 13.8456 7.32455 13.9126C7.35837 13.9719 7.37969 14.0375 7.38719 14.1054C7.39566 14.1821 7.37974 14.2622 7.3479 14.4225L6.4604 18.889C6.3528 19.4305 6.299 19.7013 6.3822 19.8584C6.4545 19.9949 6.58586 20.0903 6.73805 20.1169C6.91317 20.1475 7.15405 20.0127 7.63582 19.743L11.6095 17.5187C11.7521 17.4389 11.8233 17.399 11.8989 17.3834C11.9657 17.3695 12.0347 17.3695 12.1016 17.3834C12.1771 17.399 12.2484 17.4389 12.391 17.5187L16.3647 19.743C16.8464 20.0127 17.0873 20.1475 17.2624 20.1169C17.4146 20.0903 17.546 19.9949 17.6183 19.8584C17.7015 19.7013 17.6477 19.4305 17.5401 18.889L16.6526 14.4225C16.6207 14.2622 16.6048 14.1821 16.6133 14.1054C16.6208 14.0375 16.6421 13.9719 16.6759 13.9126C16.7142 13.8456 16.7741 13.7901 16.8941 13.6792L20.2374 10.5874C20.6428 10.2125 20.8455 10.0251 20.8705 9.8491C20.8922 9.69614 20.8421 9.54172 20.7346 9.43076C20.6109 9.3031 20.3367 9.2706 19.7885 9.20559L15.2663 8.66941C15.1041 8.65018 15.0229 8.64056 14.9526 8.6088C14.8904 8.5807 14.8346 8.54015 14.7886 8.48966C14.7367 8.4326 14.7025 8.35842 14.634 8.21006L12.7267 4.0749C12.4954 3.57356 12.3798 3.32288 12.2202 3.24469C12.0814 3.17674 11.9191 3.17674 11.7803 3.24469C11.6207 3.32288 11.505 3.57356 11.2738 4.0749L9.36643 8.21006C9.298 8.35842 9.26378 8.4326 9.21186 8.48966C9.1659 8.54015 9.11009 8.5807 9.04786 8.6088C8.97755 8.64056 8.89643 8.65018 8.73418 8.66941Z" stroke="#98A2B3" stroke-width="1.5" stroke-linecap="round" stroke-linejoin="round"/>
</svg>
