<svg width="24" height="24" viewBox="0 0 24 24" fill="none" xmlns="http://www.w3.org/2000/svg">
<path d="M8.30509 19.3711L11.9999 16.8L11.9999 4.4476V4.44758C11.9999 4.18085 11.9999 4.04746 11.9665 4.01764C11.9378 3.99205 11.897 3.98516 11.8615 3.99992C11.8202 4.01712 11.7764 4.1431 11.6888 4.39506L9.94912 9.39991C9.88324 9.58944 9.8503 9.6842 9.79095 9.75478C9.73851 9.81712 9.67164 9.8657 9.59614 9.89631C9.51068 9.93095 9.41038 9.933 9.20977 9.93708L5.26591 10.0175C4.56106 10.0318 4.20863 10.039 4.06798 10.1733C3.94626 10.2894 3.89114 10.4591 3.92133 10.6246C3.9562 10.8159 4.2371 11.0289 4.79889 11.4548L7.9423 13.8379C8.1022 13.9592 8.18214 14.0198 8.23092 14.098C8.274 14.1672 8.29955 14.2458 8.30533 14.327C8.31187 14.419 8.28281 14.5151 8.22471 14.7071L7.08243 18.4828C6.87828 19.1576 6.7762 19.495 6.86042 19.6702C6.93331 19.8219 7.0776 19.9267 7.24437 19.9492C7.43707 19.9751 7.72641 19.7738 8.30509 19.3711Z" stroke="#98A2B3" stroke-width="1.5" stroke-linecap="round" stroke-linejoin="round"/>
</svg>
