<svg width="24" height="24" viewBox="0 0 24 24" fill="none" xmlns="http://www.w3.org/2000/svg">
<path d="M11.2444 4.17394C11.4759 3.50802 11.5916 3.17507 11.7628 3.08279C11.9109 3.00292 12.0892 3.00292 12.2374 3.08279C12.4085 3.17507 12.5242 3.50802 12.7557 4.17394L14.286 8.57633C14.3519 8.76586 14.3848 8.86062 14.4442 8.93119C14.4966 8.99353 14.5635 9.04212 14.639 9.07272C14.7244 9.10737 14.8247 9.10941 15.0253 9.1135L19.6851 9.20846C20.39 9.22282 20.7424 9.23001 20.8831 9.36426C21.0048 9.48045 21.0599 9.65008 21.0297 9.81563C20.9948 10.0069 20.7139 10.2199 20.1521 10.6458L16.4381 13.4616C16.2782 13.5828 16.1983 13.6434 16.1495 13.7217C16.1064 13.7908 16.0809 13.8694 16.0751 13.9507C16.0685 14.0427 16.0976 14.1387 16.1557 14.3307L17.5053 18.7918C17.7095 19.4666 17.8116 19.804 17.7274 19.9793C17.6545 20.1309 17.5102 20.2358 17.3434 20.2582C17.1507 20.2842 16.8614 20.0828 16.2827 19.6801L12.457 17.018C12.2923 16.9034 12.21 16.8461 12.1205 16.8239C12.0414 16.8043 11.9587 16.8043 11.8797 16.8239C11.7902 16.8461 11.7078 16.9034 11.5431 17.018L7.71744 19.6801C7.13876 20.0828 6.84942 20.2842 6.65672 20.2582C6.48994 20.2358 6.34565 20.1309 6.27276 19.9793C6.18854 19.804 6.29062 19.4666 6.49477 18.7918L7.84442 14.3307C7.90252 14.1387 7.93157 14.0427 7.92503 13.9507C7.91925 13.8694 7.89371 13.7908 7.85062 13.7217C7.80185 13.6434 7.7219 13.5828 7.56201 13.4616L3.84797 10.6458C3.28617 10.2199 3.00527 10.0069 2.9704 9.81563C2.94021 9.65008 2.99533 9.48045 3.11706 9.36426C3.2577 9.23001 3.61013 9.22282 4.31498 9.20846L8.97479 9.1135C9.17539 9.10941 9.2757 9.10737 9.36116 9.07272C9.43665 9.04212 9.50352 8.99353 9.55596 8.93119C9.61532 8.86062 9.64826 8.76586 9.71414 8.57633L11.2444 4.17394Z" stroke="#98A2B3" stroke-width="1.5" stroke-linecap="round" stroke-linejoin="round"/>
</svg>
