<svg width="24" height="24" viewBox="0 0 24 24" fill="none" xmlns="http://www.w3.org/2000/svg">
<path d="M11.3184 3.61186C11.544 3.24407 11.6568 3.06017 11.8018 2.99742C11.9285 2.94263 12.0722 2.94263 12.1988 2.99742C12.3439 3.06017 12.4567 3.24407 12.6823 3.61186L14.6672 6.84816C14.7523 6.98685 14.7948 7.05619 14.8529 7.10662C14.9042 7.15125 14.9641 7.18493 15.0289 7.2056C15.1021 7.22897 15.1835 7.22927 15.3462 7.22989L19.2513 7.24467C19.7127 7.24641 19.9434 7.24729 20.0751 7.34457C20.1898 7.4294 20.2629 7.55924 20.2758 7.70138C20.2906 7.86438 20.1716 8.06203 19.9336 8.45735L18.0488 11.5873C17.9585 11.7373 17.9133 11.8123 17.8957 11.8924C17.8801 11.9633 17.8801 12.0367 17.8957 12.1076C17.9133 12.1877 17.9585 12.2627 18.0488 12.4127L19.9336 15.5427C20.1716 15.938 20.2906 16.1356 20.2758 16.2986C20.2629 16.4408 20.1898 16.5706 20.0751 16.6554C19.9434 16.7527 19.7127 16.7536 19.2513 16.7553L15.3462 16.7701C15.1835 16.7707 15.1021 16.771 15.0289 16.7944C14.9641 16.8151 14.9042 16.8488 14.8529 16.8934C14.7948 16.9438 14.7523 17.0132 14.6672 17.1518L12.6823 20.3881C12.4567 20.7559 12.3439 20.9398 12.1988 21.0026C12.0722 21.0574 11.9285 21.0574 11.8018 21.0026C11.6568 20.9398 11.544 20.7559 11.3184 20.3881L9.33344 17.1518C9.24838 17.0132 9.20584 16.9438 9.14784 16.8934C9.0965 16.8488 9.03659 16.8151 8.97179 16.7944C8.89856 16.771 8.81722 16.7707 8.65452 16.7701L4.74942 16.7553C4.28797 16.7536 4.05725 16.7527 3.92562 16.6554C3.81085 16.5706 3.73779 16.4408 3.72487 16.2986C3.71004 16.1356 3.82906 15.938 4.0671 15.5427L5.95184 12.4127C6.04218 12.2627 6.08734 12.1877 6.10499 12.1076C6.1206 12.0367 6.1206 11.9633 6.10499 11.8924C6.08734 11.8123 6.04218 11.7373 5.95184 11.5873L4.0671 8.45735C3.82906 8.06203 3.71004 7.86438 3.72487 7.70138C3.73779 7.55924 3.81085 7.4294 3.92562 7.34457C4.05725 7.24729 4.28797 7.24641 4.74942 7.24467L8.65452 7.22989C8.81722 7.22927 8.89856 7.22897 8.97179 7.2056C9.03659 7.18493 9.0965 7.15125 9.14784 7.10662C9.20584 7.05619 9.24838 6.98685 9.33344 6.84816L11.3184 3.61186Z" stroke="#98A2B3" stroke-width="1.5" stroke-linecap="round" stroke-linejoin="round"/>
</svg>
