<svg width="24" height="24" viewBox="0 0 24 24" fill="none" xmlns="http://www.w3.org/2000/svg">
<path d="M3 11L5.82341 9.78997C6.06208 9.68768 6.18142 9.63653 6.2562 9.5512C6.32206 9.47606 6.36389 9.38291 6.3763 9.28377C6.39039 9.17118 6.34934 9.04801 6.26722 8.80167L5.65307 6.95921C5.4418 6.32541 5.33617 6.0085 5.41069 5.79334C5.47559 5.606 5.62012 5.45701 5.80542 5.38647C6.01822 5.30547 6.33818 5.40145 6.9781 5.59343L8.6504 6.09512C9.12832 6.2385 9.36728 6.31018 9.58513 6.27909C9.77707 6.2517 9.95691 6.1691 10.1028 6.04135C10.2683 5.89635 10.3696 5.66837 10.5723 5.21242L11.0204 4.20411C11.3306 3.50605 11.4858 3.15701 11.7019 3.04963C11.8897 2.95637 12.1103 2.95637 12.2981 3.04963C12.5142 3.15701 12.6694 3.50604 12.9796 4.20411L13.4277 5.21242C13.6304 5.66836 13.7317 5.89636 13.8972 6.04135C14.0431 6.1691 14.2229 6.2517 14.4149 6.27909C14.6327 6.31018 14.8717 6.2385 15.3496 6.09512L17.0219 5.59343C17.6618 5.40145 17.9818 5.30547 18.1946 5.38647C18.3799 5.45701 18.5244 5.606 18.5893 5.79334C18.6638 6.0085 18.5582 6.3254 18.3469 6.95922L17.7328 8.80167C17.6507 9.04801 17.6096 9.17118 17.6237 9.28377C17.6361 9.38291 17.6779 9.47606 17.7438 9.5512C17.8186 9.63653 17.9379 9.68768 18.1766 9.78997L21 11M10 11C10 9.89543 10.8954 9 12 9C13.1046 9 14 9.89543 14 11M13 21H21M17 15H21M5 15H13M3 18H19M5 21H9" stroke="#98A2B3" stroke-width="1.5" stroke-linecap="round" stroke-linejoin="round"/>
</svg>
