<svg width="24" height="24" viewBox="0 0 24 24" fill="none" xmlns="http://www.w3.org/2000/svg">
<path d="M15 12C15 13.6569 13.6568 15 12 15C10.3431 15 8.99998 13.6569 8.99998 12C8.99998 10.3432 10.3431 9.00001 12 9.00001C13.6568 9.00001 15 10.3432 15 12Z" stroke="#98A2B3" stroke-width="1.5" stroke-linecap="round" stroke-linejoin="round"/>
<path d="M7.64332 5.18896L7.56695 6.10538C7.52701 6.58475 7.50703 6.82443 7.40366 7.01164C7.31255 7.17667 7.17664 7.31258 7.01161 7.40369C6.8244 7.50706 6.58471 7.52704 6.10535 7.56698L5.18892 7.64335C4.16253 7.72889 3.64934 7.77165 3.39636 8.00611C3.17621 8.21015 3.05935 8.50229 3.07806 8.80187C3.09955 9.14612 3.44168 9.53102 4.12594 10.3008L4.69147 10.937C5.0258 11.3131 5.19296 11.5012 5.25644 11.7134C5.31237 11.9004 5.31237 12.0996 5.25644 12.2866C5.19296 12.4988 5.0258 12.6869 4.69147 13.063L4.12594 13.6992C3.44168 14.469 3.09955 14.8539 3.07806 15.1981C3.05935 15.4977 3.17621 15.7899 3.39636 15.9939C3.64934 16.2284 4.16253 16.2711 5.18892 16.3567L6.10535 16.433C6.58472 16.473 6.8244 16.493 7.01161 16.5963C7.17664 16.6874 7.31255 16.8233 7.40366 16.9884C7.50703 17.1756 7.52701 17.4153 7.56695 17.8946L7.64332 18.8111C7.72885 19.8375 7.77162 20.3506 8.00608 20.6036C8.21012 20.8238 8.50226 20.9406 8.80184 20.9219C9.14609 20.9004 9.53098 20.5583 10.3008 19.874L10.937 19.3085C11.3131 18.9742 11.5012 18.807 11.7134 18.7435C11.9004 18.6876 12.0996 18.6876 12.2866 18.7435C12.4988 18.807 12.6868 18.9742 13.063 19.3085L13.6992 19.874C14.469 20.5583 14.8539 20.9004 15.1981 20.9219C15.4977 20.9406 15.7898 20.8238 15.9939 20.6036C16.2283 20.3506 16.2711 19.8375 16.3566 18.8111L16.433 17.8946C16.4729 17.4153 16.4929 17.1756 16.5963 16.9884C16.6874 16.8233 16.8233 16.6874 16.9883 16.5963C17.1756 16.493 17.4152 16.473 17.8946 16.433L18.811 16.3567C19.8374 16.2711 20.3506 16.2284 20.6036 15.9939C20.8237 15.7899 20.9406 15.4977 20.9219 15.1981C20.9004 14.8539 20.5583 14.469 19.874 13.6992L19.3085 13.063C18.9742 12.6869 18.807 12.4988 18.7435 12.2866C18.6876 12.0996 18.6876 11.9004 18.7435 11.7134C18.807 11.5012 18.9742 11.3131 19.3085 10.937L19.874 10.3008C20.5583 9.53101 20.9004 9.14612 20.9219 8.80187C20.9406 8.50229 20.8237 8.21015 20.6036 8.00611C20.3506 7.77165 19.8374 7.72889 18.811 7.64335L17.8946 7.56698C17.4152 7.52704 17.1756 7.50706 16.9883 7.40369C16.8233 7.31258 16.6874 7.17667 16.5963 7.01164C16.4929 6.82443 16.4729 6.58475 16.433 6.10538L16.3566 5.18895C16.2711 4.16256 16.2283 3.64937 15.9939 3.39639C15.7898 3.17624 15.4977 3.05938 15.1981 3.07809C14.8539 3.09958 14.469 3.44171 13.6992 4.12597L13.063 4.6915C12.6868 5.02583 12.4988 5.19299 12.2866 5.25647C12.0996 5.3124 11.9004 5.3124 11.7134 5.25647C11.5012 5.19299 11.3131 5.02583 10.937 4.6915L10.3008 4.12597C9.53098 3.44171 9.14609 3.09958 8.80184 3.07809C8.50226 3.05938 8.21012 3.17624 8.00608 3.39639C7.77162 3.64937 7.72885 4.16256 7.64332 5.18896Z" stroke="#98A2B3" stroke-width="1.5" stroke-linecap="round" stroke-linejoin="round"/>
</svg>
