<svg width="24" height="24" viewBox="0 0 24 24" fill="none" xmlns="http://www.w3.org/2000/svg">
<path d="M20.9999 21L21.007 21.0071M20.9999 16L21.007 16.0071M20.9999 11L21.007 11.0071M18.4999 13.5L18.507 13.5071M13.4999 18.5L13.507 18.5071M18.4999 18.5L18.507 18.5071M15.9999 16L16.007 16.0071M10.9999 21L11.007 21.0071M15.9999 21L16.007 21.0071M7.21017 17.9253C6.99916 17.6747 6.96833 17.2136 6.90669 16.2913L6.85208 15.4742C6.82539 15.0749 6.81205 14.8753 6.73526 14.7082C6.66742 14.5605 6.5646 14.4315 6.43572 14.3325C6.28982 14.2205 6.09818 14.1631 5.71491 14.0482L4.93038 13.8131C4.04498 13.5478 3.60228 13.4151 3.40494 13.1537C3.23286 12.9257 3.1665 12.6349 3.22261 12.3548C3.28696 12.0336 3.62826 11.722 4.31086 11.0988L4.9157 10.5466C5.21118 10.2769 5.35893 10.142 5.44175 9.9777C5.51492 9.83258 5.55161 9.67182 5.54866 9.50932C5.54531 9.32538 5.47072 9.13975 5.32155 8.76848L5.0162 8.00854C4.67159 7.15089 4.49929 6.72206 4.58068 6.40474C4.65166 6.12804 4.83758 5.8949 5.09155 5.76414C5.3828 5.61417 5.83922 5.68673 6.75205 5.83185L7.56088 5.96044C7.95603 6.02326 8.15361 6.05468 8.33368 6.01701C8.49276 5.98373 8.64133 5.91218 8.76653 5.80856C8.90826 5.69126 9.00689 5.5172 9.20414 5.16909L9.60791 4.45655C10.0636 3.65239 10.2914 3.2503 10.5903 3.11609C10.8509 2.99906 11.149 2.99906 11.4096 3.11609C11.7085 3.2503 11.9363 3.65239 12.392 4.45655L12.7958 5.16909C12.993 5.5172 13.0916 5.69126 13.2334 5.80856C13.3586 5.91218 13.5071 5.98373 13.6662 6.01701C13.8463 6.05468 14.0439 6.02326 14.439 5.96044L15.2479 5.83185C16.1607 5.68673 16.6171 5.61417 16.9084 5.76414C17.1623 5.8949 17.3482 6.12804 17.4192 6.40474C17.5006 6.72206 17.3283 7.15089 16.9837 8.00854L16.6784 8.76848L16.3942 9.51211M12.9999 11C12.9999 12.1046 12.1045 13 10.9999 13C9.89537 13 8.99994 12.1046 8.99994 11C8.99994 9.89543 9.89537 9 10.9999 9C12.1045 9 12.9999 9.89543 12.9999 11Z" stroke="#98A2B3" stroke-width="1.5" stroke-linecap="round" stroke-linejoin="round"/>
</svg>
