<svg width="24" height="24" viewBox="0 0 24 24" fill="none" xmlns="http://www.w3.org/2000/svg">
<path d="M18 3L18.5303 2.46967C18.2374 2.17678 17.7626 2.17678 17.4697 2.46967L18 3ZM17.25 21C17.25 21.4142 17.5858 21.75 18 21.75C18.4142 21.75 18.75 21.4142 18.75 21H17.25ZM14.4697 5.46967C14.1768 5.76256 14.1768 6.23744 14.4697 6.53033C14.7626 6.82322 15.2374 6.82322 15.5303 6.53033L14.4697 5.46967ZM20.4697 6.53033C20.7626 6.82322 21.2374 6.82322 21.5303 6.53033C21.8232 6.23744 21.8232 5.76256 21.5303 5.46967L20.4697 6.53033ZM10 14.354H9.25C9.25 14.5368 9.31675 14.7133 9.4377 14.8503L10 14.354ZM4 14.354L4.5623 14.8503C4.68325 14.7133 4.75 14.5368 4.75 14.354H4ZM4 6H4.75H4ZM7.75 11.9998C7.75 11.5856 7.41421 11.2498 7 11.2498C6.58579 11.2498 6.25 11.5856 6.25 11.9998H7.75ZM7.5304 16.4696C7.23755 16.1766 6.76267 16.1766 6.46974 16.4694C6.17681 16.7623 6.17674 17.2372 6.4696 17.5301L7.5304 16.4696ZM6.47667 17.5372C6.76952 17.8301 7.2444 17.8302 7.53733 17.5373C7.83026 17.2444 7.83033 16.7696 7.53747 16.4766L6.47667 17.5372ZM17.25 3V21H18.75V3H17.25ZM15.5303 6.53033L18.5303 3.53033L17.4697 2.46967L14.4697 5.46967L15.5303 6.53033ZM17.4697 3.53033L20.4697 6.53033L21.5303 5.46967L18.5303 2.46967L17.4697 3.53033ZM10.25 16.9998C10.25 18.7948 8.79493 20.2498 7 20.2498V21.7498C9.62335 21.7498 11.75 19.6232 11.75 16.9998H10.25ZM7 20.2498C5.20507 20.2498 3.75 18.7948 3.75 16.9998H2.25C2.25 19.6232 4.37665 21.7498 7 21.7498V20.2498ZM9.4377 14.8503C9.94377 15.4237 10.25 16.1751 10.25 16.9998H11.75C11.75 15.7957 11.301 14.6946 10.5623 13.8577L9.4377 14.8503ZM3.75 16.9998C3.75 16.1751 4.05623 15.4237 4.5623 14.8503L3.4377 13.8577C2.69904 14.6946 2.25 15.7957 2.25 16.9998H3.75ZM9.25 6V14.354H10.75V6H9.25ZM4.75 14.354V6H3.25L3.25 14.354H4.75ZM7 3.75C8.24264 3.75 9.25 4.75736 9.25 6H10.75C10.75 3.92893 9.07107 2.25 7 2.25V3.75ZM7 2.25C4.92893 2.25 3.25 3.92893 3.25 6H4.75C4.75 4.75736 5.75736 3.75 7 3.75V2.25ZM7.25 16.9998C7.25 17.1379 7.13807 17.2498 7 17.2498V18.7498C7.9665 18.7498 8.75 17.9663 8.75 16.9998H7.25ZM7 17.2498C6.86193 17.2498 6.75 17.1379 6.75 16.9998H5.25C5.25 17.9663 6.0335 18.7498 7 18.7498V17.2498ZM6.75 16.9998C6.75 16.8618 6.86193 16.7498 7 16.7498V15.2498C6.0335 15.2498 5.25 16.0333 5.25 16.9998H6.75ZM7 16.7498C7.13807 16.7498 7.25 16.8618 7.25 16.9998H8.75C8.75 16.0333 7.9665 15.2498 7 15.2498V16.7498ZM7.75 15.9998V11.9998H6.25V15.9998H7.75ZM6.4696 17.5301L6.47667 17.5372L7.53747 16.4766L7.5304 16.4696L6.4696 17.5301Z" fill="#98A2B3"/>
</svg>
