<svg width="24" height="24" viewBox="0 0 24 24" fill="none" xmlns="http://www.w3.org/2000/svg">
<path d="M15 3.25C14.5858 3.25 14.25 3.58579 14.25 4C14.25 4.41421 14.5858 4.75 15 4.75V3.25ZM20 4.75C20.4142 4.75 20.75 4.41421 20.75 4C20.75 3.58579 20.4142 3.25 20 3.25V4.75ZM15 7.25C14.5858 7.25 14.25 7.58579 14.25 8C14.25 8.41421 14.5858 8.75 15 8.75V7.25ZM20 8.75C20.4142 8.75 20.75 8.41421 20.75 8C20.75 7.58579 20.4142 7.25 20 7.25V8.75ZM17 11.25C16.5858 11.25 16.25 11.5858 16.25 12C16.25 12.4142 16.5858 12.75 17 12.75V11.25ZM20 12.75C20.4142 12.75 20.75 12.4142 20.75 12C20.75 11.5858 20.4142 11.25 20 11.25V12.75ZM11 14.354H10.25C10.25 14.5368 10.3167 14.7133 10.4377 14.8503L11 14.354ZM5 14.354L5.5623 14.8503C5.68325 14.7133 5.75 14.5368 5.75 14.354H5ZM5 6H5.75H5ZM8.75 9C8.75 8.58579 8.41421 8.25 8 8.25C7.58579 8.25 7.25 8.58579 7.25 9H8.75ZM8.5304 16.4696C8.23755 16.1766 7.76267 16.1766 7.46974 16.4694C7.17681 16.7623 7.17674 17.2372 7.4696 17.5301L8.5304 16.4696ZM7.47667 17.5372C7.76952 17.8301 8.2444 17.8302 8.53733 17.5373C8.83026 17.2444 8.83033 16.7696 8.53747 16.4766L7.47667 17.5372ZM15 4.75H20V3.25H15V4.75ZM15 8.75H20V7.25H15V8.75ZM17 12.75H20V11.25H17V12.75ZM11.25 16.9998C11.25 18.7948 9.79493 20.2498 8 20.2498V21.7498C10.6234 21.7498 12.75 19.6232 12.75 16.9998H11.25ZM8 20.2498C6.20507 20.2498 4.75 18.7948 4.75 16.9998H3.25C3.25 19.6232 5.37665 21.7498 8 21.7498V20.2498ZM10.4377 14.8503C10.9438 15.4237 11.25 16.1751 11.25 16.9998H12.75C12.75 15.7957 12.301 14.6946 11.5623 13.8577L10.4377 14.8503ZM4.75 16.9998C4.75 16.1751 5.05623 15.4237 5.5623 14.8503L4.4377 13.8577C3.69904 14.6946 3.25 15.7957 3.25 16.9998H4.75ZM10.25 6V14.354H11.75V6H10.25ZM5.75 14.354V6H4.25L4.25 14.354H5.75ZM8 3.75C9.24264 3.75 10.25 4.75736 10.25 6H11.75C11.75 3.92893 10.0711 2.25 8 2.25V3.75ZM8 2.25C5.92893 2.25 4.25 3.92893 4.25 6H5.75C5.75 4.75736 6.75736 3.75 8 3.75V2.25ZM8.25 16.9998C8.25 17.1379 8.13807 17.2498 8 17.2498V18.7498C8.9665 18.7498 9.75 17.9663 9.75 16.9998H8.25ZM8 17.2498C7.86193 17.2498 7.75 17.1379 7.75 16.9998H6.25C6.25 17.9663 7.0335 18.7498 8 18.7498V17.2498ZM7.75 16.9998C7.75 16.8618 7.86193 16.7498 8 16.7498V15.2498C7.0335 15.2498 6.25 16.0333 6.25 16.9998H7.75ZM8 16.7498C8.13807 16.7498 8.25 16.8618 8.25 16.9998H9.75C9.75 16.0333 8.9665 15.2498 8 15.2498V16.7498ZM8.75 15.9998V9H7.25V15.9998H8.75ZM7.4696 17.5301L7.47667 17.5372L8.53747 16.4766L8.5304 16.4696L7.4696 17.5301Z" fill="#98A2B3"/>
</svg>
