<svg width="24" height="24" viewBox="0 0 24 24" fill="none" xmlns="http://www.w3.org/2000/svg">
<path d="M15 14.354H14.25C14.25 14.5368 14.3167 14.7133 14.4377 14.8503L15 14.354ZM9 14.354L9.5623 14.8503C9.68325 14.7133 9.75 14.5368 9.75 14.354H9ZM9 6H9.75H9ZM12.7571 10.501C12.7576 10.0868 12.4222 9.75053 12.008 9.75C11.5938 9.74947 11.2576 10.0848 11.2571 10.499L12.7571 10.501ZM12.5304 16.4696C12.2375 16.1766 11.7627 16.1766 11.4697 16.4694C11.1768 16.7623 11.1767 17.2372 11.4696 17.5301L12.5304 16.4696ZM11.4767 17.5372C11.7695 17.8301 12.2444 17.8302 12.5373 17.5373C12.8303 17.2444 12.8303 16.7696 12.5375 16.4766L11.4767 17.5372ZM15.25 16.9998C15.25 18.7948 13.7949 20.2498 12 20.2498V21.7498C14.6234 21.7498 16.75 19.6232 16.75 16.9998H15.25ZM12 20.2498C10.2051 20.2498 8.75 18.7948 8.75 16.9998H7.25C7.25 19.6232 9.37665 21.7498 12 21.7498V20.2498ZM14.4377 14.8503C14.9438 15.4237 15.25 16.1751 15.25 16.9998H16.75C16.75 15.7957 16.301 14.6946 15.5623 13.8577L14.4377 14.8503ZM8.75 16.9998C8.75 16.1751 9.05623 15.4237 9.5623 14.8503L8.4377 13.8577C7.69904 14.6946 7.25 15.7957 7.25 16.9998H8.75ZM14.25 6V14.354H15.75V6H14.25ZM9.75 14.354V6H8.25L8.25 14.354H9.75ZM12 3.75C13.2426 3.75 14.25 4.75736 14.25 6H15.75C15.75 3.92893 14.0711 2.25 12 2.25V3.75ZM12 2.25C9.92893 2.25 8.25 3.92893 8.25 6H9.75C9.75 4.75736 10.7574 3.75 12 3.75V2.25ZM12.25 16.9998C12.25 17.1379 12.1381 17.2498 12 17.2498V18.7498C12.9665 18.7498 13.75 17.9663 13.75 16.9998H12.25ZM12 17.2498C11.8619 17.2498 11.75 17.1379 11.75 16.9998H10.25C10.25 17.9663 11.0335 18.7498 12 18.7498V17.2498ZM11.75 16.9998C11.75 16.8618 11.8619 16.7498 12 16.7498V15.2498C11.0335 15.2498 10.25 16.0333 10.25 16.9998H11.75ZM12 16.7498C12.1381 16.7498 12.25 16.8618 12.25 16.9998H13.75C13.75 16.0333 12.9665 15.2498 12 15.2498V16.7498ZM12.75 16.0008L12.7571 10.501L11.2571 10.499L11.25 15.9989L12.75 16.0008ZM11.4696 17.5301L11.4767 17.5372L12.5375 16.4766L12.5304 16.4696L11.4696 17.5301Z" fill="#98A2B3"/>
</svg>
