<svg width="24" height="24" viewBox="0 0 24 24" fill="none" xmlns="http://www.w3.org/2000/svg">
<path d="M16.0171 16.3727L16.2668 15.6655L16.2668 15.6655L16.0171 16.3727ZM18.0774 17.1L17.8277 17.8072H17.8277L18.0774 17.1ZM19.098 16.0793L19.8053 15.8297L19.098 16.0793ZM18.5241 14.4535L17.8169 14.7032L18.5241 14.4535ZM18.9334 13.4655L18.6098 12.7889L18.6098 12.7889L18.9334 13.4655ZM20.4888 12.7217L20.8124 13.3983H20.8124L20.4888 12.7217ZM20.4888 11.2783L20.1652 11.9549L20.4888 11.2783ZM18.9334 10.5345L18.6098 11.2111H18.6098L18.9334 10.5345ZM18.5241 9.54646L19.2314 9.79611V9.79611L18.5241 9.54646ZM19.098 7.92068L18.3908 7.67103L19.098 7.92068ZM18.0774 6.90001L18.327 7.60724L18.0774 6.90001ZM16.4516 7.47391L16.2019 6.76668V6.76668L16.4516 7.47391ZM15.4636 7.06466L14.7843 7.38258L14.7869 7.38821L15.4636 7.06466ZM15.1765 4.68206C15.001 4.3069 14.5545 4.14511 14.1793 4.32069C13.8042 4.49627 13.6424 4.94273 13.818 5.31789L15.1765 4.68206ZM15.9811 7.58966L15.9063 8.33593H15.9063L15.9811 7.58966ZM15.7144 7.4792L15.2396 8.05977L15.2396 8.05977L15.7144 7.4792ZM19.3075 6.99805L18.5993 7.24498V7.24499L19.3075 6.99805ZM19 6.69055L18.7531 7.39874L19 6.69055ZM18.5188 10.2836L17.9383 10.7584L17.9383 10.7584L18.5188 10.2836ZM18.4084 10.017L17.6621 10.0917V10.0917L18.4084 10.017ZM18.4084 13.983L17.6621 13.9082L18.4084 13.983ZM18.5188 13.7164L19.0994 14.1912L18.5188 13.7164ZM19 17.3094L19.2469 18.0176L19.2469 18.0176L19 17.3094ZM19.3075 17.0019L18.5993 16.755V16.755L19.3075 17.0019ZM21.2893 12.2174L20.6139 11.8913L21.2893 12.2174ZM21.2893 11.7826L20.6139 12.1087V12.1087L21.2893 11.7826ZM15.526 16.3594L15.7368 17.0791L15.7368 17.0791L15.526 16.3594ZM14.7865 15.7944C14.3889 15.9109 14.1611 16.3275 14.2775 16.725C14.3939 17.1225 14.8106 17.3504 15.2081 17.234L14.7865 15.7944ZM13.998 13.25C13.5838 13.25 13.248 13.5858 13.248 14C13.248 14.4142 13.5838 14.75 13.998 14.75V13.25ZM14.9973 13.7329L14.622 13.0835L14.9973 13.7329ZM14.9973 10.2671L14.622 10.9165V10.9165L14.9973 10.2671ZM13.998 9.25C13.5838 9.25 13.248 9.58579 13.248 10C13.248 10.4142 13.5838 10.75 13.998 10.75V9.25ZM15.8351 16.3178L15.9488 15.5764L15.9488 15.5764L15.8351 16.3178ZM15.7107 16.3144L15.6376 15.5679L15.6375 15.5679L15.7107 16.3144ZM3.99805 14.354L4.56035 14.8503C4.6813 14.7133 4.74805 14.5368 4.74805 14.354H3.99805ZM9.99805 14.354H9.24805C9.24805 14.5368 9.31479 14.7133 9.43574 14.8503L9.99805 14.354ZM7.74098 10.499C7.74044 10.0848 7.40423 9.74947 6.99001 9.75C6.5758 9.75053 6.24044 10.0868 6.24098 10.501L7.74098 10.499ZM7.52845 17.5301C7.8213 17.2372 7.82124 16.7623 7.52831 16.4694C7.23537 16.1766 6.7605 16.1766 6.46765 16.4696L7.52845 17.5301ZM6.46057 16.4766C6.16772 16.7696 6.16779 17.2444 6.46072 17.5373C6.75365 17.8302 7.22852 17.8301 7.52138 17.5372L6.46057 16.4766ZM15.7675 17.08L17.8277 17.8072L18.327 16.3928L16.2668 15.6655L15.7675 17.08ZM19.8053 15.8297L19.2314 14.2039L17.8169 14.7032L18.3908 16.329L19.8053 15.8297ZM19.2569 14.1421L20.8124 13.3983L20.1652 12.0451L18.6098 12.7889L19.2569 14.1421ZM20.8124 10.6017L19.2569 9.85786L18.6098 11.2111L20.1652 11.9549L20.8124 10.6017ZM19.2314 9.79611L19.8053 8.17033L18.3908 7.67103L17.8169 9.29681L19.2314 9.79611ZM17.8277 6.19278L16.2019 6.76668L16.7012 8.18114L18.327 7.60724L17.8277 6.19278ZM16.1429 6.74674L15.1765 4.68206L13.818 5.31789L14.7843 7.38257L16.1429 6.74674ZM16.2019 6.76668C16.1405 6.78837 16.0938 6.80482 16.0536 6.81834C16.0134 6.83184 15.9893 6.83915 15.9741 6.8432C15.9441 6.85125 15.9851 6.8363 16.0559 6.8434L15.9063 8.33593C16.0882 8.35415 16.2446 8.32363 16.3621 8.29216C16.4706 8.2631 16.5924 8.21955 16.7012 8.18114L16.2019 6.76668ZM14.7869 7.38821C14.8367 7.49231 14.8921 7.60924 14.9483 7.70653C15.0091 7.81188 15.0981 7.94406 15.2396 8.05977L16.1892 6.89863C16.2443 6.94369 16.2627 6.98322 16.2471 6.95628C16.2393 6.94272 16.2274 6.92047 16.2085 6.8825C16.1896 6.8445 16.1683 6.79989 16.1402 6.7411L14.7869 7.38821ZM16.0559 6.8434C16.1048 6.8483 16.1512 6.86751 16.1892 6.89863L15.2396 8.05977C15.4299 8.21536 15.6617 8.31142 15.9063 8.33593L16.0559 6.8434ZM19.8053 8.17033C19.8894 7.93211 19.9704 7.7047 20.0181 7.51693C20.0623 7.34293 20.1212 7.05376 20.0157 6.75112L18.5993 7.24499C18.5736 7.17121 18.5745 7.1156 18.5753 7.09999C18.576 7.08786 18.5767 7.0989 18.5643 7.14754C18.5374 7.25351 18.4849 7.4046 18.3908 7.67103L19.8053 8.17033ZM18.327 7.60724C18.5934 7.51319 18.7445 7.46065 18.8505 7.43372C18.8991 7.42137 18.9102 7.42207 18.8981 7.42273C18.8825 7.42359 18.8268 7.42446 18.7531 7.39874L19.2469 5.98237C18.9443 5.87684 18.6551 5.93571 18.4811 5.97992C18.2933 6.02763 18.0659 6.10869 17.8277 6.19278L18.327 7.60724ZM20.0157 6.75112C19.8901 6.39102 19.607 6.10793 19.2469 5.98237L18.7531 7.39874C18.681 7.37362 18.6244 7.31701 18.5993 7.24498L20.0157 6.75112ZM19.2569 9.85786C19.1982 9.82975 19.1535 9.8084 19.1155 9.78952C19.0776 9.77065 19.0553 9.75873 19.0418 9.7509C19.0148 9.73534 19.0544 9.75374 19.0994 9.80883L17.9383 10.7584C18.054 10.8999 18.1862 10.9889 18.2915 11.0498C18.3888 11.106 18.5057 11.1613 18.6098 11.2111L19.2569 9.85786ZM17.8169 9.29681C17.7785 9.40562 17.7349 9.52743 17.7059 9.63596C17.6744 9.75348 17.6439 9.90988 17.6621 10.0917L19.1546 9.94218C19.1617 10.013 19.1468 10.054 19.1548 10.0239C19.1589 10.0088 19.1662 9.98462 19.1797 9.94443C19.1932 9.90421 19.2097 9.85757 19.2314 9.79611L17.8169 9.29681ZM19.0994 9.80884C19.1305 9.84689 19.1497 9.89327 19.1546 9.94217L17.6621 10.0917C17.6866 10.3363 17.7827 10.5682 17.9383 10.7584L19.0994 9.80884ZM19.2314 14.2039C19.2097 14.1424 19.1932 14.0958 19.1797 14.0556C19.1662 14.0154 19.1589 13.9912 19.1549 13.9761C19.1468 13.946 19.1617 13.987 19.1546 14.0578L17.6621 13.9082C17.6439 14.0901 17.6744 14.2465 17.7059 14.364C17.7349 14.4726 17.7785 14.5944 17.8169 14.7032L19.2314 14.2039ZM18.6098 12.7889C18.5057 12.8387 18.3888 12.894 18.2915 12.9502C18.1862 13.0111 18.054 13.1001 17.9383 13.2416L19.0994 14.1912C19.0544 14.2463 19.0148 14.2647 19.0418 14.2491C19.0553 14.2413 19.0776 14.2293 19.1156 14.2105C19.1535 14.1916 19.1982 14.1702 19.2569 14.1421L18.6098 12.7889ZM19.1546 14.0578C19.1497 14.1067 19.1305 14.1531 19.0994 14.1912L17.9383 13.2416C17.7827 13.4318 17.6866 13.6637 17.6621 13.9082L19.1546 14.0578ZM17.8277 17.8072C18.0659 17.8913 18.2933 17.9724 18.4811 18.0201C18.6551 18.0643 18.9443 18.1232 19.2469 18.0176L18.7531 16.6013C18.8268 16.5755 18.8824 16.5764 18.8981 16.5773C18.9102 16.5779 18.8991 16.5786 18.8505 16.5663C18.7445 16.5394 18.5934 16.4868 18.327 16.3928L17.8277 17.8072ZM18.3908 16.329C18.4849 16.5954 18.5374 16.7465 18.5643 16.8525C18.5767 16.9011 18.576 16.9121 18.5753 16.9C18.5745 16.8844 18.5736 16.8288 18.5993 16.755L20.0157 17.2489C20.1212 16.9462 20.0623 16.6571 20.0181 16.4831C19.9704 16.2953 19.8894 16.0679 19.8053 15.8297L18.3908 16.329ZM19.2469 18.0176C19.607 17.8921 19.8901 17.609 20.0157 17.2489L18.5993 16.755C18.6244 16.683 18.681 16.6264 18.7531 16.6013L19.2469 18.0176ZM20.8124 13.3983C21.0403 13.2894 21.2584 13.1859 21.4249 13.0868C21.5792 12.9951 21.8253 12.8322 21.9647 12.5436L20.6139 11.8913C20.6479 11.8209 20.6879 11.7822 20.6995 11.7718C20.7085 11.7637 20.7012 11.772 20.6581 11.7976C20.5641 11.8535 20.4201 11.9232 20.1652 12.0451L20.8124 13.3983ZM20.1652 11.9549C20.4201 12.0768 20.5641 12.1465 20.6581 12.2024C20.7012 12.228 20.7085 12.2363 20.6995 12.2282C20.6879 12.2178 20.6479 12.1791 20.6139 12.1087L21.9647 11.4564C21.8253 11.1678 21.5792 11.0049 21.4249 10.9132C21.2584 10.8141 21.0403 10.7106 20.8124 10.6017L20.1652 11.9549ZM21.9647 12.5436C22.1305 12.2002 22.1305 11.7998 21.9647 11.4564L20.6139 12.1087C20.5808 12.04 20.5808 11.96 20.6139 11.8913L21.9647 12.5436ZM15.3152 15.6396L14.7865 15.7944L15.2081 17.234L15.7368 17.0791L15.3152 15.6396ZM13.998 14.75C14.4972 14.75 14.9675 14.6163 15.3725 14.3823L14.622 13.0835C14.439 13.1893 14.2268 13.25 13.998 13.25V14.75ZM15.3725 14.3823C16.1931 13.9081 16.748 13.0193 16.748 12H15.248C15.248 12.4619 14.9979 12.8663 14.622 13.0835L15.3725 14.3823ZM16.748 12C16.748 10.9807 16.1931 10.0919 15.3725 9.61774L14.622 10.9165C14.9979 11.1337 15.248 11.5381 15.248 12H16.748ZM15.3725 9.61774C14.9675 9.3837 14.4972 9.25 13.998 9.25V10.75C14.2268 10.75 14.439 10.8107 14.622 10.9165L15.3725 9.61774ZM16.2668 15.6655C16.2024 15.6428 16.0808 15.5967 15.9488 15.5764L15.7215 17.0591C15.6951 17.0551 15.6793 17.0497 15.6862 17.0519C15.6904 17.0532 15.6982 17.0557 15.7126 17.0607C15.7272 17.0657 15.7442 17.0717 15.7675 17.08L16.2668 15.6655ZM15.7368 17.0791C15.7605 17.0722 15.7778 17.0671 15.7926 17.0629C15.8073 17.0587 15.8152 17.0566 15.8195 17.0555C15.8265 17.0537 15.8104 17.0582 15.7838 17.0608L15.6375 15.5679C15.5046 15.581 15.3807 15.6204 15.3151 15.6396L15.7368 17.0791ZM15.9488 15.5764C15.8458 15.5606 15.7412 15.5578 15.6376 15.5679L15.7838 17.0608C15.763 17.0628 15.7421 17.0623 15.7215 17.0591L15.9488 15.5764ZM2.24805 16.9998C2.24805 19.6232 4.37469 21.7498 6.99805 21.7498V20.2498C5.20312 20.2498 3.74805 18.7948 3.74805 16.9998H2.24805ZM6.99805 21.7498C9.6214 21.7498 11.748 19.6232 11.748 16.9998H10.248C10.248 18.7948 8.79297 20.2498 6.99805 20.2498V21.7498ZM3.43574 13.8577C2.69709 14.6946 2.24805 15.7957 2.24805 16.9998H3.74805C3.74805 16.1751 4.05428 15.4237 4.56035 14.8503L3.43574 13.8577ZM11.748 16.9998C11.748 15.7957 11.299 14.6946 10.5604 13.8577L9.43574 14.8503C9.94181 15.4237 10.248 16.1751 10.248 16.9998H11.748ZM3.24805 6V14.354H4.74805V6H3.24805ZM10.748 14.354V6H9.24805V14.354H10.748ZM6.99805 2.25C4.92698 2.25 3.24805 3.92893 3.24805 6H4.74805C4.74805 4.75736 5.75541 3.75 6.99805 3.75V2.25ZM6.99805 3.75C8.24069 3.75 9.24805 4.75736 9.24805 6H10.748C10.748 3.92893 9.06911 2.25 6.99805 2.25V3.75ZM5.24805 16.9998C5.24805 17.9663 6.03155 18.7498 6.99805 18.7498V17.2498C6.85998 17.2498 6.74805 17.1379 6.74805 16.9998H5.24805ZM6.99805 18.7498C7.96455 18.7498 8.74805 17.9663 8.74805 16.9998H7.24805C7.24805 17.1379 7.13612 17.2498 6.99805 17.2498V18.7498ZM8.74805 16.9998C8.74805 16.0333 7.96455 15.2498 6.99805 15.2498V16.7498C7.13612 16.7498 7.24805 16.8618 7.24805 16.9998H8.74805ZM6.99805 15.2498C6.03155 15.2498 5.24805 16.0333 5.24805 16.9998H6.74805C6.74805 16.8618 6.85998 16.7498 6.99805 16.7498V15.2498ZM7.74805 15.9989L7.74098 10.499L6.24098 10.501L6.24805 16.0008L7.74805 15.9989ZM6.46765 16.4696L6.46057 16.4766L7.52138 17.5372L7.52845 17.5301L6.46765 16.4696Z" fill="#98A2B3"/>
</svg>
