<svg width="24" height="24" viewBox="0 0 24 24" fill="none" xmlns="http://www.w3.org/2000/svg">
<path d="M15.8799 3C15.8799 2.58579 15.5441 2.25 15.1299 2.25C14.7157 2.25 14.3799 2.58579 14.3799 3H15.8799ZM14.3799 17C14.3799 17.4142 14.7157 17.75 15.1299 17.75C15.5441 17.75 15.8799 17.4142 15.8799 17H14.3799ZM14.6602 3.46967C14.3673 3.17678 13.8925 3.17678 13.5996 3.46967C13.3067 3.76256 13.3067 4.23744 13.5996 4.53033L14.6602 3.46967ZM16.6602 4.53033C16.9531 4.23744 16.9531 3.76256 16.6602 3.46967C16.3673 3.17678 15.8925 3.17678 15.5996 3.46967L16.6602 4.53033ZM13.5996 15.4697C13.3067 15.7626 13.3067 16.2374 13.5996 16.5303C13.8925 16.8232 14.3673 16.8232 14.6602 16.5303L13.5996 15.4697ZM15.5996 16.5303C15.8925 16.8232 16.3673 16.8232 16.6602 16.5303C16.9531 16.2374 16.9531 15.7626 16.6602 15.4697L15.5996 16.5303ZM20.8436 14.1495C21.2023 14.3566 21.661 14.2337 21.8681 13.875C22.0752 13.5163 21.9523 13.0576 21.5936 12.8505L20.8436 14.1495ZM19.1877 14.5565C19.2949 14.9566 19.7061 15.1941 20.1062 15.0869C20.5063 14.9797 20.7438 14.5685 20.6366 14.1684L19.1877 14.5565ZM21.506 12.662C21.9061 12.5548 22.1435 12.1435 22.0363 11.7434C21.9291 11.3433 21.5178 11.1059 21.1177 11.2131L21.506 12.662ZM21.5933 7.14951C21.952 6.94239 22.0749 6.4837 21.8678 6.12498C21.6607 5.76627 21.202 5.64337 20.8433 5.85049L21.5933 7.14951ZM20.6366 5.83168C20.7438 5.43158 20.5063 5.02033 20.1062 4.91313C19.7061 4.80592 19.2949 5.04336 19.1877 5.44346L20.6366 5.83168ZM21.1182 8.78686C21.5183 8.89405 21.9296 8.6566 22.0368 8.2565C22.144 7.85639 21.9065 7.44515 21.5064 7.33796L21.1182 8.78686ZM13.875 8.39415C13.5163 8.18704 13.0576 8.30995 12.8505 8.66866C12.6434 9.02738 12.7663 9.48608 13.125 9.69318L13.875 8.39415ZM13.125 10.3067C12.7663 10.5138 12.6434 10.9725 12.8505 11.3312C13.0576 11.6899 13.5162 11.8129 13.875 11.6058L13.125 10.3067ZM10 14.354H9.25C9.25 14.5368 9.31675 14.7133 9.4377 14.8503L10 14.354ZM4 14.354L4.5623 14.8503C4.68325 14.7133 4.75 14.5368 4.75 14.354H4ZM4 6H4.75H4ZM7.75707 14.0027C7.75853 13.5884 7.42393 13.2515 7.00972 13.25C6.59551 13.2485 6.25854 13.5831 6.25708 13.9973L7.75707 14.0027ZM7.5304 16.4696C7.23755 16.1766 6.76267 16.1766 6.46974 16.4694C6.17681 16.7623 6.17674 17.2372 6.4696 17.5301L7.5304 16.4696ZM6.47667 17.5372C6.76952 17.8301 7.2444 17.8302 7.53733 17.5373C7.83026 17.2444 7.83033 16.7696 7.53747 16.4766L6.47667 17.5372ZM14.3799 3V5H15.8799V3H14.3799ZM14.3799 5V9.98468H15.8799V5H14.3799ZM14.3799 9.98468V10.0153H15.8799V9.98468H14.3799ZM14.3799 10.0153V15H15.8799V10.0153H14.3799ZM14.3799 15V17H15.8799V15H14.3799ZM15.6602 4.46967L14.6602 3.46967L13.5996 4.53033L14.5996 5.53033L15.6602 4.46967ZM15.6602 5.53033L16.6602 4.53033L15.5996 3.46967L14.5996 4.46967L15.6602 5.53033ZM14.5996 14.4697L13.5996 15.4697L14.6602 16.5303L15.6602 15.5303L14.5996 14.4697ZM14.5996 15.5303L15.5996 16.5303L16.6602 15.4697L15.6602 14.4697L14.5996 15.5303ZM14.7814 10.6495L19.0248 13.0995L19.7748 11.8004L15.5314 9.35048L14.7814 10.6495ZM19.0248 13.0995L20.8436 14.1495L21.5936 12.8505L19.7748 11.8004L19.0248 13.0995ZM18.6754 12.644L19.1877 14.5565L20.6366 14.1684L20.1243 12.2559L18.6754 12.644ZM19.594 13.1744L21.506 12.662L21.1177 11.2131L19.2057 11.7255L19.594 13.1744ZM20.8433 5.85049L19.0247 6.9005L19.7747 8.19952L21.5933 7.14951L20.8433 5.85049ZM19.0247 6.9005L14.7814 9.35049L15.5314 10.6495L19.7747 8.19952L19.0247 6.9005ZM20.1241 7.74412L20.6366 5.83168L19.1877 5.44346L18.6752 7.3559L20.1241 7.74412ZM19.2056 8.27446L21.1182 8.78686L21.5064 7.33796L19.5938 6.82556L19.2056 8.27446ZM13.125 9.69318L14.7549 10.6342L15.5049 9.33516L13.875 8.39415L13.125 9.69318ZM14.7549 10.6342L14.7814 10.6495L15.5314 9.35048L15.5049 9.33516L14.7549 10.6342ZM14.7814 9.35047L14.7549 9.36578L15.5049 10.6649L15.5314 10.6495L14.7814 9.35047ZM14.7549 9.36578L13.125 10.3067L13.875 11.6058L15.5049 10.6649L14.7549 9.36578ZM10.25 16.9998C10.25 18.7948 8.79493 20.2498 7 20.2498V21.7498C9.62335 21.7498 11.75 19.6232 11.75 16.9998H10.25ZM7 20.2498C5.20507 20.2498 3.75 18.7948 3.75 16.9998H2.25C2.25 19.6232 4.37665 21.7498 7 21.7498V20.2498ZM9.4377 14.8503C9.94377 15.4237 10.25 16.1751 10.25 16.9998H11.75C11.75 15.7957 11.301 14.6946 10.5623 13.8577L9.4377 14.8503ZM3.75 16.9998C3.75 16.1751 4.05623 15.4237 4.5623 14.8503L3.4377 13.8577C2.69904 14.6946 2.25 15.7957 2.25 16.9998H3.75ZM9.25 6V14.354H10.75V6H9.25ZM4.75 14.354V6H3.25L3.25 14.354H4.75ZM7 3.75C8.24264 3.75 9.25 4.75736 9.25 6H10.75C10.75 3.92893 9.07107 2.25 7 2.25V3.75ZM7 2.25C4.92893 2.25 3.25 3.92893 3.25 6H4.75C4.75 4.75736 5.75736 3.75 7 3.75V2.25ZM7.25 16.9998C7.25 17.1379 7.13807 17.2498 7 17.2498V18.7498C7.9665 18.7498 8.75 17.9663 8.75 16.9998H7.25ZM7 17.2498C6.86193 17.2498 6.75 17.1379 6.75 16.9998H5.25C5.25 17.9663 6.0335 18.7498 7 18.7498V17.2498ZM6.75 16.9998C6.75 16.8618 6.86193 16.7498 7 16.7498V15.2498C6.0335 15.2498 5.25 16.0333 5.25 16.9998H6.75ZM7 16.7498C7.13807 16.7498 7.25 16.8618 7.25 16.9998H8.75C8.75 16.0333 7.9665 15.2498 7 15.2498V16.7498ZM7.75 16.0025L7.75707 14.0027L6.25708 13.9973L6.25 15.9972L7.75 16.0025ZM6.4696 17.5301L6.47667 17.5372L7.53747 16.4766L7.5304 16.4696L6.4696 17.5301Z" fill="#98A2B3"/>
</svg>
