<svg width="24" height="24" viewBox="0 0 24 24" fill="none" xmlns="http://www.w3.org/2000/svg">
<path d="M18.75 3C18.75 2.58579 18.4142 2.25 18 2.25C17.5858 2.25 17.25 2.58579 17.25 3H18.75ZM18 21L17.4697 21.5303C17.7626 21.8232 18.2374 21.8232 18.5303 21.5303L18 21ZM15.5303 17.4697C15.2374 17.1768 14.7626 17.1768 14.4697 17.4697C14.1768 17.7626 14.1768 18.2374 14.4697 18.5303L15.5303 17.4697ZM21.5303 18.5303C21.8232 18.2374 21.8232 17.7626 21.5303 17.4697C21.2374 17.1768 20.7626 17.1768 20.4697 17.4697L21.5303 18.5303ZM10 14.3542H9.25C9.25 14.537 9.31675 14.7134 9.4377 14.8505L10 14.3542ZM4 14.3542L4.5623 14.8505C4.68325 14.7134 4.75 14.537 4.75 14.3542H4ZM4 6.00017H4.75H4ZM7.75 12C7.75 11.5858 7.41421 11.25 7 11.25C6.58579 11.25 6.25 11.5858 6.25 12H7.75ZM7.5304 16.4697C7.23755 16.1768 6.76267 16.1767 6.46974 16.4696C6.17681 16.7625 6.17674 17.2373 6.4696 17.5303L7.5304 16.4697ZM6.47667 17.5373C6.76952 17.8303 7.2444 17.8303 7.53733 17.5375C7.83026 17.2446 7.83033 16.7697 7.53747 16.4768L6.47667 17.5373ZM17.25 3V21H18.75V3H17.25ZM14.4697 18.5303L17.4697 21.5303L18.5303 20.4697L15.5303 17.4697L14.4697 18.5303ZM18.5303 21.5303L21.5303 18.5303L20.4697 17.4697L17.4697 20.4697L18.5303 21.5303ZM10.25 17C10.25 18.7949 8.79493 20.25 7 20.25V21.75C9.62335 21.75 11.75 19.6234 11.75 17H10.25ZM7 20.25C5.20507 20.25 3.75 18.7949 3.75 17H2.25C2.25 19.6234 4.37665 21.75 7 21.75V20.25ZM9.4377 14.8505C9.94377 15.4239 10.25 16.1752 10.25 17H11.75C11.75 15.7959 11.301 14.6948 10.5623 13.8579L9.4377 14.8505ZM3.75 17C3.75 16.1752 4.05623 15.4239 4.5623 14.8505L3.4377 13.8579C2.69904 14.6948 2.25 15.7959 2.25 17H3.75ZM9.25 6.00017V14.3542H10.75V6.00017H9.25ZM4.75 14.3542V6.00017H3.25L3.25 14.3542H4.75ZM7 3.75017C8.24264 3.75017 9.25 4.75753 9.25 6.00017H10.75C10.75 3.9291 9.07107 2.25017 7 2.25017V3.75017ZM7 2.25017C4.92893 2.25017 3.25 3.9291 3.25 6.00017H4.75C4.75 4.75753 5.75736 3.75017 7 3.75017V2.25017ZM7.25 17C7.25 17.1381 7.13807 17.25 7 17.25V18.75C7.9665 18.75 8.75 17.9665 8.75 17H7.25ZM7 17.25C6.86193 17.25 6.75 17.1381 6.75 17H5.25C5.25 17.9665 6.0335 18.75 7 18.75V17.25ZM6.75 17C6.75 16.8619 6.86193 16.75 7 16.75V15.25C6.0335 15.25 5.25 16.0335 5.25 17H6.75ZM7 16.75C7.13807 16.75 7.25 16.8619 7.25 17H8.75C8.75 16.0335 7.9665 15.25 7 15.25V16.75ZM7.75 16V12H6.25V16H7.75ZM6.4696 17.5303L6.47667 17.5373L7.53747 16.4768L7.5304 16.4697L6.4696 17.5303Z" fill="#98A2B3"/>
</svg>
