<svg width="24" height="24" viewBox="0 0 24 24" fill="none" xmlns="http://www.w3.org/2000/svg">
<path d="M11 14.354H10.25C10.25 14.5368 10.3167 14.7133 10.4377 14.8503L11 14.354ZM5 14.354L5.5623 14.8503C5.68325 14.7133 5.75 14.5368 5.75 14.354H5ZM5 6H5.75H5ZM8.75707 12.0013C8.7578 11.5871 8.42261 11.2507 8.0084 11.25C7.59418 11.2493 7.2578 11.5845 7.25707 11.9987L8.75707 12.0013ZM8.5304 16.4696C8.23755 16.1766 7.76267 16.1766 7.46974 16.4694C7.17681 16.7623 7.17674 17.2372 7.4696 17.5301L8.5304 16.4696ZM7.47667 17.5372C7.76952 17.8301 8.2444 17.8302 8.53733 17.5373C8.83026 17.2444 8.83033 16.7696 8.53747 16.4766L7.47667 17.5372ZM19.25 5C19.25 5.69036 18.6904 6.25 18 6.25V7.75C19.5188 7.75 20.75 6.51878 20.75 5H19.25ZM18 6.25C17.3096 6.25 16.75 5.69036 16.75 5H15.25C15.25 6.51878 16.4812 7.75 18 7.75V6.25ZM16.75 5C16.75 4.30964 17.3096 3.75 18 3.75V2.25C16.4812 2.25 15.25 3.48122 15.25 5H16.75ZM18 3.75C18.6904 3.75 19.25 4.30964 19.25 5H20.75C20.75 3.48122 19.5188 2.25 18 2.25V3.75ZM11.25 16.9998C11.25 18.7948 9.79493 20.2498 8 20.2498V21.7498C10.6234 21.7498 12.75 19.6232 12.75 16.9998H11.25ZM8 20.2498C6.20507 20.2498 4.75 18.7948 4.75 16.9998H3.25C3.25 19.6232 5.37665 21.7498 8 21.7498V20.2498ZM10.4377 14.8503C10.9438 15.4237 11.25 16.1751 11.25 16.9998H12.75C12.75 15.7957 12.301 14.6946 11.5623 13.8577L10.4377 14.8503ZM4.75 16.9998C4.75 16.1751 5.05623 15.4237 5.5623 14.8503L4.4377 13.8577C3.69904 14.6946 3.25 15.7957 3.25 16.9998H4.75ZM10.25 6V14.354H11.75V6H10.25ZM5.75 14.354V6H4.25L4.25 14.354H5.75ZM8 3.75C9.24264 3.75 10.25 4.75736 10.25 6H11.75C11.75 3.92893 10.0711 2.25 8 2.25V3.75ZM8 2.25C5.92893 2.25 4.25 3.92893 4.25 6H5.75C5.75 4.75736 6.75736 3.75 8 3.75V2.25ZM8.25 16.9998C8.25 17.1379 8.13807 17.2498 8 17.2498V18.7498C8.9665 18.7498 9.75 17.9663 9.75 16.9998H8.25ZM8 17.2498C7.86193 17.2498 7.75 17.1379 7.75 16.9998H6.25C6.25 17.9663 7.0335 18.7498 8 18.7498V17.2498ZM7.75 16.9998C7.75 16.8618 7.86193 16.7498 8 16.7498V15.2498C7.0335 15.2498 6.25 16.0333 6.25 16.9998H7.75ZM8 16.7498C8.13807 16.7498 8.25 16.8618 8.25 16.9998H9.75C9.75 16.0333 8.9665 15.2498 8 15.2498V16.7498ZM8.75 16.0012L8.75707 12.0013L7.25707 11.9987L7.25 15.9985L8.75 16.0012ZM7.4696 17.5301L7.47667 17.5372L8.53747 16.4766L8.5304 16.4696L7.4696 17.5301Z" fill="#98A2B3"/>
</svg>
