<svg width="24" height="24" viewBox="0 0 24 24" fill="none" xmlns="http://www.w3.org/2000/svg">
<path d="M7 17H8.34903C9.3274 17 9.81658 17 10.2769 16.8895C10.6851 16.7915 11.0753 16.6299 11.4331 16.4106C11.8368 16.1632 12.1827 15.8173 12.8745 15.1255L20 8C21.1046 6.89543 21.1046 5.10457 20 4C18.8954 2.89543 17.1046 2.89543 16 4L8.87452 11.1255C8.18271 11.8173 7.83681 12.1632 7.58944 12.5669C7.37012 12.9247 7.20851 13.3149 7.11052 13.7231C7 14.1834 7 14.6726 7 15.651V17ZM7 17L3 21M9.5 10.5L11 12M12 8L13.5 9.5M14.5 5.5L16 7" stroke="#98A2B3" stroke-width="1.5" stroke-linecap="round" stroke-linejoin="round"/>
</svg>
