<svg width="24" height="24" viewBox="0 0 24 24" fill="none" xmlns="http://www.w3.org/2000/svg">
<path d="M5 21H19M8 8.00001H16M7.15 20.5L14.9145 14.0484M16.8001 20.3417L9.07029 14.099M10 11L7 21M14 11L17 21M6 6.00001L11.2845 3.35778C11.5468 3.2266 11.678 3.16101 11.8156 3.13519C11.9375 3.11233 12.0625 3.11233 12.1844 3.13519C12.322 3.16101 12.4532 3.2266 12.7155 3.35778L18 6.00001M8 5.00001V9.40001C8 9.96006 8 10.2401 8.10899 10.454C8.20487 10.6422 8.35785 10.7951 8.54601 10.891C8.75992 11 9.03995 11 9.6 11H14.4C14.9601 11 15.2401 11 15.454 10.891C15.6422 10.7951 15.7951 10.6422 15.891 10.454C16 10.2401 16 9.96006 16 9.40001V5.00001" stroke="#98A2B3" stroke-width="1.5" stroke-linecap="round" stroke-linejoin="round"/>
</svg>
