<svg width="24" height="24" viewBox="0 0 24 24" fill="none" xmlns="http://www.w3.org/2000/svg">
<path d="M12.0002 12.0007H12.7502C12.7502 11.5865 12.4144 11.2507 12.0002 11.2507V12.0007ZM10.7502 10.0007C10.7502 9.58652 10.4144 9.25073 10.0002 9.25073C9.58601 9.25073 9.25022 9.58652 9.25022 10.0007H10.7502ZM11.2502 21.0007C11.2502 21.4149 11.586 21.7507 12.0002 21.7507C12.4144 21.7507 12.7502 21.4149 12.7502 21.0007H11.2502ZM16.7732 5.22773C16.4803 4.93483 16.0055 4.93483 15.7126 5.22773C15.4197 5.52062 15.4197 5.99549 15.7126 6.28839L16.7732 5.22773ZM16.9386 11.7868C16.798 12.1765 16.9999 12.6063 17.3895 12.7469C17.7791 12.8875 18.209 12.6856 18.3495 12.2959L16.9386 11.7868ZM19.6018 2.39936C19.3089 2.10646 18.8341 2.10646 18.5412 2.39936C18.2483 2.69225 18.2483 3.16712 18.5412 3.46002L19.6018 2.39936ZM19.9928 14.6622C19.7839 15.0199 19.9044 15.4792 20.2621 15.6882C20.6198 15.8971 21.0791 15.7765 21.288 15.4189L19.9928 14.6622ZM7.22725 14.7737C7.52014 15.0666 7.99502 15.0666 8.28791 14.7737C8.5808 14.4808 8.5808 14.0059 8.28791 13.713L7.22725 14.7737ZM7.51407 7.27096C7.72971 6.9173 7.61782 6.4558 7.26417 6.24016C6.91051 6.02452 6.44901 6.1364 6.23337 6.49005L7.51407 7.27096ZM4.3986 17.6022C4.6915 17.895 5.16637 17.895 5.45926 17.6022C5.75216 17.3093 5.75216 16.8344 5.45926 16.5415L4.3986 17.6022ZM4.59842 4.45075C4.84736 4.11969 4.7808 3.64951 4.44974 3.40057C4.11868 3.15162 3.64849 3.21819 3.39955 3.54925L4.59842 4.45075ZM3.53033 2.46967C3.23744 2.17678 2.76256 2.17678 2.46967 2.46967C2.17678 2.76256 2.17678 3.23744 2.46967 3.53033L3.53033 2.46967ZM20.4697 21.5303C20.7626 21.8232 21.2374 21.8232 21.5303 21.5303C21.8232 21.2374 21.8232 20.7626 21.5303 20.4697L20.4697 21.5303ZM12.0002 11.2507C11.3099 11.2507 10.7502 10.6911 10.7502 10.0007H9.25022C9.25022 11.5195 10.4814 12.7507 12.0002 12.7507V11.2507ZM12.7502 21.0007V12.0007H11.2502V21.0007H12.7502ZM15.7126 6.28839C17.1984 7.77423 17.6085 9.93017 16.9386 11.7868L18.3495 12.2959C19.2094 9.9129 18.6854 7.13993 16.7732 5.22773L15.7126 6.28839ZM18.5412 3.46002C21.5774 6.49623 22.0624 11.1197 19.9928 14.6622L21.288 15.4189C23.6929 11.3023 23.132 5.92952 19.6018 2.39936L18.5412 3.46002ZM8.28791 13.713C6.54075 11.9658 6.28178 9.29193 7.51407 7.27096L6.23337 6.49005C4.64903 9.0884 4.9793 12.5257 7.22725 14.7737L8.28791 13.713ZM5.45926 16.5415C2.1614 13.2436 1.874 8.07383 4.59842 4.45075L3.39955 3.54925C0.232405 7.76109 0.564973 13.7685 4.3986 17.6022L5.45926 16.5415ZM2.46967 3.53033L20.4697 21.5303L21.5303 20.4697L3.53033 2.46967L2.46967 3.53033Z" fill="#98A2B3"/>
</svg>
