<svg width="24" height="24" viewBox="0 0 24 24" fill="none" xmlns="http://www.w3.org/2000/svg">
<path d="M12 10V14M12 17H12.01M7.43847 20H16.5616C18.3508 20 19.2454 20 19.7685 19.6239C20.225 19.2957 20.5223 18.7905 20.5875 18.2321C20.6622 17.592 20.2278 16.81 19.3589 15.246L14.7973 7.03518C13.8841 5.3913 13.4274 4.56935 12.8255 4.2966C12.3009 4.05885 11.6992 4.05885 11.1745 4.2966C10.5726 4.56935 10.116 5.3913 9.20272 7.03518L4.64117 15.246C3.77226 16.81 3.3378 17.592 3.41256 18.2321C3.47778 18.7905 3.77503 19.2957 4.23151 19.6239C4.75468 20 5.64928 20 7.43847 20Z" stroke="#98A2B3" stroke-width="1.5" stroke-linecap="round" stroke-linejoin="round"/>
</svg>
