<svg width="24" height="24" viewBox="0 0 24 24" fill="none" xmlns="http://www.w3.org/2000/svg">
<path d="M4.2433 17.6514L10.5859 5.67101C11.0445 4.80462 11.2739 4.37142 11.5798 4.22979C11.8463 4.10643 12.1535 4.10643 12.42 4.22979C12.726 4.37142 12.9553 4.80462 13.414 5.671L19.7565 17.6514C20.1668 18.4264 20.372 18.8139 20.3305 19.13C20.2943 19.406 20.1448 19.6544 19.9179 19.8154C19.6579 20 19.2194 20 18.3425 20H5.65737C4.78044 20 4.34198 20 4.08198 19.8154C3.85505 19.6544 3.70551 19.406 3.66932 19.13C3.62785 18.8139 3.833 18.4264 4.2433 17.6514Z" stroke="#98A2B3" stroke-width="1.5" stroke-linecap="round" stroke-linejoin="round"/>
</svg>
