<svg width="24" height="24" viewBox="0 0 24 24" fill="none" xmlns="http://www.w3.org/2000/svg">
<path d="M15.8086 19.7053L20.127 16.3467M11.5 14.811C11.0206 14.9344 10.5179 15 10 15C9.11825 15 8.28093 14.8098 7.52682 14.4682C7.00429 14.2315 6.74302 14.1131 6.59797 14.0722C6.4472 14.0297 6.35983 14.0143 6.20361 14.0026C6.05331 13.9914 5.94079 14 5.71575 14.0172C5.6237 14.0242 5.5425 14.0341 5.46558 14.048C4.23442 14.2709 3.27087 15.2344 3.04798 16.4656C3 16.7306 3 17.0485 3 17.6841V19.4C3 19.9601 3 20.2401 3.10899 20.454C3.20487 20.6422 3.35785 20.7951 3.54601 20.891C3.75992 21 4.03995 21 4.6 21H11.5M21 18C21 19.6569 19.6569 21 18 21C16.3431 21 15 19.6569 15 18C15 16.3431 16.3431 15 18 15C19.6569 15 21 16.3431 21 18ZM14 7C14 9.20914 12.2091 11 10 11C7.79086 11 6 9.20914 6 7C6 4.79086 7.79086 3 10 3C12.2091 3 14 4.79086 14 7Z" stroke="#98A2B3" stroke-width="1.5" stroke-linecap="round" stroke-linejoin="round"/>
</svg>
