<svg width="24" height="24" viewBox="0 0 24 24" fill="none" xmlns="http://www.w3.org/2000/svg">
<path d="M11 21H3C3 17.134 6.13401 14 10 14C10.3395 14 10.6734 14.0242 11 14.0709M17.4976 16.2119C16.7978 15.4328 15.6309 15.2232 14.7541 15.9367C13.8774 16.6501 13.7539 17.843 14.4425 18.6868C14.8312 19.1632 15.7548 19.9983 16.4854 20.6353C16.8319 20.9374 17.0051 21.0885 17.2147 21.1503C17.3934 21.203 17.6018 21.203 17.7805 21.1503C17.9901 21.0885 18.1633 20.9374 18.5098 20.6353C19.2404 19.9983 20.164 19.1632 20.5527 18.6868C21.2413 17.843 21.1329 16.6426 20.2411 15.9367C19.3492 15.2307 18.1974 15.4328 17.4976 16.2119ZM14 7C14 9.20914 12.2091 11 10 11C7.79086 11 6 9.20914 6 7C6 4.79086 7.79086 3 10 3C12.2091 3 14 4.79086 14 7Z" stroke="#98A2B3" stroke-width="1.5" stroke-linecap="round" stroke-linejoin="round"/>
</svg>
