<svg width="24" height="24" viewBox="0 0 24 24" fill="none" xmlns="http://www.w3.org/2000/svg">
<path d="M11 21H3C3 17.134 6.13401 14 10 14C10.3395 14 10.6734 14.0242 11 14.0709M19.5 20.2361C18.9692 20.7111 18.2684 21 17.5 21C15.8431 21 14.5 19.6569 14.5 18C14.5 16.3431 15.8431 15 17.5 15C18.8062 15 19.9175 15.8348 20.3293 17M21 14.5V17.5H18M14 7C14 9.20914 12.2091 11 10 11C7.79086 11 6 9.20914 6 7C6 4.79086 7.79086 3 10 3C12.2091 3 14 4.79086 14 7Z" stroke="#98A2B3" stroke-width="1.5" stroke-linecap="round" stroke-linejoin="round"/>
</svg>
