<svg width="24" height="24" viewBox="0 0 24 24" fill="none" xmlns="http://www.w3.org/2000/svg">
<path d="M10.5 21H4.6C4.03995 21 3.75992 21 3.54601 20.891C3.35785 20.7951 3.20487 20.6422 3.10899 20.454C3 20.2401 3 19.9601 3 19.4V17.6841C3 17.0485 3 16.7306 3.04798 16.4656C3.27087 15.2344 4.23442 14.2709 5.46558 14.048C5.5425 14.0341 5.6237 14.0242 5.71575 14.0172C5.94079 14 6.05331 13.9914 6.20361 14.0026C6.35983 14.0143 6.4472 14.0297 6.59797 14.0722C6.74302 14.1131 7.00429 14.2315 7.52682 14.4682C8.28093 14.8098 9.11825 15 10 15C10.1684 15 10.3351 14.9931 10.5 14.9795M17.4976 16.2119C16.7978 15.4328 15.6309 15.2232 14.7541 15.9367C13.8774 16.6501 13.7539 17.843 14.4425 18.6868C14.8312 19.1632 15.7548 19.9983 16.4854 20.6353C16.8319 20.9374 17.0051 21.0885 17.2147 21.1503C17.3934 21.203 17.6018 21.203 17.7805 21.1503C17.9901 21.0885 18.1633 20.9374 18.5098 20.6353C19.2404 19.9983 20.164 19.1632 20.5527 18.6868C21.2413 17.843 21.1329 16.6426 20.2411 15.9367C19.3492 15.2307 18.1974 15.4328 17.4976 16.2119ZM14 7C14 9.20914 12.2091 11 10 11C7.79086 11 6 9.20914 6 7C6 4.79086 7.79086 3 10 3C12.2091 3 14 4.79086 14 7Z" stroke="#98A2B3" stroke-width="1.5" stroke-linecap="round" stroke-linejoin="round"/>
</svg>
