<svg width="24" height="24" viewBox="0 0 24 24" fill="none" xmlns="http://www.w3.org/2000/svg">
<path d="M16 15.5022C16.1762 15.0014 16.524 14.579 16.9817 14.31C17.4395 14.0409 17.9777 13.9426 18.501 14.0324C19.0243 14.1221 19.499 14.3942 19.8409 14.8004C20.1829 15.2066 20.37 15.7207 20.3692 16.2517C20.3692 17.7506 18.1209 18.5 18.1209 18.5M18 21H18.01M12 14.917C11.6748 14.9716 11.3407 15 11 15C10.1183 15 9.28093 14.8098 8.52682 14.4682C8.00429 14.2315 7.74302 14.1131 7.59797 14.0722C7.4472 14.0297 7.35983 14.0143 7.20361 14.0026C7.05331 13.9914 6.94079 14 6.71575 14.0172C6.6237 14.0242 6.5425 14.0341 6.46558 14.048C5.23442 14.2709 4.27087 15.2344 4.04798 16.4656C4 16.7306 4 17.0485 4 17.6841V19.4C4 19.9601 4 20.2401 4.10899 20.454C4.20487 20.6422 4.35785 20.7951 4.54601 20.891C4.75992 21 5.03995 21 5.6 21H14M15 7C15 9.20914 13.2091 11 11 11C8.79086 11 7 9.20914 7 7C7 4.79086 8.79086 3 11 3C13.2091 3 15 4.79086 15 7Z" stroke="#98A2B3" stroke-width="1.5" stroke-linecap="round" stroke-linejoin="round"/>
</svg>
