<svg width="24" height="24" viewBox="0 0 24 24" fill="none" xmlns="http://www.w3.org/2000/svg">
<path d="M16 15.5022C16.1762 15.0014 16.524 14.579 16.9817 14.31C17.4395 14.0409 17.9777 13.9426 18.501 14.0324C19.0243 14.1221 19.499 14.3942 19.8409 14.8004C20.1829 15.2066 20.37 15.7207 20.3692 16.2517C20.3692 17.7506 18.1209 18.5 18.1209 18.5M18 21H18.01M12 14.0709C11.6734 14.0242 11.3395 14 11 14C7.13401 14 4 17.134 4 21H14M15 7C15 9.20914 13.2091 11 11 11C8.79086 11 7 9.20914 7 7C7 4.79086 8.79086 3 11 3C13.2091 3 15 4.79086 15 7Z" stroke="#98A2B3" stroke-width="1.5" stroke-linecap="round" stroke-linejoin="round"/>
</svg>
