<svg width="24" height="24" viewBox="0 0 24 24" fill="none" xmlns="http://www.w3.org/2000/svg">
<path d="M19.5 19.5L21 21M12 21H4.6C4.03995 21 3.75992 21 3.54601 20.891C3.35785 20.7951 3.20487 20.6422 3.10899 20.454C3 20.2401 3 19.9601 3 19.4V17.6841C3 17.0485 3 16.7306 3.04798 16.4656C3.27087 15.2344 4.23442 14.2709 5.46558 14.048C5.5425 14.0341 5.6237 14.0242 5.71575 14.0172C5.94079 14 6.05331 13.9914 6.20361 14.0026C6.35983 14.0143 6.4472 14.0297 6.59797 14.0722C6.74302 14.1131 7.00429 14.2315 7.52682 14.4682C8.28093 14.8098 9.11825 15 10 15C10.5179 15 11.0206 14.9344 11.5 14.811M20 17.5C20 18.8807 18.8807 20 17.5 20C16.1193 20 15 18.8807 15 17.5C15 16.1193 16.1193 15 17.5 15C18.8807 15 20 16.1193 20 17.5ZM14 7C14 9.20914 12.2091 11 10 11C7.79086 11 6 9.20914 6 7C6 4.79086 7.79086 3 10 3C12.2091 3 14 4.79086 14 7Z" stroke="#98A2B3" stroke-width="1.5" stroke-linecap="round" stroke-linejoin="round"/>
</svg>
