<svg width="24" height="24" viewBox="0 0 24 24" fill="none" xmlns="http://www.w3.org/2000/svg">
<path d="M3 21C3 17.134 6.13401 14 10 14C10.3395 14 10.6734 14.0242 11 14.0709M20.8726 15.2038C20.8044 15.2079 20.7357 15.21 20.6667 15.21C19.6422 15.21 18.7077 14.7524 18 14C17.2923 14.7524 16.3578 15.2099 15.3333 15.2099C15.2643 15.2099 15.1956 15.2078 15.1274 15.2037C15.0442 15.5853 15 15.9855 15 16.3979C15 18.6121 16.2748 20.4725 18 21C19.7252 20.4725 21 18.6121 21 16.3979C21 15.9855 20.9558 15.5853 20.8726 15.2038ZM14 7C14 9.20914 12.2091 11 10 11C7.79086 11 6 9.20914 6 7C6 4.79086 7.79086 3 10 3C12.2091 3 14 4.79086 14 7Z" stroke="#98A2B3" stroke-width="1.5" stroke-linecap="round" stroke-linejoin="round"/>
</svg>
