<svg width="24" height="24" viewBox="0 0 24 24" fill="none" xmlns="http://www.w3.org/2000/svg">
<path d="M11.6001 6H13.6C14.4401 6 14.8601 6 15.181 6.16349C15.4632 6.3073 15.6927 6.53677 15.8365 6.81901C16 7.13988 16 7.55992 16 8.4V10L18.5768 8.45392C19.3699 7.97803 19.7665 7.74009 20.0928 7.77051C20.3773 7.79703 20.6369 7.944 20.806 8.17433C21 8.43848 21 8.90095 21 9.8259V14.1741C21 14.707 21 15.0864 20.9629 15.3628M3 3L6 6M21 21L15.9819 15.9819M6 6H5.4C4.55992 6 4.13988 6 3.81901 6.16349C3.53677 6.3073 3.3073 6.53677 3.16349 6.81901C3 7.13988 3 7.55992 3 8.4V14.8C3 15.9201 3 16.4802 3.21799 16.908C3.40973 17.2843 3.71569 17.5903 4.09202 17.782C4.51984 18 5.07989 18 6.2 18H12.8C13.9201 18 14.4802 18 14.908 17.782C15.2843 17.5903 15.5903 17.2843 15.782 16.908C15.9049 16.6668 15.9585 16.3837 15.9819 15.9819M6 6L15.9819 15.9819" stroke="#98A2B3" stroke-width="1.5" stroke-linecap="round" stroke-linejoin="round"/>
</svg>
