<svg width="24" height="24" viewBox="0 0 24 24" fill="none" xmlns="http://www.w3.org/2000/svg">
<path d="M18 12C18 15.3137 15.3137 18 12 18M18 12C18 8.68629 15.3137 6 12 6M18 12H21M12 18C8.68629 18 6 15.3137 6 12M12 18V21M6 12H3M6 12C6 10.3431 6.67157 8.84315 7.75736 7.75736M12 6V3M12 6C10.3431 6 8.84315 6.67157 7.75736 7.75736M18.5 5.5L16.2429 7.75759M7.75554 16.2408L5.5 18.5M17.5 4.5L19.5 6.5M4.5 17.5L6.5 19.5M11 3H13M11 21H13M5.5 5.5L7.75736 7.75736M16.2491 16.2362L18 18M6.5 4.5L4.5 6.5M19.5 17.5L17.5 19.5M21 11V13M3 11V13M14 14H14.01M10.5 11.5H10.51M11.5 11.5C11.5 12.0523 11.0523 12.5 10.5 12.5C9.94772 12.5 9.5 12.0523 9.5 11.5C9.5 10.9477 9.94772 10.5 10.5 10.5C11.0523 10.5 11.5 10.9477 11.5 11.5Z" stroke="#98A2B3" stroke-width="1.5" stroke-linecap="round" stroke-linejoin="round"/>
</svg>
