<svg width="24" height="24" viewBox="0 0 24 24" fill="none" xmlns="http://www.w3.org/2000/svg">
<path d="M16 12H22M19 9.00002V15M4.6 9.00002H5.5012C6.05213 9.00002 6.32759 9.00002 6.58285 8.93135C6.80903 8.8705 7.02275 8.77039 7.21429 8.6356C7.43047 8.48347 7.60681 8.27185 7.95951 7.84861L10.5854 4.69752C11.0211 4.1747 11.2389 3.91329 11.4292 3.88608C11.594 3.86252 11.7597 3.92252 11.8712 4.04611C12 4.18883 12 4.5291 12 5.20966V18.7904C12 19.4709 12 19.8112 11.8712 19.9539C11.7597 20.0775 11.594 20.1375 11.4292 20.114C11.239 20.0868 11.0211 19.8253 10.5854 19.3025L7.95951 16.1514C7.60681 15.7282 7.43047 15.5166 7.21429 15.3644C7.02275 15.2297 6.80903 15.1295 6.58285 15.0687C6.32759 15 6.05213 15 5.5012 15H4.6C4.03995 15 3.75992 15 3.54601 14.891C3.35785 14.7952 3.20487 14.6422 3.10899 14.454C3 14.2401 3 13.9601 3 13.4V10.6C3 10.04 3 9.75995 3.10899 9.54603C3.20487 9.35787 3.35785 9.20489 3.54601 9.10902C3.75992 9.00002 4.03995 9.00002 4.6 9.00002Z" stroke="#98A2B3" stroke-width="1.5" stroke-linecap="round" stroke-linejoin="round"/>
</svg>
