<svg width="24" height="24" viewBox="0 0 24 24" fill="none" xmlns="http://www.w3.org/2000/svg">
<path d="M16 9.49999L21 14.5M21 9.49999L16 14.5M4.6 8.99999H5.5012C6.05213 8.99999 6.32759 8.99999 6.58285 8.93132C6.80903 8.87047 7.02275 8.77036 7.21429 8.63557C7.43047 8.48343 7.60681 8.27182 7.95951 7.84858L10.5854 4.69748C11.0211 4.17467 11.2389 3.91326 11.4292 3.88605C11.594 3.86249 11.7597 3.92249 11.8712 4.04608C12 4.18879 12 4.52907 12 5.20963V18.7904C12 19.4709 12 19.8112 11.8712 19.9539C11.7597 20.0775 11.594 20.1375 11.4292 20.1139C11.239 20.0867 11.0211 19.8253 10.5854 19.3025L7.95951 16.1514C7.60681 15.7282 7.43047 15.5166 7.21429 15.3644C7.02275 15.2296 6.80903 15.1295 6.58285 15.0687C6.32759 15 6.05213 15 5.5012 15H4.6C4.03995 15 3.75992 15 3.54601 14.891C3.35785 14.7951 3.20487 14.6421 3.10899 14.454C3 14.2401 3 13.96 3 13.4V10.6C3 10.0399 3 9.75991 3.10899 9.546C3.20487 9.35784 3.35785 9.20486 3.54601 9.10899C3.75992 8.99999 4.03995 8.99999 4.6 8.99999Z" stroke="#98A2B3" stroke-width="1.5" stroke-linecap="round" stroke-linejoin="round"/>
</svg>
