<svg width="24" height="24" viewBox="0 0 24 24" fill="none" xmlns="http://www.w3.org/2000/svg">
<path d="M18 9.00002C18.6277 9.83568 18.9996 10.8744 18.9996 12C18.9996 13.1256 18.6277 14.1644 18 15M6.6 9.00002H7.5012C8.05213 9.00002 8.32759 9.00002 8.58285 8.93135C8.80903 8.8705 9.02275 8.77039 9.21429 8.6356C9.43047 8.48347 9.60681 8.27185 9.95951 7.84861L12.5854 4.69752C13.0211 4.1747 13.2389 3.91329 13.4292 3.88608C13.594 3.86252 13.7597 3.92252 13.8712 4.04611C14 4.18883 14 4.5291 14 5.20966V18.7904C14 19.4709 14 19.8112 13.8712 19.9539C13.7597 20.0775 13.594 20.1375 13.4292 20.114C13.239 20.0868 13.0211 19.8253 12.5854 19.3025L9.95951 16.1514C9.60681 15.7282 9.43047 15.5166 9.21429 15.3644C9.02275 15.2297 8.80903 15.1295 8.58285 15.0687C8.32759 15 8.05213 15 7.5012 15H6.6C6.03995 15 5.75992 15 5.54601 14.891C5.35785 14.7952 5.20487 14.6422 5.10899 14.454C5 14.2401 5 13.9601 5 13.4V10.6C5 10.04 5 9.75995 5.10899 9.54603C5.20487 9.35787 5.35785 9.20489 5.54601 9.10902C5.75992 9.00002 6.03995 9.00002 6.6 9.00002Z" stroke="#98A2B3" stroke-width="1.5" stroke-linecap="round" stroke-linejoin="round"/>
</svg>
