<svg width="24" height="24" viewBox="0 0 24 24" fill="none" xmlns="http://www.w3.org/2000/svg">
<path d="M16.4998 14.1502H16.5088M18.999 4.00098H6.19902C5.07892 4.00098 4.51887 4.00098 4.09104 4.21896C3.71472 4.41071 3.40876 4.71667 3.21701 5.093C2.99902 5.52082 2.99902 6.08087 2.99902 7.20098V16.801C2.99902 17.9211 2.99902 18.4811 3.21701 18.909C3.40876 19.2853 3.71472 19.5912 4.09104 19.783C4.51887 20.001 5.07892 20.001 6.19902 20.001H17.799C18.9191 20.001 19.4792 20.001 19.907 19.783C20.2833 19.5912 20.5893 19.2853 20.781 18.909C20.999 18.4811 20.999 17.9211 20.999 16.801V11.201C20.999 10.0809 20.999 9.52082 20.781 9.093C20.5893 8.71667 20.2833 8.41071 19.907 8.21896C19.4792 8.00098 18.9191 8.00098 17.799 8.00098H6.99902M16.9498 14.1502C16.9498 14.3987 16.7483 14.6002 16.4998 14.6002C16.2513 14.6002 16.0498 14.3987 16.0498 14.1502C16.0498 13.9017 16.2513 13.7002 16.4998 13.7002C16.7483 13.7002 16.9498 13.9017 16.9498 14.1502Z" stroke="#98A2B3" stroke-width="1.5" stroke-linecap="round" stroke-linejoin="round"/>
</svg>
