<svg width="24" height="24" viewBox="0 0 24 24" fill="none" xmlns="http://www.w3.org/2000/svg">
<path d="M14 6.99998L16.8284 9.8284M3.69738 19.5653L4.26307 20.131C4.65908 20.527 4.85709 20.725 5.08542 20.7992C5.28626 20.8644 5.50261 20.8644 5.70346 20.7992C5.93178 20.725 6.12979 20.527 6.52581 20.131L20.0826 6.57421C20.4786 6.17819 20.6766 5.98018 20.7508 5.75186C20.816 5.55101 20.816 5.33467 20.7508 5.13382C20.6766 4.90549 20.4786 4.70749 20.0826 4.31147L19.5169 3.74578C19.1209 3.34977 18.9229 3.15176 18.6945 3.07757C18.4937 3.01231 18.2773 3.01231 18.0765 3.07757C17.8482 3.15176 17.6502 3.34977 17.2541 3.74578L3.69738 17.3025C3.30137 17.6986 3.10336 17.8966 3.02917 18.1249C2.96391 18.3257 2.96391 18.5421 3.02917 18.7429C3.10336 18.9713 3.30136 19.1693 3.69738 19.5653Z" stroke="#98A2B3" stroke-width="1.5" stroke-linecap="round" stroke-linejoin="round"/>
</svg>
