<svg width="24" height="24" viewBox="0 0 24 24" fill="none" xmlns="http://www.w3.org/2000/svg">
<path d="M5.00002 6V10M10 3V7M18 16V20M3.00002 8H7.00002M8.00002 5H12M16 18H20M14 7L16.8284 9.82843M3.69763 19.5651L4.26331 20.1308C4.65933 20.5268 4.85734 20.7248 5.08567 20.799C5.28651 20.8643 5.50286 20.8643 5.7037 20.799C5.93203 20.7248 6.13004 20.5268 6.52606 20.1308L20.0828 6.57406C20.4788 6.17804 20.6768 5.98003 20.751 5.7517C20.8163 5.55086 20.8163 5.33451 20.751 5.13367C20.6768 4.90534 20.4788 4.70733 20.0828 4.31131L19.5171 3.74563C19.1211 3.34961 18.9231 3.1516 18.6948 3.07741C18.4939 3.01216 18.2776 3.01216 18.0767 3.07741C17.8484 3.1516 17.6504 3.34961 17.2544 3.74563L3.69763 17.3024C3.30161 17.6984 3.1036 17.8964 3.02941 18.1247C2.96415 18.3256 2.96415 18.5419 3.02941 18.7428C3.1036 18.9711 3.30161 19.1691 3.69763 19.5651Z" stroke="#98A2B3" stroke-width="1.5" stroke-linecap="round" stroke-linejoin="round"/>
</svg>
