<svg width="24" height="24" viewBox="0 0 24 24" fill="none" xmlns="http://www.w3.org/2000/svg">
<path d="M7 21V11.6C7 11.0399 7 10.7599 7.10899 10.546C7.20487 10.3578 7.35785 10.2049 7.54601 10.109C7.75992 9.99999 8.03995 9.99999 8.6 9.99999H15.4C15.9601 9.99999 16.2401 9.99999 16.454 10.109C16.6422 10.2049 16.7951 10.3578 16.891 10.546C17 10.7599 17 11.0399 17 11.6V21M10 14H14M10 18H14M3 10.4882V19.4C3 19.96 3 20.2401 3.10899 20.454C3.20487 20.6421 3.35785 20.7951 3.54601 20.891C3.75992 21 4.03995 21 4.6 21H19.4C19.9601 21 20.2401 21 20.454 20.891C20.6422 20.7951 20.7951 20.6421 20.891 20.454C21 20.2401 21 19.96 21 19.4V10.4882C21 9.4144 21 8.8775 20.8368 8.4032C20.6925 7.98374 20.457 7.60151 20.1472 7.28402C19.797 6.92501 19.3174 6.6836 18.3583 6.20078L14.1583 4.08648C13.3671 3.68822 12.9716 3.48908 12.5564 3.41072C12.1887 3.34132 11.8113 3.34132 11.4436 3.41072C11.0284 3.48908 10.6329 3.68821 9.84171 4.08648L5.64171 6.20078C4.6826 6.6836 4.20304 6.92501 3.85275 7.28402C3.54298 7.60151 3.30746 7.98374 3.16317 8.4032C3 8.8775 3 9.4144 3 10.4882Z" stroke="#98A2B3" stroke-width="1.5" stroke-linecap="round" stroke-linejoin="round"/>
</svg>
