<svg width="24" height="24" viewBox="0 0 24 24" fill="none" xmlns="http://www.w3.org/2000/svg">
<path d="M7.5 6C6.57003 6 5.60504 6 5.22354 6.10222C4.18827 6.37962 3.37962 7.18827 3.10222 8.22354C3 8.60504 3 9.07003 3 10V16.2C3 17.8802 3 18.7202 3.32698 19.362C3.6146 19.9265 4.07354 20.3854 4.63803 20.673C5.27976 21 6.11984 21 7.8 21H16.2C17.8802 21 18.7202 21 19.362 20.673C19.9265 20.3854 20.3854 19.9265 20.673 19.362C21 18.7202 21 17.8802 21 16.2V10C21 9.07003 21 8.60504 20.8978 8.22354C20.6204 7.18827 19.8117 6.37962 18.7765 6.10222C18.395 6 17.43 5.9945 16.5 5.9945M10 17H14M12 6L11.0062 9M10.5414 3H13.4586C14.5395 3 15.08 3 15.4801 3.18541C16.0135 3.43262 16.4111 3.90199 16.5672 4.46878C16.6844 4.89387 16.5955 5.42698 16.4178 6.4932C16.286 7.28376 16.2202 7.67904 16.0448 7.98778C15.811 8.39944 15.4387 8.71481 14.9942 8.87778C14.6608 9 14.2601 9 13.4586 9H10.5414C9.73991 9 9.33918 9 9.00581 8.87778C8.56131 8.71481 8.18903 8.39944 7.95521 7.98778C7.77984 7.67904 7.71396 7.28376 7.5822 6.4932C7.4045 5.42698 7.31564 4.89387 7.43276 4.46878C7.58891 3.90199 7.98653 3.43262 8.51994 3.18541C8.91999 3 9.46046 3 10.5414 3Z" stroke="#98A2B3" stroke-width="1.5" stroke-linecap="round" stroke-linejoin="round"/>
</svg>
