<svg width="24" height="24" viewBox="0 0 24 24" fill="none" xmlns="http://www.w3.org/2000/svg">
<path d="M18.475 13.3941C18.7708 13.6841 19.2456 13.6794 19.5356 13.3836C19.8255 13.0878 19.8208 12.613 19.525 12.323L18.475 13.3941ZM4.47497 12.323C4.17918 12.613 4.17446 13.0878 4.46443 13.3836C4.75439 13.6794 5.22924 13.6841 5.52503 13.3941L4.47497 12.323ZM1.49981 8.26062C1.19117 8.53686 1.1649 9.01101 1.44115 9.31965C1.71739 9.6283 2.19154 9.65456 2.50019 9.37832L1.49981 8.26062ZM21.4998 9.37832C21.8085 9.65456 22.2826 9.6283 22.5589 9.31965C22.8351 9.01101 22.8088 8.53686 22.5002 8.26062L21.4998 9.37832ZM7.89371 15.975C7.60374 16.2708 7.60846 16.7456 7.90425 17.0356C8.20004 17.3255 8.67489 17.3208 8.96486 17.025L7.89371 15.975ZM15.0351 17.025C15.3251 17.3208 15.8 17.3255 16.0957 17.0356C16.3915 16.7456 16.3963 16.2708 16.1063 15.975L15.0351 17.025ZM12 18.75C11.5858 18.75 11.25 19.0858 11.25 19.5C11.25 19.9142 11.5858 20.25 12 20.25V18.75ZM12.01 20.25C12.4242 20.25 12.76 19.9142 12.76 19.5C12.76 19.0858 12.4242 18.75 12.01 18.75V20.25ZM12 10.75C14.5213 10.75 16.8057 11.7578 18.475 13.3941L19.525 12.323C17.5868 10.4229 14.9296 9.25 12 9.25V10.75ZM5.52503 13.3941C7.19427 11.7578 9.4787 10.75 12 10.75V9.25C9.07039 9.25 6.41323 10.4229 4.47497 12.323L5.52503 13.3941ZM2.50019 9.37832C5.02178 7.12143 8.34984 5.75 12 5.75V4.25C7.96662 4.25 4.28579 5.7671 1.49981 8.26062L2.50019 9.37832ZM12 5.75C15.6502 5.75 18.9782 7.12143 21.4998 9.37832L22.5002 8.26062C19.7142 5.7671 16.0334 4.25 12 4.25V5.75ZM8.96486 17.025C9.73707 16.2373 10.811 15.75 12 15.75V14.25C10.3917 14.25 8.93642 14.9113 7.89371 15.975L8.96486 17.025ZM12 15.75C13.1891 15.75 14.2629 16.2373 15.0351 17.025L16.1063 15.975C15.0636 14.9113 13.6083 14.25 12 14.25V15.75ZM12 20.25H12.01V18.75H12V20.25Z" fill="#98A2B3"/>
</svg>
