<svg width="24" height="24" viewBox="0 0 24 24" fill="none" xmlns="http://www.w3.org/2000/svg">
<path d="M21.4998 9.37832C21.8085 9.65456 22.2826 9.6283 22.5589 9.31965C22.8351 9.01101 22.8088 8.53686 22.5002 8.26062L21.4998 9.37832ZM7.89371 15.975C7.60374 16.2708 7.60846 16.7456 7.90425 17.0356C8.20004 17.3255 8.67489 17.3208 8.96486 17.025L7.89371 15.975ZM15.0351 17.025C15.3251 17.3208 15.8 17.3255 16.0957 17.0356C16.3915 16.7456 16.3963 16.2708 16.1063 15.975L15.0351 17.025ZM12 18.75C11.5858 18.75 11.25 19.0858 11.25 19.5C11.25 19.9142 11.5858 20.25 12 20.25V18.75ZM12.01 20.25C12.4242 20.25 12.76 19.9142 12.76 19.5C12.76 19.0858 12.4242 18.75 12.01 18.75V20.25ZM10.5874 4.31254C10.1748 4.34923 9.87007 4.71345 9.90677 5.12603C9.94346 5.53862 10.3077 5.84333 10.7203 5.80664L10.5874 4.31254ZM17.2296 10.6057C16.8679 10.404 16.4111 10.5336 16.2093 10.8954C16.0075 11.2571 16.1372 11.7139 16.4989 11.9157L17.2296 10.6057ZM18.475 13.3941C18.7708 13.6841 19.2456 13.6794 19.5356 13.3836C19.8255 13.0878 19.8208 12.613 19.525 12.323L18.475 13.3941ZM4.47497 12.323C4.17918 12.613 4.17446 13.0878 4.46443 13.3836C4.75439 13.6794 5.22924 13.6841 5.52503 13.3941L4.47497 12.323ZM10.3009 10.9056C10.7082 10.83 10.9771 10.4386 10.9015 10.0313C10.8259 9.62407 10.4345 9.35518 10.0273 9.43075L10.3009 10.9056ZM1.49981 8.26062C1.19117 8.53686 1.1649 9.01101 1.44115 9.31965C1.71739 9.6283 2.19154 9.65456 2.50019 9.37832L1.49981 8.26062ZM6.46168 6.86607C6.84327 6.70495 7.022 6.26499 6.86089 5.8834C6.69977 5.50181 6.25981 5.32307 5.87822 5.48419L6.46168 6.86607ZM3.53033 2.46967C3.23744 2.17678 2.76256 2.17678 2.46967 2.46967C2.17678 2.76256 2.17678 3.23744 2.46967 3.53033L3.53033 2.46967ZM20.4697 21.5303C20.7626 21.8232 21.2374 21.8232 21.5303 21.5303C21.8232 21.2374 21.8232 20.7626 21.5303 20.4697L20.4697 21.5303ZM12 5.75C15.6502 5.75 18.9782 7.12143 21.4998 9.37832L22.5002 8.26062C19.7142 5.7671 16.0334 4.25 12 4.25V5.75ZM8.96486 17.025C9.73707 16.2373 10.811 15.75 12 15.75V14.25C10.3917 14.25 8.93642 14.9113 7.89371 15.975L8.96486 17.025ZM12 15.75C13.189 15.75 14.2629 16.2373 15.0351 17.025L16.1063 15.975C15.0636 14.9113 13.6083 14.25 12 14.25V15.75ZM12 20.25H12.01V18.75H12V20.25ZM10.7203 5.80664C11.1417 5.76916 11.5685 5.75 12 5.75V4.25C11.5241 4.25 11.0529 4.27113 10.5874 4.31254L10.7203 5.80664ZM16.4989 11.9157C17.2228 12.3195 17.8871 12.8178 18.475 13.3941L19.525 12.323C18.8426 11.6539 18.071 11.075 17.2296 10.6057L16.4989 11.9157ZM5.52503 13.3941C6.81045 12.134 8.46054 11.2471 10.3009 10.9056L10.0273 9.43075C7.88508 9.82824 5.96696 10.8604 4.47497 12.323L5.52503 13.3941ZM2.50019 9.37832C3.66478 8.33598 5.00137 7.48264 6.46168 6.86607L5.87822 5.48419C4.26318 6.1661 2.7861 7.10936 1.49981 8.26062L2.50019 9.37832ZM2.46967 3.53033L20.4697 21.5303L21.5303 20.4697L3.53033 2.46967L2.46967 3.53033Z" fill="#98A2B3"/>
</svg>
