<svg width="24" height="24" viewBox="0 0 24 24" fill="none" xmlns="http://www.w3.org/2000/svg">
<path d="M11.451 16.5996C11.7822 16.3508 11.8489 15.8807 11.6001 15.5495C11.3513 15.2183 10.8811 15.1516 10.55 15.4004L11.451 16.5996ZM11.8967 10.3003C12.0625 10.6798 12.5047 10.8531 12.8842 10.6873C13.2638 10.5214 13.4371 10.0793 13.2712 9.69972L11.8967 10.3003ZM8.75 10C8.75 9.58579 8.41421 9.25 8 9.25C7.58579 9.25 7.25 9.58579 7.25 10H8.75ZM7.25 11C7.25 11.4142 7.58579 11.75 8 11.75C8.41421 11.75 8.75 11.4142 8.75 11H7.25ZM8 13.25C7.58579 13.25 7.25 13.5858 7.25 14C7.25 14.4142 7.58579 14.75 8 14.75V13.25ZM8.01 14.75C8.42421 14.75 8.76 14.4142 8.76 14C8.76 13.5858 8.42421 13.25 8.01 13.25V14.75ZM16 9.25C15.5858 9.25 15.25 9.58579 15.25 10C15.25 10.4142 15.5858 10.75 16 10.75V9.25ZM17 4.25C16.5858 4.25 16.25 4.58579 16.25 5C16.25 5.41421 16.5858 5.75 17 5.75V4.25ZM11 12.25C10.5858 12.25 10.25 12.5858 10.25 13C10.25 13.4142 10.5858 13.75 11 13.75V12.25ZM16 18.25C15.5858 18.25 15.25 18.5858 15.25 19C15.25 19.4142 15.5858 19.75 16 19.75V18.25ZM8 16.25C5.65279 16.25 3.75 14.3472 3.75 12H2.25C2.25 15.1756 4.82436 17.75 8 17.75V16.25ZM3.75 12C3.75 9.65279 5.65279 7.75 8 7.75V6.25C4.82436 6.25 2.25 8.82436 2.25 12H3.75ZM10.55 15.4004C9.83967 15.9341 8.95781 16.25 8 16.25V17.75C9.29384 17.75 10.4898 17.3218 11.451 16.5996L10.55 15.4004ZM8 7.75C9.74161 7.75 11.2402 8.79769 11.8967 10.3003L13.2712 9.69972C12.3846 7.6705 10.359 6.25 8 6.25V7.75ZM7.25 10V11H8.75V10H7.25ZM8 14.75H8.01V13.25H8V14.75ZM16 10.75H18.5V9.25H16V10.75ZM18.5 4.25H17V5.75H18.5V4.25ZM21.75 7.5C21.75 5.70507 20.2949 4.25 18.5 4.25V5.75C19.4665 5.75 20.25 6.5335 20.25 7.5H21.75ZM18.5 10.75C20.2949 10.75 21.75 9.29493 21.75 7.5H20.25C20.25 8.4665 19.4665 9.25 18.5 9.25V10.75ZM11 13.75H18V12.25H11V13.75ZM18 18.25H16V19.75H18V18.25ZM20.25 16C20.25 17.2426 19.2426 18.25 18 18.25V19.75C20.0711 19.75 21.75 18.0711 21.75 16H20.25ZM18 13.75C19.2426 13.75 20.25 14.7574 20.25 16H21.75C21.75 13.9289 20.0711 12.25 18 12.25V13.75Z" fill="#98A2B3"/>
</svg>
