<svg width="272" height="308" viewBox="0 0 272 308" fill="none" xmlns="http://www.w3.org/2000/svg">
<g clip-path="url(#clip0_490_643)">
<mask id="mask0_490_643" style="mask-type:alpha" maskUnits="userSpaceOnUse" x="0" y="0" width="272" height="308">
<path d="M250 308H22C9.84974 308 0 298.15 0 286V22C0 9.84974 9.84974 0 22 0H170L272 102V286C272 298.15 262.15 308 250 308Z" fill="url(#paint0_linear_490_643)"/>
</mask>
<g mask="url(#mask0_490_643)">
<path d="M250 308H22C9.84974 308 0 298.15 0 286V22C0 9.84974 9.84974 0 22 0H170L272 102V286C272 298.15 262.15 308 250 308Z" fill="url(#paint1_linear_490_643)"/>
<g opacity="0.51" filter="url(#filter0_f_490_643)">
<g style="mix-blend-mode:darken" opacity="0.51">
<path d="M226 149H48V233H226V149Z" fill="#E33CC8"/>
</g>
</g>
<g opacity="0.12">
<path fill-rule="evenodd" clip-rule="evenodd" d="M79 125C74.5817 125 71 128.582 71 133V245C71 249.418 74.5817 253 79 253H191C195.418 253 199 249.418 199 245V133C199 128.582 195.418 125 191 125H79ZM55 133C55 119.745 65.7452 109 79 109H191C204.255 109 215 119.745 215 133V245C215 258.255 204.255 269 191 269H79C65.7452 269 55 258.255 55 245V133Z" fill="white"/>
<path fill-rule="evenodd" clip-rule="evenodd" d="M161.343 167.343C164.467 164.219 169.533 164.219 172.657 167.343L212.657 207.343C215.781 210.467 215.781 215.533 212.657 218.657C209.533 221.781 204.467 221.781 201.343 218.657L167 184.314L84.6569 266.657C81.5327 269.781 76.4673 269.781 73.3431 266.657C70.219 263.533 70.219 258.467 73.3431 255.343L161.343 167.343Z" fill="white"/>
<path fill-rule="evenodd" clip-rule="evenodd" d="M107 157C104.791 157 103 158.791 103 161C103 163.209 104.791 165 107 165C109.209 165 111 163.209 111 161C111 158.791 109.209 157 107 157ZM87 161C87 149.954 95.9543 141 107 141C118.046 141 127 149.954 127 161C127 172.046 118.046 181 107 181C95.9543 181 87 172.046 87 161Z" fill="white"/>
</g>
<mask id="mask1_490_643" style="mask-type:alpha" maskUnits="userSpaceOnUse" x="0" y="0" width="272" height="308">
<path d="M250 308H22C9.84974 308 0 298.15 0 286V22C0 9.84974 9.84974 0 22 0H170L272 102V286C272 298.15 262.15 308 250 308Z" fill="url(#paint2_linear_490_643)"/>
</mask>
<g mask="url(#mask1_490_643)">
<path opacity="0.08" d="M-14.5 194C108.936 194 209 97.9651 209 -20.5C209 -138.965 108.936 -235 -14.5 -235C-137.936 -235 -238 -138.965 -238 -20.5C-238 97.9651 -137.936 194 -14.5 194Z" fill="url(#paint3_linear_490_643)"/>
<path opacity="0.09" d="M-14.5 114C63.096 114 126 53.7823 126 -20.5C126 -94.7823 63.096 -155 -14.5 -155C-92.096 -155 -155 -94.7823 -155 -20.5C-155 53.7823 -92.096 114 -14.5 114Z" fill="url(#paint4_linear_490_643)"/>
<g filter="url(#filter1_d_490_643)">
<path d="M272 102H192C179.85 102 170 92.1503 170 80V0L272 102Z" fill="url(#paint5_linear_490_643)"/>
</g>
</g>
<path d="M68.328 227.672C67.624 227.672 66.664 227.64 65.448 227.576C64.232 227.512 62.984 227.352 61.704 227.096C60.424 226.84 59.336 226.456 58.44 225.944C57.608 225.368 57.192 224.632 57.192 223.736C57.192 223.352 57.288 222.552 57.48 221.336C57.736 220.056 58.088 218.872 58.536 217.784C59.048 216.696 59.72 216.12 60.552 216.056C61 216.056 61.64 216.216 62.472 216.536C63.368 216.792 64.584 216.92 66.12 216.92C69.64 216.92 72.168 216.088 73.704 214.424C75.24 212.696 76.008 209.976 76.008 206.264V162.392C76.008 160.472 77.704 159.512 81.096 159.512H83.592C86.984 159.512 88.68 160.472 88.68 162.392V207.512C88.68 211.544 87.976 215.096 86.568 218.168C85.224 221.176 83.048 223.512 80.04 225.176C77.096 226.84 73.192 227.672 68.328 227.672ZM107.913 227.192C104.521 227.192 102.825 226.264 102.825 224.408V163.352C102.825 160.984 103.977 159.8 106.281 159.8H126.249C128.297 159.8 130.601 160.056 133.161 160.568C135.785 161.016 138.249 161.944 140.553 163.352C142.921 164.696 144.841 166.712 146.313 169.4C147.785 172.088 148.521 175.64 148.521 180.056C148.521 183.704 147.945 186.776 146.793 189.272C145.705 191.704 144.265 193.688 142.473 195.224C140.745 196.696 138.889 197.848 136.905 198.68C134.921 199.448 133.065 199.992 131.337 200.312C129.609 200.568 128.233 200.696 127.209 200.696H115.401V224.408C115.401 226.264 113.705 227.192 110.313 227.192H107.913ZM115.401 189.848H126.153C127.049 189.848 128.041 189.72 129.129 189.464C130.281 189.208 131.337 188.728 132.297 188.024C133.257 187.32 134.057 186.328 134.697 185.048C135.337 183.768 135.657 182.104 135.657 180.056C135.657 177.432 135.113 175.448 134.025 174.104C132.937 172.76 131.625 171.832 130.089 171.32C128.617 170.808 127.145 170.552 125.673 170.552H115.401V189.848ZM185.991 227.672C175.687 227.672 167.943 224.888 162.759 219.32C157.639 213.752 155.079 205.144 155.079 193.496C155.079 181.848 157.767 173.208 163.143 167.576C168.519 161.944 176.423 159.128 186.855 159.128C189.031 159.128 191.271 159.288 193.575 159.608C195.879 159.928 198.023 160.408 200.007 161.048C201.991 161.624 203.591 162.296 204.807 163.064C206.023 163.832 206.631 164.664 206.631 165.56C206.631 166.328 206.311 167.352 205.671 168.632C205.095 169.848 204.391 170.936 203.559 171.896C202.791 172.856 202.055 173.336 201.351 173.336C201.031 173.336 200.295 173.048 199.143 172.472C197.991 171.896 196.391 171.32 194.343 170.744C192.295 170.168 189.735 169.88 186.663 169.88C182.247 169.88 178.663 170.776 175.911 172.568C173.159 174.36 171.143 176.984 169.863 180.44C168.647 183.896 168.039 188.152 168.039 193.208C168.039 196.856 168.359 200.152 168.999 203.096C169.703 206.04 170.759 208.536 172.167 210.584C173.639 212.632 175.527 214.2 177.831 215.288C180.135 216.376 182.919 216.92 186.183 216.92C188.551 216.92 190.727 216.792 192.711 216.536C194.695 216.216 196.647 215.8 198.567 215.288L195.399 220.856V201.368H185.991C184.263 201.368 183.399 199.992 183.399 197.24V194.744C183.399 191.992 184.263 190.616 185.991 190.616H204.519C206.887 190.616 208.071 191.768 208.071 194.072V220.376C208.071 221.912 207.303 223.16 205.767 224.12C204.295 225.08 202.407 225.816 200.103 226.328C197.799 226.84 195.399 227.192 192.903 227.384C190.407 227.576 188.103 227.672 185.991 227.672Z" fill="white"/>
</g>
</g>
<defs>
<filter id="filter0_f_490_643" x="9" y="110" width="256" height="162" filterUnits="userSpaceOnUse" color-interpolation-filters="sRGB">
<feFlood flood-opacity="0" result="BackgroundImageFix"/>
<feBlend mode="normal" in="SourceGraphic" in2="BackgroundImageFix" result="shape"/>
<feGaussianBlur stdDeviation="19.5" result="effect1_foregroundBlur_490_643"/>
</filter>
<filter id="filter1_d_490_643" x="147" y="-24" width="152" height="152" filterUnits="userSpaceOnUse" color-interpolation-filters="sRGB">
<feFlood flood-opacity="0" result="BackgroundImageFix"/>
<feColorMatrix in="SourceAlpha" type="matrix" values="0 0 0 0 0 0 0 0 0 0 0 0 0 0 0 0 0 0 127 0" result="hardAlpha"/>
<feOffset dx="2" dy="1"/>
<feGaussianBlur stdDeviation="12.5"/>
<feColorMatrix type="matrix" values="0 0 0 0 0 0 0 0 0 0 0 0 0 0 0 0 0 0 0.33 0"/>
<feBlend mode="normal" in2="BackgroundImageFix" result="effect1_dropShadow_490_643"/>
<feBlend mode="normal" in="SourceGraphic" in2="effect1_dropShadow_490_643" result="shape"/>
</filter>
<linearGradient id="paint0_linear_490_643" x1="136" y1="0" x2="136" y2="308" gradientUnits="userSpaceOnUse">
<stop stop-color="#FF7979"/>
<stop offset="1" stop-color="#E85555"/>
</linearGradient>
<linearGradient id="paint1_linear_490_643" x1="136" y1="0" x2="136" y2="308" gradientUnits="userSpaceOnUse">
<stop stop-color="#ED81FF"/>
<stop offset="1" stop-color="#DC5DD7"/>
</linearGradient>
<linearGradient id="paint2_linear_490_643" x1="136" y1="0" x2="136" y2="308" gradientUnits="userSpaceOnUse">
<stop stop-color="#ED81FF"/>
<stop offset="1" stop-color="#DC5DD7"/>
</linearGradient>
<linearGradient id="paint3_linear_490_643" x1="1.72772" y1="-13.1289" x2="69.5069" y2="166.758" gradientUnits="userSpaceOnUse">
<stop stop-color="white" stop-opacity="0"/>
<stop offset="1" stop-color="white"/>
</linearGradient>
<linearGradient id="paint4_linear_490_643" x1="-4.29868" y1="-15.878" x2="38.1204" y2="96.9892" gradientUnits="userSpaceOnUse">
<stop stop-color="white" stop-opacity="0"/>
<stop offset="1" stop-color="white"/>
</linearGradient>
<linearGradient id="paint5_linear_490_643" x1="192.5" y1="-32" x2="221" y2="102" gradientUnits="userSpaceOnUse">
<stop stop-color="#F171BE"/>
<stop offset="1" stop-color="#D823D1"/>
</linearGradient>
<clipPath id="clip0_490_643">
<rect width="272" height="308" fill="white"/>
</clipPath>
</defs>
</svg>
