<svg width="272" height="308" viewBox="0 0 272 308" fill="none" xmlns="http://www.w3.org/2000/svg">
<g clip-path="url(#clip0_490_569)">
<mask id="mask0_490_569" style="mask-type:alpha" maskUnits="userSpaceOnUse" x="0" y="0" width="272" height="308">
<path d="M250 308H22C9.84974 308 0 298.15 0 286V22C0 9.84974 9.84974 0 22 0H170L272 102V286C272 298.15 262.15 308 250 308Z" fill="url(#paint0_linear_490_569)"/>
</mask>
<g mask="url(#mask0_490_569)">
<path d="M250 308H22C9.84974 308 0 298.15 0 286V22C0 9.84974 9.84974 0 22 0H170L272 102V286C272 298.15 262.15 308 250 308Z" fill="url(#paint1_linear_490_569)"/>
<g opacity="0.26" filter="url(#filter0_f_490_569)">
<g style="mix-blend-mode:darken" opacity="0.26">
<path d="M226 149H48V233H226V149Z" fill="#E66000"/>
</g>
</g>
<mask id="mask1_490_569" style="mask-type:alpha" maskUnits="userSpaceOnUse" x="0" y="0" width="272" height="308">
<path d="M250 308H22C9.84974 308 0 298.15 0 286V22C0 9.84974 9.84974 0 22 0H170L272 102V286C272 298.15 262.15 308 250 308Z" fill="url(#paint2_linear_490_569)"/>
</mask>
<g mask="url(#mask1_490_569)">
<path opacity="0.04" d="M-14.5 202C108.936 202 209 105.965 209 -12.5C209 -130.965 108.936 -227 -14.5 -227C-137.936 -227 -238 -130.965 -238 -12.5C-238 105.965 -137.936 202 -14.5 202Z" fill="url(#paint3_linear_490_569)"/>
<path opacity="0.06" d="M-14.5 122C63.096 122 126 61.7823 126 -12.5C126 -86.7823 63.096 -147 -14.5 -147C-92.096 -147 -155 -86.7823 -155 -12.5C-155 61.7823 -92.096 122 -14.5 122Z" fill="url(#paint4_linear_490_569)"/>
<g filter="url(#filter1_d_490_569)">
<path d="M272 102H192C179.85 102 170 92.1503 170 80V0L272 102Z" fill="url(#paint5_linear_490_569)"/>
</g>
</g>
<g opacity="0.12">
<path fill-rule="evenodd" clip-rule="evenodd" d="M80 125C75.5817 125 72 128.582 72 133V245C72 249.418 75.5817 253 80 253H192C196.418 253 200 249.418 200 245V133C200 128.582 196.418 125 192 125H80ZM56 133C56 119.745 66.7452 109 80 109H192C205.255 109 216 119.745 216 133V245C216 258.255 205.255 269 192 269H80C66.7452 269 56 258.255 56 245V133Z" fill="white"/>
<path fill-rule="evenodd" clip-rule="evenodd" d="M162.343 167.343C165.467 164.219 170.533 164.219 173.657 167.343L213.657 207.343C216.781 210.467 216.781 215.533 213.657 218.657C210.533 221.781 205.467 221.781 202.343 218.657L168 184.314L85.6569 266.657C82.5327 269.781 77.4673 269.781 74.3431 266.657C71.219 263.533 71.219 258.467 74.3431 255.343L162.343 167.343Z" fill="white"/>
<path fill-rule="evenodd" clip-rule="evenodd" d="M108 157C105.791 157 104 158.791 104 161C104 163.209 105.791 165 108 165C110.209 165 112 163.209 112 161C112 158.791 110.209 157 108 157ZM88 161C88 149.954 96.9543 141 108 141C119.046 141 128 149.954 128 161C128 172.046 119.046 181 108 181C96.9543 181 88 172.046 88 161Z" fill="white"/>
</g>
<path d="M53.288 227.192C49.896 227.192 48.2 226.264 48.2 224.408V163.352C48.2 160.984 49.352 159.8 51.656 159.8H71.624C73.672 159.8 75.976 160.056 78.536 160.568C81.16 161.016 83.624 161.944 85.928 163.352C88.296 164.696 90.216 166.712 91.688 169.4C93.16 172.088 93.896 175.64 93.896 180.056C93.896 183.704 93.32 186.776 92.168 189.272C91.08 191.704 89.64 193.688 87.848 195.224C86.12 196.696 84.264 197.848 82.28 198.68C80.296 199.448 78.44 199.992 76.712 200.312C74.984 200.568 73.608 200.696 72.584 200.696H60.776V224.408C60.776 226.264 59.08 227.192 55.688 227.192H53.288ZM60.776 189.848H71.528C72.424 189.848 73.416 189.72 74.504 189.464C75.656 189.208 76.712 188.728 77.672 188.024C78.632 187.32 79.432 186.328 80.072 185.048C80.712 183.768 81.032 182.104 81.032 180.056C81.032 177.432 80.488 175.448 79.4 174.104C78.312 172.76 77 171.832 75.464 171.32C73.992 170.808 72.52 170.552 71.048 170.552H60.776V189.848ZM108.134 227.192C104.742 227.192 103.046 226.264 103.046 224.408V162.392C103.046 160.536 104.742 159.608 108.134 159.608H111.59C112.87 159.608 113.958 159.768 114.854 160.088C115.75 160.344 116.486 160.952 117.062 161.912L141.638 199.448C142.342 200.408 142.95 201.368 143.462 202.328C144.038 203.224 144.55 204.184 144.998 205.208L145.382 205.112C145.318 204.024 145.254 203.032 145.19 202.136C145.19 201.176 145.19 199.992 145.19 198.584V162.392C145.19 160.536 146.886 159.608 150.278 159.608H152.39C155.782 159.608 157.478 160.536 157.478 162.392V224.408C157.478 226.264 155.782 227.192 152.39 227.192H149.318C148.102 227.192 147.046 227.064 146.15 226.808C145.318 226.488 144.614 225.88 144.038 224.984L118.886 186.776C118.246 185.816 117.638 184.888 117.062 183.992C116.55 183.096 116.038 182.136 115.526 181.112L115.142 181.208C115.27 182.296 115.334 183.32 115.334 184.28C115.334 185.176 115.334 186.328 115.334 187.736V224.408C115.334 226.264 113.638 227.192 110.246 227.192H108.134ZM200.366 227.672C190.062 227.672 182.318 224.888 177.134 219.32C172.014 213.752 169.454 205.144 169.454 193.496C169.454 181.848 172.142 173.208 177.518 167.576C182.894 161.944 190.798 159.128 201.23 159.128C203.406 159.128 205.646 159.288 207.95 159.608C210.254 159.928 212.398 160.408 214.382 161.048C216.366 161.624 217.966 162.296 219.182 163.064C220.398 163.832 221.006 164.664 221.006 165.56C221.006 166.328 220.686 167.352 220.046 168.632C219.47 169.848 218.766 170.936 217.934 171.896C217.166 172.856 216.43 173.336 215.726 173.336C215.406 173.336 214.67 173.048 213.518 172.472C212.366 171.896 210.766 171.32 208.718 170.744C206.67 170.168 204.11 169.88 201.038 169.88C196.622 169.88 193.038 170.776 190.286 172.568C187.534 174.36 185.518 176.984 184.238 180.44C183.022 183.896 182.414 188.152 182.414 193.208C182.414 196.856 182.734 200.152 183.374 203.096C184.078 206.04 185.134 208.536 186.542 210.584C188.014 212.632 189.902 214.2 192.206 215.288C194.51 216.376 197.294 216.92 200.558 216.92C202.926 216.92 205.102 216.792 207.086 216.536C209.07 216.216 211.022 215.8 212.942 215.288L209.774 220.856V201.368H200.366C198.638 201.368 197.774 199.992 197.774 197.24V194.744C197.774 191.992 198.638 190.616 200.366 190.616H218.894C221.262 190.616 222.446 191.768 222.446 194.072V220.376C222.446 221.912 221.678 223.16 220.142 224.12C218.67 225.08 216.782 225.816 214.478 226.328C212.174 226.84 209.774 227.192 207.278 227.384C204.782 227.576 202.478 227.672 200.366 227.672Z" fill="white"/>
</g>
</g>
<defs>
<filter id="filter0_f_490_569" x="9" y="110" width="256" height="162" filterUnits="userSpaceOnUse" color-interpolation-filters="sRGB">
<feFlood flood-opacity="0" result="BackgroundImageFix"/>
<feBlend mode="normal" in="SourceGraphic" in2="BackgroundImageFix" result="shape"/>
<feGaussianBlur stdDeviation="19.5" result="effect1_foregroundBlur_490_569"/>
</filter>
<filter id="filter1_d_490_569" x="147" y="-24" width="152" height="152" filterUnits="userSpaceOnUse" color-interpolation-filters="sRGB">
<feFlood flood-opacity="0" result="BackgroundImageFix"/>
<feColorMatrix in="SourceAlpha" type="matrix" values="0 0 0 0 0 0 0 0 0 0 0 0 0 0 0 0 0 0 127 0" result="hardAlpha"/>
<feOffset dx="2" dy="1"/>
<feGaussianBlur stdDeviation="12.5"/>
<feColorMatrix type="matrix" values="0 0 0 0 0 0 0 0 0 0 0 0 0 0 0 0 0 0 0.33 0"/>
<feBlend mode="normal" in2="BackgroundImageFix" result="effect1_dropShadow_490_569"/>
<feBlend mode="normal" in="SourceGraphic" in2="effect1_dropShadow_490_569" result="shape"/>
</filter>
<linearGradient id="paint0_linear_490_569" x1="136" y1="0" x2="136" y2="308" gradientUnits="userSpaceOnUse">
<stop stop-color="#FF7979"/>
<stop offset="1" stop-color="#E85555"/>
</linearGradient>
<linearGradient id="paint1_linear_490_569" x1="136" y1="0" x2="136" y2="308" gradientUnits="userSpaceOnUse">
<stop stop-color="#FFA216"/>
<stop offset="1" stop-color="#EF8100"/>
</linearGradient>
<linearGradient id="paint2_linear_490_569" x1="136" y1="0" x2="136" y2="308" gradientUnits="userSpaceOnUse">
<stop stop-color="#FFA216"/>
<stop offset="1" stop-color="#EF8100"/>
</linearGradient>
<linearGradient id="paint3_linear_490_569" x1="1.7277" y1="-5.12888" x2="69.5069" y2="174.758" gradientUnits="userSpaceOnUse">
<stop stop-color="white" stop-opacity="0"/>
<stop offset="1" stop-color="white"/>
</linearGradient>
<linearGradient id="paint4_linear_490_569" x1="-4.29869" y1="-7.87801" x2="38.1204" y2="104.989" gradientUnits="userSpaceOnUse">
<stop stop-color="white" stop-opacity="0"/>
<stop offset="1" stop-color="white"/>
</linearGradient>
<linearGradient id="paint5_linear_490_569" x1="221" y1="0" x2="221" y2="102" gradientUnits="userSpaceOnUse">
<stop stop-color="#FF7A1B"/>
<stop offset="1" stop-color="#E86100"/>
</linearGradient>
<clipPath id="clip0_490_569">
<rect width="272" height="308" fill="white"/>
</clipPath>
</defs>
</svg>
