<svg width="272" height="308" viewBox="0 0 272 308" fill="none" xmlns="http://www.w3.org/2000/svg">
<g clip-path="url(#clip0_490_533)">
<mask id="mask0_490_533" style="mask-type:alpha" maskUnits="userSpaceOnUse" x="0" y="0" width="272" height="308">
<path d="M250 308H22C9.84974 308 0 298.15 0 286V22C0 9.84974 9.84974 0 22 0H170L272 102V286C272 298.15 262.15 308 250 308Z" fill="url(#paint0_linear_490_533)"/>
</mask>
<g mask="url(#mask0_490_533)">
<path d="M250 308H22C9.84974 308 0 298.15 0 286V22C0 9.84974 9.84974 0 22 0H170L272 102V286C272 298.15 262.15 308 250 308Z" fill="url(#paint1_linear_490_533)"/>
<g opacity="0.82" filter="url(#filter0_f_490_533)">
<g style="mix-blend-mode:darken" opacity="0.82">
<path d="M226 149H48V233H226V149Z" fill="#0F7D56" fill-opacity="0.27"/>
</g>
</g>
<path opacity="0.12" fill-rule="evenodd" clip-rule="evenodd" d="M98 163V127H47V163H98ZM35 175V163V123C35 118.582 38.5817 115 43 115H98H110H161H173H228C232.418 115 236 118.582 236 123V263C236 267.418 232.418 271 228 271H43C38.5817 271 35 267.418 35 263V223V211V175ZM47 211V175H98V211H47ZM47 223V259H98V223H47ZM110 259H161V223H110V259ZM173 259H224V223H173V259ZM224 211V175H173V211H224ZM224 163V127H173V163H224ZM161 127H110V163H161V127ZM161 175V211H110V175H161Z" fill="white"/>
<mask id="mask1_490_533" style="mask-type:alpha" maskUnits="userSpaceOnUse" x="0" y="0" width="272" height="308">
<path d="M250 308H22C9.84974 308 0 298.15 0 286V22C0 9.84974 9.84974 0 22 0H170L272 102V286C272 298.15 262.15 308 250 308Z" fill="url(#paint2_linear_490_533)"/>
</mask>
<g mask="url(#mask1_490_533)">
<path opacity="0.05" d="M-14.5 202C108.936 202 209 105.965 209 -12.5C209 -130.965 108.936 -227 -14.5 -227C-137.936 -227 -238 -130.965 -238 -12.5C-238 105.965 -137.936 202 -14.5 202Z" fill="url(#paint3_linear_490_533)"/>
<path opacity="0.07" d="M-14.5 122C63.096 122 126 61.7823 126 -12.5C126 -86.7823 63.096 -147 -14.5 -147C-92.096 -147 -155 -86.7823 -155 -12.5C-155 61.7823 -92.096 122 -14.5 122Z" fill="url(#paint4_linear_490_533)"/>
<g filter="url(#filter1_d_490_533)">
<path d="M272 102H192C179.85 102 170 92.1503 170 80V0L272 102Z" fill="url(#paint5_linear_490_533)"/>
</g>
</g>
<path d="M65.624 227.192C63.704 227.192 62.296 227.064 61.4 226.808C60.568 226.488 60.152 226.04 60.152 225.464C60.152 224.888 60.44 224.152 61.016 223.256L81.464 191.96L63.32 163.544C62.68 162.584 62.36 161.848 62.36 161.336C62.36 160.824 62.808 160.408 63.704 160.088C64.6 159.768 66.008 159.608 67.928 159.608H71C72.28 159.608 73.336 159.736 74.168 159.992C75.064 160.184 75.736 160.632 76.184 161.336L88.664 181.016L101.72 161.24C102.104 160.536 102.744 160.088 103.64 159.896C104.6 159.704 105.688 159.608 106.904 159.608H109.592C111.448 159.608 112.824 159.768 113.72 160.088C114.616 160.344 115.064 160.76 115.064 161.336C115.064 161.592 114.968 161.912 114.776 162.296C114.648 162.68 114.456 163.096 114.2 163.544L95.672 191.96L115.736 223.256C116.248 224.152 116.504 224.888 116.504 225.464C116.504 225.976 116.088 226.392 115.256 226.712C114.424 227.032 113.016 227.192 111.032 227.192H108.056C106.776 227.192 105.688 227.096 104.792 226.904C103.96 226.648 103.32 226.168 102.872 225.464L88.376 202.904L73.592 225.56C73.08 226.264 72.376 226.712 71.48 226.904C70.584 227.096 69.528 227.192 68.312 227.192H65.624ZM129.208 227C126.84 227 125.656 225.816 125.656 223.448V162.392C125.656 160.536 127.352 159.608 130.744 159.608H133.144C136.536 159.608 138.232 160.536 138.232 162.392V216.248H160.984C162.648 216.248 163.48 217.624 163.48 220.376V222.872C163.48 225.624 162.648 227 160.984 227H129.208ZM188.476 227.672C183.868 227.672 179.9 227.192 176.572 226.232C173.308 225.272 170.844 224.184 169.18 222.968C167.58 221.88 166.78 220.792 166.78 219.704C166.78 218.872 167.068 217.88 167.644 216.728C168.284 215.576 169.02 214.584 169.852 213.752C170.684 212.856 171.356 212.408 171.868 212.408C172.124 212.408 172.444 212.504 172.828 212.696C173.212 212.888 173.692 213.144 174.268 213.464C175.548 214.104 177.212 214.84 179.26 215.672C181.372 216.504 183.868 216.92 186.748 216.92C188.54 216.92 190.204 216.664 191.74 216.152C193.34 215.576 194.62 214.68 195.58 213.464C196.54 212.184 197.02 210.584 197.02 208.664C197.02 206.488 196.284 204.76 194.812 203.48C193.404 202.2 191.58 201.08 189.34 200.12C187.1 199.16 184.764 198.136 182.332 197.048C180.54 196.28 178.78 195.416 177.052 194.456C175.388 193.432 173.884 192.216 172.54 190.808C171.196 189.336 170.108 187.576 169.276 185.528C168.508 183.416 168.124 180.888 168.124 177.944C168.124 173.72 169.148 170.232 171.196 167.48C173.308 164.664 176.06 162.584 179.452 161.24C182.844 159.832 186.492 159.128 190.396 159.128C192.316 159.128 194.204 159.288 196.06 159.608C197.916 159.864 199.612 160.28 201.148 160.856C202.684 161.368 203.964 161.976 204.988 162.68C206.332 163.576 207.004 164.536 207.004 165.56C207.004 166.264 206.748 167.192 206.236 168.344C205.788 169.496 205.212 170.52 204.508 171.416C203.804 172.312 203.132 172.76 202.492 172.76C202.172 172.76 201.756 172.632 201.244 172.376C200.796 172.12 200.156 171.832 199.324 171.512C198.428 171.128 197.308 170.776 195.964 170.456C194.684 170.072 193.084 169.88 191.164 169.88C188.732 169.88 186.748 170.232 185.212 170.936C183.74 171.576 182.684 172.44 182.044 173.528C181.404 174.616 181.084 175.832 181.084 177.176C181.084 179.096 181.596 180.664 182.62 181.88C183.644 183.096 184.988 184.12 186.652 184.952C188.38 185.72 190.268 186.488 192.316 187.256C194.3 188.088 196.316 189.016 198.364 190.04C200.476 191 202.396 192.216 204.124 193.688C205.916 195.16 207.324 197.016 208.348 199.256C209.436 201.496 209.98 204.248 209.98 207.512C209.98 211.032 209.404 214.072 208.252 216.632C207.1 219.192 205.5 221.304 203.452 222.968C201.404 224.568 199.1 225.752 196.54 226.52C193.98 227.288 191.292 227.672 188.476 227.672Z" fill="white"/>
</g>
</g>
<defs>
<filter id="filter0_f_490_533" x="9" y="110" width="256" height="162" filterUnits="userSpaceOnUse" color-interpolation-filters="sRGB">
<feFlood flood-opacity="0" result="BackgroundImageFix"/>
<feBlend mode="normal" in="SourceGraphic" in2="BackgroundImageFix" result="shape"/>
<feGaussianBlur stdDeviation="19.5" result="effect1_foregroundBlur_490_533"/>
</filter>
<filter id="filter1_d_490_533" x="147" y="-24" width="152" height="152" filterUnits="userSpaceOnUse" color-interpolation-filters="sRGB">
<feFlood flood-opacity="0" result="BackgroundImageFix"/>
<feColorMatrix in="SourceAlpha" type="matrix" values="0 0 0 0 0 0 0 0 0 0 0 0 0 0 0 0 0 0 127 0" result="hardAlpha"/>
<feOffset dx="2" dy="1"/>
<feGaussianBlur stdDeviation="12.5"/>
<feColorMatrix type="matrix" values="0 0 0 0 0 0 0 0 0 0 0 0 0 0 0 0 0 0 0.33 0"/>
<feBlend mode="normal" in2="BackgroundImageFix" result="effect1_dropShadow_490_533"/>
<feBlend mode="normal" in="SourceGraphic" in2="effect1_dropShadow_490_533" result="shape"/>
</filter>
<linearGradient id="paint0_linear_490_533" x1="136" y1="0" x2="136" y2="308" gradientUnits="userSpaceOnUse">
<stop stop-color="#FF7979"/>
<stop offset="1" stop-color="#E85555"/>
</linearGradient>
<linearGradient id="paint1_linear_490_533" x1="136" y1="0" x2="136" y2="308" gradientUnits="userSpaceOnUse">
<stop offset="0.000265127" stop-color="#83CC70"/>
<stop offset="1" stop-color="#61A850"/>
</linearGradient>
<linearGradient id="paint2_linear_490_533" x1="136" y1="0" x2="136" y2="308" gradientUnits="userSpaceOnUse">
<stop offset="0.000265127" stop-color="#83CC70"/>
<stop offset="1" stop-color="#61A850"/>
</linearGradient>
<linearGradient id="paint3_linear_490_533" x1="1.7277" y1="-5.12888" x2="69.5069" y2="174.758" gradientUnits="userSpaceOnUse">
<stop stop-color="white" stop-opacity="0"/>
<stop offset="1" stop-color="white"/>
</linearGradient>
<linearGradient id="paint4_linear_490_533" x1="-4.29869" y1="-7.87801" x2="38.1204" y2="104.989" gradientUnits="userSpaceOnUse">
<stop stop-color="white" stop-opacity="0"/>
<stop offset="1" stop-color="white"/>
</linearGradient>
<linearGradient id="paint5_linear_490_533" x1="221" y1="0" x2="221" y2="102" gradientUnits="userSpaceOnUse">
<stop stop-color="#3FAF43"/>
<stop offset="1" stop-color="#0E8312"/>
</linearGradient>
<clipPath id="clip0_490_533">
<rect width="272" height="308" fill="white"/>
</clipPath>
</defs>
</svg>
